<svg xmlns="http://www.w3.org/2000/svg" width="859.737" height="495"><defs><clipPath id="clip-path"><path d="M0 26.053v327.892a26.053 26.053 0 0 0 7.63 18.422L122.633 487.37A26.053 26.053 0 0 0 141.054 495h223.683a26.053 26.053 0 0 0 26.053-26.053v-80.392a26.052 26.052 0 0 0-7.63-18.422L271.644 258.618a6.513 6.513 0 0 1 4.606-11.119h88.486a26.053 26.053 0 0 0 26.053-26.053v-80.393a26.052 26.052 0 0 0-7.63-18.422L268.156 7.631A26.053 26.053 0 0 0 249.735 0H26.053A26.053 26.053 0 0 0 0 26.053Z" style="fill:none"/></clipPath><style>.cls-3{fill:#ff9c4a}.cls-4{fill:#193787}.cls-5{fill:#44c6e6}</style></defs><g id="Layer_2" data-name="Layer 2"><g id="H"><g style="clip-path:url(#clip-path)"><path class="cls-3" d="M130.263 495 0 364.737V0h130.263v495z"/><path class="cls-4" d="m260.526 0 130.263 130.263V247.5H260.526V0zM260.526 247.5l130.263 130.263V495H260.526V247.5z"/><path class="cls-5" d="M130.263 0h130.263v78.158H130.263z"/><path class="cls-4" d="M130.263 416.842h130.263V495H130.263z"/><path class="cls-5" d="M130.263 208.421h130.263v78.158H130.263z"/><path style="fill:#13358c" d="M260.526 208.421h26.053v78.158h-26.053z"/></g><path class="cls-3" d="M588.135 493.097 476.578 382.405a25.81 25.81 0 0 1-7.63-18.32V26.052A26.053 26.053 0 0 1 495 0h78.158a26.053 26.053 0 0 1 26.053 26.053v462.432a6.498 6.498 0 0 1-11.076 4.612Z"/><path class="cls-4" d="m740.592 1.96 111.514 111.514a26.053 26.053 0 0 1 7.63 18.422v337.051A26.053 26.053 0 0 1 833.685 495h-78.158a26.053 26.053 0 0 1-26.052-26.053V6.566a6.513 6.513 0 0 1 11.118-4.606Z"/><path class="cls-5" d="M599.211 208.421h130.263v78.158H599.211z"/></g></g></svg>