<?xml version="1.0" encoding="UTF-8"?>
<!DOCTYPE svg PUBLIC "-//W3C//DTD SVG 1.1//EN" "http://www.w3.org/Graphics/SVG/1.1/DTD/svg11.dtd">
<svg xmlns="http://www.w3.org/2000/svg" version="1.1" width="600px" height="98px" style="shape-rendering:geometricPrecision; text-rendering:geometricPrecision; image-rendering:optimizeQuality; fill-rule:evenodd; clip-rule:evenodd" xmlns:xlink="http://www.w3.org/1999/xlink">
<g><path style="opacity:0.835" fill="#e67624" d="M 7.5,14.5 C 20.5043,14.3334 33.5043,14.5001 46.5,15C 59.2866,17.7156 64.1199,25.5489 61,38.5C 58.3331,45.0967 53.4997,49.2633 46.5,51C 53.8333,59 61.1667,67 68.5,75C 73.4669,74.466 75.4669,76.6327 74.5,81.5C 68.1579,81.6662 61.8246,81.4995 55.5,81C 48.2871,72.789 41.4538,64.289 35,55.5C 33.7365,53.393 31.9032,52.393 29.5,52.5C 29.1095,59.9209 29.6095,67.2542 31,74.5C 33.3806,75.435 35.8806,75.7683 38.5,75.5C 38.5,77.5 38.5,79.5 38.5,81.5C 28.1667,81.5 17.8333,81.5 7.5,81.5C 7.5,79.5 7.5,77.5 7.5,75.5C 9.85684,75.6633 12.1902,75.4966 14.5,75C 15.1905,73.9326 15.6905,72.7659 16,71.5C 16.6667,55.8333 16.6667,40.1667 16,24.5C 15.6824,22.9391 14.8491,21.7724 13.5,21C 11.5273,20.5045 9.5273,20.3379 7.5,20.5C 7.5,18.5 7.5,16.5 7.5,14.5 Z M 29.5,21.5 C 34.777,20.9312 39.777,21.7645 44.5,24C 51.673,39.6428 46.673,46.8095 29.5,45.5C 29.5,37.5 29.5,29.5 29.5,21.5 Z"/></g>
<g><path style="opacity:0.834" fill="#e67624" d="M 80.5,14.5 C 91.1667,14.5 101.833,14.5 112.5,14.5C 112.5,16.5 112.5,18.5 112.5,20.5C 108.987,19.8757 106.153,20.8757 104,23.5C 103.333,39.8333 103.333,56.1667 104,72.5C 104.374,73.4162 104.874,74.2496 105.5,75C 107.81,75.4966 110.143,75.6633 112.5,75.5C 112.5,77.5 112.5,79.5 112.5,81.5C 101.833,81.5 91.1667,81.5 80.5,81.5C 80.3398,79.8008 80.5065,78.1341 81,76.5C 83.405,75.7256 85.905,75.2256 88.5,75C 89.1905,73.9326 89.6905,72.7659 90,71.5C 90.6667,55.8333 90.6667,40.1667 90,24.5C 89.5348,23.0692 88.7014,21.9025 87.5,21C 85.1902,20.5034 82.8568,20.3367 80.5,20.5C 80.5,18.5 80.5,16.5 80.5,14.5 Z"/></g>
<g><path style="opacity:0.81" fill="#e67624" d="M 119.5,14.5 C 140.5,14.5 161.5,14.5 182.5,14.5C 182.5,20.8333 182.5,27.1667 182.5,33.5C 180.5,33.5 178.5,33.5 176.5,33.5C 177.586,24.753 173.753,20.753 165,21.5C 162.576,21.5296 160.243,21.8629 158,22.5C 157.333,38.5 157.333,54.5 158,70.5C 158.11,72.8483 159.277,74.3483 161.5,75C 163.81,75.4966 166.143,75.6633 168.5,75.5C 168.808,77.924 168.474,80.2573 167.5,82.5C 156.234,81.544 145.068,81.2107 134,81.5C 133.349,79.765 133.515,78.0983 134.5,76.5C 138.193,76.2066 141.36,74.8733 144,72.5C 144.5,55.5033 144.667,38.5033 144.5,21.5C 139.041,21.1033 133.708,21.6033 128.5,23C 126.648,26.2391 125.648,29.7391 125.5,33.5C 123.5,33.5 121.5,33.5 119.5,33.5C 119.5,27.1667 119.5,20.8333 119.5,14.5 Z"/></g>
<g><path style="opacity:0.38" fill="#000000" d="M 199.5,14.5 C 200.5,14.5 201.5,14.5 202.5,14.5C 202.5,36.8333 202.5,59.1667 202.5,81.5C 201.5,81.5 200.5,81.5 199.5,81.5C 199.5,59.1667 199.5,36.8333 199.5,14.5 Z"/></g>
<g><path style="opacity:0.633" fill="#000000" d="M 224.5,24.5 C 226.792,24.2436 228.959,24.5769 231,25.5C 232.803,31.2422 234.803,36.9089 237,42.5C 237.499,36.5092 237.666,30.5092 237.5,24.5C 241.167,25.8333 244.833,25.8333 248.5,24.5C 248.338,26.5273 248.505,28.5273 249,30.5C 252.61,29.046 255.443,30.046 257.5,33.5C 262.135,28.1861 266.635,28.1861 271,33.5C 271.483,32.552 271.649,31.552 271.5,30.5C 275.122,30.1317 278.622,30.1317 282,30.5C 282.494,28.8659 282.66,27.1992 282.5,25.5C 284.167,25.5 285.833,25.5 287.5,25.5C 287.5,27.1667 287.5,28.8333 287.5,30.5C 288.5,30.5 289.5,30.5 290.5,30.5C 290.5,31.8333 290.5,33.1667 290.5,34.5C 289.5,34.5 288.5,34.5 287.5,34.5C 287.738,38.5236 288.738,42.1902 290.5,45.5C 287.635,45.9452 285.135,45.2785 283,43.5C 282.667,40.5 282.333,37.5 282,34.5C 280.667,35.1667 279.333,35.8333 278,36.5C 277.502,39.4816 277.335,42.4816 277.5,45.5C 274.921,45.9167 272.754,45.25 271,43.5C 266.28,47.4439 261.78,47.1106 257.5,42.5C 253.248,47.0434 248.415,47.7101 243,44.5C 239.214,45.7948 235.38,45.7948 231.5,44.5C 230.032,41.5797 227.865,40.913 225,42.5C 224.517,43.448 224.351,44.448 224.5,45.5C 222.5,45.5 220.5,45.5 218.5,45.5C 220.5,38.5 222.5,31.5 224.5,24.5 Z M 227.5,33.5 C 228.776,34.3864 228.776,35.3864 227.5,36.5C 226.913,35.7666 226.913,34.7666 227.5,33.5 Z M 249.5,34.5 C 252.513,35.3559 253.18,37.1892 251.5,40C 250.552,40.4828 249.552,40.6495 248.5,40.5C 248.325,38.3792 248.659,36.3792 249.5,34.5 Z M 262.5,40.5 C 263.601,39.4017 264.934,39.235 266.5,40C 265.436,41.5106 264.103,41.6772 262.5,40.5 Z"/></g>
<g><path style="opacity:0.587" fill="#000000" d="M 301.5,24.5 C 303.5,24.5 305.5,24.5 307.5,24.5C 307.5,29.5 307.5,34.5 307.5,39.5C 309.5,39.5 311.5,39.5 313.5,39.5C 313.5,41.5 313.5,43.5 313.5,45.5C 311.5,45.5 309.5,45.5 307.5,45.5C 307.649,44.448 307.483,43.448 307,42.5C 302.193,47.9229 297.86,47.5896 294,41.5C 293.506,39.8659 293.34,38.1992 293.5,36.5C 295.167,36.5 296.833,36.5 298.5,36.5C 298.222,38.3464 298.889,39.6798 300.5,40.5C 301.495,35.2079 301.828,29.8746 301.5,24.5 Z"/></g>
<g><path style="opacity:0.635" fill="#000000" d="M 322.5,37.5 C 317.283,34.9532 316.283,31.1198 319.5,26C 324.363,23.6709 328.863,24.1709 333,27.5C 333.483,28.448 333.649,29.448 333.5,30.5C 341.435,30.2837 349.269,29.9504 357,29.5C 360.437,29.9426 362.104,31.9426 362,35.5C 363.911,30.582 367.411,28.7486 372.5,30C 374.667,30.8333 376.167,32.3333 377,34.5C 377.49,33.2068 377.657,31.8734 377.5,30.5C 381.185,30.1046 384.852,29.9379 388.5,30C 390.049,31.214 391.215,32.714 392,34.5C 395.545,28.7913 399.879,28.1246 405,32.5C 408.495,42.9902 404.995,47.1568 394.5,45C 393.299,44.0975 392.465,42.9308 392,41.5C 391.51,42.7932 391.343,44.1266 391.5,45.5C 389.833,45.5 388.167,45.5 386.5,45.5C 386.915,41.6249 386.415,37.9582 385,34.5C 384.333,35.1667 383.667,35.8333 383,36.5C 382.502,39.4816 382.335,42.4816 382.5,45.5C 380.833,45.5 379.167,45.5 377.5,45.5C 377.66,43.8008 377.494,42.1341 377,40.5C 372.202,48.3758 367.202,48.3758 362,40.5C 361.506,42.1341 361.34,43.8008 361.5,45.5C 359.833,45.5 358.167,45.5 356.5,45.5C 355.833,30.8333 355.167,30.8333 354.5,45.5C 352.5,45.5 350.5,45.5 348.5,45.5C 347.615,30.9492 346.615,30.9492 345.5,45.5C 341.833,45.5 338.167,45.5 334.5,45.5C 334.657,44.1266 334.49,42.7932 334,41.5C 329.124,47.7974 323.791,48.1307 318,42.5C 317.506,40.8659 317.34,39.1992 317.5,37.5C 319.167,37.5 320.833,37.5 322.5,37.5 Z M 323.5,29.5 C 325.665,29.1159 327.332,29.7826 328.5,31.5C 327.467,32.452 326.3,32.452 325,31.5C 323.97,31.1639 323.47,30.4972 323.5,29.5 Z M 333.5,31.5 C 334.613,32.9464 334.78,34.6131 334,36.5C 333.348,34.2769 331.848,33.1102 329.5,33C 331.058,32.79 332.391,32.29 333.5,31.5 Z M 368.5,34.5 C 373.402,36.0093 373.735,38.3426 369.5,41.5C 367.239,39.5165 366.906,37.1831 368.5,34.5 Z M 322.5,37.5 C 324.696,37.5652 326.696,38.2319 328.5,39.5C 325.754,40.9333 323.754,40.2666 322.5,37.5 Z M 397.5,40.5 C 398.251,39.4265 399.251,39.2599 400.5,40C 399.648,41.7284 398.648,41.895 397.5,40.5 Z"/></g>
<g><path style="opacity:0.433" fill="#000000" d="M 334.5,24.5 C 336.5,24.5 338.5,24.5 340.5,24.5C 340.5,26.1667 340.5,27.8333 340.5,29.5C 338.5,29.5 336.5,29.5 334.5,29.5C 334.5,27.8333 334.5,26.1667 334.5,24.5 Z"/></g>
<g><path style="opacity:0.623" fill="#000000" d="M 416.5,24.5 C 423.379,23.2511 427.379,25.9177 428.5,32.5C 426.396,32.7989 424.396,32.4656 422.5,31.5C 420.764,28.8953 418.931,28.8953 417,31.5C 415.195,34.1221 415.195,36.7887 417,39.5C 418.699,40.4061 420.533,40.7394 422.5,40.5C 422.5,39.5 422.5,38.5 422.5,37.5C 424.5,37.5 426.5,37.5 428.5,37.5C 429.119,31.3807 432.453,28.8807 438.5,30C 440,30.8333 441.167,32 442,33.5C 442.483,32.552 442.649,31.552 442.5,30.5C 445.551,30.6355 448.551,30.3022 451.5,29.5C 453.601,29.6316 455.101,30.6316 456,32.5C 457.825,30.5204 458.659,28.1871 458.5,25.5C 460.167,25.5 461.833,25.5 463.5,25.5C 463.556,28.394 464.39,31.0607 466,33.5C 470.381,28.1792 474.715,28.1792 479,33.5C 479.483,32.552 479.649,31.552 479.5,30.5C 482.881,30.5405 486.214,30.2071 489.5,29.5C 489.5,31.5 489.5,33.5 489.5,35.5C 488.178,35.33 487.011,35.6634 486,36.5C 485.502,39.4816 485.335,42.4816 485.5,45.5C 482.921,45.9167 480.754,45.25 479,43.5C 475,47.5 471,47.5 467,43.5C 464.879,45.4574 462.379,45.9574 459.5,45C 458.707,41.5894 458.207,38.0894 458,34.5C 457.501,38.1516 457.335,41.8183 457.5,45.5C 455.5,45.5 453.5,45.5 451.5,45.5C 451.915,41.6249 451.415,37.9582 450,34.5C 448.585,37.9582 448.085,41.6249 448.5,45.5C 445.921,45.9167 443.754,45.25 442,43.5C 436.752,47.5401 432.086,46.8734 428,41.5C 423.985,46.7203 419.152,47.5537 413.5,44C 407.84,36.4799 408.84,29.9799 416.5,24.5 Z M 463.5,34.5 C 464.376,34.3691 465.043,34.7025 465.5,35.5C 464.573,37.4905 464.406,39.4905 465,41.5C 463.648,39.4062 463.148,37.0728 463.5,34.5 Z M 433.5,40.5 C 434.601,39.4017 435.934,39.235 437.5,40C 436.318,41.7683 434.985,41.9349 433.5,40.5 Z M 470.5,40.5 C 471.601,39.4017 472.934,39.235 474.5,40C 473.318,41.7683 471.985,41.9349 470.5,40.5 Z"/></g>
<g><path style="opacity:0.614" fill="#000000" d="M 498.5,24.5 C 499.833,24.5 501.167,24.5 502.5,24.5C 502.859,26.7659 502.192,28.5993 500.5,30C 501.667,30.5 502.5,31.3333 503,32.5C 507.67,28.3669 512.004,28.7002 516,33.5C 516.483,32.552 516.649,31.552 516.5,30.5C 519.881,30.5405 523.214,30.2071 526.5,29.5C 526.5,31.5 526.5,33.5 526.5,35.5C 525.178,35.33 524.011,35.6634 523,36.5C 522.502,39.4816 522.335,42.4816 522.5,45.5C 520.5,45.5 518.5,45.5 516.5,45.5C 516.649,44.448 516.483,43.448 516,42.5C 512.264,46.8614 508.097,47.3614 503.5,44C 501.934,41.0696 501.1,37.9029 501,34.5C 500.501,38.1516 500.335,41.8183 500.5,45.5C 498.5,45.5 496.5,45.5 494.5,45.5C 494.891,40.9886 494.225,36.6553 492.5,32.5C 493.623,28.9974 495.623,26.3308 498.5,24.5 Z M 507.5,34.5 C 510.243,34.0772 511.576,35.2439 511.5,38C 509.876,42.6157 508.209,42.6157 506.5,38C 506.989,36.8615 507.322,35.6948 507.5,34.5 Z"/></g>
<g><path style="opacity:0.63" fill="#000000" d="M 218.5,50.5 C 223.5,49.5 225.5,51.5 224.5,56.5C 228.514,56.3345 232.514,56.5012 236.5,57C 237.701,57.9025 238.535,59.0692 239,60.5C 239.49,59.2068 239.657,57.8734 239.5,56.5C 242.249,56.7261 244.916,56.3928 247.5,55.5C 250.692,55.8611 252.859,57.5278 254,60.5C 257.738,55.3091 262.071,54.6425 267,58.5C 268.67,56.3017 270.67,55.9683 273,57.5C 273.93,62.7204 275.097,62.7204 276.5,57.5C 278.674,56.1068 280.507,56.4402 282,58.5C 283.648,56.9716 285.648,56.3049 288,56.5C 289.981,56.6292 291.647,57.2958 293,58.5C 294.669,56.8309 295.502,54.8309 295.5,52.5C 297.167,52.5 298.833,52.5 300.5,52.5C 300.275,54.7159 301.108,56.3826 303,57.5C 302.695,55.5568 302.695,53.5568 303,51.5C 304.699,50.5939 306.533,50.2606 308.5,50.5C 308.335,53.8499 308.502,57.1832 309,60.5C 313.274,54.5544 317.941,54.2211 323,59.5C 323.483,58.552 323.649,57.552 323.5,56.5C 327.884,56.1744 332.217,56.5078 336.5,57.5C 338.302,61.9636 338.968,66.6303 338.5,71.5C 336.5,71.5 334.5,71.5 332.5,71.5C 332.5,68.1667 332.5,64.8333 332.5,61.5C 331.5,61.5 330.5,61.5 329.5,61.5C 329.5,64.8333 329.5,68.1667 329.5,71.5C 327.5,71.5 325.5,71.5 323.5,71.5C 323.649,70.448 323.483,69.448 323,68.5C 317.949,73.9064 313.282,73.5731 309,67.5C 308.51,68.7932 308.343,70.1266 308.5,71.5C 304.486,71.6655 300.486,71.4988 296.5,71C 295.707,67.5894 295.207,64.0894 295,60.5C 294.501,64.1516 294.335,67.8183 294.5,71.5C 291.603,71.3187 288.77,71.6521 286,72.5C 280.182,71.1472 279.016,67.9805 282.5,63C 281.874,62.2496 281.374,61.4162 281,60.5C 279.722,64.1653 278.556,67.832 277.5,71.5C 275.5,71.5 273.5,71.5 271.5,71.5C 271.435,69.3043 270.768,67.3043 269.5,65.5C 265.586,73.3831 260.419,74.3831 254,68.5C 253.517,69.448 253.351,70.448 253.5,71.5C 251.5,71.5 249.5,71.5 247.5,71.5C 247.82,68.1016 247.487,64.7683 246.5,61.5C 245.914,61.7093 245.414,62.0426 245,62.5C 244.502,65.4816 244.335,68.4816 244.5,71.5C 240.833,71.5 237.167,71.5 233.5,71.5C 233.5,68.1667 233.5,64.8333 233.5,61.5C 232.5,61.5 231.5,61.5 230.5,61.5C 230.5,64.8333 230.5,68.1667 230.5,71.5C 226.5,71.5 222.5,71.5 218.5,71.5C 218.5,64.5 218.5,57.5 218.5,50.5 Z M 260.5,60.5 C 264.161,62.7493 264.327,65.0827 261,67.5C 257.88,65.5327 257.713,63.1993 260.5,60.5 Z M 300.5,60.5 C 301.725,61.1522 302.392,62.3189 302.5,64C 302.167,65.1667 301.833,66.3333 301.5,67.5C 300.526,65.2573 300.192,62.924 300.5,60.5 Z M 315.5,60.5 C 317.722,60.5587 318.722,61.7253 318.5,64C 317.009,68.5964 315.342,68.5964 313.5,64C 313.978,62.6974 314.645,61.5307 315.5,60.5 Z M 286.5,65.5 C 287.376,65.3691 288.043,65.7025 288.5,66.5C 286.192,67.8734 285.525,67.5401 286.5,65.5 Z"/></g>
<g><path style="opacity:0.663" fill="#000000" d="M 380.5,50.5 C 382.167,50.5 383.833,50.5 385.5,50.5C 385.5,57.5 385.5,64.5 385.5,71.5C 382.603,71.3187 379.77,71.6521 377,72.5C 373.599,72.3898 371.599,70.7231 371,67.5C 370.51,68.7932 370.343,70.1266 370.5,71.5C 368.833,71.5 367.167,71.5 365.5,71.5C 365.5,68.1667 365.5,64.8333 365.5,61.5C 364.178,61.33 363.011,61.6634 362,62.5C 361.502,65.4816 361.335,68.4816 361.5,71.5C 356.946,71.2546 352.446,71.5879 348,72.5C 344.198,72.4874 342.365,70.6541 342.5,67C 342.675,65.3419 343.342,64.0086 344.5,63C 342.083,61.3268 342.083,59.4935 344.5,57.5C 347.844,56.2429 351.177,56.2429 354.5,57.5C 355.327,61.4592 355.827,65.4592 356,69.5C 356.499,65.1794 356.666,60.8461 356.5,56.5C 359.448,56.7771 362.281,56.4438 365,55.5C 367.903,56.0686 369.903,57.7352 371,60.5C 372.548,56.953 375.048,55.6197 378.5,56.5C 379.295,54.5049 379.961,52.5049 380.5,50.5 Z M 377.5,60.5 C 378.947,61.1342 379.613,62.3009 379.5,64C 378.303,68.589 376.969,68.589 375.5,64C 375.978,62.6974 376.645,61.5307 377.5,60.5 Z M 348.5,65.5 C 349.376,65.3691 350.043,65.7025 350.5,66.5C 348.192,67.8734 347.525,67.5401 348.5,65.5 Z"/></g>
<g><path style="opacity:0.639" fill="#000000" d="M 406.5,56.5 C 409.448,56.7771 412.281,56.4438 415,55.5C 418.904,58.4658 421.071,57.4658 421.5,52.5C 423.167,52.5 424.833,52.5 426.5,52.5C 426.5,53.8333 426.5,55.1667 426.5,56.5C 430.5,56.5 434.5,56.5 438.5,56.5C 438.459,60.2434 439.126,60.4101 440.5,57C 442.101,56.7266 443.601,56.2266 445,55.5C 448.876,55.7103 451.21,57.7103 452,61.5C 452.494,59.8659 452.66,58.1992 452.5,56.5C 455.448,56.7771 458.281,56.4438 461,55.5C 463.903,56.0686 465.903,57.7352 467,60.5C 467.49,59.2068 467.657,57.8734 467.5,56.5C 470.5,56.5 473.5,56.5 476.5,56.5C 476.351,57.552 476.517,58.552 477,59.5C 481.579,54.5447 485.912,54.8781 490,60.5C 490.49,59.2068 490.657,57.8734 490.5,56.5C 493.448,56.7771 496.281,56.4438 499,55.5C 501.903,56.0686 503.903,57.7352 505,60.5C 506.312,57.4191 508.645,55.7524 512,55.5C 515.85,55.6807 518.183,57.6807 519,61.5C 519.494,59.8659 519.66,58.1992 519.5,56.5C 521.167,56.5 522.833,56.5 524.5,56.5C 524.085,60.3751 524.585,64.0418 526,67.5C 527.415,64.0418 527.915,60.3751 527.5,56.5C 533.093,56.1934 538.593,56.5268 544,57.5C 548.219,54.9699 551.885,55.6366 555,59.5C 555.498,56.5184 555.665,53.5184 555.5,50.5C 557.167,50.5 558.833,50.5 560.5,50.5C 560.5,52.5 560.5,54.5 560.5,56.5C 564.071,55.191 566.904,56.191 569,59.5C 570.22,56.9974 570.553,54.3308 570,51.5C 574.675,49.666 576.508,51.3327 575.5,56.5C 579.327,56.2099 582.994,56.2099 586.5,56.5C 592.123,60.5661 592.789,65.3994 588.5,71C 586.376,72.5822 584.21,72.7488 582,71.5C 581.506,73.1341 581.34,74.8008 581.5,76.5C 579.5,76.5 577.5,76.5 575.5,76.5C 575.5,74.8333 575.5,73.1667 575.5,71.5C 571.5,71.5 567.5,71.5 563.5,71.5C 563.82,68.1016 563.487,64.7683 562.5,61.5C 561.914,61.7093 561.414,62.0426 561,62.5C 560.502,65.4816 560.335,68.4816 560.5,71.5C 558.234,71.8588 556.401,71.1922 555,69.5C 552.192,72.4618 548.858,73.1285 545,71.5C 543.351,70.2139 542.185,68.5473 541.5,66.5C 542.025,65.8076 542.692,65.3076 543.5,65C 542.663,63.9887 542.33,62.8221 542.5,61.5C 541.5,61.5 540.5,61.5 539.5,61.5C 539.5,64.8333 539.5,68.1667 539.5,71.5C 534.456,71.2726 529.456,71.606 524.5,72.5C 521.571,72.0721 519.737,70.4054 519,67.5C 516.36,72.453 512.527,73.6197 507.5,71C 506.299,70.0975 505.465,68.9308 505,67.5C 504.51,68.7932 504.343,70.1266 504.5,71.5C 502.833,71.5 501.167,71.5 499.5,71.5C 499.665,68.4816 499.498,65.4816 499,62.5C 498,61.1667 497,61.1667 496,62.5C 495.502,65.4816 495.335,68.4816 495.5,71.5C 493.833,71.5 492.167,71.5 490.5,71.5C 490.541,67.7566 489.874,67.5899 488.5,71C 479.73,74.0798 475.064,70.9132 474.5,61.5C 473.808,62.0253 473.308,62.6919 473,63.5C 472.503,66.146 472.336,68.8127 472.5,71.5C 470.833,71.5 469.167,71.5 467.5,71.5C 467.549,66.4612 466.882,66.2945 465.5,71C 463.186,72.3983 460.853,72.565 458.5,71.5C 457.548,73.0453 457.215,74.712 457.5,76.5C 455.833,76.5 454.167,76.5 452.5,76.5C 452.664,73.8127 452.497,71.146 452,68.5C 448.985,72.543 445.152,73.3763 440.5,71C 438.282,68.2498 436.949,65.0832 436.5,61.5C 435.808,62.0253 435.308,62.6919 435,63.5C 434.503,66.146 434.336,68.8127 434.5,71.5C 430.445,71.8242 426.445,71.4909 422.5,70.5C 421.746,67.223 421.246,63.8897 421,60.5C 420.501,64.1516 420.335,67.8183 420.5,71.5C 418.833,71.5 417.167,71.5 415.5,71.5C 415.665,68.4816 415.498,65.4816 415,62.5C 414,61.1667 413,61.1667 412,62.5C 411.502,65.4816 411.335,68.4816 411.5,71.5C 404.5,71.5 397.5,71.5 390.5,71.5C 390.188,64.5778 390.521,57.7445 391.5,51C 396.167,50.3333 400.833,50.3333 405.5,51C 406.406,52.6995 406.739,54.5328 406.5,56.5 Z M 406.5,56.5 C 406.665,60.1817 406.499,63.8484 406,67.5C 402.943,66.5495 399.777,66.2161 396.5,66.5C 396.5,65.5 396.5,64.5 396.5,63.5C 399.5,63.5 402.5,63.5 405.5,63.5C 405.714,61.8561 405.38,60.3561 404.5,59C 401.774,58.8184 399.107,58.3184 396.5,57.5C 399.768,56.513 403.102,56.1796 406.5,56.5 Z M 426.5,60.5 C 427.5,60.5 428.5,60.5 429.5,60.5C 429.808,62.924 429.474,65.2573 428.5,67.5C 427.914,67.2907 427.414,66.9574 427,66.5C 426.505,64.5273 426.338,62.5273 426.5,60.5 Z M 459.5,60.5 C 462.963,62.7106 463.13,65.0439 460,67.5C 456.897,65.3633 456.73,63.03 459.5,60.5 Z M 582.5,60.5 C 585.917,62.4812 586.251,64.8146 583.5,67.5C 581.239,65.5165 580.906,63.1831 582.5,60.5 Z M 481.5,65.5 C 482.473,65.9867 483.473,66.4867 484.5,67C 482.843,67.7252 481.843,67.2252 481.5,65.5 Z"/></g>
</svg>
