<svg width="404" height="251" viewBox="0 0 404 251" fill="none" xmlns="http://www.w3.org/2000/svg">
<rect x="92.6329" y="4.56744" width="310.518" height="215.637" rx="5.85882" fill="#44C6E6"/>
<rect x="106.28" y="19.2773" width="285.102" height="188.943" rx="1.95294" fill="white"/>
<path d="M273.287 160.905L354.075 96.7705" stroke="#193787" stroke-width="6.34242" stroke-linecap="round"/>
<path d="M167.308 112.54L137.14 13.9004" stroke="#193787" stroke-width="6.34242" stroke-linecap="round"/>
<path d="M171.724 19.6423C172.524 12.6824 178.814 7.68866 185.774 8.4884L305.492 22.2449C312.452 23.0447 317.446 29.3351 316.646 36.2949L292.716 244.55L147.794 227.898L171.724 19.6423Z" fill="#FF9C4A"/>
<path d="M202.528 71.0619L200.537 88.3895" stroke="#193787" stroke-width="19.0273" stroke-linecap="round"/>
<path d="M273.594 80.0093L271.603 97.3369" stroke="#193787" stroke-width="19.0273" stroke-linecap="round"/>
<path fill-rule="evenodd" clip-rule="evenodd" d="M222.437 103.626C222.437 103.626 222.437 103.627 222.437 103.627C221.637 110.587 226.631 116.878 233.591 117.677C240.551 118.477 246.841 113.483 247.641 106.524C247.641 106.523 247.641 106.522 247.641 106.522L222.437 103.626Z" fill="#193787"/>
<path d="M133.68 10.2706L139.368 9.70315" stroke="#193787" stroke-width="19.0273" stroke-linecap="round"/>
<path d="M349.754 92.7246L354.117 97.0399" stroke="#193787" stroke-width="19.0273" stroke-linecap="round"/>
<path d="M25.8112 239.173L95.8855 208.706C96.622 208.386 97.4165 208.221 98.2196 208.221H397.337C400.57 208.221 403.191 210.842 403.191 214.075V230.341C403.191 231.844 402.613 233.289 401.576 234.378L388.051 248.579C386.946 249.739 385.414 250.395 383.812 250.395H28.1453C21.7965 250.395 19.9889 241.705 25.8112 239.173Z" fill="#44C6E6"/>
</svg>
