<svg width="162" height="57" fill="none" xmlns="http://www.w3.org/2000/svg"><path d="M19.3 30.358h4.281v23.054H19.3V30.358ZM7.377 53.412H3.096V30.358h4.281v23.054Zm12.252-9.88H7.015v-3.656H19.63v3.656Zm6.87 9.88 10.374-23.054h4.216l10.407 23.054h-4.479L38.092 32.63h1.712l-8.892 20.782h-4.413Zm4.775-5.335 1.153-3.36h12.45l1.152 3.36H31.274Zm33.504 5.665c-1.757 0-3.393-.286-4.908-.857a12.252 12.252 0 0 1-3.919-2.47 11.572 11.572 0 0 1-2.569-3.788c-.615-1.449-.922-3.03-.922-4.742 0-1.713.307-3.294.922-4.743.615-1.449 1.482-2.7 2.602-3.754a11.54 11.54 0 0 1 3.92-2.47c1.492-.593 3.128-.89 4.907-.89 1.888 0 3.611.33 5.17.988a10.09 10.09 0 0 1 3.953 2.866l-2.767 2.602c-.834-.9-1.767-1.57-2.8-2.01-1.031-.46-2.151-.691-3.359-.691-1.207 0-2.316.197-3.326.593a7.916 7.916 0 0 0-2.602 1.68 7.98 7.98 0 0 0-1.713 2.568c-.395.988-.592 2.075-.592 3.26 0 1.187.197 2.273.592 3.261a7.978 7.978 0 0 0 1.713 2.57 7.916 7.916 0 0 0 2.602 1.679c1.01.395 2.119.593 3.326.593 1.208 0 2.328-.22 3.36-.659 1.032-.46 1.965-1.153 2.8-2.075l2.766 2.635a10.546 10.546 0 0 1-3.953 2.865c-1.558.66-3.293.989-5.203.989Zm17.079-5.764-.231-5.072 12.087-12.548h4.809l-10.046 10.67-2.37 2.602-4.25 4.348Zm-3.82 5.434V30.358h4.28v23.054h-4.28Zm16.071 0-8.826-10.506 2.832-3.129 11 13.635h-5.006ZM2.854 25V3.745h9.96c2.55 0 4.493.506 5.83 1.519 1.335.991 2.003 2.327 2.003 4.008 0 1.133-.263 2.105-.79 2.915a5.405 5.405 0 0 1-2.124 1.852c-.871.425-1.822.637-2.855.637l.547-1.093c1.194 0 2.267.223 3.218.668.952.425 1.7 1.053 2.247 1.883.567.83.85 1.862.85 3.097 0 1.822-.698 3.239-2.095 4.25C18.25 24.495 16.174 25 13.421 25H2.854Zm3.947-3.097h6.377c1.478 0 2.611-.243 3.4-.729.79-.486 1.185-1.265 1.185-2.338 0-1.052-.395-1.822-1.184-2.307-.79-.507-1.923-.76-3.401-.76h-6.68v-3.066h5.89c1.377 0 2.43-.243 3.158-.73.75-.485 1.124-1.214 1.124-2.185 0-.992-.375-1.731-1.124-2.217-.728-.486-1.781-.729-3.158-.729H6.801v15.06ZM25.953 25V3.745h8.745c1.883 0 3.492.304 4.828.911 1.356.608 2.399 1.478 3.127 2.612.73 1.133 1.093 2.48 1.093 4.038 0 1.559-.364 2.905-1.093 4.038-.728 1.114-1.77 1.974-3.127 2.581-1.336.587-2.945.88-4.828.88h-6.559l1.762-1.79V25h-3.948Zm13.907 0-5.374-7.712h4.22L44.111 25H39.86Zm-9.96-7.56-1.76-1.883h6.376c1.74 0 3.046-.375 3.917-1.124.89-.749 1.336-1.791 1.336-3.127 0-1.356-.446-2.399-1.336-3.128-.87-.728-2.176-1.093-3.917-1.093h-6.377l1.762-1.943V17.44ZM48.163 25V3.745h3.947V25h-3.947Zm19.534.304c-1.62 0-3.128-.263-4.524-.79a11.298 11.298 0 0 1-3.614-2.277 10.67 10.67 0 0 1-2.368-3.492c-.567-1.336-.85-2.793-.85-4.372 0-1.58.283-3.037.85-4.373A10.127 10.127 0 0 1 59.59 6.54a10.639 10.639 0 0 1 3.613-2.277c1.376-.547 2.885-.82 4.524-.82 1.741 0 3.33.303 4.767.91a9.304 9.304 0 0 1 3.644 2.642l-2.55 2.399c-.77-.83-1.63-1.447-2.581-1.852-.952-.425-1.984-.638-3.098-.638-1.113 0-2.135.182-3.066.547a7.3 7.3 0 0 0-2.4 1.548 7.356 7.356 0 0 0-1.578 2.369c-.364.91-.547 1.913-.547 3.006 0 1.093.183 2.095.547 3.006.385.91.91 1.7 1.579 2.368a7.3 7.3 0 0 0 2.399 1.549c.93.364 1.953.546 3.066.546 1.114 0 2.146-.202 3.097-.607.952-.425 1.812-1.063 2.581-1.913l2.551 2.43a9.724 9.724 0 0 1-3.644 2.64c-1.437.608-3.036.912-4.797.912Zm15.745-5.314-.212-4.676L94.373 3.745h4.433l-9.26 9.838-2.187 2.399-3.917 4.008ZM79.92 25V3.745h3.947V25H79.92Zm14.818 0L86.6 15.314l2.612-2.885L99.353 25h-4.615Z" fill="#fff"/><path d="m124.634 53.012 10.406-15.226 10.569 15.238a2.15 2.15 0 0 0 1.766.924h10.758c1.752 0 2.768-1.985 1.743-3.407l-16.731-23.19 15.536-21.512c1.026-1.421.011-3.407-1.743-3.407h-9.984c-.704 0-1.364.344-1.765.922l-9.799 14.098-9.994-14.113a2.15 2.15 0 0 0-1.754-.907h-10.563c-1.749 0-2.766 1.976-1.749 3.398l15.652 21.903-16.539 22.804c-1.031 1.421-.016 3.411 1.739 3.411h10.678a2.15 2.15 0 0 0 1.774-.936Z" fill="url('#paint0_linear_126_930')" stroke="#fff" stroke-width="2.388"/><defs><linearGradient id="paint0_linear_126_930" x1="110.31" y1="14.93" x2="151.823" y2="33.608" gradientUnits="userSpaceOnUse"><stop offset=".052" stop-color="#7BF0BA"/><stop offset=".307" stop-color="#44D5D2"/><stop offset=".609" stop-color="#A380E6"/><stop offset=".917" stop-color="#FE9C4A"/></linearGradient></defs></svg>