<svg version="1.1" id="Layer_1" xmlns="http://www.w3.org/2000/svg" x="0" y="0" viewBox="0 0 365.8 242.6" style="enable-background:new 0 0 365.8 242.6" xml:space="preserve"><style>.st0{fill:#1e1a1b}.st2{fill:#fff}</style><path class="st0" d="M111.8 221c.7.2 1.4.5 2.1.7 1.7.7 3.3 1.6 4.7 2.8 4.4 4 3.6 11.2-1.3 14.3-2.4 1.5-5 2.1-7.8 2.4-1.1.1-2.4.2-3.5.2H87c-1.2 0-1.2.2-1.3-1.2 0-.6.3-.7.7-.8 1.1-.2 2.4-.4 3.5-.6 1.3-.3 1.4-.4 1.4-1.7v-30c0-1.8 0-1.8-1.8-2.2-1-.2-2-.4-3.1-.6-.7-.2-.8-.3-.8-1.4 0-.8.5-.7 1-.7h19.8c2.7 0 5.2.5 7.6 1.6 2.9 1.4 4.9 3.4 5.4 6.5.5 2.7-.3 4.9-2.1 7-1.3 1.5-3 2.4-4.8 3.1-.2.3-.5.3-.7.6zm-13.5 9.6v7.3c0 .7.2 1.1.9 1.2 3 .4 5.8.6 8.8 0 2.7-.6 4.8-1.9 5.6-4.6 1.7-5.3-.2-9.4-5.6-11.3l-1.2-.3c-2.5-.6-4.9-.5-7.4-.5-1.1 0-1.1 0-1.1 1.1v7.1zm0-18.1v6.8c0 .7.2 1 .9.9 1.5-.1 3.1 0 4.6-.1 1.5-.1 3.1-.3 4.5-.8 2.1-.8 3.7-2.2 4.4-4.4.4-1.5.5-2.9.3-4.5-.4-2.8-2-4.8-5-5.6-2.9-.8-5.7-.7-8.6-.3-.8.1-1 .5-1 1.3 0 2.3-.1 4.5-.1 6.7zM240.6 237.5c-.4.1-.5.5-.8.8-5 5.4-15.1 5.1-19.4-1.6-1.3-2.1-2.1-4.4-2.5-6.8-.7-5.1.1-9.9 3.9-13.9 3.7-4 8.5-5.6 14-4.7 1.8.3 3.4 1.2 4.7 2.3.4-.3.2-.7.2-1v-9.9c0-1.6-.2-1.9-1.8-2.4-1-.3-1.9-.6-3-.8-.4-.1-.5-.4-.5-.8s.1-.6.5-.7c3.4-.5 6.6-1.2 10-1.4 1.2-.1 1.2 0 1.1 1.1-.3 2.9-.3 5.8-.3 8.8V237.3c0 1.1.1 1.2 1.2 1.5.8.2 1.7.4 2.6.5.6.1.7.4.8 1 0 .6-.4.7-.8.7-3 .4-5.9.9-8.9 1.3-.7.1-1 0-.9-.8.1-1.1 0-2.2 0-3.4.1-.2.2-.4-.1-.6zm.2-12.1v-9.1c0-.5.1-1-.6-1.3-2.6-1.2-5.2-1.6-8-1.1-3.6.8-5.7 3.2-7.1 6.4-1.2 3-1.2 6.1-.7 9.2.2 1.6.7 3.1 1.6 4.5 2.9 4.6 9.7 5.6 13.9 2.1.5-.5.8-1 .8-1.6 0-3.1.1-6.1.1-9.1zM191 211.1v2.8c0 .9-.1 1.8.1 2.8.6-.1.7-.6.9-1 1.8-2.4 4.1-4.1 7.3-4.6 2.5-.4 4.8-.2 7.1.8 3 1.4 4.6 3.7 5.1 6.7.2 1.1.3 2.1.3 3.2v15.3c0 1.5.1 1.6 1.6 2 .7.2 1.4.4 2.1.5.8.1.7.6.7 1.1 0 .7-.5.6-.9.6h-13.4c-.4 0-.8.1-.8-.5 0-.5-.2-1.1.6-1.2.9-.2 1.9-.5 2.9-.6.8-.1 1.1-.5 1.1-1.4 0-5.4-.1-10.8-.1-16.2 0-1.1-.2-2-.6-3-.8-2.2-2.4-3.5-4.8-3.8-2.9-.4-5.4.3-7.6 2.3-1.2 1.2-1.9 2.4-1.8 4.2.1 5.3 0 10.6 0 15.9 0 1.6.1 1.6 1.7 2 .7.2 1.5.4 2.2.5.6.2.4.7.4 1.1s-.2.6-.6.6c-4.7 0-9.5.1-14.2-.1 0 0-.1 0-.1-.1-.2-1.4-.2-1.4 1.1-1.6.7-.2 1.3-.3 2-.5 1.2-.4 1.3-.5 1.3-1.7V217.3c0-1-.4-1.6-1.3-2-.8-.4-1.7-.7-2.6-1.1-.5-.2-.8-.5-.7-1.1 0-.6.4-.7.9-.8 2.5-.5 5-1.1 7.5-1.5 1.1.1 1.8.1 2.6.3zM88.1 160.7c.6-.2.7-.7 1-1.1 3.4-4.6 8.6-5.6 13.5-4.1 3.6 1.2 5.3 3.8 5.9 7.2.2 1 .2 2 .2 3.1v15.3c0 1.5.1 1.6 1.5 1.9.7.2 1.4.4 2.1.5.9.1.8.6.8 1.2 0 .5-.2.6-.6.6H99c-.4 0-.9.2-1-.5 0-.6-.1-1.1.8-1.2s1.7-.4 2.6-.6c1.2-.3 1.2-.4 1.2-1.6V171c0-1.9 0-3.9-.1-5.8 0-1.1-.3-2.1-.7-3.1-.9-2.2-2.7-3.4-5.1-3.6-3.7-.3-6.4 1.1-8.5 4.1-.3.5-.5 1-.5 1.6v17.2c0 1.2.2 1.4 1.3 1.6.8.2 1.6.5 2.5.6.8.1.7.6.7 1.1 0 .7-.4.6-.9.6H78c-.4 0-.9.2-.9-.5 0-.6-.1-1.1.8-1.2.8-.1 1.6-.3 2.5-.6 1.2-.3 1.4-.6 1.4-1.7v-19.5c0-1.4-.5-2.2-1.8-2.7-.7-.3-1.3-.6-2-.8-.5-.2-.8-.5-.7-1 0-.6.4-.7.8-.8 2.5-.5 5-1 7.5-1.6h.3c2-.2 1.9-.2 2 1.7.1 1.4 0 2.7.2 4.1zM340.6 160.7c.3-.5.6-.9 1-1.4 3.7-4.9 9.4-5.3 13.9-3.6 3.1 1.2 4.7 3.6 5.3 6.6.2 1 .3 2 .3 3v15.6c0 1.6.1 1.6 1.7 2 .7.2 1.4.4 2.1.5.8.1.6.7.6 1.2 0 .6-.4.5-.8.5h-13.4c-.4 0-.9.1-.9-.6 0-.5-.1-1 .7-1.1.8-.1 1.6-.3 2.5-.5 1.4-.3 1.5-.4 1.5-1.7v-8c0-2.7.1-5.5-.1-8.2 0-.2 0-.5-.1-.7-.6-4.8-4.5-7-9.4-5.4-1.4.5-2.8 1.3-3.8 2.3-1 1.1-1.5 2.1-1.5 3.7.1 5.3 0 10.7 0 16.1 0 1.6.1 1.7 1.7 2.1.7.2 1.3.4 2 .5.8.1.8.6.8 1.2 0 .3-.2.5-.5.5H330.5c-.9 0-1-.2-.9-1 0-.4.2-.6.6-.7.9-.2 1.8-.4 2.8-.6 1.1-.3 1.3-.5 1.3-1.6v-20c0-1.1-.4-1.7-1.4-2.2-.8-.4-1.6-.7-2.5-1-.5-.2-.7-.5-.7-1.1s.5-.6.9-.7c2.5-.5 5-1.1 7.5-1.6h.3c1.9-.2 1.9-.2 1.9 1.6v4.2c.1.1.2.1.3.1zM37.8 172c-.7 3.7-1.4 7.2-2.1 10.7-.1.8-.5 1.1-1.2 1.4-2.7 1-5.5 1.5-8.3 1.7-4.2.4-8.5.3-12.5-1.1-7.4-2.5-11.6-7.7-13.2-14.8-.9-4.4-.5-8.6 1.4-12.7 3.1-6.3 8.4-10 15.4-11.4 5.4-1.1 10.7-.8 15.9 1 .6.2 1.1.2 1.4-.4.1-.2.3-.5.5-.7.4-.3.8-.2 1.2-.2.5.1.3.5.3.8.2 3.9.5 7.8.7 11.5 0 .4.4 1-.4 1.1-1 .1-1.2 0-1.5-1-.5-2-1.1-4.2-1.9-6.1-.6-1.4-1.5-2.4-2.9-3-5.1-2.3-10.2-2.4-15.2.1-3 1.5-4.9 4-6 7-2.5 6.4-2.4 12.8.3 19.2.6 1.5 1.5 2.8 2.6 4.1 3.7 4.2 8.4 5.2 13.8 4 4.7-1.1 5.8-2 7.8-6.2.6-1.4 1.1-2.6 1.6-4.1.3-1.1.4-1.1 1.5-1.1.3.1.5.1.8.2zM179.5 239.1c.3 1.3.1 1.3-.9 1.7-1.7.8-3.6 1.3-5.5 1.3-2.5-.1-3.8-1.1-4.4-3.3l-.3-1.2c-.5 0-.6.5-.8.7-3.5 4-9 4.6-13 3.2-2.6-.9-4.1-2.6-4.6-5.1-.5-2.7.2-5 2.7-6.8 1.6-1.2 3.5-1.9 5.3-2.5 3-1 6.1-1.6 9.2-2.4 1.3-.4 1.3-.4 1.3-1.6 0-1.2 0-2.4-.2-3.6-.5-3.1-2.1-4.8-5.4-5.2-2.4-.3-4.6 0-6.6 1.1.2.7.6 1.1.9 1.6.6 1.2.9 2.3.4 3.6-.5 1.5-1.9 2.3-3.6 2.1-1.6-.2-2.7-1.3-2.9-2.8-.2-1.5.3-2.7 1.3-3.7 4.5-3.9 9.5-6 15.7-4.4 3.5.9 5.4 3.1 5.9 6.4.1 1 .2 1.8.2 2.8v14.3c0 .9.1 1.7.2 2.6.1.7.5 1 1.1 1.1 1.1.2 2.2.3 3.4.3.2-.3.4-.2.6-.2zm-11.3-12.9c-3.2 1-6.1 1.6-9 2.7-.9.4-1.7.9-2.4 1.6-1.5 1.6-1.7 3.3-1.1 5.1.6 1.7 1.9 2.5 3.8 2.8 3.4.5 6-.7 8.3-2.9.3-.3.4-.6.4-1v-8.3zM246.8 181.3c-.5.2-.6.6-.9.8-3.4 3.9-8.9 4.5-12.9 3.2-2.7-.9-4.2-2.6-4.7-5.2-.5-2.7.3-5 2.7-6.8 1.6-1.2 3.6-1.9 5.5-2.6 3-1 6.1-1.6 9.2-2.4 1.1-.3 1.1-.3 1.1-1.4 0-1.2.1-2.4-.1-3.6-.5-3.5-2.5-5.2-6-5.5-2-.2-4.1.2-6 1.2.1.7.6 1.1.9 1.6.7 1.2.9 2.3.5 3.6-.5 1.6-2 2.4-3.7 2.2-1.6-.2-2.7-1.3-2.9-2.9-.1-1.5.3-2.7 1.4-3.7 4.5-3.9 9.6-5.9 15.7-4.3 3.4.9 5.3 3 5.8 6.3.2 1 .2 1.9.2 2.9v14c0 1 0 1.9.2 2.9.1.6.4.9 1 1 1 .2 2.1.3 3.2.3.3 0 .7-.1.8.3.1.5.2 1-.4 1.3-.1 0-.2.1-.3.1-1.8.9-3.8 1.5-5.9 1.4-2.5-.1-3.7-1.1-4.3-3.2.1-.6 0-1-.1-1.5zm0-11.3c-3.5 1.2-7.1 1.6-10 3.3-.5.3-.9.7-1.3 1.1-1.4 1.5-1.6 3.2-1.1 5 .5 1.7 1.9 2.6 3.8 2.9 2.9.5 5.3-.4 7.5-2.1.9-.7 1.4-1.5 1.3-2.6-.1-.9 0-1.8 0-2.8-.2-1.5-.2-3-.2-4.8zM43.5 170.4c0-2.7.6-5.3 1.9-7.8 3.3-5.8 9.5-8.3 15.7-7.6 7.7.9 12.6 5.7 13.5 13 .5 3.9-.1 7.6-2.1 10.9-2.8 4.5-6.9 6.8-12.5 7-1.7.1-3.5 0-5.1-.5-6.3-1.6-10.6-6.5-11.2-12.8-.2-.7-.2-1.4-.2-2.2zm24.6.3c-.1-1.1-.1-2-.2-3.1-.3-2.6-1.1-5.2-2.9-7.4-3.3-4.2-9.3-4.1-12.5.2-.8 1.1-1.3 2.2-1.7 3.5-1 3.6-1.1 7.2-.4 10.8.4 2.1 1.2 4.1 2.5 5.9 3.6 4.9 10.2 4 12.9-.5.5-.9.9-1.7 1.2-2.7.9-2.2 1.1-4.4 1.1-6.7zM295.7 170.5c0-4.5 1.3-8.4 4.8-11.5 4.8-4.2 10.4-5 16.5-3.1 5.7 1.8 8.8 6 9.7 11.5.6 3.6.2 7.1-1.4 10.4-2.7 5.2-7.2 8-13.3 8.2-2 .1-4-.1-5.9-.8-5.6-1.7-8.7-5.6-9.9-11-.4-1.2-.5-2.5-.5-3.7zm24.7 1c.1-2.1-.1-4.2-.6-6.2s-1.3-3.9-2.8-5.5c-3.2-3.6-8.5-3.5-11.6 0-.9 1-1.5 2.1-1.9 3.4-1.5 4.9-1.5 9.7.3 14.5.5 1.4 1.2 2.6 2.2 3.7 3.2 3.3 8.3 3.2 11.3-.2.9-1.1 1.5-2.2 1.9-3.6.8-2 1-4 1.2-6.1zM179.1 168.1c-3-.1-6-.1-9-.2-1.1 0-1.1 0-1.1 1.1 0 1.6.2 3.4.6 4.9 1.3 5.1 5.4 8.1 11.1 7.8 2.9-.1 5.2-1.2 7.2-3.1l.3-.3c.2-.2.4-.6.8-.3.3.2.3.5.1.9-1.6 3-4 5.3-7.5 6.3-7.3 2-14.6-.5-17.4-8.1-1.7-4.7-1.7-9.4.3-14 3.2-6.9 10.2-9.3 16.8-8 5.8 1.2 9 5.9 8.1 11.5-.3 1.7-.3 1.6-2.1 1.6-2.8.1-8.2 0-8.2-.1zm-9.8-2.1c.3 0 .5.1.7.1 4-.1 8.1-.3 12.1-.5h.6c.5 0 .7-.3.8-.8.3-1.6.1-3.1-.5-4.6-.8-2-2.5-3.1-4.7-3.2-2.8-.2-4.9.9-6.6 3-1.5 1.8-2.1 3.8-2.4 6zM135.1 156.5c.2-.4.4-.6.5-.9.2-.7.7-.8 1.3-.8.5 0 .7.2.7.7v8.2c0 .4.1.9-.6.9-.6 0-1.2.2-1.3-.7-.2-1.4-.7-2.6-1.3-3.8-1.8-3.5-7.6-4.3-10.2-1.3-2.4 2.6-1.3 6.9 2 8.2 2 .8 4.2 1.6 6.3 2.3 1 .4 2 .9 3 1.5 5.4 3.6 4.1 10 .2 12.8-1.9 1.4-4.1 2.1-6.5 2.2-3.2.2-6.2.1-9.2-1.4-.6-.3-.7.1-.9.5-.5.9-.8 1.1-1.6 1-.3 0-.5-.2-.5-.5v-.3l-.3-9.3c0-.4-.2-.9.5-.9.5 0 1.2-.2 1.4.6.4 1.6 1 3.1 1.8 4.6 1.4 2.5 4.1 4 7.2 3.7.2 0 .5-.1.7-.1 4-.5 5.9-3.7 4.3-7.2-.5-1.2-1.5-1.9-2.8-2.3-1.8-.7-3.7-1.4-5.5-2-1.2-.4-2.4-1-3.4-1.6-4.7-3.2-5-9.4-.5-13 2.9-2.2 6.2-2.9 9.9-2.5 1.7 0 3.3.6 4.8 1.4zM274.5 212.6c.6-.8.8-2.1 2.5-1.5.2.9.1 1.8.1 2.8v5.6c0 1.1 0 1.1-1.1 1.1-.2 0-.4 0-.6-.1-.3-1.6-.7-3.1-1.5-4.5-1.4-2.6-5.4-3.9-8.4-2.4-3.1 1.5-3.7 4.6-2.5 7.3.5 1.2 1.5 1.8 2.7 2.2 2 .8 4.2 1.6 6.3 2.3 1.2.5 2.4 1 3.4 1.7 4.9 3.5 3.7 9.3.8 11.8-2 1.8-4.5 2.8-7.3 3-3.4.3-6.6 0-9.8-1.6-.6.9-.8 2.2-2.6 1.5-.2-2-.2-4.2-.3-6.3 0-1.2-.1-2.4-.1-3.6 0-.4-.2-.9.5-1 .8-.1 1.2 0 1.4.8.5 1.5 1.1 2.8 1.7 4.2 1.6 3.8 6.3 4.7 9.4 3.6 2-.7 3.3-2 3.4-4.2.2-2.3-.7-4.1-2.8-4.9-1.8-.8-3.8-1.5-5.7-2.1-1.3-.5-2.6-1.1-3.8-1.8-5-3.4-4.4-10-.2-13 4.1-2.9 8.6-3.1 13.2-1.5.4.1.8.4 1.3.6zM202 160.7V181c0 1.6.1 1.7 1.7 2.2.6.2 1.3.4 2 .5.8.1.7.6.7 1.1 0 .7-.5.6-.9.6h-13.3c-.4 0-.9.2-.9-.5 0-.6-.1-1.1.8-1.2.8-.1 1.5-.3 2.2-.5 1.2-.3 1.4-.5 1.4-1.7v-33.4c0-2.7-.1-2.8-2.7-3.8-.4-.1-.7-.3-1.1-.4-.6-.2-.5-.6-.5-1 0-.5.4-.6.8-.7 2.6-.5 5.2-1 7.8-1.4 2.1-.3 2.2-.2 2 1.8-.2 6.2 0 12.5 0 18.1zM221 160.4V181c0 1.6.1 1.7 1.6 2.1.7.2 1.4.4 2.1.5.8.1.6.7.6 1.2 0 .6-.4.5-.8.5h-13.4c-.4 0-.8.1-.8-.5 0-.5-.3-1.1.6-1.2.8-.1 1.6-.4 2.5-.6 1.3-.4 1.4-.5 1.4-1.8v-34.9c0-.8-.4-1.4-1.1-1.6-.8-.4-1.6-.7-2.5-1-.5-.2-.8-.4-.8-1s.4-.6.9-.7c2.6-.5 5.1-.9 7.7-1.4h.1c2-.3 2.1-.2 2 1.7-.3 6.5.1 12.8-.1 18.1zM135.9 217.1c1.1-1.6 2.1-3.1 3.7-4.3 1.4-1.1 2.9-1.7 4.7-1.7.6 0 1.1.1 1.7.3 2.1.9 2.9 2.6 1.8 4.6-.3.7-.8 1.2-1.3 1.6-1.1 1-1.1 1-2-.2-.7-.9-1.6-1.3-2.9-1.2-1.5.1-2.9.7-4.1 1.6-1.1.8-1.8 1.7-1.7 3.3.1 5.3 0 10.7 0 16.1 0 1.5.1 1.6 1.6 1.9 1.5.3 3 .6 4.5.7.7.1.7.5.7 1 0 .6-.4.7-.8.7h-15.9c-.4 0-.8 0-.8-.6 0-.5-.1-1 .6-1.1.9-.2 1.8-.4 2.8-.6 1.2-.3 1.2-.4 1.2-1.6v-20.1c0-1.1-.5-1.7-1.4-2.2-.8-.4-1.6-.7-2.5-1-.6-.2-.6-.6-.6-1.1 0-.6.4-.6.8-.7 2.5-.5 5-1.1 7.5-1.6 2.2-.4 2.4-.3 2.4 1.9v4.3zM160.8 159.3h-8.7c-.5 0-.7.2-.7.7v16.2c0 1 0 1.8.2 2.8.3 1.9 1.3 2.9 3.4 3.4 2.4.5 4.5.1 6.4-1.3.3-.2.5-.7.9-.2.4.4.2.8-.1 1.1-1.7 2.3-4.1 3.6-6.9 4-1.6.2-3.3.2-4.8-.3-2.8-.9-4.4-2.7-4.8-5.4-.1-.9-.2-1.6-.2-2.5v-17.6c0-.5-.2-.7-.7-.7h-2c-.6 0-.8-.1-.8-.8 0-1.3-.1-1.4 1.2-1.7 2.1-.6 3.6-1.8 4.2-3.9.4-1.4 1-2.7 1.6-4.1.3-.9 1.3-1.3 2.1-.9.4.2.3.6.3.9V155.6c0 1.1 0 1.1 1.1 1.1h7.2c1 0 1 0 1 1 .1.4.1.9.1 1.6zM276.1 159.3h-7.8c-1.7 0-1.6-.2-1.6 1.6v15c0 1 0 1.9.2 2.9.3 1.9 1.3 3 3.4 3.4 2.4.5 4.6.1 6.5-1.4.2-.2.4-.6.8-.2.3.3.3.6 0 1-.2.2-.3.5-.5.7-1.6 1.9-3.8 3.1-6.3 3.4-1.6.2-3.3.2-4.8-.3-2.9-.9-4.5-2.7-5-5.4-.1-.9-.2-1.6-.2-2.5v-17.6c0-.5-.2-.7-.7-.7h-2.2c-.6 0-.7-.2-.7-.8 0-1.4-.1-1.4 1.2-1.7 2.1-.6 3.6-1.8 4.2-3.9.5-1.5 1.1-2.9 1.7-4.3.2-.6 1.7-1.1 2.2-.6.3.2.2.6.2 1v6.3c0 1.3 0 1.3 1.2 1.3h7.2c.7 0 1 .2.9.9.1.6.1 1.2.1 1.9zM290.1 168.6v12.1c0 1.8 0 1.8 1.9 2.3.7.2 1.3.4 2 .5.8.1.6.7.6 1.2 0 .6-.5.5-.8.5h-13.4c-.4 0-.9.1-.9-.6 0-.5-.1-1 .7-1.1.9-.1 1.7-.3 2.6-.6 1.1-.3 1.3-.6 1.3-1.6v-20c0-1.2-.5-1.8-1.5-2.2-.8-.3-1.6-.7-2.5-1-.5-.2-.5-.6-.6-1 0-.5.2-.6.7-.7 2.6-.5 5.1-1.1 7.8-1.6 2.1-.4 2.1-.3 2.1 1.7v12.1zM283.4 144.6c0-2.1 1.7-4 3.9-4 2.1 0 3.9 1.8 3.8 4 0 2.1-1.7 3.9-3.8 3.9-2.3 0-4-1.7-3.9-3.9z"/><linearGradient id="SVGID_1_" gradientUnits="userSpaceOnUse" x1="121.005" y1="184.415" x2="244.281" y2="184.415" gradientTransform="matrix(1 0 0 -1 0 244.84)"><stop offset="0" style="stop-color:#0174bd"/><stop offset=".515" style="stop-color:#00407e"/><stop offset="1" style="stop-color:#00225c"/></linearGradient><path d="M242.6 1.8c-40 0-79.9.1-120 .1-1.9 0-1.6-.2-1.6 1.6v94.8c2.7-4.7 5.5-9.1 8.7-13.3 3.3-4.2 6.7-8.2 10.6-11.8 3.9-3.7 8.1-6.9 12.5-10 2.5-1.7 12.1-7.9 13.9-8 0 .5-.5.7-.8.9-1.4 1.2-3 2.3-4.4 3.5-15.9 13.7-26.7 30.2-31.6 50.2-.6 2.6-1.1 5.2-1.5 8-.2 1.4-.2 1.4 1.3 1.4h4.7c1 0 1.1 0 1.2-1 .6-4.8 1.7-9.5 3-14.2.6-2.3 1.4-4.7 2.4-6.9 2.7-6.7 5.9-13.1 9.9-19 1.4-2.2 3.1-4.3 4.6-6.4 1-1.5 2.4-2.6 3.6-3.9 2.7-2.9 5.5-5.7 8.6-8.3 1.5-1.3 3.1-2.7 4.7-3.8 4.2-3 8.5-5.9 13.1-8.3 2.4-1.2 4.7-2.5 7.1-3.6 2.4-1.1 4.9-2 7.4-2.9.6-.4 1.2-.8 1.9-.7-.1.1-.1.2-.2.2-.4.3-.8.5-1.2.8-16.1 9.7-28.8 22.5-37.1 38.9-6 11.7-9.1 24.3-9.8 37.3-.1 2.1-.2 1.7 1.8 1.7h88c.7.1 1.1-.1 1-.9V3.5c-.1-1.9.2-1.7-1.8-1.7zm-17.5 33.8c1.7 2.9 3.5 5.8 5.2 8.7.1.4.4.8.5 1.3-.5.3-.9-.1-1.3-.3-3.5-1.6-7.1-3.1-10.5-4.7-1.1-.5-1.1-.5-1.9.4-2.9 3-5.8 6-8.9 9.3-.1-1.6.3-2.8.4-4.2.3-2.8.7-5.6 1.1-8.4.1-.9-.1-1.3-.9-1.6-1.8-.7-3.8-1.5-5.6-2.1-2.1-.9-4.3-1.8-6.5-3.1 4.4-.8 8.7-1.6 12.9-2.4 1.3-.3 1.3-.2 1.5-1.6.5-3.9.9-7.8 1.3-11.6 0-.2 0-.3.1-.7.5.4.7.8.9 1.2 1.8 3.1 3.7 6.2 5.5 9.4.8 1.3.8 1.4 2.4 1 3.8-.8 7.5-1.5 11.2-2.2.2 0 .5-.1.7-.1l.3.3c-2.7 2.8-5.4 5.5-8.1 8.3-1.7 1.7-1.6.9-.3 3.1z" style="fill:url(#SVGID_1_)"/><path class="st0" d="M287.3 140.6c-2.1 0-3.9 1.8-3.9 4s1.6 3.9 3.9 3.9c2 0 3.8-1.7 3.8-3.9s-1.8-4-3.8-4z"/><path class="st2" d="M121 121.3V97.1c0 .4 5.5-8 8.7-12.1 3.3-4.2 6.7-8.2 10.6-11.8 3.9-3.7 8.1-6.9 12.5-10 2.5-1.7 12.1-7.9 13.9-8 0 .5-.5.7-.8.9-1.4 1.2-3 2.3-4.4 3.5-15.9 13.7-26.7 30.2-31.6 50.2-.6 2.6-1.1 5.2-1.5 8-.2 1.4-.2 1.4 1.3 1.4h4.7c1 0 1.1 0 1.2-1 .6-4.8 1.7-9.5 3-14.2.6-2.3 1.4-4.7 2.4-6.9 2.7-6.7 5.9-13.1 9.9-19 1.4-2.2 3.1-4.3 4.6-6.4 1-1.5 2.4-2.6 3.6-3.9 2.7-2.9 5.5-5.7 8.6-8.3 1.5-1.3 3.1-2.7 4.7-3.8 4.2-3 8.5-5.9 13.1-8.3 2.4-1.2 4.7-2.5 7.1-3.6 2.4-1.1 4.9-2 7.4-2.9.6-.4 1.2-.8 1.9-.7-.1.1-.1.2-.2.2-.4.3-.8.5-1.2.8-16.1 9.7-28.8 22.5-37.1 38.9-6 11.7-9.1 24.3-9.8 37.3v2.4m71.5-84.2c1.7 2.9 3.5 5.8 5.2 8.7.1.4.4.8.5 1.3-.5.3-.9-.1-1.3-.3-3.5-1.6-7.1-3.1-10.5-4.7-1.1-.5-1.1-.5-1.9.4-2.9 3-5.8 6-8.9 9.3-.1-1.6.3-2.8.4-4.2.3-2.8.7-5.6 1.1-8.4.1-.9-.1-1.3-.9-1.6-1.8-.7-3.8-1.5-5.6-2.1-2.1-.9-4.3-1.8-6.5-3.1 4.4-.8 8.7-1.6 12.9-2.4 1.3-.3 1.3-.2 1.5-1.6.5-3.9.9-7.8 1.3-11.6 0-.2 0-.3.1-.7.5.4.7.8.9 1.2 1.8 3.1 3.7 6.2 5.5 9.4.8 1.3.8 1.4 2.4 1 3.8-.8 7.5-1.5 11.2-2.2.2 0 .5-.1.7-.1l.3.3c-2.7 2.8-5.4 5.5-8.1 8.3-1.7 1.7-1.6.9-.3 3.1z"/><path class="st2" d="M168.1 54.2c-.4.3-.7.8-1.5 1 .4-.8 1-.8 1.5-1z"/><path class="st2" d="M118.6 0v121.6h128.9V0H118.6zm125.8 118.7H121.7V2.9h122.6v115.8z"/></svg>