<svg width="135" height="135" fill="none" xmlns="http://www.w3.org/2000/svg"><circle cx="67.5" cy="67.5" r="65.5" fill="#262136" stroke="url('#paint0_linear_408_378')" stroke-width="3.023"/><circle cx="67.407" cy="67.407" r="50.407" fill="#262136" stroke="url('#paint1_linear_408_378')" stroke-width="3.023"/><path fill-rule="evenodd" clip-rule="evenodd" d="M72.49 73.952a5.033 5.033 0 0 1-.115.22c-1.332 2.418-4.392 3.335-6.81 2.003L52.38 68.917c-2.419-1.332-3.28-4.409-1.949-6.828 1.332-2.419 4.392-3.335 6.811-2.004l8.76 4.824L79.507 40.38c1.332-2.419 4.408-3.28 6.827-1.949 2.42 1.332 3.336 4.392 2.004 6.811L72.814 73.44c-.099.18-.207.35-.325.513Z" fill="#262136"/><path d="m72.49 73.952-1.226-.885-.076.104-.057.117 1.358.664Zm-.115.22-1.324-.73 1.324.73Zm-6.81 2.003-.73 1.325.73-1.325ZM52.38 68.917l.73-1.325-.73 1.325Zm-1.949-6.828-1.324-.729 1.324.73Zm6.811-2.004-.729 1.325.73-1.325Zm8.76 4.824-.729 1.324 1.325.729.729-1.324-1.325-.73ZM79.507 40.38l1.324.73-1.324-.73Zm6.827-1.949-.729 1.325.73-1.325Zm2.004 6.811 1.324.73-1.324-.73ZM72.814 73.44l1.324.729-1.324-.73Zm-1.683-.151a3.485 3.485 0 0 1-.08.154l2.648 1.458c.052-.094.102-.189.148-.285l-2.716-1.327Zm-.08.154c-.937 1.702-3.084 2.33-4.758 1.409l-1.458 2.648c3.164 1.743 7.138.538 8.865-2.599l-2.649-1.458Zm-4.758 1.409L53.11 67.592l-1.458 2.649 13.184 7.258 1.458-2.648ZM53.11 67.592c-1.674-.921-2.29-3.072-1.354-4.773l-2.648-1.459c-1.727 3.137-.62 7.139 2.544 8.88l1.458-2.648Zm-1.354-4.773c.937-1.702 3.084-2.33 4.758-1.41l1.458-2.648c-3.164-1.742-7.137-.537-8.864 2.6l2.648 1.458Zm4.758-1.41 8.76 4.824 1.459-2.649-8.76-4.823-1.459 2.649Zm10.814 4.229L80.83 41.109l-2.648-1.458L64.678 64.18l2.649 1.459ZM80.83 41.109c.922-1.674 3.072-2.29 4.774-1.354l1.458-2.648c-3.136-1.727-7.138-.62-8.88 2.544l2.648 1.458Zm4.774-1.354c1.702.937 2.33 3.084 1.409 4.758l2.648 1.458c1.742-3.164.538-7.137-2.599-8.864l-1.458 2.648Zm1.409 4.758L71.49 72.71l2.648 1.458L89.662 45.97l-2.648-1.458ZM71.49 72.71a3.445 3.445 0 0 1-.226.357l2.45 1.77c.154-.212.295-.435.424-.67L71.49 72.71Z" fill="url('#paint2_linear_408_378')"/><defs><linearGradient id="paint0_linear_408_378" x1="2" y1="32.142" x2="111.858" y2="81.013" gradientUnits="userSpaceOnUse"><stop offset=".052" stop-color="#7BF0A7"/><stop offset=".307" stop-color="#44D5D2"/><stop offset=".609" stop-color="#A380E6"/><stop offset=".917" stop-color="#FE9C4A"/></linearGradient><linearGradient id="paint1_linear_408_378" x1="17" y1="40.196" x2="101.544" y2="77.806" gradientUnits="userSpaceOnUse"><stop offset=".052" stop-color="#7BF0A7"/><stop offset=".307" stop-color="#44D5D2"/><stop offset=".609" stop-color="#A380E6"/><stop offset=".917" stop-color="#FE9C4A"/></linearGradient><linearGradient id="paint2_linear_408_378" x1="51.744" y1="59.706" x2="55.627" y2="76.135" gradientUnits="userSpaceOnUse"><stop offset=".052" stop-color="#7BF0A7"/><stop offset=".307" stop-color="#44D5D2"/><stop offset=".609" stop-color="#A380E6"/><stop offset=".917" stop-color="#FE9C4A"/></linearGradient></defs></svg>