<svg width="1095" height="625" fill="none" xmlns="http://www.w3.org/2000/svg"><g filter="url('#filter0_f_126_1095')"><rect opacity=".25" width="407" height="24" rx="12" transform="matrix(1 0 0 -1 26 613)" fill="#7BF0BA"/><rect opacity=".25" width="407" height="24" rx="12" transform="matrix(1 0 0 -1 424 555)" fill="#C2A3FD"/><rect opacity=".25" width="407" height="24" rx="12" transform="matrix(1 0 0 -1 12 132)" fill="#C2A3FD"/><rect opacity=".25" width="407" height="24" rx="12" transform="matrix(1 0 0 -1 250 36)" fill="#FE9C4A"/><rect opacity=".25" width="407" height="24" rx="12" transform="matrix(1 0 0 -1 640 416)" fill="#FE9C4A"/><rect opacity=".25" width="407" height="24" rx="12" transform="matrix(1 0 0 -1 676 264)" fill="#44D4D2"/><rect opacity=".25" width="407" height="24" rx="12" transform="matrix(1 0 0 -1 572 112)" fill="#7BF0BA"/></g><defs><filter id="filter0_f_126_1095" x=".1" y=".1" width="1094.8" height="624.8" filterUnits="userSpaceOnUse" color-interpolation-filters="sRGB"><feFlood flood-opacity="0" result="BackgroundImageFix"/><feBlend in="SourceGraphic" in2="BackgroundImageFix" result="shape"/><feGaussianBlur stdDeviation="5.95" result="effect1_foregroundBlur_126_1095"/></filter></defs></svg>