<svg version="1.1" id="Layer_1" xmlns="http://www.w3.org/2000/svg" x="0" y="0" viewBox="0 0 425 356" style="enable-background:new 0 0 425 356" xml:space="preserve"><style>.st1{fill:#ff9c4a}.st2{fill:#1447c8}.st3{fill:#44c6e6}.st4{fill:#193787}.st5{fill:#fff}.st6{fill-rule:evenodd;clip-rule:evenodd;fill:#193787}.st7{fill:none;stroke:#193787;stroke-width:4px;stroke-linecap:round}.st8{fill:none;stroke:#193787;stroke-width:12px;stroke-linecap:round}.st11{fill:none;stroke:#1447c8;stroke-width:1.5894px;stroke-linecap:round}.st13{fill:#fff;stroke:#1447c8;stroke-width:1.5894px}</style><path d="M231.1 281.7h-65" style="fill:none;stroke:#1447c8;stroke-width:1.6859px;stroke-dasharray:6.7402 6.7402"/><path style="fill:none" d="M0-21.5h381.9V380H0z"/><path class="st3" d="M233.4 292.2c-8.6-4.4-.2-17.3 1-20.5l52-105.1c1.8-.7 3.7-.9 5.6-.7l89.9 58.4c8.5 5.9 11 7.3 9.5 13.8L358 340.6c-1.7 7.1-9.6 10.8-16.2 7.5l-108.4-55.9z"/><path d="M115 24.2C57.9 5.9 9.7 49 27.1 93.8c17.3 44.7 87.6-34 117.6 14.8 12 19.5-79.8 53.4-68.8 130.5" style="fill:none;stroke:#ff9c4a;stroke-width:6.3575px;stroke-linecap:round"/><path class="st11" d="M15.2 58.4 35.9 119"/><circle cx="27.1" cy="94.9" r="3.1" style="fill:#1447c8;stroke:#1447c8;stroke-width:1.5894px"/><path class="st11" d="m115.2 67 37.4 52.5M67.3 179.1l8.1 57.2"/><circle class="st13" cx="144.6" cy="108.4" r="3.1"/><circle class="st13" cx="76.1" cy="239" r="3.1"/><path class="st11" d="m115.1 24.6-57.8-20"/><circle class="st13" cx="113.8" cy="24.2" r="3.1"/><path transform="rotate(-27.541 55.74 3.977)" class="st13" d="M53.8 2h3.9v3.9h-3.9z"/><path transform="rotate(-56.011 14.972 57.895)" class="st13" d="M13 56h3.9v3.9H13z"/><path transform="rotate(-56.011 35.377 119.114)" class="st13" d="M33.4 117.2h3.9v3.9h-3.9z"/><path transform="rotate(-66.252 115.295 66.792)" class="st13" d="M113.4 64.9h3.9v3.9h-3.9z"/><path transform="rotate(-64.729 152.777 120.603)" class="st13" d="M150.8 118.7h3.9v3.9h-3.9z"/><path transform="rotate(-47.351 67.21 177.066)" class="st13" d="M65.3 175.1h3.9v3.9h-3.9z"/><circle class="st2" cx="45.4" cy="160.8" r="16.5"/><circle class="st2" cx="373.6" cy="224.2" r="50.7"/><path class="st1" d="m381.9 224.2-48.2-31.3c-6.8 8.6-10.8 19.5-10.8 31.3 0 28 22.7 50.7 50.7 50.7 2 0 4-.1 5.9-.4l11.9-36.6c1.5-6.4-1-7.7-9.5-13.7z"/><path class="st5" d="M56.4 63h299.2c7 0 12.7 5.7 12.7 12.7v175.4c0 7-5.7 12.7-12.7 12.7H56.4c-7 0-12.7-5.7-12.7-12.7V75.7c0-7 5.6-12.7 12.7-12.7z"/><path d="M56.4 63.5h299.2c6.7 0 12.2 5.4 12.2 12.2v175.4c0 6.7-5.4 12.2-12.2 12.2H56.4c-6.7 0-12.2-5.4-12.2-12.2V75.7c0-6.7 5.4-12.2 12.2-12.2z" style="fill:none;stroke:#44c6e6;stroke-width:1.0881px;stroke-opacity:.25"/><path class="st3" d="M43.7 75.7c0-7 5.7-12.7 12.7-12.7h299.2c7 0 12.7 5.7 12.7 12.7v14.8H43.7V75.7z"/><circle class="st5" cx="61.5" cy="76.7" r="5.5"/><circle class="st1" cx="83.5" cy="76.7" r="5.5"/><path class="st4" d="M62.4 109.7h285.8c3.5 0 6.4 2.8 6.4 6.4v56.1c0 3.5-2.8 6.4-6.4 6.4H62.4c-3.5 0-6.4-2.8-6.4-6.4v-56.1c0-3.5 2.9-6.4 6.4-6.4z"/><circle class="st5" cx="190.9" cy="166.1" r="2.8"/><circle class="st5" cx="206" cy="166.1" r="2.8"/><circle class="st5" cx="221.1" cy="166.1" r="2.8"/><circle transform="matrix(.07089 -.9975 .9975 .07089 -127.79 346.438)" class="st1" cx="122.1" cy="241.8" r="39.9"/><path style="fill:none;stroke:#1447c8;stroke-width:3.1787px" d="M80.6 200.3h83v83h-83z"/><path class="st13" d="M158.6 198.6h6.7v6.7h-6.7z"/><path style="fill:#193787;stroke:#1447c8;stroke-width:1.5894px" d="M158.6 278.4h6.7v6.7h-6.7z"/><path class="st13" d="M78.8 278.4h6.7v6.7h-6.7zM78.8 198.6h6.7v6.7h-6.7z"/><path class="st4" d="m204.1 301.7-16.3 5.9-5.9 16.3c-.6 1.6-2.8 1.6-3.5 0l-15.8-39.3c-.5-1.3.8-2.6 2.1-2.1l39.3 15.8c1.7.6 1.7 2.8.1 3.4z"/><path d="M188.5 200.5h162.9c1.8 0 3.2 1.4 3.2 3.2v7.4c0 1.8-1.4 3.2-3.2 3.2H188.5c-1.8 0-3.2-1.4-3.2-3.2v-7.4c.1-1.7 1.5-3.2 3.2-3.2z" style="fill:#dee1e8"/><path d="M188.5 228.1h162.9c1.8 0 3.2 1.4 3.2 3.2v7.4c0 1.8-1.4 3.2-3.2 3.2H188.5c-1.8 0-3.2-1.4-3.2-3.2v-7.4c.1-1.8 1.5-3.2 3.2-3.2z" style="fill:#eff0f2"/><path class="st11" d="M232.9 62.2h76.9"/><path style="fill:none;stroke:#1447c8;stroke-width:1.5894px" d="M228.6 29.2h84.1v45.6h-84.1z"/><path class="st13" d="M309.2 27.2h5.5v5.5h-5.5zM309.2 71.2h5.5v5.5h-5.5zM226.6 71.2h5.5v5.5h-5.5zM226.6 27.2h5.5v5.5h-5.5z"/><path class="st2" d="m4.5 110.3 6.1 6.1-3 3-6.1-6.1 3-3zM16.4 103.3l10.5-10.5L5.5 102l.1.1-.5 7.6 6.1 6.1 7.6-.5.1.1L28.1 94l-10.5 10.5c.2.6 0 1.2-.4 1.6-.7.7-1.7.6-2.4 0-.7-.7-.7-1.8 0-2.4.4-.4 1-.6 1.6-.4z"/><path class="st4" d="m248.8 63 8.2-24.1h7.7l8.5 24.1h-4.8l-2.2-6.4h-10.5l-2.1 6.4h-4.8zm8.1-10.4h7.8l-3.3-9.8h-1.2l-3.3 9.8zM281.4 63.4c-2 0-3.6-.5-4.8-1.5-1.2-1-1.7-2.4-1.7-4.3 0-2 .7-3.4 2.1-4.3 1.4-.9 3.3-1.4 5.7-1.4h3.7v-.2c0-2-1-3.1-3.1-3.1h-2c-.8 0-1.6.1-2.3.1-.8 0-1.5.1-2.1.1V45c.7-.1 1.6-.1 2.7-.2 1.1 0 2-.1 2.9-.1 2.8 0 4.8.6 6.2 1.7 1.4 1.1 2.1 2.9 2.1 5.4V63h-3.6v-3.4c-.8 2.5-2.8 3.8-5.8 3.8zm1.3-3.2c.6 0 1.2-.1 1.8-.3.5-.2 1-.6 1.4-1.2.4-.6.6-1.3.6-2.3v-1.7h-3.7c-1.1 0-1.9.3-2.4.8-.6.5-.8 1.2-.8 2s.3 1.5.8 2c.4.4 1.2.7 2.3.7z"/><path d="M163.3 354.6v-68.8" style="fill:none;stroke:#1447c8;stroke-width:1.5894px;stroke-dasharray:6.3544 6.3544"/></svg>