<svg width="425" height="356" fill="none" xmlns="http://www.w3.org/2000/svg"><path d="m29.633 203.143 22.895-49.291c4.54-9.777 18.668-9.073 22.215 1.106l18.585 53.331c2.882 8.27-3.779 16.742-12.495 15.893l-41.48-4.04c-8.233-.802-13.204-9.497-9.72-16.999Z" fill="#FF9C4A"/><path d="M10.012 118.749 117.186 9.024c4.795-4.91 12.723-4.805 17.387.229l67.656 73.018a11.999 11.999 0 0 1 1.817 13.744l-60.29 114.594c-3.335 6.338-11.444 8.363-17.367 4.335l-114.54-77.887c-6.177-4.2-7.057-12.964-1.837-18.308Z" fill="#1447C8"/><circle cx="378" cy="309" r="46.5" fill="#FF9C4A"/><circle cx="131" cy="301" r="19.5" fill="#44C6E6"/><rect x="213.5" y="277.5" width="60" height="78" rx="12" fill="#193787"/><rect x="84.5" y="76.5" width="318" height="220.833" rx="6" fill="#44C6E6"/><rect x="97.75" y="91.958" width="291.5" height="157.896" rx="2" fill="#fff"/><rect x="186.5" y="333.5" width="114.833" height="22.083" rx="4" fill="#193787"/><path d="M84.5 264.5h318v27a6 6 0 0 1-6 6h-306a6 6 0 0 1-6-6v-27Z" fill="#193787"/><path fill-rule="evenodd" clip-rule="evenodd" d="M85.908 187.142 48.5 161.704l3.836-8.259c4.54-9.776 18.668-9.072 22.215 1.107l11.357 32.59Z" fill="#193787"/><path d="m278 220.825 46-46M205 221l-46-46" stroke="#193787" stroke-width="4" stroke-linecap="round"/><path d="M196 138a8 8 0 0 1 8-8h76a8 8 0 0 1 8 8v112h-92V138Z" fill="#FF9C4A"/><path d="M219 168v11" stroke="#193787" stroke-width="12" stroke-linecap="round"/><path d="M268.976 168.258a3.002 3.002 0 0 0-3.952-4.516l3.952 4.516Zm-3.952 14a3.002 3.002 0 0 0 3.952-4.516l-3.952 4.516ZM259 173l-1.976-2.258a3 3 0 0 0 0 4.516L259 173Zm6.024-9.258-8 7 3.952 4.516 8-7-3.952-4.516Zm-8 11.516 8 7 3.952-4.516-8-7-3.952 4.516Z" fill="#193787"/><path fill-rule="evenodd" clip-rule="evenodd" d="M234 193a8 8 0 0 0 16 0h-16Z" fill="#193787"/><path d="m156 174 3-2M321 172.601l3.045 2.39" stroke="#193787" stroke-width="12" stroke-linecap="round"/></svg>