<svg width="244" height="149" fill="none" xmlns="http://www.w3.org/2000/svg"><rect x="56.026" width="187.807" height="130.422" rx="3.544" fill="#44C6E6"/><rect x="64.281" y="8.897" width="172.435" height="114.276" rx="1.181" fill="#fff"/><g clip-path="url('#clip0_126_1108')"><path d="M112.016 46.622a5.803 5.803 0 0 1 5.803-5.803h55.124a5.802 5.802 0 0 1 5.802 5.803v81.235h-66.729V46.622Z" fill="#FF9C4A"/><path d="M128.7 68.382v7.979M159.261 68.493v7.978" stroke="#193787" stroke-width="8.704" stroke-linecap="round"/><path d="M147.326 88.906c0 2.53-1.483 4.582-3.313 4.582-1.829 0-3.313-2.052-3.313-4.582s1.484-4.581 3.313-4.581c1.83 0 3.313 2.05 3.313 4.581Z" fill="#193787"/><path d="m178.974 120.79 2.804.124M110.128 120.79l2.804.124" stroke="#193787" stroke-width="8.704" stroke-linecap="round"/><path d="M142.738 27.78c0-.6.09-1.14.27-1.62.2-.48.44-.91.72-1.29.3-.38.61-.72.93-1.02.34-.32.65-.62.93-.9.3-.28.54-.56.72-.84.2-.28.3-.57.3-.87 0-.46-.2-.81-.6-1.05-.38-.24-.85-.36-1.41-.36-.64 0-1.24.18-1.8.54-.56.36-1 .86-1.32 1.5l-5.34-2.67c.76-1.44 1.91-2.61 3.45-3.51 1.54-.9 3.51-1.35 5.91-1.35 1.58 0 2.98.22 4.2.66 1.24.42 2.22 1.06 2.94 1.92.72.84 1.08 1.89 1.08 3.15 0 .76-.12 1.43-.36 2.01-.22.58-.52 1.09-.9 1.53-.36.42-.74.81-1.14 1.17-.4.36-.79.7-1.17 1.02-.36.3-.66.61-.9.93-.22.32-.33.67-.33 1.05h-6.18Zm3.09 8.34c-1.16 0-2.11-.35-2.85-1.05-.74-.72-1.11-1.57-1.11-2.55 0-1 .37-1.84 1.11-2.52.74-.68 1.69-1.02 2.85-1.02 1.18 0 2.13.34 2.85 1.02.74.68 1.11 1.52 1.11 2.52 0 .98-.37 1.83-1.11 2.55-.72.7-1.67 1.05-2.85 1.05Z" fill="#193787"/></g><path d="m15.611 141.894 42.382-18.427a3.534 3.534 0 0 1 1.412-.293h180.912a3.54 3.54 0 0 1 3.541 3.54v9.838c0 .909-.35 1.783-.977 2.442l-8.18 8.589a3.54 3.54 0 0 1-2.564 1.099H17.023c-3.84 0-4.933-5.257-1.412-6.788Z" fill="#44C6E6"/><defs><clipPath id="clip0_126_1108"><path fill="#fff" transform="translate(64.281 8.897)" d="M0 0h171.415v114.276H0z"/></clipPath></defs></svg>