<svg width="140" height="137" fill="none" xmlns="http://www.w3.org/2000/svg"><path opacity=".5" d="M66.631 5.365c.886-3.507 5.868-3.507 6.754 0l8.83 34.944a3.483 3.483 0 0 0 4.816 2.319l32.825-14.884c3.294-1.493 6.401 2.402 4.212 5.281l-21.815 28.69a3.484 3.484 0 0 0 1.189 5.212l32.103 16.384c3.222 1.644 2.113 6.501-1.503 6.585l-36.032.833a3.483 3.483 0 0 0-3.333 4.178l7.206 35.315c.723 3.544-3.766 5.705-6.085 2.931L72.68 105.5a3.484 3.484 0 0 0-5.345 0l-23.117 27.653c-2.32 2.774-6.809.613-6.086-2.931l7.206-35.315a3.483 3.483 0 0 0-3.332-4.178l-36.033-.833c-3.616-.084-4.724-4.941-1.503-6.585l32.103-16.384a3.483 3.483 0 0 0 1.19-5.211L15.948 33.025c-2.19-2.88.917-6.774 4.21-5.28l32.826 14.883a3.483 3.483 0 0 0 4.816-2.32l8.83-34.943Z" stroke="url('#paint0_linear_1_30')" stroke-width="4"/><defs><linearGradient id="paint0_linear_1_30" x1="-9.808" y1="28.73" x2="124.062" y2="88.283" gradientUnits="userSpaceOnUse"><stop offset=".052" stop-color="#7BF0A7"/><stop offset=".307" stop-color="#44D5D2"/><stop offset=".609" stop-color="#A380E6"/><stop offset=".917" stop-color="#FE9C4A"/></linearGradient></defs></svg>