<svg width="151" height="152" fill="none" xmlns="http://www.w3.org/2000/svg"><path opacity=".5" d="M72.108 4.829c1.122-3.033 5.412-3.033 6.534 0l17.735 47.928a3.483 3.483 0 0 0 2.058 2.058l47.928 17.735c3.033 1.122 3.033 5.411 0 6.533L98.435 96.818a3.484 3.484 0 0 0-2.058 2.058l-17.735 47.928c-1.122 3.033-5.412 3.033-6.534 0L54.373 98.876a3.483 3.483 0 0 0-2.058-2.058L4.387 79.083c-3.033-1.122-3.033-5.411 0-6.533l47.928-17.735a3.483 3.483 0 0 0 2.058-2.058L72.108 4.829Z" stroke="url('#paint0_linear_1_31')" stroke-width="4"/><defs><linearGradient id="paint0_linear_1_31" x1="-4.441" y1="32.73" x2="129.429" y2="92.283" gradientUnits="userSpaceOnUse"><stop offset=".052" stop-color="#7BF0A7"/><stop offset=".307" stop-color="#44D5D2"/><stop offset=".609" stop-color="#A380E6"/><stop offset=".917" stop-color="#FE9C4A"/></linearGradient></defs></svg>