<svg width="488" height="175" fill="none" xmlns="http://www.w3.org/2000/svg"><path fill="#7BF0A7" d="M337.069 0h150.772v116.879H337.069z"/><path fill="#262136" d="M44 12h427.169v119H44z"/><path d="M53.08 90.099c.915-1.643 3.42-.963 3.389.921l-.384 23.851a1.815 1.815 0 0 0 2.107 1.822l23.398-3.848c1.852-.305 2.891 2.071 1.409 3.222l-18.807 14.6a1.814 1.814 0 0 0-.104 2.773L81.7 149.485c1.39 1.266.179 3.549-1.644 3.099l-23.053-5.693a1.805 1.805 0 0 0-2.234 1.642l-1.48 23.834c-.117 1.879-2.664 2.348-3.45.635l-9.932-21.649a1.811 1.811 0 0 0-2.688-.731l-19.408 13.676c-1.536 1.082-3.502-.613-2.663-2.296l10.64-21.345a1.818 1.818 0 0 0-1.11-2.551l-22.767-6.759c-1.8-.534-1.706-3.12.129-3.51l23.242-4.942a1.808 1.808 0 0 0 1.297-2.449l-8.95-22.143c-.706-1.746 1.38-3.272 2.829-2.07l18.293 15.178a1.806 1.806 0 0 0 2.733-.508l11.594-20.804Z" fill="#FE9C4A"/></svg>