<svg width="404" height="251" fill="none" xmlns="http://www.w3.org/2000/svg"><rect x="92.633" y="4.567" width="310.518" height="215.637" rx="5.859" fill="#44C6E6"/><rect x="106.28" y="19.277" width="285.102" height="188.943" rx="1.953" fill="#fff"/><path d="m273.287 160.905 80.788-64.135M167.308 112.54 137.14 13.9" stroke="#193787" stroke-width="6.342" stroke-linecap="round"/><path d="M171.724 19.642c.8-6.96 7.09-11.953 14.05-11.154l119.718 13.757c6.96.8 11.954 7.09 11.154 14.05l-23.93 208.255-144.922-16.652 23.93-208.256Z" fill="#FF9C4A"/><path d="m202.528 71.062-1.991 17.328M273.594 80.01l-1.991 17.327" stroke="#193787" stroke-width="19.027" stroke-linecap="round"/><path fill-rule="evenodd" clip-rule="evenodd" d="M222.437 103.626v.001c-.8 6.96 4.194 13.251 11.154 14.05 6.96.8 13.25-4.194 14.05-11.153v-.002l-25.204-2.896Z" fill="#193787"/><path d="m133.68 10.27 5.688-.567M349.754 92.725l4.363 4.315" stroke="#193787" stroke-width="19.027" stroke-linecap="round"/><path d="m25.811 239.173 70.075-30.467a5.857 5.857 0 0 1 2.334-.485h299.117a5.854 5.854 0 0 1 5.854 5.854v16.266a5.853 5.853 0 0 1-1.615 4.037l-13.525 14.201a5.854 5.854 0 0 1-4.239 1.816H28.145c-6.348 0-8.156-8.69-2.334-11.222Z" fill="#44C6E6"/></svg>