<svg width="638" height="458" fill="none" xmlns="http://www.w3.org/2000/svg"><rect x="135.855" y="46" width="455.406" height="316.254" rx="7.803" fill="#44C6E6"/><rect x="155.87" y="67.574" width="418.131" height="277.104" rx="2.601" fill="#fff"/><path d="m25.046 412.461 115.402-66.994a7.8 7.8 0 0 1 3.914-1.054h439.162a7.797 7.797 0 0 1 7.797 7.797v37.608a7.799 7.799 0 0 1-1.449 4.527l-20.961 29.386a7.796 7.796 0 0 1-6.347 3.269H28.96c-7.967 0-10.805-10.539-3.915-14.539Z" fill="#44C6E6"/><path d="M171.416 2.199c1.951-3.478 7.255-2.046 7.191 1.941l-.644 39.738a3.84 3.84 0 0 0 4.46 3.853l39.223-6.41c3.936-.642 6.123 4.397 2.965 6.833l-31.47 24.273a3.842 3.842 0 0 0-.232 5.889l29.467 26.669c2.957 2.677.38 7.529-3.493 6.579l-38.598-9.471a3.841 3.841 0 0 0-4.749 3.491l-2.479 39.666c-.249 3.98-5.649 4.991-7.321 1.371l-16.662-36.082a3.84 3.84 0 0 0-5.69-1.537l-32.557 22.793c-3.268 2.288-7.425-1.304-5.636-4.869l17.821-35.523a3.84 3.84 0 0 0-2.346-5.407l-38.12-11.243c-3.825-1.128-3.61-6.618.293-7.442l38.885-8.215a3.841 3.841 0 0 0 2.764-5.205l-14.977-36.814c-1.503-3.694 2.924-6.948 6.001-4.411l30.667 25.28a3.84 3.84 0 0 0 5.793-1.085l19.444-34.662Z" fill="#7BF0A7"/><path d="M574.978 455.344c-1 2.703-4.823 2.703-5.824 0l-15.808-42.722a3.109 3.109 0 0 0-1.835-1.835l-42.722-15.808c-2.703-1.001-2.703-4.824 0-5.824l42.722-15.809a3.105 3.105 0 0 0 1.835-1.834l15.808-42.722c1.001-2.704 4.824-2.704 5.824 0l15.809 42.722a3.1 3.1 0 0 0 1.834 1.834l42.723 15.809c2.703 1 2.703 4.823 0 5.824l-42.723 15.808c-.85.315-1.52.985-1.834 1.835l-15.809 42.722Z" fill="#A380E5"/></svg>