<svg version="1.1" id="Layer_1" xmlns="http://www.w3.org/2000/svg" x="0" y="0" viewBox="0 0 425 356" style="enable-background:new 0 0 425 356" xml:space="preserve"><style>.st2{fill:#1447c8}.st3{fill:#6ac5e3}.st5{fill:#fff}.st7{fill:#dee1e8}.st8{fill:#eff0f2}.st9{fill:#ff9c4a}.st19{fill:#193787}</style><path style="fill:none" d="M-11.9-19.6h351v369h-351z"/><path d="m124.8 301.5-86.7 41.8c-2 1-4.4.2-5.3-1.9-6.7-14.8-31.2-71.8-30.1-111.2 0-.8.6-1.5 1.4-1.8l59.5-19c4.9-1.6 10.2.1 13.2 4.2l52.3 69.8c4.6 6.2 2.5 14.9-4.3 18.1z" style="fill:#1b336d"/><path class="st2" d="M418.9 143.6c5.9 6.4 3.2 16.8-5.1 19.5l-172.1 56.4c-5.8 1.9-12-.8-14.6-6.3l-27.1-58c-1.6-3.4-1.5-7.4.3-10.8L273.4 8.3c3.9-7.3 13.8-8.5 19.4-2.4l126.1 137.7z"/><circle class="st3" cx="367.3" cy="190.9" r="46.5"/><path d="M406.3 165.6 311 192.4c6.2-29 30.4-47.6 57.9-47.8 14.7-.2 29.3 8 37.4 21z" style="fill-rule:evenodd;clip-rule:evenodd;fill:#ff9c4a"/><path class="st5" d="M74.2 94.4h169.3c6.4 0 11.6 3.6 11.6 8v235c0 4.4-5.2 8-11.6 8H74.2c-6.4 0-11.6-3.6-11.6-8v-235c0-4.4 5.2-8 11.6-8z"/><path d="M74.2 94.9h169.4c6 0 10.9 3.4 10.9 7.5v235c0 4.1-4.9 7.5-10.9 7.5H74.2c-6 0-10.9-3.4-10.9-7.5v-235c0-4.1 4.9-7.5 10.9-7.5z" style="fill:none;stroke:#6ac5e3;stroke-width:1.2032px;stroke-opacity:.25"/><path class="st7" d="M112.7 123.4h89.7c6.4 0 11.6 3.6 11.6 8v9c0 4.4-5.2 8-11.6 8h-89.7c-6.4 0-11.6-3.6-11.6-8v-9c0-4.4 5.2-8 11.6-8zM112.7 176.4h89.7c6.4 0 11.6 3.6 11.6 8v9c0 4.4-5.2 8-11.6 8h-89.7c-6.4 0-11.6-3.6-11.6-8v-9c0-4.4 5.2-8 11.6-8zM112.7 229.4h89.7c6.4 0 11.6 3.6 11.6 8v9c0 4.4-5.2 8-11.6 8h-89.7c-6.4 0-11.6-3.6-11.6-8v-9c0-4.4 5.2-8 11.6-8z"/><path class="st8" d="M112.7 282.4h89.7c6.4 0 11.6 3.6 11.6 8v9c0 4.4-5.2 8-11.6 8h-89.7c-6.4 0-11.6-3.6-11.6-8v-9c0-4.4 5.2-8 11.6-8z"/><path class="st9" d="m248.6 278.5 69.9-34.5c6.5-3.2 14.4.1 16.7 7l29.6 88.7c3.4 10.3-7.6 19.5-17.1 14.3l-99.4-54.1c-8.7-4.8-8.5-17.1.3-21.4z"/><path d="M120.2 49.1c-.8-.5-.5-1.8.5-1.8h72.6c1.1 0 2 .9 2 2v21c0 1.1-.9 2-2 2h-72.1c-1 0-1.4-1.4-.5-1.9l16.1-8.8c.7-.4.7-1.3.1-1.7l-16.7-10.8z" style="fill:#ff9534"/><path class="st5" d="M188.8 30.4h169.7c6.4 0 11.6 3.6 11.6 8v230c0 4.4-5.2 8-11.6 8H188.8c-6.4 0-11.6-3.6-11.6-8v-230c0-4.4 5.2-8 11.6-8z"/><path d="M188.7 30.9h170.4c6 0 10.9 3.4 10.9 7.5v230c0 4.1-4.9 7.5-10.9 7.5H188.7c-6 0-10.9-3.4-10.9-7.5v-230c0-4.1 4.9-7.5 10.9-7.5z" style="fill:none;stroke:#6ac5e3;stroke-width:1.2069px;stroke-opacity:.25"/><path class="st7" d="M221.5 59.4h103.6c7.4 0 13.4 3.6 13.4 8v9c0 4.4-6 8-13.4 8H221.5c-7.4 0-13.4-3.6-13.4-8v-9c0-4.4 6-8 13.4-8zM221.5 112.4h103.6c7.4 0 13.4 3.6 13.4 8v9c0 4.4-6 8-13.4 8H221.5c-7.4 0-13.4-3.6-13.4-8v-9c0-4.4 6-8 13.4-8zM221.5 165.4h103.6c7.4 0 13.4 3.6 13.4 8v9c0 4.4-6 8-13.4 8H221.5c-7.4 0-13.4-3.6-13.4-8v-9c0-4.4 6-8 13.4-8z"/><path class="st8" d="M221.5 218.4h103.6c7.4 0 13.4 3.6 13.4 8v9c0 4.4-6 8-13.4 8H221.5c-7.4 0-13.4-3.6-13.4-8v-9c0-4.4 6-8 13.4-8z"/><path class="st3" d="M6.8 229.1c-.1-.9.4-1.8 1.3-2.1l97.9-33.6c1.2-.4 2.5.4 2.7 1.7 4.3 37.8 24.8 67.3 54.6 89.1 1.3 1 1 3-.5 3.6L62.1 322.2c-.6.2-1.2.1-1.7-.2-20.2-12.3-47.6-45-53.6-92.9z"/><circle class="st5" cx="358.6" cy="284.9" r="36.5"/><path class="st3" d="M392.1 288.9c0-4.8-.9-9.5-2.8-14-1.8-4.4-4.5-8.5-7.9-11.8-3.4-3.4-7.4-6.1-11.8-7.9-4.4-1.8-9.2-2.8-14-2.8v36.5h36.5z"/><circle cx="358.6" cy="284.9" r="33.5" style="fill:none;stroke:#1447c8;stroke-width:6px"/><path d="M356.1 270.4v18h18.5" style="fill:none;stroke:#1b336d;stroke-width:4px;stroke-linecap:round"/><path d="M37.1 104.2h38c5.5 0 10 4.5 10 10v38c0 5.5-4.5 10-10 10h-38c-5.5 0-10-4.5-10-10v-38c0-5.5 4.5-10 10-10z" style="fill:#1b336d;stroke:#1b336d;stroke-width:4px"/><path d="m42.6 123.2 18.3 18.3c.4.4 1 .4 1.4 0l44.8-44.8" style="fill:none;stroke:#6ac5e3;stroke-width:12px;stroke-linecap:round"/><path d="M132.3 191.8 104.6 240" style="fill:none;stroke:#193787;stroke-width:3.5754px;stroke-linecap:round"/><path d="M106.8 221c.9-5.8 7.3-8.8 12.3-5.8 4.9 2.9 5.4 9.9.9 13.4l-11.4 9.2c-.8.6-1.9.7-2.8.2-.9-.5-1.4-1.5-1.2-2.5l2.2-14.5z" style="fill-rule:evenodd;clip-rule:evenodd;fill:#193787"/><path d="m184.9 101.2 3.2-5.6" style="fill:none;stroke:#193787;stroke-width:10.7261px;stroke-linecap:round"/><path class="st2" d="M175.6 99.9c1-1.7 3.2-2.3 4.9-1.3l8.8 5.1c1.7 1 2.3 3.2 1.3 4.9L123.4 225c-1 1.7-3.2 2.3-4.9 1.3l-8.8-5.1c-1.7-1-2.3-3.2-1.3-4.9l67.2-116.4zM193 117.5c1.4.8 1.9 2.6 1.1 3.9L178.2 149c-.8 1.4-2.6 1.9-3.9 1.1-1.4-.8-1.9-2.6-1.1-3.9l15.9-27.5c.8-1.5 2.5-2 3.9-1.2z"/><path class="st2" d="M182.7 116.5c.4-.8 1.4-1 2.1-.6l5.3 3.1c.5.3.6.9.4 1.3-.5.9-3.4.7-4.3.1-.6-.3-1.2-.6-1.9-.7-1.3-.2-2.4-1.7-1.7-2.8l.1-.4z"/><path class="st9" d="m134 172 15 8.7c-5.8 13.2-9.5 20.1-17.7 30.6l-15-8.7c4.8-12.8 8.7-19.4 17.7-30.6z"/><path class="st19" d="m25.7 241.6 68.7-25.2c1.9-.7 4 .3 4.7 2.2.7 1.9-.3 4-2.2 4.7l-68.7 25.2c-1.9.7-4-.3-4.7-2.2-.7-1.9.3-4 2.2-4.7zM35 262.5l37.4-13.7c1.7-.6 3.6.2 4.2 1.9.6 1.7-.2 3.6-1.9 4.2l-37.4 13.7c-1.7.6-3.6-.2-4.2-1.9-.7-1.7.2-3.6 1.9-4.2z"/></svg>