<svg version="1.1" id="Layer_1" xmlns="http://www.w3.org/2000/svg" xmlns:xlink="http://www.w3.org/1999/xlink" x="0" y="0" viewBox="0 0 425 356" style="enable-background:new 0 0 425 356" xml:space="preserve"><style>.st0{fill:#1447c8}.st3{fill:#ff9c4a}.st5{fill:#193787}.st6{fill:#44c6e6}</style><path class="st0" d="M69.7 9.3C72.8 1.2 83.3-1 89.4 5.2l127.2 128.9c4.3 4.3 4.6 11.1.9 15.9l-39.9 50.1c-2.4 3-6 4.6-9.8 4.5l-154.5-4.8c-8.3-.3-13.8-8.6-10.8-16.3L69.7 9.3z"/><path d="m224.4 34.5 5.4-20.3c.6-2.1 2.8-3.4 4.9-2.8l42 11.3c1 .3 1.9 1 2.4 1.9l5.3 9.3c.5.9.7 2 .4 3l-5.4 20.3c-.6 2.1-2.8 3.4-4.9 2.8l-42-11.3c-1-.3-1.9-1-2.4-1.9l-5.3-9.3c-.5-.9-.6-2-.4-3z" style="fill:#fff;stroke:#44c6e6;stroke-linecap:round;stroke-opacity:.25"/><path d="m234.1 14.4 42 11.3 5.2 9-5.8 21.3-43-11.5-4.5-7.8 6.1-22.3z" style="fill:none"/><path class="st3" d="M338.7 150.8c6.9-9.9 18.8-7.3 23.4 2.1l59.7 109.6c2.5 5.1-.5 11.3-6.9 14.4l-97 44.1c-4 2-8.8 2.4-12.9 1.2l-33-58.7c-6.7-7.6-9-12.4-3.7-17.7l70.4-95z"/><g id="Layer_2_1_"><g id="H"><defs><path id="SVGID_1_" d="M233.8 17.7 229.1 36c-.1.4 0 .8.2 1.1l4.7 8.1c.2.3.5.6.9.7l12.5 3.3c.8.2 1.6-.3 1.8-1.1l1.2-4.5c.1-.4 0-.8-.2-1.1l-4.6-7.8c-.1-.2 0-.4.1-.5s.2-.1.3 0l4.9 1.3c.8.2 1.6-.3 1.8-1.1l1.2-4.5c.1-.4 0-.8-.2-1.1l-4.7-8.1c-.2-.3-.5-.6-.9-.7l-12.5-3.3c-.7-.3-1.6.2-1.8 1z"/></defs><clipPath id="SVGID_2_"><use xlink:href="#SVGID_1_" style="overflow:visible"/></clipPath><g style="clip-path:url(#SVGID_2_)"><path class="st3" d="m234.3 45.8-5.4-9.2 5.3-20.4 7.3 1.9z"/><path class="st5" d="m248.8 20 5.3 9.2-1.7 6.5-7.2-1.9zM245.2 33.8l5.3 9.2-1.7 6.5-7.2-1.9z"/><path transform="rotate(-75.392 244.548 21.224)" class="st6" d="M242.3 17.5h4.5V25h-4.5z"/><path transform="rotate(-75.392 238.515 44.494)" class="st5" d="M236.3 40.7h4.5v7.5h-4.5z"/><path transform="rotate(-75.392 241.49 32.863)" class="st6" d="M239.2 29.1h4.5v7.5h-4.5z"/><path transform="rotate(-75.392 245.883 34.079)" style="fill:#13358c" d="M243.6 33.3h4.5v1.5h-4.5z"/></g><path class="st3" d="m259.9 52.3-4.6-7.8c-.2-.3-.3-.7-.2-1.1l4.9-18.9c.2-.8 1-1.3 1.8-1.1l4.4 1.1c.8.2 1.3 1 1.1 1.8l-6.7 25.8c-.1.2-.3.3-.5.3-.1.1-.2 0-.2-.1z"/><path class="st5" d="m275.5 27.1 4.6 7.8c.2.3.3.8.2 1.1l-4.9 18.8c-.2.8-1 1.3-1.8 1.1l-4.4-1.1c-.8-.2-1.3-1-1.1-1.8l6.7-25.8c.1-.2.3-.3.5-.3.1.1.2.1.2.2z"/><path transform="rotate(-75.392 267.728 39.699)" class="st6" d="M265.5 36h4.5v7.5h-4.5z"/></g></g><circle class="st0" cx="326.5" cy="312" r="22.5"/><path d="M120.6 43.6h191.9c3.3 0 6 2.7 6 6v287.9c0 3.3-2.7 6-6 6H120.6c-3.3 0-6-2.7-6-6V49.6c0-3.3 2.7-6 6-6z" style="fill:#fff"/><path d="M120.6 44.1h191.9c3 0 5.5 2.5 5.5 5.5v287.9c0 3-2.5 5.5-5.5 5.5H120.6c-3 0-5.5-2.5-5.5-5.5V49.6c0-3 2.5-5.5 5.5-5.5z" style="fill:none;stroke:#44c6e6;stroke-opacity:.25"/><path class="st0" d="M155.4 112.2v-2.4h3.8c.7 0 1.2-.2 1.6-.6.4-.4.5-.9.5-1.6s-.2-1.2-.5-1.6c-.4-.4-.9-.6-1.6-.6h-3.8v-1.8h3.6c1 0 1.9.1 2.7.4.8.2 1.4.6 1.9 1.2s.7 1.3.7 2.3v.3c0 .9-.2 1.7-.6 2.3-.4.6-1 1.1-1.8 1.5-.8.3-1.8.5-2.9.5l-3.6.1zm-2.5 0V96.7h2.9v15.5h-2.9zm2.5-7.2v-1.8h3.3c.7 0 1.2-.2 1.6-.6.3-.4.5-.9.5-1.5s-.2-1.1-.5-1.5-.9-.6-1.6-.6h-3.3v-2.4h3c1.7 0 3.1.4 3.9 1.1.9.7 1.4 1.8 1.4 3.1v.3c0 1-.2 1.7-.7 2.3-.4.6-1.1 1-1.9 1.2-.8.2-1.7.4-2.8.4h-2.9zm11.9 7.1V96.7h3v15.4h-3zm9.4 0-4.7-6.7h3.3l4.9 6.7h-3.5zm-7.3-5.1v-2.4h3.9c.5 0 1-.1 1.4-.3.4-.2.7-.5.9-.9s.3-.9.3-1.4-.1-1-.3-1.4-.5-.7-.9-.9c-.4-.2-.9-.3-1.4-.3h-3.9v-2.5h3.6c1.2 0 2.3.2 3.2.5.9.4 1.6.9 2.1 1.7.5.7.7 1.7.7 2.8v.3c0 1.1-.3 2.1-.8 2.8-.5.7-1.2 1.3-2.1 1.6-.9.4-2 .5-3.2.5l-3.5-.1zm13.1 5.1V96.8h3v15.3h-3zm13.7.4c-1.4 0-2.6-.2-3.6-.7s-1.8-1.1-2.4-1.9c-.6-.8-1.1-1.6-1.4-2.6-.3-.9-.4-1.8-.4-2.7v-.5c0-1 .1-1.9.4-2.8.3-.9.8-1.8 1.4-2.5.6-.8 1.4-1.4 2.4-1.8 1-.5 2.1-.7 3.5-.7s2.6.3 3.6.8 1.9 1.2 2.5 2.1 1 1.9 1.1 3.2h-3c-.1-.7-.4-1.3-.8-1.8s-.9-.9-1.4-1.1c-.6-.3-1.3-.4-2-.4-.8 0-1.4.1-2 .4s-1.1.6-1.5 1.1-.7 1-.9 1.7c-.2.6-.3 1.4-.3 2.1 0 .8.1 1.5.3 2.1s.5 1.2.9 1.7.9.8 1.5 1.1c.6.3 1.3.4 2.1.4 1.1 0 2.1-.3 2.9-.8.8-.6 1.3-1.4 1.4-2.4h3c-.1 1.1-.5 2.1-1.1 3s-1.4 1.6-2.5 2.2c-1 .5-2.3.8-3.7.8zm19.8-.4-5.6-7.2h-2.2l6.7-8.2h3.4l-6 7.3-.1-1.5 7.4 9.5-3.6.1zm-9.9 0V96.8h3v15.3h-3zm25.3 0V96.8h3v15.3h-3zm-10.1 0V96.8h3v15.3h-3zm2.5-6.4v-2.6h8.2v2.6h-8.2zm12.8 6.4 5.2-15.3h4.9l5.4 15.3H249l-4.6-13.3 1.1.5h-2.6l1.1-.5-4.4 13.3h-3zm3.7-4.1.9-2.5h6.2l.9 2.5h-8zm20.4 4.5c-1.4 0-2.6-.2-3.6-.7s-1.8-1.1-2.4-1.9c-.6-.8-1.1-1.6-1.4-2.6-.3-.9-.4-1.8-.4-2.7v-.5c0-1 .1-1.9.4-2.8.3-.9.8-1.8 1.4-2.5.6-.8 1.4-1.4 2.4-1.8 1-.5 2.1-.7 3.5-.7s2.6.3 3.6.8 1.9 1.2 2.5 2.1 1 1.9 1.1 3.2h-3c-.1-.7-.4-1.3-.8-1.8s-.9-.9-1.4-1.1c-.6-.3-1.3-.4-2-.4-.8 0-1.4.1-2 .4s-1.1.6-1.5 1.1-.7 1-.9 1.7c-.2.6-.3 1.4-.3 2.1 0 .8.1 1.5.3 2.1s.5 1.2.9 1.7.9.8 1.5 1.1c.6.3 1.3.4 2.1.4 1.1 0 2.1-.3 2.9-.8.8-.6 1.3-1.4 1.4-2.4h3c-.1 1.1-.5 2.1-1.1 3s-1.4 1.6-2.5 2.2c-1 .5-2.2.8-3.7.8zm19.8-.4-5.6-7.2h-2.2l6.7-8.2h3.4l-6 7.3-.1-1.5 7.4 9.5-3.6.1zm-9.9 0V96.8h3v15.3h-3z"/><path class="st3" d="M141.1 150.1h149.4c2.2 0 4 1.8 4 4v16c0 2.2-1.8 4-4 4H141.1c-2.2 0-4-1.8-4-4v-16c0-2.2 1.8-4 4-4z"/><path d="M144 202.1h147c2.2 0 4 1.8 4 4v7c0 2.2-1.8 4-4 4H144c-2.2 0-4-1.8-4-4v-7c0-2.2 1.8-4 4-4z" style="fill:#dee1e8"/><path d="M144 225.1h147c2.2 0 4 1.8 4 4v7c0 2.2-1.8 4-4 4H144c-2.2 0-4-1.8-4-4v-7c0-2.2 1.8-4 4-4z" style="fill:#eff0f2"/><path class="st3" d="m103.2 71.7 39.2-39.2c.8-.8 2-.8 2.8 0l5.2 5.2c.8.8.8 2 0 2.8l-39.2 39.2c-.8.8-2 .8-2.8 0l-5.2-5.2c-.7-.8-.7-2 0-2.8z"/><path class="st6" d="m282.4 345.7 39.2-39.2c.8-.8 2-.8 2.8 0l5.2 5.2c.8.8.8 2 0 2.8l-39.2 39.2c-.8.8-2 .8-2.8 0l-5.2-5.2c-.8-.7-.8-2 0-2.8z"/><path class="st5" d="M193.6 262.5h46c2.2 0 4 1.8 4 4V308c0 2.2-1.8 4-4 4h-46c-2.2 0-4-1.8-4-4v-41.5c0-2.2 1.8-4 4-4z"/><path d="m307 250.1-12.1 28.7" style="fill:none;stroke:#193787;stroke-width:2px;stroke-linecap:round"/><path d="M294.8 268c.1-3.3 3.5-5.4 6.4-4.1 2.9 1.3 3.7 5.1 1.4 7.4l-5.7 5.9c-.4.4-1 .5-1.5.3s-.9-.7-.8-1.3l.2-8.2z" style="fill-rule:evenodd;clip-rule:evenodd;fill:#44c6e6"/><path d="m330.1 196.2 1.4-3.3" style="fill:none;stroke:#193787;stroke-width:6px;stroke-linecap:round"/><path class="st0" d="M324.8 196.1c.4-1 1.6-1.5 2.6-1.1l5.2 2.2c1 .4 1.5 1.6 1.1 2.6L304.2 269c-.4 1-1.6 1.5-2.6 1.1l-5.2-2.2c-1-.4-1.5-1.6-1.1-2.6l29.5-69.2zM335.7 204.7c.8.3 1.2 1.3.9 2.1l-7 16.3c-.3.8-1.3 1.2-2.1.9-.8-.3-1.2-1.3-.9-2.1l7-16.3c.3-.8 1.3-1.2 2.1-.9z"/><path class="st0" d="M329.9 204.9c.2-.4.7-.7 1.2-.5l3.2 1.3c.3.1.4.4.3.7-.2.5-1.9.6-2.4.4-.3-.2-.7-.2-1.1-.3-.7 0-1.4-.8-1.2-1.6z"/><path class="st3" d="m306.6 239 8.9 3.8c-2.3 7.7-3.9 11.8-7.8 18.2l-8.9-3.8c1.8-7.5 3.6-11.4 7.8-18.2z"/><circle class="st6" cx="323.9" cy="92.2" r="32.1"/><path d="M318.2 60.6c-15 2.7-26.5 15.8-26.5 31.6s11.4 29 26.5 31.6V60.6z" style="fill-rule:evenodd;clip-rule:evenodd;fill:#193787"/><path class="st5" d="M42.3 212.7c-1-2.5.3-5.4 2.9-6.3l73.7-27.9c3.8-1.4 8.1.5 9.5 4.3L169.7 292c1.4 3.8-.5 8.1-4.3 9.5l-73.7 27.9c-2.5 1-5.4-.3-6.3-2.9L42.3 212.7z"/><path class="st5" d="M35.3 214.6c-.4-1-.1-2.1.7-2.8l1.9-1.6c1.3-1.1 3.3-.6 3.9 1l44.1 116.5c.6 1.6-.5 3.3-2.2 3.3l-2.5.1c-1 0-2-.6-2.4-1.6L35.3 214.6z"/><circle class="st3" cx="139.1" cy="290.7" r="9.6"/><circle class="st6" cx="101.8" cy="277.8" r="22.5"/><path class="st0" d="m65.1 219.9 45.7-18.1c2.5-1 5.4.2 6.4 2.8l5.4 13.7c1 2.5-.2 5.4-2.8 6.4l-45.7 18.1c-2.5 1-5.4-.2-6.4-2.8l-5.4-13.7c-1-2.6.3-5.4 2.8-6.4z"/></svg>