<svg width="99" height="172" fill="none" xmlns="http://www.w3.org/2000/svg"><g clip-path="url('#clip0_126_938')"><path d="M5.524 66.935c0-.652 1.397-.935 2.328-.935H91.29c.932 0 1.123.285 1.123.935v88.575c0 .653-.392 1.43-1.218 1.73L51.27 171.778c-.83.3-2.112.302-2.944.007L7.312 157.233c-.83-.298-1.79-1.073-1.79-1.723V66.935h.002Z" fill="#F7F7F7"/><path opacity=".42" d="M89.43 97.67V87.505H8.657L89.43 97.67Z" fill="#E0E0E0"/><path d="M94.75 83.128s-40.122 13.205-90.746 0V57.433c46.699 12.102 90.747 0 90.747 0v25.695Z" fill="#fff"/><path d="M94.751 57.433v25.695s-17.835 5.867-44.72 5.867c-13.446 0-29.151-1.467-46.027-5.867V57.433c15.565 4.035 30.838 5.38 44.281 5.38 26.888 0 46.464-5.38 46.464-5.38m3.912-5.115-4.952 1.36c-.211.057-19.455 5.24-45.424 5.24-15.278 0-29.846-1.768-43.297-5.253L.091 52.393v33.74l2.921.762c15.254 3.978 31.072 5.995 47.019 5.995 27.202 0 45.195-5.817 45.948-6.065l2.685-.882V52.318h-.003Z" fill="#F7F7F7"/><path d="M19.002 67.478a2.075 2.075 0 0 1 1.296.835c.146.204.251.434.317.694.065.26.075.523.027.79l-1.386 7.8c-.048.268-.15.513-.306.733a2.03 2.03 0 0 1-1.313.843 2.295 2.295 0 0 1-.857-.003 183.842 183.842 0 0 1-6.419-1.33 2.256 2.256 0 0 1-.786-.338c-.236-.16-.43-.35-.578-.572a1.916 1.916 0 0 1-.301-.728 1.865 1.865 0 0 1 .02-.79c.62-2.567 1.238-5.135 1.859-7.702a1.93 1.93 0 0 1 .334-.715c.158-.213.348-.383.57-.513a2.24 2.24 0 0 1 .73-.264 1.98 1.98 0 0 1 .804.017c1.991.45 3.988.865 5.992 1.243h-.003Zm-1.574 2.64c-1.351-.263-2.7-.543-4.046-.84l-1.326 5.974c1.394.308 2.793.598 4.191.87.395-2.002.787-4.004 1.18-6.004ZM32.696 69.573a.31.31 0 0 1 .07.237l-.233 2.233a.309.309 0 0 1-.12.217.329.329 0 0 1-.247.068 169.123 169.123 0 0 1-5.826-.718c-.058-.007-.09.01-.095.055l-.261 1.835c-.008.058.017.088.075.098 1.487.21 2.976.397 4.467.57.093.01.166.05.219.12.053.07.073.147.063.237l-.239 2.113a.317.317 0 0 1-.36.285 174.599 174.599 0 0 1-4.54-.578c-.06-.007-.092.015-.1.073-.18 1.262-.359 2.525-.54 3.787-.03.213-.16.303-.391.27-.842-.12-1.68-.247-2.522-.38-.23-.037-.329-.16-.296-.375.595-3.705 1.193-7.407 1.788-11.112.035-.213.158-.303.374-.268 2.823.445 5.653.818 8.49 1.118.091.01.166.05.222.117l.002-.002ZM43.6 70.355c.06.065.09.142.085.233-.03.747-.057 1.495-.087 2.242a.3.3 0 0 1-.106.225.33.33 0 0 1-.238.085c-1.952-.08-3.903-.192-5.854-.338-.058-.005-.088.015-.093.06-.048.616-.093 1.233-.14 1.848-.006.058.022.088.082.093 1.494.112 2.991.204 4.49.277.096.005.169.04.226.105a.32.32 0 0 1 .078.233c-.032.707-.068 1.414-.1 2.122a.324.324 0 0 1-.1.225.308.308 0 0 1-.24.082 173.644 173.644 0 0 1-4.56-.282c-.06-.005-.093.023-.095.078l-.291 3.814c-.016.216-.141.313-.375.296a173.41 173.41 0 0 1-2.536-.216c-.234-.022-.34-.14-.319-.355.352-3.734.706-7.47 1.057-11.204.02-.215.138-.313.357-.293 2.84.26 5.685.447 8.53.563.091.002.169.037.23.102v.005ZM48.321 81.958c0 .215-.12.322-.354.32-.846-.01-1.695-.028-2.541-.05-.234-.005-.347-.118-.342-.333.108-3.75.216-7.5.322-11.25.005-.215.118-.32.336-.315.791.02 1.582.038 2.373.045.219.003.327.113.324.328-.04 3.75-.077 7.502-.118 11.252v.003ZM54.283 73.318a.278.278 0 0 0-.09.222l.128 5.508c0 .09.038.162.105.217.068.055.151.083.246.08 1.94-.05 3.878-.13 5.814-.242.098-.005.18.02.251.08.07.057.108.132.113.222l.136 2.24a.304.304 0 0 1-.088.235.344.344 0 0 1-.244.108 179.253 179.253 0 0 1-7.014.27c-.11 0-.22.005-.331.005a2.292 2.292 0 0 1-.839-.14 2.06 2.06 0 0 1-.693-.418 1.901 1.901 0 0 1-.462-.635c-.11-.242-.168-.5-.168-.772v-.305c0-.413-.005-.828-.008-1.24-.007-1.32-.015-2.64-.02-3.96 0-.368-.005-.738-.005-1.105 0-.438-.005-.873-.008-1.31 0-.273.05-.53.151-.775a1.88 1.88 0 0 1 .427-.633c.183-.177.397-.32.643-.432.246-.11.505-.168.78-.173a168.096 168.096 0 0 0 6.856-.257.326.326 0 0 1 .24.08.301.301 0 0 1 .107.222l.136 2.24a.31.31 0 0 1-.083.235.33.33 0 0 1-.231.108c-1.868.107-3.74.187-5.613.232a.336.336 0 0 0-.233.09l-.003.003ZM67.13 81.17c.02.215-.085.332-.318.355-.844.078-1.69.15-2.534.218-.234.017-.357-.08-.374-.295-.29-3.74-.575-7.48-.864-11.22-.018-.215.083-.33.301-.348.789-.063 1.577-.13 2.366-.203.216-.02.336.078.356.29l1.068 11.206v-.003ZM76.75 68.285c.273-.042.54-.032.8.035.261.068.495.17.701.315.206.143.384.325.535.548.15.222.248.465.296.735.548 3.15 1.093 6.3 1.64 9.447a.3.3 0 0 1-.06.243.358.358 0 0 1-.231.135c-.844.142-1.69.28-2.534.412a.35.35 0 0 1-.261-.055.291.291 0 0 1-.136-.212c-.156-1.003-.311-2.005-.464-3.008a.317.317 0 0 0-.372-.27c-1.18.18-2.363.345-3.546.5a.349.349 0 0 0-.231.125.309.309 0 0 0-.07.24l.391 3.018c.028.212-.075.335-.306.365-.841.107-1.685.207-2.529.302-.233.025-.359-.067-.384-.282l-1.062-9.53c-.03-.27-.008-.533.07-.785.075-.253.196-.478.36-.673.162-.195.36-.36.592-.497.233-.135.484-.22.758-.255 2.017-.248 4.03-.533 6.042-.853Zm-.156 5.755c-.154-.985-.304-1.972-.457-2.957-1.357.207-2.715.4-4.076.575.128.99.256 1.977.386 2.967 1.384-.177 2.768-.372 4.147-.585ZM91.146 74.613a.327.327 0 0 1 .254.035c.072.047.12.115.143.202l.527 2.183a.32.32 0 0 1-.035.245.32.32 0 0 1-.214.147c-2.599.615-5.206 1.173-7.822 1.673-.231.045-.367-.04-.407-.253-.7-3.685-1.404-7.372-2.105-11.057-.04-.213.048-.338.262-.378.78-.15 1.56-.302 2.338-.462.213-.045.344.04.386.25l1.718 8.205c.018.09.065.155.143.195a.365.365 0 0 0 .259.032c1.522-.317 3.038-.657 4.555-1.017h-.002Z" fill="#122F4C"/><path d="m98.724 52.31-5-2.467L93.668 0H4.521l.096 50.24-4.589 2.265 4.589 3.173v.07h.102l.282.195.02-.195h1.547s42.797 12.792 86.508.195h.653v-.185l.027-.008 4.97-3.437-.002-.003Z" fill="#F7F7F7"/><path d="M22.083 140.358c.244.102.452.242.628.422s.316.388.424.625c.108.235.16.49.16.76v3.173c0 .27-.052.525-.16.767a2.135 2.135 0 0 1-.424.633 1.955 1.955 0 0 1-1.399.575h-6.763c-.216 0-.321-.108-.321-.32v-2.043c0-.09.03-.165.093-.227a.308.308 0 0 1 .228-.093h5.764c.09 0 .165-.027.228-.085a.28.28 0 0 0 .093-.22v-1.4c0-.09-.03-.165-.093-.227a.308.308 0 0 0-.229-.093h-4.1a1.972 1.972 0 0 1-1.407-.575 1.98 1.98 0 0 1-.424-.625 1.885 1.885 0 0 1-.153-.76v-3.172a1.945 1.945 0 0 1 .577-1.393c.181-.175.392-.315.636-.422.243-.108.5-.16.77-.16h6.39c.213 0 .32.107.32.32v2.075c0 .09-.03.162-.092.22a.326.326 0 0 1-.229.085h-5.407c-.09 0-.163.03-.22.092a.323.323 0 0 0-.086.228v1.367c0 .09.028.165.085.228.056.062.131.092.221.092h4.119c.271 0 .527.05.77.153ZM34.845 135.593a.305.305 0 0 1 .093.227v2.125c0 .09-.03.163-.093.22a.322.322 0 0 1-.228.085h-5.678c-.058 0-.085.028-.085.085v1.84c0 .045.027.068.085.068h4.847c.09 0 .163.03.22.092a.334.334 0 0 1 .086.228v1.687c0 .09-.028.168-.085.228a.287.287 0 0 1-.221.092h-4.847c-.058 0-.085.028-.085.085v1.823c0 .057.027.085.085.085h5.678c.09 0 .166.03.228.092a.309.309 0 0 1 .093.228v2.11c0 .09-.03.165-.093.227a.308.308 0 0 1-.228.093h-8.423c-.216 0-.321-.108-.321-.32v-11.17c0-.09.03-.165.093-.228a.31.31 0 0 1 .228-.092h8.423c.09 0 .166.03.228.092v-.002ZM45.598 135.5c.271 0 .527.053.771.16.244.108.452.248.628.423s.316.382.424.625c.108.242.16.497.16.767v9.515c0 .09-.03.165-.092.228a.31.31 0 0 1-.228.092h-2.356a.31.31 0 0 1-.229-.092.308.308 0 0 1-.093-.228v-3.02a.318.318 0 0 0-.085-.227.284.284 0 0 0-.22-.093h-3.356c-.09 0-.166.03-.228.093a.305.305 0 0 0-.093.227v3.02c0 .215-.108.32-.322.32h-2.338c-.213 0-.321-.107-.321-.32v-9.515a1.936 1.936 0 0 1 .577-1.392c.181-.175.392-.315.636-.423.243-.107.5-.16.77-.16h6-.005Zm-1.017 5.618v-2.97h-3.983v2.97h3.983ZM58.065 140.358c.243.102.452.242.627.422.176.18.317.388.425.625.108.235.16.49.16.76v3.173c0 .27-.052.525-.16.767a2.135 2.135 0 0 1-.425.633 1.955 1.955 0 0 1-1.399.575h-6.762c-.216 0-.322-.108-.322-.32v-2.043c0-.09.03-.165.093-.227a.308.308 0 0 1 .229-.093h5.763c.09 0 .166-.027.229-.085a.28.28 0 0 0 .093-.22v-1.4c0-.09-.03-.165-.093-.227a.308.308 0 0 0-.229-.093h-4.1a1.972 1.972 0 0 1-1.407-.575 1.98 1.98 0 0 1-.425-.625 1.885 1.885 0 0 1-.153-.76v-3.172a1.945 1.945 0 0 1 .578-1.393 2.14 2.14 0 0 1 .635-.422c.244-.108.5-.16.771-.16h6.389c.216 0 .321.107.321.32v2.075c0 .09-.03.162-.093.22a.326.326 0 0 1-.228.085h-5.407c-.09 0-.163.03-.22.092a.334.334 0 0 0-.086.228v1.367c0 .09.027.165.085.228.055.062.13.092.221.092h4.119c.27 0 .527.05.77.153ZM69.8 135.5c.27 0 .527.053.77.16.244.108.453.248.628.423.176.175.317.382.425.625.108.242.16.497.16.767v7.863c0 .27-.052.525-.16.767a2.133 2.133 0 0 1-.425.633 1.955 1.955 0 0 1-1.399.575H63.8c-.271 0-.527-.05-.77-.153a1.963 1.963 0 0 1-1.06-1.055 1.981 1.981 0 0 1-.154-.767v-7.863a1.936 1.936 0 0 1 .578-1.392 2.16 2.16 0 0 1 .635-.423c.244-.107.5-.16.771-.16h6Zm-1.018 2.868H64.8v6.075h3.983v-6.075ZM84.317 135.593a.305.305 0 0 1 .093.227v11.17c0 .09-.03.165-.093.228a.311.311 0 0 1-.229.092h-2.44a.556.556 0 0 1-.272-.075.509.509 0 0 1-.203-.195l-3.747-6.885v6.833c0 .215-.108.32-.322.32h-2.338c-.216 0-.32-.108-.32-.32v-11.17c0-.213.107-.32.32-.32h2.406c.09 0 .181.025.272.075a.51.51 0 0 1 .203.195l3.762 6.9v-6.85c0-.09.03-.165.093-.228a.31.31 0 0 1 .228-.092h2.356c.09 0 .166.03.228.092l.003.003Z" fill="#122F4C"/><path d="M20.308 39.375a.576.576 0 0 1 .349.523v2.737a.09.09 0 0 1-.028.065.091.091 0 0 1-.065.027h-.678a.082.082 0 0 1-.063-.027.1.1 0 0 1-.025-.065v-2.48h-.545v2.48a.089.089 0 0 1-.025.065.086.086 0 0 1-.063.027h-.615a.091.091 0 0 1-.066-.027.09.09 0 0 1-.027-.065v-2.48h-.545v2.48c0 .063-.03.093-.093.093h-.673c-.063 0-.093-.03-.093-.093V39.42c0-.063.03-.093.093-.093h2.94c.079 0 .154.016.222.046v.002ZM23.718 39.33a.566.566 0 0 1 .404.168c.05.05.09.11.124.18a.51.51 0 0 1 .045.22v2.737a.09.09 0 0 1-.028.065.091.091 0 0 1-.065.028h-.678a.091.091 0 0 1-.066-.028.09.09 0 0 1-.027-.065v-.87a.088.088 0 0 0-.025-.065.086.086 0 0 0-.063-.027h-.967a.091.091 0 0 0-.065.027.09.09 0 0 0-.028.065v.87c0 .063-.03.093-.093.093h-.673c-.06 0-.093-.03-.093-.093v-2.737a.533.533 0 0 1 .166-.4.67.67 0 0 1 .183-.123.554.554 0 0 1 .222-.045h1.727Zm-.291 1.618v-.855h-1.145v.855h1.145ZM27.36 39.358a.09.09 0 0 1 .027.065v2.737a.54.54 0 0 1-.045.22.616.616 0 0 1-.123.182.537.537 0 0 1-.402.166h-1.47a.575.575 0 0 1-.572-.568v-1.04c0-.063.03-.092.093-.092h.673c.06 0 .093.03.093.092v.695c0 .025.008.047.028.063a.1.1 0 0 0 .065.025h.708a.09.09 0 0 0 .066-.026.085.085 0 0 0 .027-.062V39.42c0-.025.008-.047.025-.065a.086.086 0 0 1 .063-.027h.678c.025 0 .048.01.065.027v.003ZM30.446 39.33a.576.576 0 0 1 .57.567v2.263a.538.538 0 0 1-.045.22.6.6 0 0 1-.123.183.537.537 0 0 1-.402.165h-1.728a.575.575 0 0 1-.572-.568v-2.262a.56.56 0 0 1 .352-.522.554.554 0 0 1 .22-.046h1.728Zm-.291.825H29.01v1.748h1.145v-1.748ZM34.758 42.65c.013.023.015.043.005.055-.01.015-.027.023-.053.023h-.776a.155.155 0 0 1-.078-.023.152.152 0 0 1-.057-.055l-.517-.922a.037.037 0 0 0-.036-.02h-.58c-.015 0-.025.007-.025.025v.902c0 .063-.03.093-.093.093h-.673c-.063 0-.093-.03-.093-.093V39.42c0-.063.03-.093.093-.093h2.205a.576.576 0 0 1 .57.568v1.278a.546.546 0 0 1-.11.332.543.543 0 0 1-.282.203l-.015.005c-.022.007-.027.014-.015.03l.005.01.523.897h.002Zm-.972-2.53h-1.175v.825h1.175v-.825ZM39.356 41.903c.025 0 .048.01.063.027a.1.1 0 0 1 .025.065v.64a.089.089 0 0 1-.025.065.086.086 0 0 1-.063.027h-2.107c-.063 0-.093-.03-.093-.092V39.42c0-.063.03-.093.093-.093h.673c.063 0 .093.03.093.093v2.395c0 .025.007.047.027.063.02.014.04.025.066.025h1.248ZM42.505 39.358a.09.09 0 0 1 .027.065v.612c0 .025-.01.048-.027.063a.1.1 0 0 1-.065.025h-1.635c-.015 0-.025.007-.025.025v.53c0 .012.007.02.025.02H42.2c.025 0 .048.01.063.027a.1.1 0 0 1 .025.065v.485a.088.088 0 0 1-.025.065.085.085 0 0 1-.063.028h-1.396c-.015 0-.025.007-.025.025v.525c0 .015.007.025.025.025h1.635c.025 0 .047.01.065.027a.09.09 0 0 1 .027.065v.608a.09.09 0 0 1-.027.065.091.091 0 0 1-.065.027h-2.424c-.063 0-.093-.03-.093-.092v-3.215a.09.09 0 0 1 .028-.065.091.091 0 0 1 .065-.028h2.424c.025 0 .047.01.065.028v-.005ZM45.599 39.33a.567.567 0 0 1 .527.348.51.51 0 0 1 .045.22v2.737a.09.09 0 0 1-.027.065.091.091 0 0 1-.066.028H45.4a.091.091 0 0 1-.065-.028.09.09 0 0 1-.028-.065v-.87a.088.088 0 0 0-.025-.065.086.086 0 0 0-.063-.027h-.966a.091.091 0 0 0-.066.027.09.09 0 0 0-.027.065v.87c0 .063-.03.093-.093.093h-.673c-.06 0-.093-.03-.093-.093v-2.737a.535.535 0 0 1 .166-.4.67.67 0 0 1 .183-.123.554.554 0 0 1 .22-.045H45.6Zm-.292 1.618v-.855h-1.145v.855h1.145ZM49.772 40.9a.09.09 0 0 1 .028.065v1.195a.54.54 0 0 1-.045.22.599.599 0 0 1-.124.183.537.537 0 0 1-.401.165h-1.728a.574.574 0 0 1-.573-.568v-2.262a.56.56 0 0 1 .168-.4.67.67 0 0 1 .184-.123.554.554 0 0 1 .22-.045h2.015c.025 0 .048.01.065.028a.09.09 0 0 1 .028.065v.64a.09.09 0 0 1-.028.065.091.091 0 0 1-.065.027H47.88a.09.09 0 0 0-.065.025.085.085 0 0 0-.028.063v1.572c0 .025.01.048.028.063a.1.1 0 0 0 .065.025h.967a.08.08 0 0 0 .063-.025.093.093 0 0 0 .025-.063v-.85c0-.025.007-.047.027-.065a.096.096 0 0 1 .066-.027h.678c.025 0 .047.01.065.027ZM53.371 39.358a.09.09 0 0 1 .028.065v2.737a.538.538 0 0 1-.045.22.6.6 0 0 1-.123.183.538.538 0 0 1-.405.165H51.1a.574.574 0 0 1-.527-.348.546.546 0 0 1-.044-.22v-2.737c0-.063.03-.093.093-.093h.673c.06 0 .093.03.093.093v2.395c0 .025.01.047.028.062a.1.1 0 0 0 .065.025h.967c.025 0 .048-.007.063-.025a.093.093 0 0 0 .025-.062v-2.395a.09.09 0 0 1 .028-.065.091.091 0 0 1 .065-.028h.678c.025 0 .048.01.065.028ZM56.751 39.358a.09.09 0 0 1 .028.065v.612c0 .025-.01.048-.028.063a.1.1 0 0 1-.065.025h-1.635c-.015 0-.025.007-.025.025v.53c0 .012.008.02.025.02h1.396c.026 0 .048.01.063.027a.1.1 0 0 1 .025.065v.485a.088.088 0 0 1-.025.065.086.086 0 0 1-.063.028h-1.396c-.015 0-.025.007-.025.025v.525c0 .015.008.025.025.025h1.635c.025 0 .048.01.065.027a.09.09 0 0 1 .028.065v.608a.09.09 0 0 1-.028.065.091.091 0 0 1-.065.027h-2.423c-.063 0-.093-.03-.093-.092v-3.215a.09.09 0 0 1 .027-.065.091.091 0 0 1 .066-.028h2.423c.025 0 .048.01.065.028v-.005ZM61.987 39.33c.026 0 .048.01.066.028a.09.09 0 0 1 .027.065v3.215a.082.082 0 0 1-.027.065.096.096 0 0 1-.066.027h-.678a.091.091 0 0 1-.065-.027.09.09 0 0 1-.027-.065v-1.123a.08.08 0 0 0-.026-.062.094.094 0 0 0-.062-.025h-.967a.09.09 0 0 0-.066.025.085.085 0 0 0-.027.062v1.123c0 .062-.03.092-.093.092h-.673c-.063 0-.093-.03-.093-.092v-3.215c0-.063.03-.093.093-.093h.673c.063 0 .093.03.093.093v1.087c0 .063.03.093.093.093h.967c.025 0 .047-.01.062-.028a.1.1 0 0 0 .026-.065v-1.087a.09.09 0 0 1 .027-.065.091.091 0 0 1 .065-.028h.678ZM65.15 39.33a.566.566 0 0 1 .403.168c.05.05.09.11.124.18a.51.51 0 0 1 .045.22v2.737a.09.09 0 0 1-.028.065.091.091 0 0 1-.065.028h-.678a.091.091 0 0 1-.066-.028.09.09 0 0 1-.027-.065v-.87a.088.088 0 0 0-.025-.065.086.086 0 0 0-.063-.027h-.967a.091.091 0 0 0-.065.027.09.09 0 0 0-.028.065v.87c0 .063-.03.093-.093.093h-.673c-.06 0-.093-.03-.093-.093v-2.737a.533.533 0 0 1 .166-.4.67.67 0 0 1 .183-.123.554.554 0 0 1 .221-.045h1.728Zm-.292 1.618v-.855h-1.145v.855h1.145ZM67.362 40.18a.081.081 0 0 0-.028.063v1.572c0 .025.007.048.028.063.02.015.04.025.065.025h1.567c.025 0 .047.01.065.027a.09.09 0 0 1 .028.065v.64a.082.082 0 0 1-.028.065.096.096 0 0 1-.065.028h-1.947a.575.575 0 0 1-.573-.568v-2.262c.001-.078.016-.153.046-.22.03-.07.07-.13.123-.18a.67.67 0 0 1 .184-.123.554.554 0 0 1 .22-.045h1.947c.025 0 .047.01.065.028a.09.09 0 0 1 .028.065v.64a.082.082 0 0 1-.028.065.096.096 0 0 1-.065.027h-1.567a.089.089 0 0 0-.066.025ZM71.801 40.763s-.012.02-.005.035l1.143 1.855c.013.022.015.042.005.055-.01.015-.028.022-.053.022h-.808a.155.155 0 0 1-.078-.022.152.152 0 0 1-.058-.055l-.736-1.325c-.01-.015-.017-.018-.025-.005l-.404.442a.206.206 0 0 0-.04.07.223.223 0 0 0-.018.085v.718c0 .062-.03.092-.093.092h-.673c-.063 0-.093-.03-.093-.092v-3.215c0-.063.03-.093.093-.093h.673c.063 0 .093.03.093.093v1.442l1.258-1.467a.157.157 0 0 1 .068-.048.222.222 0 0 1 .083-.02h.809c.025 0 .04.008.045.02.005.013 0 .03-.018.048l-1.165 1.365H71.8ZM74.43 42.638c0 .062-.03.092-.093.092h-.673c-.063 0-.093-.03-.093-.092v-3.215c0-.063.03-.093.093-.093h.673c.063 0 .093.03.093.093v3.215ZM77.715 39.375a.577.577 0 0 1 .35.523v2.737a.082.082 0 0 1-.028.065.096.096 0 0 1-.066.027h-.678a.082.082 0 0 1-.063-.027.1.1 0 0 1-.025-.065V40.24a.081.081 0 0 0-.027-.063.1.1 0 0 0-.066-.024h-.966a.09.09 0 0 0-.066.025.085.085 0 0 0-.027.062v2.395c0 .063-.03.093-.093.093h-.673c-.063 0-.093-.03-.093-.093V39.42c0-.063.03-.093.093-.093h2.205c.078 0 .153.016.22.046l.003.002ZM81.665 40.9a.09.09 0 0 1 .028.065v1.195a.54.54 0 0 1-.045.22.602.602 0 0 1-.123.183.537.537 0 0 1-.402.165h-1.728a.575.575 0 0 1-.573-.568v-2.262a.56.56 0 0 1 .352-.522.554.554 0 0 1 .221-.046h2.014c.025 0 .048.01.065.028a.09.09 0 0 1 .028.065v.64a.09.09 0 0 1-.028.065.091.091 0 0 1-.065.027h-1.635a.089.089 0 0 0-.065.025.085.085 0 0 0-.028.063v1.572c0 .025.01.048.028.063a.1.1 0 0 0 .065.025h.967a.08.08 0 0 0 .063-.025.094.094 0 0 0 .025-.063v-.85c0-.025.007-.047.028-.065a.096.096 0 0 1 .065-.027h.678c.025 0 .048.01.065.027Z" fill="#242425"/><path d="M37.628 15.93c.442.195.821.45 1.14.765.32.318.575.695.771 1.133.196.44.294.902.294 1.392v17.833a.576.576 0 0 1-.588.58h-4.284a.517.517 0 0 1-.402-.168.588.588 0 0 1-.153-.412v-16.21h-3.453v16.21a.595.595 0 0 1-.153.412.517.517 0 0 1-.402.168h-3.885a.566.566 0 0 1-.417-.168.561.561 0 0 1-.17-.412v-16.21h-3.453v16.21c0 .387-.196.582-.586.582h-4.254c-.391 0-.585-.195-.585-.582V16.22c0-.387.196-.582.585-.582h18.589c.492 0 .959.097 1.401.29l.005.002Z" fill="#E73427"/><path d="M37.628 15.93c.442.195.822.45 1.14.765.32.318.575.695.771 1.133.196.44.294.902.294 1.392v1.59l-5.424.033H22.48l-5.424-.033v-4.59c0-.387.196-.582.585-.582H36.23c.492 0 .959.097 1.4.29l-.002.002Z" fill="#E73427"/><path d="M58.514 32.297c.174 0 .317.058.425.173a.6.6 0 0 1 .163.425v4.147a.6.6 0 0 1-.163.425.558.558 0 0 1-.425.173H43.84c-.415 0-.62-.2-.62-.598V16.237c0-.397.205-.597.62-.597h4.505c.414 0 .62.2.62.598v15.495c0 .167.06.305.181.407.12.105.266.157.442.157h8.927Z" fill="#1D539F"/><path d="M48.918 37.64h-5.08c-.412 0-.618-.2-.618-.598V16.237c0-.397.206-.597.618-.597h4.495c.412 0 .618.2.618.598v15.495l-.033 5.907Z" fill="#1D539F"/><path d="M81.07 15.64a.62.62 0 0 1 .445.173c.121.115.181.257.181.425v20.865c0 .167-.06.31-.18.425a.62.62 0 0 1-.445.172h-4.566a.62.62 0 0 1-.444-.172.565.565 0 0 1-.18-.425v-7.28a.548.548 0 0 0-.164-.41.592.592 0 0 0-.427-.158h-6.404a.653.653 0 0 0-.444.158.519.519 0 0 0-.181.41v7.28c0 .4-.209.6-.623.6h-4.533c-.416 0-.622-.2-.622-.6V16.238c0-.4.208-.6.622-.6h4.533c.414 0 .623.2.623.6v7.06c0 .4.208.6.623.6h6.403a.563.563 0 0 0 .427-.173.59.59 0 0 0 .164-.425v-7.06c0-.167.06-.31.18-.425a.62.62 0 0 1 .445-.172h4.565l.003-.003Z" fill="#F8B92A"/><path d="M68.263 29.823v7.28c0 .4-.209.6-.623.6h-4.533c-.417 0-.623-.2-.623-.6V16.238c0-.4.209-.6.623-.6h4.533c.415 0 .623.2.623.6v13.585ZM81.07 15.64a.62.62 0 0 1 .445.172c.12.116.18.258.18.426v20.864c0 .168-.06.31-.18.426a.62.62 0 0 1-.445.172h-4.565a.62.62 0 0 1-.445-.172.566.566 0 0 1-.18-.425V16.236c0-.167.06-.31.18-.424a.62.62 0 0 1 .445-.173h4.565Z" fill="#F8B92A"/><path d="M19.575 122.07v2.538c.058.285.229.427.515.427h9.618c.153 0 .276.053.372.158a.55.55 0 0 1 .143.385v3.447a.55.55 0 0 1-.143.385.478.478 0 0 1-.372.158H15.622c-.361 0-.545-.18-.545-.543v-8.15c0-.455.086-.882.26-1.282.172-.4.408-.75.715-1.055a3.365 3.365 0 0 1 2.378-.97h6.785a.526.526 0 0 0 .387-.158.52.52 0 0 0 .158-.385v-2.307a.52.52 0 0 0-.158-.385.526.526 0 0 0-.387-.158h-8.99a.502.502 0 0 1-.372-.142.499.499 0 0 1-.143-.37v-3.505a.55.55 0 0 1 .143-.385.478.478 0 0 1 .372-.158h10.678c.457 0 .886.09 1.288.27.402.18.754.418 1.06.713.304.295.545.645.716 1.055.17.41.258.84.258 1.297v.798c.018.02.028.047.028.085v7.267a.473.473 0 0 1-.158.37.556.556 0 0 1-.387.143H20.09c-.269 0-.44.152-.515.455v.002ZM45.197 109.618c.457 0 .892.09 1.304.27.409.18.763.417 1.06.712.296.295.534.645.715 1.055.18.41.271.84.271 1.298v13.28c0 .455-.09.887-.27 1.297-.182.41-.42.765-.717 1.068a3.112 3.112 0 0 1-1.06.712c-.411.17-.843.258-1.303.258h-8.616a3.33 3.33 0 0 1-1.303-.258 3.238 3.238 0 0 1-1.072-.712 3.252 3.252 0 0 1-.716-1.068 3.324 3.324 0 0 1-.259-1.297v-13.28c0-.455.085-.888.259-1.298.17-.407.41-.76.715-1.055a3.61 3.61 0 0 1 1.073-.712c.41-.18.843-.27 1.303-.27h8.616Zm-1.517 4.845h-5.582v10.26h5.583v-10.26ZM55.96 122.07v2.538c.059.285.23.427.516.427h9.618c.153 0 .276.053.372.158a.55.55 0 0 1 .143.385v3.447a.55.55 0 0 1-.143.385.478.478 0 0 1-.372.158H52.008c-.361 0-.545-.18-.545-.543v-8.15c0-.455.086-.882.259-1.282.17-.4.41-.75.716-1.055a3.366 3.366 0 0 1 2.376-.97h6.785a.527.527 0 0 0 .387-.158.52.52 0 0 0 .158-.385v-2.307a.52.52 0 0 0-.158-.385.527.527 0 0 0-.387-.158h-8.99a.503.503 0 0 1-.372-.142.499.499 0 0 1-.143-.37v-3.505a.55.55 0 0 1 .143-.385.478.478 0 0 1 .371-.158h10.678c.457 0 .887.09 1.289.27.401.18.753.418 1.06.713.306.295.544.645.715 1.055.17.41.259.84.259 1.297v.798c.017.02.027.047.027.085v7.267a.473.473 0 0 1-.158.37.556.556 0 0 1-.387.143h-9.618c-.268 0-.44.152-.515.455l.003.002ZM83.63 109.773a.52.52 0 0 1 .158.385v18.867a.52.52 0 0 1-.158.385.526.526 0 0 1-.387.158h-3.98a.478.478 0 0 1-.372-.158.55.55 0 0 1-.143-.385v-4.675a.474.474 0 0 0-.158-.37.555.555 0 0 0-.387-.142h-6.384a3.22 3.22 0 0 1-1.303-.27 3.615 3.615 0 0 1-1.072-.713 3.097 3.097 0 0 1-.716-1.055 3.322 3.322 0 0 1-.259-1.297v-10.345c0-.36.181-.543.545-.543h3.95c.362 0 .545.18.545.543v8.122c0 .153.053.28.159.385a.526.526 0 0 0 .386.158h4.151a.526.526 0 0 0 .387-.158.52.52 0 0 0 .158-.385v-8.122a.55.55 0 0 1 .144-.385.478.478 0 0 1 .371-.158h3.98c.154 0 .282.053.387.158h-.002Z" fill="#122F4C"/></g><defs><clipPath id="clip0_126_938"><path fill="#fff" d="M0 0h98.64v172H0z"/></clipPath></defs></svg>