<svg width="70" height="71" fill="none" xmlns="http://www.w3.org/2000/svg"><path d="M44.186 1.066c.92-1.64 3.42-.965 3.39.916l-.303 18.734a1.81 1.81 0 0 0 2.102 1.817l18.492-3.022c1.856-.303 2.887 2.073 1.398 3.221L54.43 34.176a1.81 1.81 0 0 0-.11 2.776l13.893 12.574c1.394 1.261.18 3.55-1.647 3.101l-18.197-4.465a1.81 1.81 0 0 0-2.24 1.646l-1.168 18.7c-.117 1.877-2.663 2.354-3.452.647l-7.855-17.011a1.81 1.81 0 0 0-2.682-.725L15.62 62.165c-1.54 1.079-3.5-.614-2.657-2.295l8.402-16.748a1.81 1.81 0 0 0-1.106-2.549l-17.972-5.3c-1.803-.533-1.702-3.12.138-3.51l18.333-3.872a1.81 1.81 0 0 0 1.303-2.454L15 8.08C14.292 6.339 16.379 4.805 17.83 6l14.458 11.918a1.81 1.81 0 0 0 2.731-.511l9.167-16.342Z" fill="#FE9C4A"/></svg>