<svg width="946" height="476" fill="none" xmlns="http://www.w3.org/2000/svg"><mask id="mask0_429_257" style="mask-type:alpha" maskUnits="userSpaceOnUse" x="0" y="0" width="947" height="476"><path transform="matrix(1 0 0 -1 .001 476)" fill="#C4C4C4" d="M0 0h946v476H0z"/></mask><g mask="url('#mask0_429_257')"><rect x="550" y="199" width="163" height="316" rx="15.499" fill="#1447C8"/><rect x="224" y="166" width="163" height="354" rx="15.499" fill="#6AC5E3"/><path d="m170.021 55.178-2.571 9.585a3.648 3.648 0 0 1-4.552 2.553l-4.991-1.468a3.646 3.646 0 0 1-2.282-5.027l4.951-10.728c1.063-2.304 4.096-2.845 5.89-1.05l2.612 2.611a3.647 3.647 0 0 1 .943 3.524Z" fill="#FE9C4A"/><path d="m114.165 215.216-7.919-2.008a3.647 3.647 0 0 0-3.586 1.073l-4.601 5.028a3.647 3.647 0 0 0 .877 5.626l8.381 4.804a3.646 3.646 0 0 0 5.037-1.459l4.139-7.824a3.646 3.646 0 0 0-2.328-5.24Z" fill="#6AC5E3"/><path d="m3.598 292.666 7.87 4.793a3.647 3.647 0 0 0 5.137-1.441l2.324-4.497a3.648 3.648 0 0 0-1.918-5.074l-10.194-3.964c-2.39-.93-4.969.834-4.969 3.399v3.67c0 1.272.664 2.453 1.75 3.114Z" fill="#1447C8"/><path d="m15.792 165.347 9.285 13.793a3.647 3.647 0 0 1-.977 5.054l-5.51 3.742a3.647 3.647 0 0 1-5.478-1.777l-6.34-17.535c-.86-2.378.902-4.887 3.43-4.887h2.565c1.213 0 2.347.603 3.025 1.61Z" fill="#FE9C4A"/><path d="M82.603 69.023h10.26c2.55 0 4.313 2.551 3.41 4.937l-2.615 6.913a3.647 3.647 0 0 1-3.41 2.357H78.941c-2.749 0-4.51-2.925-3.223-5.354l3.66-6.913a3.647 3.647 0 0 1 3.224-1.94Z" fill="#6AC5E3"/><path d="m245.356 33.738 6.773 3.984a3.649 3.649 0 0 1 1.792 3.346l-.372 6.7a3.647 3.647 0 0 1-4.562 3.326l-9.049-2.361a3.648 3.648 0 0 1-2.555-4.634l2.648-8.323a3.648 3.648 0 0 1 5.325-2.038ZM79.479 136.368l8.996 5.057a3.647 3.647 0 0 0 4.97-1.398l2.591-4.629a3.647 3.647 0 0 0-1.95-5.214l-11.588-4.16c-2.376-.853-4.879.908-4.879 3.432v3.733c0 1.318.711 2.533 1.86 3.179Z" fill="#1447C8"/><path d="m23.013 43.907-2.572 9.585a3.647 3.647 0 0 1-4.551 2.554l-4.992-1.468a3.647 3.647 0 0 1-2.282-5.027l4.952-10.729c1.063-2.303 4.095-2.844 5.89-1.05l2.611 2.611a3.647 3.647 0 0 1 .944 3.524Z" fill="#6AC5E3"/><path d="m152.873 133.5-16.45.952a3.648 3.648 0 0 1-3.845-3.334l-.536-6.356a3.646 3.646 0 0 1 4.302-3.891l18.153 3.384c2.473.461 3.748 3.229 2.49 5.408l-1.166 2.02a3.648 3.648 0 0 1-2.948 1.817ZM370.889 99.065l9.587-2.565a3.647 3.647 0 0 1 4.487 2.665l1.224 5.057a3.645 3.645 0 0 1-3.212 4.489l-11.767 1.076c-2.526.231-4.511-2.124-3.854-4.575l.956-3.568a3.646 3.646 0 0 1 2.579-2.579Z" fill="#FE9C4A"/><path d="m544.519 78.745 2.221 7.862a3.65 3.65 0 0 0 2.723 2.57l6.655 1.47a3.646 3.646 0 0 0 4.433-3.572l-.03-9.66a3.646 3.646 0 0 0-3.782-3.634l-8.845.328a3.647 3.647 0 0 0-3.375 4.636Z" fill="#6AC5E3"/><path d="m666.877 135.774.216-9.212a3.647 3.647 0 0 0-3.816-3.728l-5.058.236a3.646 3.646 0 0 0-3.434 4.197l1.664 10.811c.39 2.535 3.206 3.886 5.428 2.604l3.178-1.835a3.648 3.648 0 0 0 1.822-3.073Z" fill="#1447C8"/><path d="m586.051 120.411 7.303-14.938a3.646 3.646 0 0 1 4.865-1.681l5.995 2.901a3.647 3.647 0 0 1 1.201 5.633l-12.016 14.258c-1.629 1.933-4.683 1.662-5.947-.527l-1.283-2.221a3.649 3.649 0 0 1-.118-3.425Z" fill="#FE9C4A"/><path d="m428.769 147.56-5.13-8.885c-1.275-2.209.053-5.011 2.57-5.423l7.295-1.192a3.647 3.647 0 0 1 3.746 1.776l5.653 9.791c1.374 2.38-.278 5.367-3.025 5.468l-7.817.286a3.647 3.647 0 0 1-3.292-1.821Z" fill="#6AC5E3"/><path d="m321.76 55.87.064-7.858a3.646 3.646 0 0 1 2.001-3.225l5.988-3.027a3.647 3.647 0 0 1 5.162 2.288l2.48 9.016a3.647 3.647 0 0 1-2.736 4.53l-8.532 1.868a3.647 3.647 0 0 1-4.427-3.592ZM508.806 140.585l-.119-10.319a3.646 3.646 0 0 0-3.695-3.605l-5.305.07a3.648 3.648 0 0 0-3.541 4.296l2.192 12.116c.449 2.484 3.226 3.771 5.412 2.509l3.233-1.867a3.646 3.646 0 0 0 1.823-3.2Z" fill="#1447C8"/><path d="m441.738 243.34 9.587-2.566a3.647 3.647 0 0 1 4.487 2.665l1.225 5.057a3.648 3.648 0 0 1-3.213 4.49l-11.767 1.076c-2.526.231-4.511-2.125-3.854-4.576l.956-3.567a3.645 3.645 0 0 1 2.579-2.579Z" fill="#6AC5E3"/><path d="m456.534 71.644 9.049 13.77a3.646 3.646 0 0 1-.965 4.997l-5.235 3.642a3.647 3.647 0 0 1-5.522-1.78l-6.146-17.412c-.837-2.373.923-4.861 3.439-4.861h2.333c1.227 0 2.373.618 3.047 1.644ZM734.744 55.178l2.571 9.585a3.647 3.647 0 0 0 4.551 2.553l4.992-1.468a3.647 3.647 0 0 0 2.282-5.027l-4.951-10.728c-1.064-2.304-4.096-2.845-5.89-1.05l-2.612 2.611a3.647 3.647 0 0 0-.943 3.524Z" fill="#FE9C4A"/><path d="m790.599 215.216 7.919-2.008a3.65 3.65 0 0 1 3.587 1.073l4.601 5.028a3.647 3.647 0 0 1-.877 5.626l-8.381 4.804a3.646 3.646 0 0 1-5.037-1.459l-4.139-7.824a3.646 3.646 0 0 1 2.327-5.24Z" fill="#6AC5E3"/><path d="m901.166 292.666-7.87 4.793a3.646 3.646 0 0 1-5.136-1.441l-2.325-4.497a3.649 3.649 0 0 1 1.918-5.074l10.195-3.964c2.39-.93 4.968.834 4.968 3.399v3.67a3.645 3.645 0 0 1-1.75 3.114Z" fill="#1447C8"/><path d="m888.973 165.347-9.285 13.793a3.647 3.647 0 0 0 .976 5.054l5.51 3.742a3.647 3.647 0 0 0 5.479-1.777l6.34-17.535c.859-2.378-.902-4.887-3.43-4.887h-2.565a3.646 3.646 0 0 0-3.025 1.61Z" fill="#FE9C4A"/><path d="M822.162 69.023h-10.26c-2.55 0-4.313 2.551-3.411 4.937l2.615 6.913a3.648 3.648 0 0 0 3.411 2.357h11.306c2.748 0 4.509-2.925 3.223-5.354l-3.661-6.913a3.647 3.647 0 0 0-3.223-1.94Z" fill="#6AC5E3"/><path d="m659.409 33.738-6.773 3.984a3.647 3.647 0 0 0-1.792 3.346l.372 6.7a3.647 3.647 0 0 0 4.562 3.326l9.049-2.361a3.646 3.646 0 0 0 2.554-4.634l-2.648-8.323a3.647 3.647 0 0 0-5.324-2.038ZM825.286 136.368l-8.997 5.057a3.647 3.647 0 0 1-4.969-1.398l-2.592-4.629a3.647 3.647 0 0 1 1.95-5.214l11.588-4.16c2.376-.853 4.88.908 4.88 3.432v3.733a3.649 3.649 0 0 1-1.86 3.179Z" fill="#1447C8"/><path d="m881.752 43.907 2.572 9.585a3.646 3.646 0 0 0 4.551 2.554l4.991-1.468a3.647 3.647 0 0 0 2.283-5.027l-4.952-10.729c-1.063-2.303-4.096-2.844-5.89-1.05l-2.611 2.611a3.645 3.645 0 0 0-.944 3.524Z" fill="#6AC5E3"/><path d="m751.892 133.5 16.45.952a3.647 3.647 0 0 0 3.844-3.334l.537-6.356a3.647 3.647 0 0 0-4.303-3.891l-18.152 3.384c-2.474.461-3.748 3.229-2.49 5.408l1.166 2.02a3.648 3.648 0 0 0 2.948 1.817Z" fill="#FE9C4A"/><path d="M621.106 267.377c-1.164-4.344 1.287-8.894 5.486-10.182l12.598-3.866c4.199-1.289 8.53 1.179 9.694 5.522 1.164 4.344-1.287 8.894-5.486 10.182l-12.598 3.866c-4.199 1.289-8.531-1.179-9.694-5.522Z" fill="#081646"/><path d="m636.384 263.216-73.603 116.422" stroke="#081646" stroke-width="6" stroke-miterlimit="10"/><path d="M320.884 267.377c1.164-4.344-1.287-8.894-5.486-10.182l-12.598-3.866c-4.199-1.289-8.531 1.179-9.695 5.522-1.164 4.344 1.288 8.894 5.487 10.182l12.597 3.866c4.2 1.289 8.531-1.179 9.695-5.522Z" fill="#081646"/><path d="m304.596 263.218 73.603 116.422" stroke="#081646" stroke-width="6" stroke-miterlimit="10"/><path d="M576.002 501h-210V265.927c0-14.299 9.81-25.927 21.875-25.927h166.25c12.064 0 21.875 11.628 21.875 25.927V501Z" fill="#FE9C4A"/><path d="M426.389 372.706c-7.025 0-12.725-5.951-12.725-13.285v-23.247c0-7.335 5.7-13.285 12.725-13.285 7.026 0 12.726 5.95 12.726 13.285v23.247c0 7.334-5.7 13.285-12.726 13.285ZM514.408 372.706c-7.026 0-12.726-5.95-12.726-13.284v-23.248c0-7.334 5.7-13.284 12.726-13.284 7.025 0 12.725 5.95 12.725 13.284v23.248c0 7.334-5.7 13.284-12.725 13.284ZM471.061 402.597c-9.411 0-16.967-7.887-16.967-17.712v-4.013h33.934v4.013c0 9.825-7.555 17.712-16.967 17.712Z" fill="#081646"/><circle cx="513.63" cy="334.743" r="7.744" fill="#fff"/><circle cx="427.745" cy="334.743" r="7.744" fill="#fff"/><circle cx="510.113" cy="347.111" r="2.112" fill="#fff"/><circle cx="430.113" cy="347.111" r="2.112" fill="#fff"/><ellipse cx="520.817" cy="346.519" rx="2.816" ry="3.52" fill="#fff"/><ellipse cx="419.817" cy="346.519" rx="2.816" ry="3.52" fill="#fff"/><path d="M804.479 447.754v175.984" stroke="#1447C8" stroke-width="5.283"/><rect x="773.871" y="344.277" width="61.212" height="95.461" rx="30.606" fill="#1447C8"/><path d="M804.296 439.738a8.199 8.199 0 0 0-8.198 8.198h16.396a8.198 8.198 0 0 0-8.198-8.198Z" fill="#1447C8"/><path d="M747.04 438.943v175.985" stroke="#FE9C4A" stroke-width="5.283"/><rect x="716.433" y="336.924" width="61.212" height="95.461" rx="30.606" fill="#FE9C4A"/><path d="M746.856 432.386a8.198 8.198 0 0 0-8.198 8.198h16.396a8.198 8.198 0 0 0-8.198-8.198Z" fill="#FE9C4A"/><rect x="801.328" y="384.654" width="61.212" height="95.461" rx="30.606" fill="#FE9C4A"/><path d="M853.321 419.038v175.984" stroke="#6AC5E3" stroke-width="5.283"/><rect x="823.107" y="316.014" width="61.212" height="95.461" rx="30.606" fill="#6AC5E3"/><rect x="747.04" y="400.321" width="61.212" height="95.461" rx="30.606" fill="#6AC5E3"/><path d="M853.328 410.832a8.198 8.198 0 0 0-8.198 8.198h16.396a8.198 8.198 0 0 0-8.198-8.198Z" fill="#6AC5E3"/><path d="M127.985 447.754v175.984" stroke="#1447C8" stroke-width="5.283"/><rect width="61.212" height="95.461" rx="30.606" transform="matrix(-1 0 0 1 158.592 344.277)" fill="#1447C8"/><path d="M128.167 439.738a8.198 8.198 0 0 1 8.198 8.198h-16.396a8.199 8.199 0 0 1 8.198-8.198Z" fill="#1447C8"/><path d="M185.423 438.943v175.985" stroke="#FE9C4A" stroke-width="5.283"/><rect width="61.212" height="95.461" rx="30.606" transform="matrix(-1 0 0 1 216.031 336.924)" fill="#FE9C4A"/><path d="M185.608 432.386a8.198 8.198 0 0 1 8.198 8.198H177.41a8.198 8.198 0 0 1 8.198-8.198Z" fill="#FE9C4A"/><rect width="61.212" height="95.461" rx="30.606" transform="matrix(-1 0 0 1 131.135 384.654)" fill="#FE9C4A"/><path d="M79.143 419.038v175.984" stroke="#6AC5E3" stroke-width="5.283"/><rect width="61.212" height="95.461" rx="30.606" transform="matrix(-1 0 0 1 109.356 316.014)" fill="#6AC5E3"/><rect width="61.212" height="95.461" rx="30.606" transform="matrix(-1 0 0 1 185.423 400.321)" fill="#6AC5E3"/><path d="M79.136 410.832a8.198 8.198 0 0 1 8.198 8.198H70.938a8.198 8.198 0 0 1 8.198-8.198Z" fill="#6AC5E3"/></g></svg>