<svg width="354" height="140" fill="none" xmlns="http://www.w3.org/2000/svg"><path fill="#C2A3FD" d="M0 41.159h84.229v98.696H0z"/><path fill="#262136" d="M8.102 28H325v102H8.102z"/><path d="M321.35 1.5c.31-1.191 1.936-1.354 2.476-.247l8.542 17.493c.17.348.484.604.858.702l18.84 4.902c1.192.31 1.355 1.936.248 2.476l-17.493 8.542c-.348.17-.604.483-.702.858l-4.902 18.84c-.31 1.192-1.936 1.355-2.476.248l-8.542-17.493a1.328 1.328 0 0 0-.859-.702l-18.839-4.902c-1.192-.31-1.355-1.936-.248-2.476l17.493-8.542c.348-.17.604-.484.701-.859L321.35 1.5Z" fill="#44C6E6"/></svg>