<svg width="341" height="156" fill="none" xmlns="http://www.w3.org/2000/svg"><path d="M35.462 71.4 3.117 94.272a1.984 1.984 0 0 0-.84 1.62v52.159c0 1.096.89 1.985 1.985 1.985h152.321c.41 0 .811-.128 1.146-.365l32.71-23.131c.526-.372.839-.976.839-1.62v-51.9a1.985 1.985 0 0 0-1.985-1.984H36.607c-.41 0-.81.127-1.145.364Z" fill="#262136" stroke="url('#paint0_linear_298_94')" stroke-width="3.023"/><path d="m191.308 71-33.604 23.752a1.984 1.984 0 0 1-1.146.364H2" stroke="url('#paint1_linear_298_94')" stroke-width="3.023"/><path d="m200.384 15.14-39.153 6.026a1.983 1.983 0 0 0-1.473 1.076L136.47 68.914a1.985 1.985 0 0 0 .89 2.661l136.297 68.006c.367.184.782.248 1.188.186l39.596-6.094a1.985 1.985 0 0 0 1.474-1.075l23.172-46.44a1.985 1.985 0 0 0-.89-2.662l-136.625-68.17a1.984 1.984 0 0 0-1.188-.185Z" fill="#262136" stroke="url('#paint2_linear_298_94')" stroke-width="3.023"/><path d="m339.814 85.39-40.673 6.25a1.985 1.985 0 0 1-1.188-.186L159.654 22.45" stroke="url('#paint3_linear_298_94')" stroke-width="3.023"/><path d="m200.384 15.14-39.153 6.026a1.983 1.983 0 0 0-1.473 1.076L136.47 68.914a1.985 1.985 0 0 0 .89 2.661l136.297 68.006c.367.184.782.248 1.188.186l39.596-6.094a1.985 1.985 0 0 0 1.474-1.075l23.172-46.44a1.985 1.985 0 0 0-.89-2.662l-136.625-68.17a1.984 1.984 0 0 0-1.188-.185Z" fill="#262136" stroke="url('#paint4_linear_298_94')" stroke-width="3.023"/><path d="m339.814 85.39-40.673 6.25a1.985 1.985 0 0 1-1.188-.186L159.654 22.45" stroke="url('#paint5_linear_298_94')" stroke-width="3.023"/><defs><linearGradient id="paint0_linear_298_94" x1="2.279" y1="89.213" x2="91.304" y2="183.961" gradientUnits="userSpaceOnUse"><stop offset=".052" stop-color="#7BF0A7"/><stop offset=".307" stop-color="#44D5D2"/><stop offset=".609" stop-color="#A380E6"/><stop offset=".917" stop-color="#FE9C4A"/></linearGradient><linearGradient id="paint1_linear_298_94" x1="5" y1="86.027" x2="117.739" y2="148.522" gradientUnits="userSpaceOnUse"><stop offset=".052" stop-color="#7BF0A7"/><stop offset=".307" stop-color="#44D5D2"/><stop offset=".609" stop-color="#A380E6"/><stop offset=".917" stop-color="#FE9C4A"/></linearGradient><linearGradient id="paint2_linear_298_94" x1="162.74" y1="16.265" x2="200.098" y2="140.792" gradientUnits="userSpaceOnUse"><stop offset=".052" stop-color="#7BF0A7"/><stop offset=".307" stop-color="#44D5D2"/><stop offset=".609" stop-color="#A380E6"/><stop offset=".917" stop-color="#FE9C4A"/></linearGradient><linearGradient id="paint3_linear_298_94" x1="166.397" y1="15.656" x2="239.374" y2="121.911" gradientUnits="userSpaceOnUse"><stop offset=".052" stop-color="#7BF0A7"/><stop offset=".307" stop-color="#44D5D2"/><stop offset=".609" stop-color="#A380E6"/><stop offset=".917" stop-color="#FE9C4A"/></linearGradient><linearGradient id="paint4_linear_298_94" x1="162.74" y1="16.265" x2="200.098" y2="140.792" gradientUnits="userSpaceOnUse"><stop offset=".052" stop-color="#7BF0A7"/><stop offset=".307" stop-color="#44D5D2"/><stop offset=".609" stop-color="#A380E6"/><stop offset=".917" stop-color="#FE9C4A"/></linearGradient><linearGradient id="paint5_linear_298_94" x1="166.397" y1="15.656" x2="239.374" y2="121.911" gradientUnits="userSpaceOnUse"><stop offset=".052" stop-color="#7BF0A7"/><stop offset=".307" stop-color="#44D5D2"/><stop offset=".609" stop-color="#A380E6"/><stop offset=".917" stop-color="#FE9C4A"/></linearGradient></defs></svg>