<svg width="330" height="396" fill="none" xmlns="http://www.w3.org/2000/svg"><g clip-path="url('#clip0_126_1104')" fill="#44D4D2"><rect width="243.663" height="315.328" rx="6.517" transform="matrix(-1 0 0 1 280.663 50.733)"/><path d="M280.663 50.735H37v315.328h243.663z"/></g><rect x="6.5" y="-6.5" width="256.663" height="328.328" rx="13.017" transform="matrix(-1 0 0 1 293.663 50.733)" stroke="#44D4D2" stroke-width="13"/><g clip-path="url('#clip1_126_1104')"><rect x="72.999" y="13" width="243.663" height="315.328" rx="6.517" fill="#fff"/><path fill="#262136" d="M72.999 13.001h243.663v315.328H72.999z"/><path d="M154.011 200.589v-10.033h4.343c.898 0 1.672.148 2.322.444.65.287 1.151.702 1.505 1.247.353.545.53 1.194.53 1.949 0 .746-.177 1.391-.53 1.935-.354.545-.855.965-1.505 1.262-.65.286-1.424.43-2.322.43h-3.053l1.032-1.047v3.813h-2.322Zm2.322-3.555-1.032-1.103h2.924c.716 0 1.252-.153 1.605-.459.354-.306.53-.731.53-1.276 0-.554-.176-.984-.53-1.29-.353-.305-.889-.458-1.605-.458h-2.924l1.032-1.104v5.69Zm7.864 3.555v-7.711h2.136v2.178l-.301-.63a2.44 2.44 0 0 1 1.103-1.233c.507-.287 1.123-.43 1.849-.43v2.064a2.464 2.464 0 0 0-.258-.014 1.865 1.865 0 0 0-.243-.015c-.612 0-1.109.177-1.491.531-.373.344-.559.883-.559 1.619v3.641h-2.236Zm9.73.115c-.822 0-1.553-.172-2.193-.516a4.029 4.029 0 0 1-1.505-1.405c-.363-.602-.544-1.285-.544-2.05 0-.774.181-1.457.544-2.049a3.875 3.875 0 0 1 1.505-1.405c.64-.344 1.371-.516 2.193-.516.812 0 1.539.172 2.179.516.64.334 1.142.798 1.505 1.39.363.593.544 1.281.544 2.064 0 .765-.181 1.448-.544 2.05a3.885 3.885 0 0 1-1.505 1.405c-.64.344-1.367.516-2.179.516Zm0-1.835c.373 0 .707-.086 1.003-.258.297-.172.531-.416.703-.731.172-.325.258-.707.258-1.147 0-.449-.086-.831-.258-1.146a1.84 1.84 0 0 0-.703-.731 1.959 1.959 0 0 0-1.003-.258c-.372 0-.707.086-1.003.258a1.952 1.952 0 0 0-.717.731c-.172.315-.258.697-.258 1.146 0 .44.086.822.258 1.147.182.315.421.559.717.731.296.172.631.258 1.003.258Zm8.317 1.835a7.828 7.828 0 0 1-1.906-.23c-.602-.162-1.08-.363-1.433-.602l.745-1.605c.354.22.769.401 1.247.545.487.133.965.2 1.433.2.516 0 .879-.062 1.09-.186.219-.124.329-.296.329-.516 0-.182-.086-.315-.258-.401a1.943 1.943 0 0 0-.659-.215 32.415 32.415 0 0 0-.917-.144 13.06 13.06 0 0 1-.989-.186 3.529 3.529 0 0 1-.918-.373 1.93 1.93 0 0 1-.673-.659c-.163-.277-.244-.635-.244-1.075 0-.487.139-.917.416-1.29.286-.373.697-.664 1.232-.874.535-.22 1.176-.33 1.921-.33.526 0 1.061.057 1.605.172.545.115.999.282 1.362.502l-.745 1.591a3.644 3.644 0 0 0-1.133-.445 4.827 4.827 0 0 0-1.089-.129c-.497 0-.86.067-1.089.201-.23.134-.344.306-.344.516 0 .191.081.334.243.43.172.096.397.172.674.229.277.058.578.11.903.158.334.038.669.1 1.003.186.335.086.636.21.903.373.277.153.502.368.674.645.172.267.258.621.258 1.061 0 .477-.143.903-.43 1.275-.287.363-.702.65-1.247.86-.535.21-1.19.316-1.964.316Zm9.578 0c-.649 0-1.218-.144-1.705-.43-.488-.287-.87-.722-1.147-1.305-.267-.592-.401-1.338-.401-2.236 0-.908.129-1.653.387-2.236.258-.583.63-1.017 1.118-1.304.487-.287 1.07-.43 1.748-.43.727 0 1.376.167 1.95.502a3.528 3.528 0 0 1 1.376 1.376c.344.592.516 1.29.516 2.092 0 .812-.172 1.515-.516 2.107a3.528 3.528 0 0 1-1.376 1.376c-.574.325-1.223.488-1.95.488Zm-4.558 2.665v-10.491h2.136v1.576l-.043 2.294.143 2.279v4.342h-2.236Zm4.171-4.5a1.882 1.882 0 0 0 1.692-.989c.181-.325.272-.707.272-1.147 0-.449-.091-.831-.272-1.146a1.882 1.882 0 0 0-1.692-.989c-.372 0-.707.086-1.003.258-.296.172-.53.415-.702.731-.172.315-.258.697-.258 1.146 0 .44.086.822.258 1.147.172.315.406.559.702.731.296.172.631.258 1.003.258Zm9.552 1.835c-.879 0-1.653-.172-2.322-.516a3.836 3.836 0 0 1-1.533-1.405c-.363-.602-.545-1.285-.545-2.05 0-.774.177-1.457.53-2.049a3.8 3.8 0 0 1 1.477-1.405c.621-.344 1.323-.516 2.107-.516.755 0 1.433.162 2.035.487a3.526 3.526 0 0 1 1.448 1.376c.353.593.53 1.305.53 2.136 0 .086-.005.186-.014.301l-.029.301h-6.264v-1.304h5.089l-.86.387c0-.402-.082-.75-.244-1.047a1.73 1.73 0 0 0-.674-.688 1.91 1.91 0 0 0-1.003-.258c-.382 0-.721.086-1.018.258a1.71 1.71 0 0 0-.673.703c-.163.296-.244.649-.244 1.06v.344c0 .421.091.793.272 1.118.192.316.454.559.789.731.344.163.745.244 1.204.244a2.85 2.85 0 0 0 1.075-.186c.315-.125.602-.311.86-.559l1.189 1.29a3.534 3.534 0 0 1-1.333.931c-.535.21-1.151.316-1.849.316Zm8.942 0c-.831 0-1.572-.168-2.221-.502a3.926 3.926 0 0 1-1.534-1.419c-.363-.602-.545-1.285-.545-2.05 0-.774.182-1.457.545-2.049a3.821 3.821 0 0 1 1.534-1.405c.649-.344 1.39-.516 2.221-.516.812 0 1.52.172 2.122.516a3.064 3.064 0 0 1 1.333 1.448l-1.735.931c-.2-.363-.454-.63-.759-.802a1.911 1.911 0 0 0-.975-.258 2.07 2.07 0 0 0-1.032.258c-.306.172-.55.415-.731.731-.172.315-.258.697-.258 1.146 0 .449.086.832.258 1.147.181.315.425.559.731.731.306.172.65.258 1.032.258.353 0 .678-.081.975-.244.305-.172.559-.444.759-.817l1.735.946a3.158 3.158 0 0 1-1.333 1.448c-.602.334-1.31.502-2.122.502Zm8.007 0c-.908 0-1.615-.23-2.121-.688-.507-.469-.76-1.161-.76-2.079v-6.765h2.236v6.737c0 .324.086.578.258.759.172.172.406.258.703.258.353 0 .654-.095.902-.286l.602 1.576a2.54 2.54 0 0 1-.831.373 4.205 4.205 0 0 1-.989.115Zm-4.07-5.934v-1.72h5.346v1.72h-5.346Zm10.399 5.934c-.64 0-1.213-.125-1.72-.373a2.66 2.66 0 0 1-1.161-1.132c-.277-.516-.415-1.171-.415-1.964v-4.357h2.236v4.027c0 .64.133 1.113.401 1.419.277.296.664.445 1.161.445.344 0 .65-.072.917-.215.268-.153.478-.383.631-.688.153-.316.229-.708.229-1.176v-3.812h2.236v7.711h-2.121v-2.121l.387.616c-.258.535-.64.941-1.147 1.218a3.386 3.386 0 0 1-1.634.402Zm9.181 0a7.822 7.822 0 0 1-1.906-.23c-.602-.162-1.08-.363-1.434-.602l.746-1.605c.353.22.769.401 1.247.545.487.133.965.2 1.433.2.516 0 .879-.062 1.089-.186.22-.124.33-.296.33-.516 0-.182-.086-.315-.258-.401a1.95 1.95 0 0 0-.659-.215 32.518 32.518 0 0 0-.918-.144c-.325-.048-.654-.11-.989-.186a3.536 3.536 0 0 1-.917-.373 1.932 1.932 0 0 1-.674-.659c-.162-.277-.243-.635-.243-1.075 0-.487.138-.917.415-1.29.287-.373.698-.664 1.233-.874.535-.22 1.175-.33 1.921-.33.525 0 1.06.057 1.605.172.545.115.998.282 1.362.502l-.746 1.591a3.63 3.63 0 0 0-1.132-.445 4.84 4.84 0 0 0-1.089-.129c-.497 0-.86.067-1.09.201-.229.134-.344.306-.344.516a.47.47 0 0 0 .244.43c.172.096.397.172.674.229.277.058.578.11.903.158.334.038.668.1 1.003.186.334.086.635.21.903.373.277.153.502.368.674.645.172.267.258.621.258 1.061 0 .477-.144.903-.43 1.275-.287.363-.703.65-1.247.86-.536.21-1.19.316-1.964.316ZM138.245 213.886v-3.901h1.75c.45 0 .795.091 1.037.273a.865.865 0 0 1 .362.736.917.917 0 0 1-.524.869c-.16.078-.333.117-.518.117l.1-.167c.223 0 .42.039.591.117a.947.947 0 0 1 .407.346c.1.148.15.334.15.557 0 .334-.126.595-.379.78-.249.182-.62.273-1.115.273h-1.861Zm.557-.451h1.282c.309 0 .545-.052.708-.156.164-.104.245-.268.245-.491 0-.226-.081-.392-.245-.496-.163-.104-.399-.156-.708-.156h-1.332v-.451h1.193c.282 0 .501-.052.657-.156.157-.104.235-.26.235-.469 0-.208-.078-.364-.235-.468-.156-.104-.375-.156-.657-.156h-1.143v2.999Zm3.583.451v-2.954h.513v.803l-.05-.201a.91.91 0 0 1 .412-.468c.194-.108.431-.162.714-.162v.519a.38.38 0 0 0-.067-.006h-.056c-.286 0-.513.086-.68.257-.167.171-.251.418-.251.741v1.471h-.535Zm2.248 0v-2.954h.535v2.954h-.535Zm.268-3.522a.367.367 0 0 1-.262-.101.332.332 0 0 1-.1-.245.34.34 0 0 1 .362-.351c.104 0 .189.033.256.1a.306.306 0 0 1 .106.24c0 .1-.033.186-.1.256a.354.354 0 0 1-.262.101Zm2.577 3.556c-.301 0-.571-.065-.808-.195a1.434 1.434 0 0 1-.552-.535 1.506 1.506 0 0 1-.201-.781c0-.293.067-.553.201-.78.133-.227.317-.403.552-.53.237-.13.507-.195.808-.195.267 0 .505.054.713.162.212.104.376.26.491.468l-.407.262a.876.876 0 0 0-.357-.317.955.955 0 0 0-.446-.106c-.193 0-.366.042-.518.128a.942.942 0 0 0-.363.362 1.065 1.065 0 0 0-.133.546c0 .212.044.396.133.552.09.156.21.277.363.363.152.085.325.128.518.128a.923.923 0 0 0 .803-.424l.407.256a1.175 1.175 0 0 1-.491.474 1.526 1.526 0 0 1-.713.162Zm2.293-.747.011-.686 1.7-1.555h.647l-1.304 1.282-.29.246-.764.713Zm-.435.713v-4.135h.536v4.135h-.536Zm2.258 0-1.16-1.438.346-.429 1.472 1.867h-.658Zm4.053-3.901h.558v3.901h-.558v-3.901Zm-2.24 3.901h-.558v-3.901h.558v3.901Zm2.29-1.739h-2.346v-.485h2.346v.485Zm3.431 1.739v-.624l-.027-.117v-1.064c0-.227-.067-.402-.201-.524-.13-.127-.327-.19-.591-.19-.175 0-.346.03-.513.089a1.278 1.278 0 0 0-.423.229l-.223-.402c.152-.122.334-.215.546-.278.215-.067.44-.101.674-.101.405 0 .718.099.937.296.219.197.329.498.329.903v1.783h-.508Zm-.969.034c-.22 0-.413-.037-.58-.112a.888.888 0 0 1-.379-.306.798.798 0 0 1-.134-.452c0-.159.037-.304.112-.434a.81.81 0 0 1 .373-.313c.175-.078.409-.117.702-.117h.937v.385h-.914c-.268 0-.448.045-.541.134a.43.43 0 0 0-.139.323c0 .145.057.262.172.351.116.086.275.128.48.128.2 0 .375-.044.524-.133a.765.765 0 0 0 .329-.391l.105.368a.842.842 0 0 1-.373.418c-.178.101-.403.151-.674.151Zm3.754 0c-.301 0-.57-.065-.808-.195a1.448 1.448 0 0 1-.552-.535 1.515 1.515 0 0 1-.2-.781c0-.293.067-.553.2-.78.134-.227.318-.403.552-.53.238-.13.507-.195.808-.195.268 0 .506.054.714.162.212.104.375.26.49.468l-.406.262a.876.876 0 0 0-.357-.317.958.958 0 0 0-.446-.106c-.193 0-.366.042-.518.128a.936.936 0 0 0-.363.362 1.065 1.065 0 0 0-.134.546c0 .212.045.396.134.552.089.156.21.277.363.363.152.085.325.128.518.128a.923.923 0 0 0 .803-.424l.406.256a1.173 1.173 0 0 1-.49.474 1.527 1.527 0 0 1-.714.162Zm2.294-.747.011-.686 1.7-1.555h.647l-1.305 1.282-.289.246-.764.713Zm-.435.713v-4.135h.535v4.135h-.535Zm2.258 0-1.16-1.438.346-.429 1.471 1.867h-.657Zm2.239 0 1.622-2.212v.429l-1.533-2.118h.636l1.215 1.666-.251.006 1.21-1.672h.607l-1.522 2.084v-.401l1.622 2.218h-.641l-1.293-1.778h.245l-1.276 1.778h-.641Zm12.418-2.056h2.013v.479h-2.013v-.479Zm.056 2.056h-.557v-3.901h2.753v.485h-2.196v3.416Zm4.126.034c-.316 0-.595-.065-.836-.195a1.436 1.436 0 0 1-.558-.535 1.543 1.543 0 0 1-.195-.781c0-.293.063-.553.19-.78.13-.227.306-.403.529-.53.227-.13.481-.195.764-.195.286 0 .539.064.758.19.219.126.39.305.513.535a1.614 1.614 0 0 1 .178.959h-2.514v-.385h2.235l-.217.134a.984.984 0 0 0-.117-.507.87.87 0 0 0-.34-.346.944.944 0 0 0-.496-.128.962.962 0 0 0-.496.128.858.858 0 0 0-.34.351c-.082.149-.123.32-.123.513v.089c0 .197.045.374.134.53a.972.972 0 0 0 .384.357c.164.085.352.128.563.128.175 0 .333-.03.474-.089.145-.06.271-.149.379-.268l.296.346a1.282 1.282 0 0 1-.502.356 1.71 1.71 0 0 1-.663.123Zm3.664 0c-.253 0-.482-.056-.686-.167a1.233 1.233 0 0 1-.479-.508c-.116-.222-.173-.501-.173-.836 0-.334.059-.613.178-.836.123-.223.284-.39.485-.501a1.38 1.38 0 0 1 .675-.168c.289 0 .546.064.769.19.223.126.399.303.529.529.13.223.195.485.195.786 0 .301-.065.565-.195.792-.13.227-.306.403-.529.529-.223.127-.48.19-.769.19Zm-1.567-.034v-4.135h.535v1.967l-.055.686.033.685v.797h-.513Zm1.522-.434c.189 0 .359-.043.507-.128a.91.91 0 0 0 .357-.363c.089-.16.134-.344.134-.552 0-.211-.045-.394-.134-.546a.901.901 0 0 0-.357-.362.992.992 0 0 0-.507-.128 1.01 1.01 0 0 0-.507.128.948.948 0 0 0-.357.362 1.094 1.094 0 0 0-.128.546c0 .208.042.392.128.552a.958.958 0 0 0 .357.363c.152.085.321.128.507.128Zm2.278.434v-2.954h.512v.803l-.05-.201a.912.912 0 0 1 .413-.468c.193-.108.431-.162.713-.162v.519a.371.371 0 0 0-.067-.006h-.055c-.286 0-.513.086-.68.257-.168.171-.251.418-.251.741v1.471h-.535Zm3.529.034c-.253 0-.476-.047-.669-.139a1.025 1.025 0 0 1-.446-.424c-.104-.193-.156-.435-.156-.725v-1.7h.535v1.639c0 .29.069.507.206.652.142.145.339.218.591.218.186 0 .348-.038.485-.112a.783.783 0 0 0 .318-.334 1.19 1.19 0 0 0 .111-.535v-1.528h.535v2.954h-.507v-.797l.084.212c-.097.197-.242.35-.435.457a1.314 1.314 0 0 1-.652.162Zm4.363-.034v-.624l-.028-.117v-1.064c0-.227-.067-.402-.201-.524-.13-.127-.327-.19-.59-.19-.175 0-.346.03-.513.089a1.283 1.283 0 0 0-.424.229l-.223-.402a1.6 1.6 0 0 1 .546-.278c.216-.067.441-.101.675-.101.405 0 .717.099.936.296.22.197.329.498.329.903v1.783h-.507Zm-.97.034c-.219 0-.412-.037-.58-.112a.9.9 0 0 1-.379-.306.797.797 0 0 1-.133-.452c0-.159.037-.304.111-.434a.812.812 0 0 1 .374-.313c.174-.078.408-.117.702-.117h.936v.385h-.914c-.267 0-.448.045-.541.134a.434.434 0 0 0-.139.323c0 .145.058.262.173.351.115.086.275.128.479.128a.998.998 0 0 0 .524-.133.76.76 0 0 0 .329-.391l.106.368a.846.846 0 0 1-.373.418c-.179.101-.404.151-.675.151Zm2.467-.034v-2.954h.513v.803l-.05-.201a.908.908 0 0 1 .413-.468c.193-.108.431-.162.713-.162v.519a.38.38 0 0 0-.067-.006h-.056c-.286 0-.512.086-.68.257-.167.171-.25.418-.25.741v1.471h-.536Zm2.497 1.115c-.142 0-.279-.024-.413-.072a.953.953 0 0 1-.346-.201l.229-.401c.074.07.156.124.245.161a.717.717 0 0 0 .285.056c.13 0 .237-.033.323-.1.085-.067.165-.186.239-.357l.184-.407.056-.067 1.16-2.681h.523l-1.432 3.25a1.66 1.66 0 0 1-.29.49.874.874 0 0 1-.345.251 1.092 1.092 0 0 1-.418.078Zm.702-1.02-1.349-3.049h.557l1.149 2.631-.357.418Zm3.479-.095v-.379l1.588-1.532c.142-.134.246-.251.313-.352a.946.946 0 0 0 .178-.54.579.579 0 0 0-.212-.474c-.141-.115-.347-.173-.619-.173a1.43 1.43 0 0 0-.563.106 1.095 1.095 0 0 0-.434.318l-.379-.329c.148-.19.347-.335.596-.435.253-.104.53-.156.831-.156.271 0 .507.045.707.134.201.085.355.21.463.373.112.164.167.357.167.58 0 .126-.016.251-.05.373a1.327 1.327 0 0 1-.189.391 3.14 3.14 0 0 1-.402.462l-1.415 1.366-.134-.217h2.358v.484h-2.804Zm3.097-.958v-.39l1.996-2.553h.602l-1.979 2.553-.284-.09h3.116v.48h-3.451Zm2.168.958v-.958l.017-.48v-.847h.524v2.285h-.541Zm2.871.034c-.297 0-.528-.08-.691-.24-.164-.16-.246-.388-.246-.685v-2.709h.535v2.686c0 .16.039.283.118.368.081.086.196.128.345.128a.63.63 0 0 0 .418-.139l.167.385a.786.786 0 0 1-.295.156c-.112.033-.229.05-.351.05Zm-1.438-2.547v-.441h1.884v.441h-1.884Zm4.309-.469c.241 0 .453.047.635.14a.998.998 0 0 1 .435.423c.104.19.156.43.156.719v1.7h-.535v-1.638c0-.286-.071-.502-.212-.647-.137-.145-.332-.217-.585-.217-.19 0-.355.037-.496.111a.785.785 0 0 0-.329.329 1.181 1.181 0 0 0-.112.541v1.521h-.535v-4.135h.535v1.978l-.106-.211a1.03 1.03 0 0 1 .446-.452c.201-.108.435-.162.703-.162Zm1.709 1.639v-.373h2.787v.373h-2.787Zm2.993 1.343v-.379l1.589-1.532c.141-.134.245-.251.312-.352a.923.923 0 0 0 .178-.54.578.578 0 0 0-.211-.474c-.142-.115-.348-.173-.619-.173-.208 0-.396.035-.563.106a1.105 1.105 0 0 0-.435.318l-.379-.329c.149-.19.348-.335.597-.435.252-.104.529-.156.83-.156.271 0 .507.045.708.134.201.085.355.21.463.373.111.164.167.357.167.58 0 .126-.017.251-.05.373a1.357 1.357 0 0 1-.19.391 3.186 3.186 0 0 1-.401.462l-1.416 1.366-.134-.217h2.358v.484h-2.804Zm4.522.045a2.57 2.57 0 0 1-.803-.128 1.793 1.793 0 0 1-.629-.346l.256-.44c.13.123.299.223.507.301.208.078.429.117.663.117.298 0 .526-.063.686-.19a.612.612 0 0 0 .24-.507.681.681 0 0 0-.106-.379c-.071-.108-.193-.189-.368-.245-.171-.06-.407-.089-.708-.089h-.886l.206-2.04h2.202v.485h-1.996l.29-.274-.162 1.611-.289-.267h.752c.39 0 .704.05.942.15.238.101.411.24.518.418.108.175.162.378.162.608 0 .223-.054.427-.162.613a1.155 1.155 0 0 1-.49.44c-.216.108-.491.162-.825.162Zm3.195-.011c-.297 0-.528-.08-.691-.24-.164-.16-.245-.388-.245-.685v-2.709h.535v2.686c0 .16.039.283.117.368a.453.453 0 0 0 .345.128.628.628 0 0 0 .418-.139l.168.385a.798.798 0 0 1-.296.156c-.111.033-.228.05-.351.05Zm-1.438-2.547v-.441h1.884v.441h-1.884Zm4.309-.469c.242 0 .453.047.636.14a1 1 0 0 1 .434.423c.104.19.156.43.156.719v1.7h-.535v-1.638c0-.286-.07-.502-.212-.647-.137-.145-.332-.217-.585-.217-.189 0-.355.037-.496.111a.785.785 0 0 0-.329.329 1.182 1.182 0 0 0-.111.541v1.521h-.535v-4.135h.535v1.978l-.106-.211a1.02 1.02 0 0 1 .446-.452c.2-.108.435-.162.702-.162Zm2.005 3.807.279-1.126.072.324a.392.392 0 0 1-.273-.101.354.354 0 0 1-.106-.273.37.37 0 0 1 .106-.273.376.376 0 0 1 .267-.106c.108 0 .196.037.262.112.067.07.101.16.101.267a.607.607 0 0 1-.011.112 1.422 1.422 0 0 1-.084.29l-.262.774h-.351Zm2.67-.825v-.379l1.589-1.532c.141-.134.245-.251.312-.352a.951.951 0 0 0 .179-.54.579.579 0 0 0-.212-.474c-.141-.115-.348-.173-.619-.173-.208 0-.396.035-.563.106a1.105 1.105 0 0 0-.435.318l-.379-.329c.149-.19.348-.335.597-.435.252-.104.529-.156.83-.156.271 0 .507.045.708.134.201.085.355.21.463.373.111.164.167.357.167.58 0 .126-.017.251-.05.373a1.357 1.357 0 0 1-.19.391 3.125 3.125 0 0 1-.401.462l-1.416 1.366-.134-.217h2.358v.484h-2.804Zm4.851.045c-.305 0-.578-.078-.819-.234a1.618 1.618 0 0 1-.569-.68c-.137-.297-.206-.658-.206-1.081 0-.424.069-.784.206-1.082.141-.297.331-.524.569-.68.241-.156.514-.234.819-.234.301 0 .572.078.814.234.241.156.431.383.568.68.138.298.207.658.207 1.082 0 .423-.069.784-.207 1.081a1.567 1.567 0 0 1-.568.68 1.47 1.47 0 0 1-.814.234Zm0-.496a.882.882 0 0 0 .535-.167 1.07 1.07 0 0 0 .363-.502c.089-.223.133-.5.133-.83 0-.331-.044-.608-.133-.831a1.07 1.07 0 0 0-.363-.502.882.882 0 0 0-.535-.167.913.913 0 0 0-.541.167 1.096 1.096 0 0 0-.367.502c-.086.223-.129.5-.129.831 0 .33.043.607.129.83.089.223.211.39.367.502a.913.913 0 0 0 .541.167Zm2.062.451v-.379l1.589-1.532c.141-.134.245-.251.312-.352a.951.951 0 0 0 .179-.54.579.579 0 0 0-.212-.474c-.141-.115-.348-.173-.619-.173-.208 0-.396.035-.563.106a1.105 1.105 0 0 0-.435.318l-.379-.329c.149-.19.348-.335.597-.435.252-.104.529-.156.83-.156.271 0 .507.045.708.134.201.085.355.21.463.373.111.164.167.357.167.58 0 .126-.017.251-.05.373a1.357 1.357 0 0 1-.19.391 3.125 3.125 0 0 1-.401.462l-1.416 1.366-.134-.217h2.358v.484h-2.804Zm3.098-.958v-.39l1.995-2.553h.602l-1.978 2.553-.285-.09h3.116v.48h-3.45Zm2.168.958v-.958l.017-.48v-.847h.524v2.285h-.541Z" fill="#fff"/><path d="M175.526 214.968v-5.217h.496v5.217h-.496Z" fill="#fff" fill-opacity=".35"/><path d="M97.167 313.641c-.18 0-.344-.04-.49-.12a.885.885 0 0 1-.342-.362 1.29 1.29 0 0 1-.124-.597c0-.239.043-.438.128-.598a.888.888 0 0 1 .346-.358.985.985 0 0 1 .482-.119c.207 0 .39.045.55.135.159.09.285.216.377.378.093.16.14.347.14.562 0 .215-.047.403-.14.565a.992.992 0 0 1-.378.378c-.159.09-.342.136-.55.136Zm-1.119-.024v-2.955h.382v1.406l-.04.49.024.489v.57h-.366Zm1.087-.311c.135 0 .256-.03.362-.091a.649.649 0 0 0 .255-.259.796.796 0 0 0 .096-.394.76.76 0 0 0-.096-.391.646.646 0 0 0-.255-.258.714.714 0 0 0-.362-.092.683.683 0 0 0-.617.35.788.788 0 0 0-.092.391c0 .148.03.28.092.394a.685.685 0 0 0 .617.35Zm1.627.311v-2.11h.366v.573l-.035-.143a.65.65 0 0 1 .294-.335c.138-.077.308-.115.51-.115v.37a.257.257 0 0 0-.048-.004h-.04c-.204 0-.366.061-.486.183s-.179.299-.179.53v1.051h-.382Zm1.606 0v-2.11h.382v2.11h-.382Zm.191-2.517a.26.26 0 0 1-.187-.071.238.238 0 0 1-.072-.175c0-.072.024-.132.072-.18a.264.264 0 0 1 .187-.071c.074 0 .135.024.183.071.05.046.076.103.076.172a.258.258 0 0 1-.072.183.252.252 0 0 1-.187.071Zm1.84 2.541c-.215 0-.407-.047-.577-.14a1.033 1.033 0 0 1-.537-.939c0-.21.047-.396.143-.558.096-.162.227-.288.394-.378.17-.093.362-.139.577-.139.192 0 .361.038.51.115a.787.787 0 0 1 .35.335l-.29.187a.627.627 0 0 0-.255-.227.745.745 0 0 0-.689.016.676.676 0 0 0-.259.258.768.768 0 0 0-.095.391.79.79 0 0 0 .095.394c.064.111.15.198.259.259a.745.745 0 0 0 .371.091.658.658 0 0 0 .573-.302l.29.183a.845.845 0 0 1-.35.338 1.092 1.092 0 0 1-.51.116Zm1.639-.534.008-.49 1.214-1.11h.462l-.932.915-.207.175-.545.51Zm-.311.51v-2.955h.382v2.955h-.382Zm1.613 0-.829-1.028.247-.306 1.051 1.334h-.469Zm1.967-2.13a.99.99 0 0 1 .454.099.716.716 0 0 1 .311.303c.074.135.111.306.111.513v1.215h-.382v-1.171c0-.204-.05-.358-.151-.462-.099-.103-.238-.155-.418-.155a.753.753 0 0 0-.355.08.555.555 0 0 0-.235.235.84.84 0 0 0-.079.386v1.087h-.383v-2.955h.383v1.414l-.076-.151a.732.732 0 0 1 .319-.323 1.04 1.04 0 0 1 .501-.115Zm2.893 2.13v-.446l-.02-.084v-.76c0-.162-.047-.287-.143-.375-.093-.09-.233-.135-.422-.135-.125 0-.247.021-.366.064a.923.923 0 0 0-.303.163l-.159-.287a1.14 1.14 0 0 1 .39-.199c.154-.047.315-.071.482-.071.289 0 .512.07.669.211.156.14.235.355.235.645v1.274h-.363Zm-.692.024a1.01 1.01 0 0 1-.414-.08.64.64 0 0 1-.271-.219.614.614 0 0 1-.016-.633.582.582 0 0 1 .267-.223 1.24 1.24 0 0 1 .501-.084h.669v.275h-.653c-.191 0-.32.032-.386.096a.308.308 0 0 0-.1.231c0 .103.042.187.124.25a.563.563 0 0 0 .342.092.714.714 0 0 0 .375-.096.536.536 0 0 0 .234-.278l.076.262a.598.598 0 0 1-.267.299.967.967 0 0 1-.481.108Zm2.682 0c-.215 0-.408-.047-.578-.14a1.033 1.033 0 0 1-.537-.939c0-.21.048-.396.143-.558.096-.162.227-.288.394-.378.17-.093.363-.139.578-.139.191 0 .361.038.509.115a.79.79 0 0 1 .351.335l-.291.187a.627.627 0 0 0-.255-.227.748.748 0 0 0-.689.016.673.673 0 0 0-.258.258.758.758 0 0 0-.096.391.78.78 0 0 0 .096.394c.063.111.15.198.258.259a.747.747 0 0 0 .371.091.658.658 0 0 0 .573-.302l.291.183a.847.847 0 0 1-.351.338 1.088 1.088 0 0 1-.509.116Zm1.638-.534.008-.49 1.214-1.11h.462l-.932.915-.207.175-.545.51Zm-.311.51v-2.955h.383v2.955h-.383Zm1.613 0-.828-1.028.247-.306 1.051 1.334h-.47Zm.971.024a.27.27 0 0 1-.191-.076.271.271 0 0 1-.08-.199.266.266 0 0 1 .271-.271c.072 0 .133.025.183.076.053.05.08.115.08.195a.271.271 0 0 1-.08.199.25.25 0 0 1-.183.076Zm.811-.024v-2.11h.382v2.11h-.382Zm.191-2.517a.258.258 0 0 1-.187-.071.238.238 0 0 1-.072-.175c0-.072.024-.132.072-.18a.262.262 0 0 1 .187-.071c.074 0 .135.024.183.071.05.046.076.103.076.172a.258.258 0 0 1-.072.183.252.252 0 0 1-.187.071Zm1.824 2.541c-.212 0-.4-.047-.565-.14a1.036 1.036 0 0 1-.533-.939c0-.21.047-.396.143-.558.095-.162.226-.288.39-.378a1.13 1.13 0 0 1 .565-.139c.21 0 .397.046.562.139.167.09.297.216.39.378.096.159.143.345.143.558 0 .209-.047.395-.143.557a1.002 1.002 0 0 1-.39.382c-.165.093-.352.14-.562.14Zm0-.335c.136 0 .257-.03.363-.091a.649.649 0 0 0 .255-.259.824.824 0 0 0 .091-.394.788.788 0 0 0-.091-.391.646.646 0 0 0-.255-.258.715.715 0 0 0-.363-.092.687.687 0 0 0-.617.35.768.768 0 0 0-.095.391c0 .148.032.28.095.394a.69.69 0 0 0 .255.259.713.713 0 0 0 .362.091Zm4.025-.422a.37.37 0 0 1-.179-.044.369.369 0 0 1-.135-.131.379.379 0 0 1-.048-.191c0-.069.016-.13.048-.183a.371.371 0 0 1 .314-.179c.067 0 .126.015.179.047.056.032.1.076.132.132a.346.346 0 0 1 .047.183.378.378 0 0 1-.047.191.346.346 0 0 1-.311.175Zm3.733.757c-.175 0-.342-.024-.502-.072a1.182 1.182 0 0 1-.37-.175l.159-.303c.091.061.202.113.335.155.132.043.268.064.406.064.178 0 .305-.025.382-.076.08-.05.12-.12.12-.211a.185.185 0 0 0-.072-.155.488.488 0 0 0-.191-.083 2.516 2.516 0 0 0-.259-.048 5.809 5.809 0 0 1-.287-.056 1.327 1.327 0 0 1-.262-.095.524.524 0 0 1-.192-.172.542.542 0 0 1-.071-.294c0-.128.036-.239.107-.335a.68.68 0 0 1 .303-.219c.133-.053.289-.079.47-.079.138 0 .277.017.418.051.143.032.26.079.35.14l-.163.302a.92.92 0 0 0-.299-.131 1.366 1.366 0 0 0-.31-.036c-.168 0-.292.028-.375.084-.082.053-.123.122-.123.207 0 .071.024.127.072.167.05.037.114.066.191.088.079.021.167.039.263.055.095.014.191.032.286.056.096.021.182.052.259.092.08.039.143.095.191.167a.485.485 0 0 1 .076.287.51.51 0 0 1-.112.33.732.732 0 0 1-.314.219c-.136.05-.298.076-.486.076Zm2.508 0a.987.987 0 0 1-.482-.12.916.916 0 0 1-.346-.362 1.256 1.256 0 0 1-.127-.597c0-.239.041-.438.123-.598a.864.864 0 0 1 .342-.358c.146-.08.31-.119.49-.119.207 0 .39.045.55.135.159.09.285.216.378.378.093.16.139.347.139.562 0 .215-.046.403-.139.565a.994.994 0 0 1-.378.378c-.16.09-.343.136-.55.136Zm-1.119.748v-2.882h.367v.569l-.024.49.04.489v1.334h-.383Zm1.087-1.083c.136 0 .256-.03.363-.091a.653.653 0 0 0 .254-.259.793.793 0 0 0 .096-.394.758.758 0 0 0-.096-.391.65.65 0 0 0-.254-.258.717.717 0 0 0-.363-.092.687.687 0 0 0-.617.35.788.788 0 0 0-.091.391c0 .148.03.28.091.394a.69.69 0 0 0 .255.259c.109.061.23.091.362.091Zm2.531.335c-.212 0-.401-.047-.565-.14a1.03 1.03 0 0 1-.39-.382 1.085 1.085 0 0 1-.144-.557c0-.21.048-.396.144-.558a.998.998 0 0 1 .39-.378c.164-.093.353-.139.565-.139.21 0 .397.046.561.139.168.09.298.216.391.378.095.159.143.345.143.558 0 .209-.048.395-.143.557a.998.998 0 0 1-.391.382c-.164.093-.351.14-.561.14Zm0-.335c.135 0 .256-.03.362-.091a.649.649 0 0 0 .255-.259.824.824 0 0 0 .092-.394.788.788 0 0 0-.092-.391.646.646 0 0 0-.255-.258.714.714 0 0 0-.362-.092.687.687 0 0 0-.617.35.758.758 0 0 0-.096.391c0 .148.032.28.096.394a.69.69 0 0 0 .255.259.713.713 0 0 0 .362.091Zm2.75-1.819a.99.99 0 0 1 .454.099.716.716 0 0 1 .311.303c.074.135.111.306.111.513v1.215h-.382v-1.171c0-.204-.05-.358-.151-.462-.099-.103-.238-.155-.418-.155a.753.753 0 0 0-.355.08.555.555 0 0 0-.235.235.84.84 0 0 0-.079.386v1.087h-.382v-2.11h.366v.569l-.06-.151a.732.732 0 0 1 .319-.323 1.04 1.04 0 0 1 .501-.115Zm2.189 2.154c-.175 0-.343-.024-.502-.072a1.171 1.171 0 0 1-.37-.175l.159-.303c.09.061.202.113.335.155.132.043.268.064.406.064.177 0 .305-.025.382-.076a.237.237 0 0 0 .119-.211.187.187 0 0 0-.071-.155.487.487 0 0 0-.192-.083 2.444 2.444 0 0 0-.258-.048 5.809 5.809 0 0 1-.287-.056 1.336 1.336 0 0 1-.263-.095.529.529 0 0 1-.191-.172.533.533 0 0 1-.072-.294c0-.128.036-.239.108-.335a.68.68 0 0 1 .303-.219c.132-.053.289-.079.469-.079.138 0 .278.017.418.051.144.032.261.079.351.14l-.163.302a.929.929 0 0 0-.299-.131 1.375 1.375 0 0 0-.311-.036c-.167 0-.292.028-.374.084-.082.053-.123.122-.123.207 0 .071.024.127.071.167a.61.61 0 0 0 .192.088c.079.021.167.039.262.055.096.014.191.032.287.056.095.021.182.052.259.092a.483.483 0 0 1 .191.167c.05.072.075.167.075.287a.514.514 0 0 1-.111.33.73.73 0 0 1-.315.219c-.135.05-.297.076-.485.076Zm2.293 0c-.212 0-.401-.047-.565-.14a1.04 1.04 0 0 1-.534-.939c0-.21.048-.396.143-.558.096-.162.226-.288.391-.378.164-.093.353-.139.565-.139.21 0 .397.046.561.139.168.09.298.216.391.378.095.159.143.345.143.558 0 .209-.048.395-.143.557a.998.998 0 0 1-.391.382c-.164.093-.351.14-.561.14Zm0-.335c.135 0 .256-.03.362-.091a.649.649 0 0 0 .255-.259.824.824 0 0 0 .092-.394.788.788 0 0 0-.092-.391.646.646 0 0 0-.255-.258.714.714 0 0 0-.362-.092.68.68 0 0 0-.617.35.758.758 0 0 0-.096.391c0 .148.032.28.096.394a.682.682 0 0 0 .617.35Zm1.623.311v-2.11h.367v.573l-.036-.143a.644.644 0 0 1 .295-.335 1.03 1.03 0 0 1 .509-.115v.37a.26.26 0 0 0-.048-.004h-.039c-.205 0-.367.061-.486.183-.12.122-.179.299-.179.53v1.051h-.383Zm2.235.024c-.175 0-.343-.024-.502-.072a1.171 1.171 0 0 1-.37-.175l.159-.303c.09.061.202.113.334.155.133.043.269.064.407.064.177 0 .305-.025.382-.076a.237.237 0 0 0 .119-.211.187.187 0 0 0-.071-.155.487.487 0 0 0-.192-.083 2.444 2.444 0 0 0-.258-.048 5.809 5.809 0 0 1-.287-.056 1.336 1.336 0 0 1-.263-.095.529.529 0 0 1-.191-.172.533.533 0 0 1-.072-.294c0-.128.036-.239.108-.335a.68.68 0 0 1 .303-.219c.132-.053.289-.079.469-.079.138 0 .278.017.418.051.144.032.261.079.351.14l-.163.302a.929.929 0 0 0-.299-.131 1.375 1.375 0 0 0-.311-.036c-.167 0-.292.028-.374.084-.082.053-.123.122-.123.207 0 .071.024.127.071.167a.615.615 0 0 0 .191.088c.08.021.168.039.263.055.096.014.191.032.287.056.095.021.182.052.259.092a.483.483 0 0 1 .191.167c.05.072.075.167.075.287a.514.514 0 0 1-.111.33.73.73 0 0 1-.315.219c-.135.05-.297.076-.485.076Zm2.516-2.154c.172 0 .324.033.454.099a.714.714 0 0 1 .31.303c.075.135.112.306.112.513v1.215h-.382v-1.171c0-.204-.051-.358-.152-.462-.098-.103-.237-.155-.418-.155a.751.751 0 0 0-.354.08.555.555 0 0 0-.235.235.84.84 0 0 0-.08.386v1.087h-.382v-2.955h.382v1.414l-.075-.151a.735.735 0 0 1 .318-.323c.144-.077.311-.115.502-.115Zm1.583 2.13v-2.11h.382v2.11h-.382Zm.191-2.517a.261.261 0 0 1-.187-.071.238.238 0 0 1-.072-.175c0-.072.024-.132.072-.18a.266.266 0 0 1 .187-.071c.075 0 .136.024.183.071a.221.221 0 0 1 .076.172.258.258 0 0 1-.072.183.25.25 0 0 1-.187.071Zm2.04 2.541a.987.987 0 0 1-.482-.12.91.91 0 0 1-.346-.362 1.256 1.256 0 0 1-.128-.597c0-.239.042-.438.124-.598a.864.864 0 0 1 .342-.358c.146-.08.309-.119.49-.119.207 0 .39.045.549.135a.99.99 0 0 1 .379.378c.092.16.139.347.139.562 0 .215-.047.403-.139.565a.99.99 0 0 1-.379.378c-.159.09-.342.136-.549.136Zm-1.119.748v-2.882h.366v.569l-.023.49.039.489v1.334h-.382Zm1.087-1.083c.135 0 .256-.03.362-.091a.649.649 0 0 0 .255-.259.793.793 0 0 0 .096-.394.758.758 0 0 0-.096-.391.646.646 0 0 0-.255-.258.714.714 0 0 0-.362-.092.687.687 0 0 0-.617.35.788.788 0 0 0-.092.391c0 .148.031.28.092.394a.69.69 0 0 0 .255.259.726.726 0 0 0 .362.091Zm3.319 1.115c-.276 0-.528-.045-.756-.135a1.704 1.704 0 0 1-.972-.952 1.93 1.93 0 0 1-.135-.729c0-.262.045-.504.135-.724.09-.221.218-.412.382-.574.168-.161.367-.286.598-.374a2.15 2.15 0 0 1 .764-.131c.273 0 .523.042.749.127.225.085.42.206.585.363.167.153.296.338.386.553.09.212.135.447.135.705 0 .225-.027.419-.083.581a.844.844 0 0 1-.243.378.57.57 0 0 1-.382.132.488.488 0 0 1-.359-.136c-.087-.09-.131-.219-.131-.386v-.271l.02-.243-.036-.457v-.53h.346v1.433c0 .107.022.181.064.223.045.043.1.064.163.064a.26.26 0 0 0 .199-.092.557.557 0 0 0 .128-.266 1.83 1.83 0 0 0 .044-.426c0-.223-.039-.425-.116-.606a1.299 1.299 0 0 0-.326-.473 1.41 1.41 0 0 0-.502-.303 1.807 1.807 0 0 0-.641-.107c-.236 0-.452.038-.649.115a1.446 1.446 0 0 0-.828.804 1.69 1.69 0 0 0-.112.621c0 .229.038.438.112.629.074.189.18.351.318.486.141.138.307.244.498.319.194.077.409.115.645.115.122 0 .251-.014.386-.044.136-.026.263-.07.383-.131l.087.255c-.122.061-.26.107-.414.139a2.17 2.17 0 0 1-.442.048Zm-.072-.78a.951.951 0 0 1-.501-.132.977.977 0 0 1-.347-.366 1.08 1.08 0 0 1-.127-.526c0-.199.043-.374.127-.525a.922.922 0 0 1 .347-.359.96.96 0 0 1 .501-.131c.184 0 .344.04.482.12a.793.793 0 0 1 .323.342c.079.151.119.336.119.553 0 .218-.038.402-.115.554a.842.842 0 0 1-.323.35c-.138.08-.3.12-.486.12Zm.056-.311c.13 0 .246-.028.347-.084a.616.616 0 0 0 .242-.246.762.762 0 0 0 .092-.383.745.745 0 0 0-.092-.382.596.596 0 0 0-.242-.243.715.715 0 0 0-.347-.083.712.712 0 0 0-.354.087.601.601 0 0 0-.239.243.799.799 0 0 0-.084.378c0 .144.028.268.084.375a.653.653 0 0 0 .239.25.702.702 0 0 0 .354.088Zm3.56.311a1 1 0 0 1-.489-.12.883.883 0 0 1-.343-.362 1.295 1.295 0 0 1-.123-.597c0-.239.042-.438.127-.598a.888.888 0 0 1 .347-.358.983.983 0 0 1 .481-.119c.207 0 .391.045.55.135.159.09.285.216.378.378.093.16.139.347.139.562 0 .215-.046.403-.139.565a.994.994 0 0 1-.378.378 1.1 1.1 0 0 1-.55.136Zm-1.118-.024v-2.955h.382v1.406l-.04.49.024.489v.57h-.366Zm1.086-.311c.136 0 .257-.03.363-.091a.649.649 0 0 0 .255-.259.803.803 0 0 0 .095-.394.768.768 0 0 0-.095-.391.646.646 0 0 0-.255-.258.715.715 0 0 0-.363-.092.687.687 0 0 0-.617.35.788.788 0 0 0-.091.391c0 .148.03.28.091.394a.69.69 0 0 0 .255.259c.109.061.23.091.362.091Zm1.627.311v-2.11h.367v.573l-.036-.143a.644.644 0 0 1 .295-.335 1.03 1.03 0 0 1 .509-.115v.37a.26.26 0 0 0-.048-.004h-.039c-.205 0-.367.061-.486.183-.12.122-.179.299-.179.53v1.051h-.383Zm1.606 0v-2.11h.382v2.11h-.382Zm.191-2.517a.261.261 0 0 1-.187-.071.237.237 0 0 1-.071-.175c0-.072.023-.132.071-.18a.266.266 0 0 1 .187-.071c.075 0 .136.024.183.071a.221.221 0 0 1 .076.172.258.258 0 0 1-.072.183.25.25 0 0 1-.187.071Zm1.841 2.541c-.215 0-.408-.047-.577-.14a1.029 1.029 0 0 1-.538-.939c0-.21.048-.396.143-.558a.998.998 0 0 1 .395-.378c.169-.093.362-.139.577-.139.191 0 .361.038.51.115a.787.787 0 0 1 .35.335l-.291.187a.627.627 0 0 0-.255-.227.744.744 0 0 0-.688.016.676.676 0 0 0-.259.258.758.758 0 0 0-.096.391.78.78 0 0 0 .096.394c.064.111.15.198.259.259a.743.743 0 0 0 .37.091.658.658 0 0 0 .573-.302l.291.183a.845.845 0 0 1-.35.338 1.095 1.095 0 0 1-.51.116Zm1.638-.534.008-.49 1.214-1.11h.462l-.931.915-.207.175-.546.51Zm-.31.51v-2.955h.382v2.955h-.382Zm1.612 0-.828-1.028.247-.306 1.051 1.334h-.47Zm1.968-2.13c.172 0 .323.033.454.099a.714.714 0 0 1 .31.303c.074.135.112.306.112.513v1.215h-.383v-1.171c0-.204-.05-.358-.151-.462-.098-.103-.237-.155-.418-.155a.751.751 0 0 0-.354.08.555.555 0 0 0-.235.235.84.84 0 0 0-.08.386v1.087h-.382v-2.955h.382v1.414l-.075-.151a.735.735 0 0 1 .318-.323c.143-.077.311-.115.502-.115Zm2.893 2.13v-.446l-.02-.084v-.76a.486.486 0 0 0-.143-.375c-.093-.09-.234-.135-.422-.135-.125 0-.247.021-.367.064a.918.918 0 0 0-.302.163l-.16-.287c.109-.087.239-.154.391-.199.154-.047.314-.071.481-.071.29 0 .513.07.669.211.157.14.235.355.235.645v1.274h-.362Zm-.693.024a1.01 1.01 0 0 1-.414-.08.64.64 0 0 1-.271-.219.575.575 0 0 1-.095-.323c0-.114.026-.217.079-.31a.582.582 0 0 1 .267-.223c.125-.056.292-.084.502-.084h.669v.275h-.653c-.191 0-.32.032-.387.096a.307.307 0 0 0-.099.231.3.3 0 0 0 .123.25.568.568 0 0 0 .343.092.71.71 0 0 0 .374-.096.537.537 0 0 0 .235-.278l.076.262a.608.608 0 0 1-.267.299.971.971 0 0 1-.482.108Zm2.682 0c-.215 0-.407-.047-.577-.14a1.026 1.026 0 0 1-.394-.382 1.073 1.073 0 0 1-.144-.557c0-.21.048-.396.144-.558a.995.995 0 0 1 .394-.378c.17-.093.362-.139.577-.139.191 0 .361.038.51.115a.787.787 0 0 1 .35.335l-.29.187a.685.685 0 0 0-.574-.303.744.744 0 0 0-.37.092.676.676 0 0 0-.259.258.758.758 0 0 0-.095.391.78.78 0 0 0 .095.394c.064.111.15.198.259.259a.743.743 0 0 0 .37.091.665.665 0 0 0 .574-.302l.29.183a.845.845 0 0 1-.35.338 1.095 1.095 0 0 1-.51.116Zm1.638-.534.008-.49 1.215-1.11h.461l-.931.915-.207.175-.546.51Zm-.31.51v-2.955h.382v2.955h-.382Zm1.612 0-.828-1.028.247-.306 1.051 1.334h-.47Zm.972.024a.268.268 0 0 1-.271-.275c0-.08.026-.145.08-.195a.264.264 0 0 1 .191-.076.25.25 0 0 1 .183.076c.053.05.079.115.079.195a.27.27 0 0 1-.079.199.253.253 0 0 1-.183.076Zm.81-.024v-2.11h.382v2.11h-.382Zm.191-2.517a.261.261 0 0 1-.187-.071.238.238 0 0 1-.072-.175c0-.072.024-.132.072-.18a.266.266 0 0 1 .187-.071c.075 0 .136.024.183.071a.221.221 0 0 1 .076.172.258.258 0 0 1-.072.183.25.25 0 0 1-.187.071Zm1.825 2.541c-.212 0-.401-.047-.565-.14a1.04 1.04 0 0 1-.534-.939c0-.21.048-.396.143-.558.096-.162.226-.288.391-.378.164-.093.353-.139.565-.139.21 0 .397.046.561.139.167.09.298.216.39.378.096.159.144.345.144.558 0 .209-.048.395-.144.557a.995.995 0 0 1-.39.382c-.164.093-.351.14-.561.14Zm0-.335c.135 0 .256-.03.362-.091a.649.649 0 0 0 .255-.259.824.824 0 0 0 .092-.394.788.788 0 0 0-.092-.391.646.646 0 0 0-.255-.258.714.714 0 0 0-.362-.092.714.714 0 0 0-.362.092.673.673 0 0 0-.255.258.758.758 0 0 0-.096.391c0 .148.032.28.096.394a.675.675 0 0 0 .617.35Zm4.025-.422a.375.375 0 0 1-.18-.044.384.384 0 0 1-.135-.131.379.379 0 0 1-.048-.191c0-.069.016-.13.048-.183.035-.056.08-.1.135-.132a.356.356 0 0 1 .18-.047.353.353 0 0 1 .31.179.347.347 0 0 1 .048.183.379.379 0 0 1-.048.191.35.35 0 0 1-.131.131.357.357 0 0 1-.179.044Zm3.127.733v-2.11h.382v2.11h-.382Zm.191-2.517a.261.261 0 0 1-.187-.071.237.237 0 0 1-.071-.175c0-.072.023-.132.071-.18a.266.266 0 0 1 .187-.071c.075 0 .136.024.183.071a.221.221 0 0 1 .076.172.258.258 0 0 1-.072.183.25.25 0 0 1-.187.071Zm2.048.387a.99.99 0 0 1 .454.099.708.708 0 0 1 .31.303c.075.135.112.306.112.513v1.215h-.382v-1.171c0-.204-.051-.358-.152-.462-.098-.103-.237-.155-.418-.155a.751.751 0 0 0-.354.08.555.555 0 0 0-.235.235.84.84 0 0 0-.08.386v1.087h-.382v-2.11h.367v.569l-.06-.151a.735.735 0 0 1 .318-.323c.144-.077.311-.115.502-.115Zm2.188 2.154c-.175 0-.342-.024-.501-.072a1.188 1.188 0 0 1-.371-.175l.16-.303c.09.061.201.113.334.155.133.043.268.064.406.064.178 0 .306-.025.383-.076a.237.237 0 0 0 .119-.211.185.185 0 0 0-.072-.155.475.475 0 0 0-.191-.083 2.466 2.466 0 0 0-.259-.048 5.77 5.77 0 0 1-.286-.056 1.336 1.336 0 0 1-.263-.095.52.52 0 0 1-.191-.172.533.533 0 0 1-.072-.294c0-.128.036-.239.108-.335a.672.672 0 0 1 .302-.219c.133-.053.29-.079.47-.079.138 0 .277.017.418.051.143.032.26.079.35.14l-.163.302a.914.914 0 0 0-.298-.131 1.375 1.375 0 0 0-.311-.036c-.167 0-.292.028-.374.084-.082.053-.124.122-.124.207 0 .071.024.127.072.167a.604.604 0 0 0 .191.088c.08.021.167.039.263.055.096.014.191.032.287.056.095.021.181.052.258.092.08.039.144.095.192.167.05.072.075.167.075.287a.514.514 0 0 1-.111.33.736.736 0 0 1-.315.219c-.135.05-.297.076-.486.076Zm2.114 0c-.212 0-.376-.057-.493-.172-.117-.114-.175-.277-.175-.489v-1.935h.382v1.919c0 .114.028.201.083.263a.327.327 0 0 0 .247.091c.12 0 .219-.033.299-.099l.119.274a.541.541 0 0 1-.211.112.86.86 0 0 1-.251.036Zm-1.027-1.82v-.314h1.346v.314h-1.346Zm3.261 1.796v-.446l-.02-.084v-.76c0-.162-.047-.287-.143-.375-.093-.09-.234-.135-.422-.135-.125 0-.247.021-.366.064a.913.913 0 0 0-.303.163l-.159-.287a1.14 1.14 0 0 1 .39-.199c.154-.047.315-.071.482-.071.289 0 .512.07.669.211.156.14.235.355.235.645v1.274h-.363Zm-.692.024c-.157 0-.295-.027-.415-.08a.636.636 0 0 1-.27-.219.614.614 0 0 1-.016-.633.577.577 0 0 1 .267-.223 1.24 1.24 0 0 1 .501-.084h.669v.275h-.653c-.191 0-.32.032-.386.096a.308.308 0 0 0-.1.231c0 .103.042.187.124.25a.563.563 0 0 0 .342.092.708.708 0 0 0 .374-.096.533.533 0 0 0 .235-.278l.076.262a.598.598 0 0 1-.267.299.967.967 0 0 1-.481.108Zm2.686.772c-.194 0-.383-.028-.566-.084a1.144 1.144 0 0 1-.442-.231l.183-.294c.099.085.219.151.363.199.143.05.293.076.45.076.249 0 .432-.059.549-.176.117-.116.175-.294.175-.533v-.446l.04-.418-.02-.422v-.577h.362v1.823c0 .372-.092.645-.278.82-.186.175-.458.263-.816.263Zm-.048-.884c-.205 0-.388-.042-.55-.127a1.032 1.032 0 0 1-.382-.363 1.009 1.009 0 0 1-.139-.533c0-.204.046-.382.139-.534a.995.995 0 0 1 .382-.358c.162-.085.345-.127.55-.127.18 0 .345.037.494.111a.815.815 0 0 1 .354.335c.09.151.135.342.135.573 0 .228-.045.418-.135.569a.865.865 0 0 1-.354.343 1.096 1.096 0 0 1-.494.111Zm.044-.334c.14 0 .265-.03.374-.088a.635.635 0 0 0 .255-.243.674.674 0 0 0 .095-.358.674.674 0 0 0-.095-.358.607.607 0 0 0-.255-.239.774.774 0 0 0-.374-.088.8.8 0 0 0-.379.088.632.632 0 0 0-.35.597c0 .135.031.255.092.358.063.104.15.185.258.243a.811.811 0 0 0 .379.088Zm1.829.422v-2.11h.366v.573l-.036-.143a.653.653 0 0 1 .295-.335c.138-.077.308-.115.51-.115v.37a.26.26 0 0 0-.048-.004h-.04a.65.65 0 0 0-.486.183c-.119.122-.179.299-.179.53v1.051h-.382Zm2.76 0v-.446l-.02-.084v-.76a.486.486 0 0 0-.143-.375c-.093-.09-.234-.135-.422-.135-.125 0-.247.021-.367.064a.918.918 0 0 0-.302.163l-.159-.287c.108-.087.238-.154.39-.199.154-.047.314-.071.481-.071.29 0 .513.07.669.211.157.14.235.355.235.645v1.274h-.362Zm-.693.024c-.156 0-.294-.027-.414-.08a.64.64 0 0 1-.271-.219.575.575 0 0 1-.095-.323c0-.114.026-.217.079-.31a.582.582 0 0 1 .267-.223c.125-.056.292-.084.502-.084h.669v.275h-.653c-.191 0-.32.032-.386.096a.304.304 0 0 0-.1.231.3.3 0 0 0 .123.25.568.568 0 0 0 .343.092.71.71 0 0 0 .374-.096.537.537 0 0 0 .235-.278l.076.262a.608.608 0 0 1-.267.299.969.969 0 0 1-.482.108Zm4.402-2.154c.17 0 .32.033.45.099.13.067.231.167.303.303.074.135.111.306.111.513v1.215h-.382v-1.171c0-.204-.048-.358-.143-.462a.523.523 0 0 0-.402-.155.68.68 0 0 0-.335.08.546.546 0 0 0-.223.235.882.882 0 0 0-.075.386v1.087h-.383v-1.171c0-.204-.047-.358-.143-.462-.093-.103-.227-.155-.402-.155a.673.673 0 0 0-.331.08.551.551 0 0 0-.223.235.84.84 0 0 0-.079.386v1.087h-.382v-2.11h.366v.561l-.06-.143a.726.726 0 0 1 .307-.323.97.97 0 0 1 .481-.115c.202 0 .376.05.522.151a.698.698 0 0 1 .287.45l-.156-.064a.796.796 0 0 1 .335-.39 1.04 1.04 0 0 1 .557-.147Zm1.659 2.154a.27.27 0 0 1-.191-.076.271.271 0 0 1-.08-.199.266.266 0 0 1 .271-.271c.072 0 .133.025.183.076.053.05.08.115.08.195a.271.271 0 0 1-.08.199.25.25 0 0 1-.183.076Zm1.684 0c-.215 0-.408-.047-.578-.14a1.033 1.033 0 0 1-.537-.939c0-.21.048-.396.143-.558.096-.162.227-.288.394-.378.17-.093.363-.139.578-.139.191 0 .361.038.509.115a.79.79 0 0 1 .351.335l-.291.187a.627.627 0 0 0-.255-.227.748.748 0 0 0-.689.016.673.673 0 0 0-.258.258.758.758 0 0 0-.096.391.78.78 0 0 0 .096.394c.063.111.15.198.258.259a.747.747 0 0 0 .371.091.658.658 0 0 0 .573-.302l.291.183a.847.847 0 0 1-.351.338 1.088 1.088 0 0 1-.509.116Zm2.227 0c-.212 0-.401-.047-.565-.14a1.03 1.03 0 0 1-.39-.382 1.085 1.085 0 0 1-.144-.557c0-.21.048-.396.144-.558a.998.998 0 0 1 .39-.378c.164-.093.353-.139.565-.139.21 0 .397.046.561.139.168.09.298.216.391.378.095.159.143.345.143.558 0 .209-.048.395-.143.557a.998.998 0 0 1-.391.382c-.164.093-.351.14-.561.14Zm0-.335c.135 0 .256-.03.362-.091a.649.649 0 0 0 .255-.259.824.824 0 0 0 .092-.394.788.788 0 0 0-.092-.391.646.646 0 0 0-.255-.258.714.714 0 0 0-.362-.092.687.687 0 0 0-.617.35.758.758 0 0 0-.096.391c0 .148.032.28.096.394a.69.69 0 0 0 .255.259.713.713 0 0 0 .362.091Zm4.263-1.819c.17 0 .32.033.45.099.13.067.231.167.303.303.074.135.111.306.111.513v1.215h-.382v-1.171c0-.204-.048-.358-.143-.462a.523.523 0 0 0-.402-.155.68.68 0 0 0-.335.08.546.546 0 0 0-.223.235.882.882 0 0 0-.075.386v1.087h-.383v-1.171c0-.204-.047-.358-.143-.462-.093-.103-.227-.155-.402-.155a.673.673 0 0 0-.331.08.551.551 0 0 0-.223.235.84.84 0 0 0-.079.386v1.087h-.382v-2.11h.366v.561l-.06-.143a.726.726 0 0 1 .307-.323.97.97 0 0 1 .481-.115c.202 0 .376.05.522.151a.698.698 0 0 1 .287.45l-.156-.064a.796.796 0 0 1 .335-.39 1.04 1.04 0 0 1 .557-.147Zm1.094 2.528 1.314-3.751h.346l-1.314 3.751h-.346Zm2.992-.374c-.18 0-.344-.04-.49-.12a.887.887 0 0 1-.342-.362 1.294 1.294 0 0 1-.124-.597c0-.239.043-.438.128-.598a.885.885 0 0 1 .346-.358.987.987 0 0 1 .482-.119c.207 0 .39.045.549.135a.99.99 0 0 1 .379.378c.093.16.139.347.139.562 0 .215-.046.403-.139.565a.99.99 0 0 1-.379.378c-.159.09-.342.136-.549.136Zm-1.119-.024v-2.955h.382v1.406l-.039.49.024.489v.57h-.367Zm1.087-.311a.71.71 0 0 0 .362-.091.649.649 0 0 0 .255-.259.793.793 0 0 0 .096-.394.758.758 0 0 0-.096-.391.646.646 0 0 0-.255-.258.711.711 0 0 0-.362-.092.687.687 0 0 0-.617.35.788.788 0 0 0-.092.391c0 .148.031.28.092.394a.69.69 0 0 0 .255.259.726.726 0 0 0 .362.091Zm1.627.311v-2.11h.366v.573l-.035-.143a.647.647 0 0 1 .294-.335c.138-.077.308-.115.51-.115v.37a.26.26 0 0 0-.048-.004h-.04c-.204 0-.366.061-.485.183-.12.122-.18.299-.18.53v1.051h-.382Zm1.606 0v-2.11h.382v2.11h-.382Zm.191-2.517a.26.26 0 0 1-.187-.071.238.238 0 0 1-.072-.175c0-.072.024-.132.072-.18a.264.264 0 0 1 .187-.071c.074 0 .135.024.183.071a.221.221 0 0 1 .076.172.258.258 0 0 1-.072.183.252.252 0 0 1-.187.071Zm1.841 2.541c-.215 0-.408-.047-.578-.14a1.033 1.033 0 0 1-.537-.939c0-.21.048-.396.143-.558.096-.162.227-.288.394-.378.17-.093.363-.139.578-.139.191 0 .361.038.509.115a.79.79 0 0 1 .351.335l-.291.187a.627.627 0 0 0-.255-.227.748.748 0 0 0-.689.016.673.673 0 0 0-.258.258.758.758 0 0 0-.096.391.78.78 0 0 0 .096.394c.063.111.15.198.258.259a.747.747 0 0 0 .371.091.658.658 0 0 0 .573-.302l.291.183a.847.847 0 0 1-.351.338 1.088 1.088 0 0 1-.509.116Zm1.638-.534.008-.49 1.214-1.11h.462l-.932.915-.207.175-.545.51Zm-.311.51v-2.955h.382v2.955h-.382Zm1.613 0-.828-1.028.246-.306 1.052 1.334h-.47Zm1.967-2.13a.99.99 0 0 1 .454.099.716.716 0 0 1 .311.303c.074.135.111.306.111.513v1.215h-.382v-1.171c0-.204-.05-.358-.151-.462-.098-.103-.238-.155-.418-.155a.753.753 0 0 0-.355.08.56.56 0 0 0-.235.235.84.84 0 0 0-.079.386v1.087h-.382v-2.955h.382v1.414l-.076-.151a.732.732 0 0 1 .319-.323 1.04 1.04 0 0 1 .501-.115Zm2.894 2.13v-.446l-.02-.084v-.76c0-.162-.048-.287-.144-.375-.093-.09-.233-.135-.422-.135-.124 0-.247.021-.366.064a.933.933 0 0 0-.303.163l-.159-.287a1.14 1.14 0 0 1 .39-.199c.154-.047.315-.071.482-.071.289 0 .512.07.669.211.157.14.235.355.235.645v1.274h-.362Zm-.693.024a1.01 1.01 0 0 1-.414-.08.64.64 0 0 1-.271-.219.614.614 0 0 1-.016-.633.582.582 0 0 1 .267-.223c.125-.056.292-.084.501-.084h.669v.275h-.653c-.191 0-.319.032-.386.096a.307.307 0 0 0-.099.231.3.3 0 0 0 .123.25.563.563 0 0 0 .342.092.712.712 0 0 0 .375-.096.537.537 0 0 0 .235-.278l.075.262a.6.6 0 0 1-.266.299.971.971 0 0 1-.482.108Zm2.682 0c-.215 0-.408-.047-.577-.14a1.029 1.029 0 0 1-.538-.939c0-.21.048-.396.143-.558a.998.998 0 0 1 .395-.378c.169-.093.362-.139.577-.139.191 0 .361.038.509.115a.784.784 0 0 1 .351.335l-.291.187a.627.627 0 0 0-.255-.227.741.741 0 0 0-.688.016.676.676 0 0 0-.259.258.758.758 0 0 0-.096.391.78.78 0 0 0 .096.394c.064.111.15.198.259.259a.74.74 0 0 0 .37.091.658.658 0 0 0 .573-.302l.291.183a.842.842 0 0 1-.351.338 1.088 1.088 0 0 1-.509.116Zm1.638-.534.008-.49 1.214-1.11h.462l-.931.915-.208.175-.545.51Zm-.311.51v-2.955h.383v2.955h-.383Zm1.613 0-.828-1.028.247-.306 1.051 1.334h-.47Zm2.173-.733a.368.368 0 0 1-.179-.044.38.38 0 0 1-.136-.131.378.378 0 0 1-.047-.191.346.346 0 0 1 .183-.315.35.35 0 0 1 .179-.047.34.34 0 0 1 .179.047.34.34 0 0 1 .131.132.347.347 0 0 1 .048.183.379.379 0 0 1-.048.191.337.337 0 0 1-.131.131.357.357 0 0 1-.179.044Zm2.114.733v-2.298c0-.207.06-.371.179-.493.122-.125.295-.187.518-.187.082 0 .16.01.235.031.077.019.142.05.195.092l-.116.291a.408.408 0 0 0-.135-.072.447.447 0 0 0-.159-.028c-.112 0-.197.032-.255.096-.059.061-.088.152-.088.274v.283l.008.175v1.836h-.382Zm-.358-1.796v-.314h1.345v.314h-1.345Zm2.977 1.796v-.446l-.02-.084v-.76a.486.486 0 0 0-.143-.375c-.093-.09-.234-.135-.422-.135-.125 0-.247.021-.367.064a.918.918 0 0 0-.302.163l-.159-.287c.108-.087.238-.154.39-.199.154-.047.314-.071.481-.071.29 0 .513.07.669.211.157.14.235.355.235.645v1.274h-.362Zm-.693.024c-.156 0-.294-.027-.414-.08a.64.64 0 0 1-.271-.219.575.575 0 0 1-.095-.323c0-.114.026-.217.079-.31a.582.582 0 0 1 .267-.223c.125-.056.292-.084.502-.084h.669v.275h-.653c-.191 0-.32.032-.386.096a.304.304 0 0 0-.1.231.3.3 0 0 0 .123.25.568.568 0 0 0 .343.092.71.71 0 0 0 .374-.096.537.537 0 0 0 .235-.278l.076.262a.608.608 0 0 1-.267.299.971.971 0 0 1-.482.108Zm2.682 0c-.215 0-.407-.047-.577-.14a1.026 1.026 0 0 1-.394-.382 1.073 1.073 0 0 1-.144-.557c0-.21.048-.396.144-.558a.995.995 0 0 1 .394-.378c.17-.093.362-.139.577-.139.191 0 .361.038.51.115a.787.787 0 0 1 .35.335l-.29.187a.682.682 0 0 0-.574-.303.744.744 0 0 0-.37.092.676.676 0 0 0-.259.258.758.758 0 0 0-.095.391.78.78 0 0 0 .095.394c.064.111.15.198.259.259a.743.743 0 0 0 .37.091.658.658 0 0 0 .574-.302l.29.183a.845.845 0 0 1-.35.338 1.095 1.095 0 0 1-.51.116Zm2.264 0c-.226 0-.425-.047-.598-.14a1.03 1.03 0 0 1-.398-.382 1.1 1.1 0 0 1-.139-.557c0-.21.045-.396.135-.558a.994.994 0 0 1 .378-.378c.162-.093.344-.139.546-.139.204 0 .385.045.541.135.157.09.279.218.367.382a1.155 1.155 0 0 1 .127.685h-1.796v-.275h1.597l-.155.096a.707.707 0 0 0-.084-.362.672.672 0 0 0-.597-.339.682.682 0 0 0-.354.092.607.607 0 0 0-.243.251.74.74 0 0 0-.088.366v.064c0 .14.032.266.096.378a.688.688 0 0 0 .274.255.858.858 0 0 0 .403.091.856.856 0 0 0 .338-.064.74.74 0 0 0 .271-.191l.211.247a.913.913 0 0 1-.359.255c-.14.058-.298.088-.473.088Zm2.617 0c-.181 0-.344-.04-.49-.12a.89.89 0 0 1-.343-.362 1.295 1.295 0 0 1-.123-.597c0-.239.043-.438.127-.598a.894.894 0 0 1 .829-.477c.207 0 .39.045.549.135.159.09.285.216.378.378.093.16.14.347.14.562 0 .215-.047.403-.14.565a.994.994 0 0 1-.378.378c-.159.09-.342.136-.549.136Zm-1.119-.024v-2.955h.382v1.406l-.04.49.024.489v.57h-.366Zm1.087-.311c.135 0 .256-.03.362-.091a.649.649 0 0 0 .255-.259.792.792 0 0 0 .095-.394.758.758 0 0 0-.095-.391.646.646 0 0 0-.255-.258.714.714 0 0 0-.362-.092.677.677 0 0 0-.617.35.788.788 0 0 0-.092.391c0 .148.031.28.092.394a.68.68 0 0 0 .617.35Zm2.53.335c-.212 0-.4-.047-.565-.14a1.044 1.044 0 0 1-.533-.939c0-.21.047-.396.143-.558.096-.162.226-.288.39-.378a1.13 1.13 0 0 1 .565-.139c.21 0 .397.046.562.139.167.09.297.216.39.378.096.159.143.345.143.558 0 .209-.047.395-.143.557a1.002 1.002 0 0 1-.39.382c-.165.093-.352.14-.562.14Zm0-.335c.136 0 .257-.03.363-.091a.649.649 0 0 0 .255-.259.824.824 0 0 0 .091-.394.788.788 0 0 0-.091-.391.646.646 0 0 0-.255-.258.715.715 0 0 0-.363-.092.687.687 0 0 0-.617.35.768.768 0 0 0-.095.391c0 .148.032.28.095.394a.69.69 0 0 0 .255.259.713.713 0 0 0 .362.091Zm2.528.335c-.213 0-.401-.047-.566-.14a1.044 1.044 0 0 1-.533-.939c0-.21.048-.396.143-.558.096-.162.226-.288.39-.378a1.13 1.13 0 0 1 .566-.139c.209 0 .397.046.561.139.167.09.297.216.39.378.096.159.144.345.144.558 0 .209-.048.395-.144.557a1.002 1.002 0 0 1-.39.382 1.12 1.12 0 0 1-.561.14Zm0-.335c.135 0 .256-.03.362-.091a.649.649 0 0 0 .255-.259.824.824 0 0 0 .091-.394.788.788 0 0 0-.091-.391.646.646 0 0 0-.255-.258.714.714 0 0 0-.362-.092.677.677 0 0 0-.617.35.758.758 0 0 0-.096.391c0 .148.032.28.096.394a.68.68 0 0 0 .617.35Zm1.934-.199.008-.49 1.214-1.11h.462l-.932.915-.207.175-.545.51Zm-.311.51v-2.955h.382v2.955h-.382Zm1.613 0-.828-1.028.246-.306 1.052 1.334h-.47Zm.971.024a.27.27 0 0 1-.191-.076.271.271 0 0 1-.08-.199.266.266 0 0 1 .271-.271c.072 0 .133.025.183.076.053.05.08.115.08.195a.271.271 0 0 1-.08.199.25.25 0 0 1-.183.076Zm1.684 0c-.215 0-.408-.047-.578-.14a1.033 1.033 0 0 1-.537-.939c0-.21.048-.396.143-.558.096-.162.227-.288.394-.378.17-.093.363-.139.578-.139.191 0 .361.038.509.115a.79.79 0 0 1 .351.335l-.291.187a.627.627 0 0 0-.255-.227.748.748 0 0 0-.689.016.673.673 0 0 0-.258.258.758.758 0 0 0-.096.391.78.78 0 0 0 .096.394c.063.111.15.198.258.259a.747.747 0 0 0 .371.091.658.658 0 0 0 .573-.302l.291.183a.847.847 0 0 1-.351.338 1.088 1.088 0 0 1-.509.116Zm2.227 0c-.212 0-.401-.047-.565-.14a1.03 1.03 0 0 1-.39-.382 1.085 1.085 0 0 1-.144-.557c0-.21.048-.396.144-.558a.998.998 0 0 1 .39-.378c.164-.093.353-.139.565-.139.21 0 .397.046.562.139.167.09.297.216.39.378.095.159.143.345.143.558 0 .209-.048.395-.143.557a1.002 1.002 0 0 1-.39.382c-.165.093-.352.14-.562.14Zm0-.335c.135 0 .256-.03.362-.091a.649.649 0 0 0 .255-.259.824.824 0 0 0 .092-.394.788.788 0 0 0-.092-.391.646.646 0 0 0-.255-.258.714.714 0 0 0-.362-.092.687.687 0 0 0-.617.35.758.758 0 0 0-.096.391c0 .148.032.28.096.394a.69.69 0 0 0 .255.259.713.713 0 0 0 .362.091Zm4.263-1.819c.17 0 .32.033.45.099.13.067.231.167.303.303.074.135.111.306.111.513v1.215h-.382v-1.171c0-.204-.048-.358-.143-.462a.523.523 0 0 0-.402-.155.68.68 0 0 0-.335.08.546.546 0 0 0-.223.235.882.882 0 0 0-.075.386v1.087h-.383v-1.171c0-.204-.047-.358-.143-.462-.093-.103-.227-.155-.402-.155a.673.673 0 0 0-.331.08.551.551 0 0 0-.223.235.84.84 0 0 0-.079.386v1.087h-.382v-2.11h.366v.561l-.06-.143a.726.726 0 0 1 .307-.323.97.97 0 0 1 .481-.115c.202 0 .376.05.522.151a.698.698 0 0 1 .287.45l-.156-.064a.796.796 0 0 1 .335-.39 1.04 1.04 0 0 1 .557-.147Zm1.094 2.528 1.314-3.751h.346l-1.314 3.751h-.346Zm2.992-.374c-.18 0-.344-.04-.49-.12a.887.887 0 0 1-.342-.362 1.294 1.294 0 0 1-.124-.597c0-.239.043-.438.128-.598a.885.885 0 0 1 .346-.358.987.987 0 0 1 .482-.119c.207 0 .39.045.549.135a.99.99 0 0 1 .379.378c.093.16.139.347.139.562 0 .215-.046.403-.139.565a.99.99 0 0 1-.379.378c-.159.09-.342.136-.549.136Zm-1.119-.024v-2.955h.382v1.406l-.039.49.024.489v.57h-.367Zm1.087-.311a.71.71 0 0 0 .362-.091.649.649 0 0 0 .255-.259.793.793 0 0 0 .096-.394.758.758 0 0 0-.096-.391.646.646 0 0 0-.255-.258.711.711 0 0 0-.362-.092.687.687 0 0 0-.617.35.788.788 0 0 0-.092.391c0 .148.031.28.092.394a.69.69 0 0 0 .255.259.726.726 0 0 0 .362.091Zm1.627.311v-2.11h.366v.573l-.035-.143a.647.647 0 0 1 .294-.335c.138-.077.308-.115.51-.115v.37a.26.26 0 0 0-.048-.004h-.04c-.204 0-.366.061-.485.183-.12.122-.18.299-.18.53v1.051h-.382Zm1.606 0v-2.11h.382v2.11h-.382Zm.191-2.517a.26.26 0 0 1-.187-.071.238.238 0 0 1-.072-.175c0-.072.024-.132.072-.18a.264.264 0 0 1 .187-.071c.074 0 .135.024.183.071a.221.221 0 0 1 .076.172.258.258 0 0 1-.072.183.252.252 0 0 1-.187.071Zm1.841 2.541c-.215 0-.408-.047-.578-.14a1.033 1.033 0 0 1-.537-.939c0-.21.048-.396.143-.558.096-.162.227-.288.394-.378.17-.093.363-.139.578-.139.191 0 .361.038.509.115a.79.79 0 0 1 .351.335l-.291.187a.627.627 0 0 0-.255-.227.748.748 0 0 0-.689.016.673.673 0 0 0-.258.258.758.758 0 0 0-.096.391.78.78 0 0 0 .096.394c.063.111.15.198.258.259a.747.747 0 0 0 .371.091.658.658 0 0 0 .573-.302l.291.183a.847.847 0 0 1-.351.338 1.088 1.088 0 0 1-.509.116Zm1.638-.534.008-.49 1.214-1.11h.462l-.932.915-.207.175-.545.51Zm-.311.51v-2.955h.382v2.955h-.382Zm1.613 0-.828-1.028.246-.306 1.052 1.334h-.47Zm1.967-2.13a.99.99 0 0 1 .454.099.716.716 0 0 1 .311.303c.074.135.111.306.111.513v1.215h-.382v-1.171c0-.204-.05-.358-.151-.462-.098-.103-.238-.155-.418-.155a.753.753 0 0 0-.355.08.56.56 0 0 0-.235.235.84.84 0 0 0-.079.386v1.087h-.382v-2.955h.382v1.414l-.076-.151a.732.732 0 0 1 .319-.323 1.04 1.04 0 0 1 .501-.115Zm2.894 2.13v-.446l-.02-.084v-.76c0-.162-.048-.287-.144-.375-.093-.09-.233-.135-.422-.135-.124 0-.247.021-.366.064a.933.933 0 0 0-.303.163l-.159-.287a1.14 1.14 0 0 1 .39-.199c.154-.047.315-.071.482-.071.289 0 .512.07.669.211.157.14.235.355.235.645v1.274h-.362Zm-.693.024a1.01 1.01 0 0 1-.414-.08.64.64 0 0 1-.271-.219.614.614 0 0 1-.016-.633.582.582 0 0 1 .267-.223c.125-.056.292-.084.501-.084h.669v.275h-.653c-.191 0-.319.032-.386.096a.307.307 0 0 0-.099.231.3.3 0 0 0 .123.25.563.563 0 0 0 .342.092.712.712 0 0 0 .375-.096.537.537 0 0 0 .235-.278l.075.262a.6.6 0 0 1-.266.299.971.971 0 0 1-.482.108Zm2.682 0c-.215 0-.408-.047-.577-.14a1.029 1.029 0 0 1-.538-.939c0-.21.048-.396.143-.558a.998.998 0 0 1 .395-.378c.169-.093.362-.139.577-.139.191 0 .361.038.51.115a.787.787 0 0 1 .35.335l-.291.187a.627.627 0 0 0-.255-.227.741.741 0 0 0-.688.016.676.676 0 0 0-.259.258.758.758 0 0 0-.096.391.78.78 0 0 0 .096.394c.064.111.15.198.259.259a.74.74 0 0 0 .37.091.658.658 0 0 0 .573-.302l.291.183a.845.845 0 0 1-.35.338 1.095 1.095 0 0 1-.51.116Zm1.638-.534.008-.49 1.214-1.11h.462l-.931.915-.208.175-.545.51Zm-.311.51v-2.955h.383v2.955h-.383Zm1.613 0-.828-1.028.247-.306 1.051 1.334h-.47Zm.814 0v-2.11h.366v.573l-.036-.143a.653.653 0 0 1 .295-.335c.138-.077.308-.115.509-.115v.37a.249.249 0 0 0-.047-.004h-.04c-.205 0-.367.061-.486.183s-.179.299-.179.53v1.051h-.382Zm1.605 0v-2.11h.383v2.11h-.383Zm.192-2.517a.262.262 0 0 1-.188-.071.24.24 0 0 1-.071-.175c0-.072.024-.132.071-.18a.266.266 0 0 1 .188-.071c.074 0 .135.024.183.071.05.046.075.103.075.172a.261.261 0 0 1-.071.183.252.252 0 0 1-.187.071Zm1.645 2.541c-.212 0-.377-.057-.494-.172-.116-.114-.175-.277-.175-.489v-1.935h.382v1.919c0 .114.028.201.084.263.058.061.141.091.247.091a.45.45 0 0 0 .298-.099l.12.274a.548.548 0 0 1-.211.112.866.866 0 0 1-.251.036Zm-1.027-1.82v-.314h1.346v.314h-1.346Z" fill="#fff"/><path d="m88.149 31.39.597-.004-.597.004Zm-.16-24.338.597-.004-.598.004Zm2.25 27.308.206-.561-.206.56Zm21.142 7.735-.206.561.206-.56Zm3.094-.512-.375-.465.375.465Zm15.45-12.468-.375-.464.375.464Zm-.501-5.289.281-.527-.281.527ZM92.673 4.221l-.282.527.282-.527Zm-4.547 23.54-.124-.584-.476.1.003.488.597-.004Zm.024 3.625.597-.004-.597.004Zm10.748-5.91.124.585h.002l-.126-.584Zm3.267.279.222-.554-.222.554Zm2.552 2.058.495-.335-.495.334Zm.965 3.133.597-.002-.597.002Zm-.952 3.136-.496-.333.496.333Zm-3.008 4.479-.205.56.44.162.261-.39-.496-.332Zm-11.478-4.2-.205.561.205-.56Zm-1.498-2.975-.16-24.338-1.195.008.16 24.338 1.195-.008Zm1.699 2.413a2.588 2.588 0 0 1-1.699-2.413l-1.194.008c.01 1.578 1 2.984 2.482 3.527l.41-1.122Zm21.141 7.736-21.141-7.736-.41 1.122 21.14 7.735.411-1.121Zm2.514-.417a2.587 2.587 0 0 1-2.514.417l-.411 1.121a3.782 3.782 0 0 0 3.675-.608l-.75-.93Zm15.45-12.467L114.1 41.118l.75.93L130.3 29.58l-.75-.93Zm-.407-4.298c1.636.873 1.85 3.133.407 4.298l.75.93c2.109-1.703 1.796-5.006-.595-6.282l-.562 1.054ZM92.391 4.748l36.752 19.605.562-1.054L92.954 3.694l-.563 1.054Zm-3.805 2.3c-.013-1.96 2.075-3.223 3.805-2.3l.563-1.054c-2.53-1.349-5.582.496-5.563 3.362l1.195-.008Zm-1.057 20.717.024 3.625 1.194-.008-.024-3.625-1.194.008Zm11.246-2.872-10.773 2.284.248 1.168 10.772-2.284-.247-1.168Zm3.612.308a6.201 6.201 0 0 0-3.614-.308l.251 1.168a5.006 5.006 0 0 1 2.918.248l.445-1.108Zm2.825 2.276a6.203 6.203 0 0 0-2.825-2.276l-.445 1.108a5.006 5.006 0 0 1 2.281 1.838l.989-.67Zm1.067 3.467a6.201 6.201 0 0 0-1.067-3.466l-.989.67c.56.826.86 1.8.862 2.799l1.194-.003Zm-1.054 3.471a6.193 6.193 0 0 0 1.054-3.47l-1.194.002a5.005 5.005 0 0 1-.851 2.802l.991.666Zm-3.007 4.479 3.008-4.479-.992-.666-3.008 4.479.992.666Zm-12.179-3.972 11.478 4.2.41-1.122-11.478-4.2-.41 1.122Zm-2.486-3.532a3.788 3.788 0 0 0 2.486 3.532l.41-1.122a2.593 2.593 0 0 1-1.702-2.418l-1.194.008Z" fill="#307CA2"/><mask id="path-11-inside-1_126_1104" fill="#fff"><path fill-rule="evenodd" clip-rule="evenodd" d="M101.723 38.56 90.569 55.17a5.612 5.612 0 0 1-9.178.24L69.737 39.803a5.611 5.611 0 0 1 3.336-8.852L98.9 25.475a5.605 5.605 0 0 1 .004.002L88.131 27.76l.024 3.625a3.19 3.19 0 0 0 2.094 2.975l11.474 4.198Z"/></mask><path d="m90.569 55.17-.992-.666-.003.005.995.661Zm11.154-16.61.992.665.849-1.264-1.43-.523-.411 1.121ZM88.611 56.973l-.578-1.045.578 1.045Zm-2.569.7-.03-1.194.03 1.194Zm-2.602-.564-.522 1.074.522-1.074Zm-2.049-1.7.96-.712-.002-.003-.958.715ZM69.737 39.803l.957-.715v-.001l-.957.716Zm-1.063-2.573-1.182.168 1.182-.168Zm.305-2.767 1.118.42-1.118-.42Zm4.094-3.512.246 1.169h.002l-.248-1.169ZM98.9 25.475l.248 1.169h.003l-.25-1.168Zm2.65.072-.313 1.152.626-2.305-.313 1.153Zm-2.646-.07.248 1.168h.003l-.25-1.168ZM88.131 27.76l-.248-1.169-.953.202.006.974 1.195-.008Zm.024 3.625 1.194-.008-1.194.008Zm2.094 2.975-.41 1.122.41-1.122Zm1.311 21.475 11.155-16.61-1.984-1.333-11.154 16.611 1.983 1.332Zm-2.37 2.184a6.805 6.805 0 0 0 2.374-2.189l-1.99-1.322a4.417 4.417 0 0 1-1.54 1.42l1.155 2.09Zm-3.116.847a6.804 6.804 0 0 0 3.115-.847l-1.156-2.09a4.418 4.418 0 0 1-2.022.55l.063 2.388Zm-3.156-.683a6.805 6.805 0 0 0 3.156.684l-.063-2.389a4.417 4.417 0 0 1-2.048-.443l-1.045 2.148Zm-2.485-2.062a6.806 6.806 0 0 0 2.485 2.062l1.045-2.148a4.417 4.417 0 0 1-1.613-1.338l-1.917 1.424ZM68.78 40.517l11.654 15.607 1.915-1.429-11.655-15.607-1.914 1.43Zm-1.288-3.12a6.804 6.804 0 0 0 1.289 3.121l1.912-1.431a4.416 4.416 0 0 1-.836-2.025l-2.365.336Zm.37-3.356a6.805 6.805 0 0 0-.37 3.357l2.365-.336a4.415 4.415 0 0 1 .24-2.178l-2.236-.843Zm1.937-2.765a6.806 6.806 0 0 0-1.938 2.765l2.236.843a4.415 4.415 0 0 1 1.257-1.795L69.8 31.276Zm3.028-1.494a6.805 6.805 0 0 0-3.028 1.494l1.555 1.813a4.416 4.416 0 0 1 1.965-.97l-.492-2.337Zm25.824-5.475-25.826 5.476.496 2.337 25.826-5.476-.496-2.337Zm3.211.087a6.798 6.798 0 0 0-3.214-.086l.502 2.335a4.409 4.409 0 0 1 2.085.056l.627-2.305Zm0 0a6.8 6.8 0 0 0-3.21-.085l.502 2.335a4.412 4.412 0 0 1 2.082.056l.626-2.306Zm-3.206-.086-10.773 2.284.496 2.337 10.772-2.284-.495-2.337Zm-11.72 3.46.024 3.625 2.39-.015-.025-3.625-2.389.015Zm.024 3.625a4.385 4.385 0 0 0 2.879 4.09l.82-2.244a1.996 1.996 0 0 1-1.31-1.861l-2.389.015Zm2.879 4.09 11.474 4.198.821-2.243-11.475-4.199-.82 2.244Z" fill="#8D6754" mask="url('#path-11-inside-1_126_1104')"/><path d="m314.508 296.412 9.356 19.292a3.186 3.186 0 0 1-1.818 4.398l-31.323 10.918c-2.383.831-4.74-1.309-4.143-3.762l4.344-17.829a3.186 3.186 0 0 1 1.264-1.852l17.623-12.381a3.185 3.185 0 0 1 4.697 1.216Z" stroke="#44C6E6" stroke-width="1.194" opacity=".5"/><path opacity=".5" d="M291.771 290.307c0 5.497-4.456 9.953-9.954 9.953-5.497 0-9.953-4.456-9.953-9.953 0-5.498 4.456-9.954 9.953-9.954 5.498 0 9.954 4.456 9.954 9.954Z" stroke="#FF9C4A" stroke-width="1.194"/><path opacity=".5" d="M263.525 25.254c-.082-1.284 1.479-1.977 2.377-1.055l14.196 14.576c.283.29.678.442 1.082.416l20.306-1.288c1.284-.082 1.977 1.479 1.055 2.377l-14.576 14.196c-.29.283-.442.678-.416 1.082l1.289 20.305c.081 1.285-1.48 1.978-2.378 1.056l-14.196-14.576a1.389 1.389 0 0 0-1.082-.416l-20.305 1.288c-1.285.082-1.978-1.479-1.056-2.377l14.576-14.196c.29-.283.442-.678.416-1.082l-1.288-20.306Z" stroke="url('#paint0_linear_126_1104')" stroke-width="1.593"/><path opacity=".5" d="M114.562 237.671c.704-1.256 2.619-.739 2.596.701l-.233 14.348a1.387 1.387 0 0 0 1.611 1.391l14.162-2.314c1.421-.232 2.211 1.588 1.07 2.467l-11.362 8.764a1.386 1.386 0 0 0-.084 2.126l10.639 9.63c1.068.966.138 2.718-1.261 2.375l-13.936-3.419a1.387 1.387 0 0 0-1.715 1.26l-.895 14.322c-.09 1.437-2.04 1.802-2.643.495l-6.016-13.028a1.388 1.388 0 0 0-2.055-.555l-11.755 8.23c-1.18.826-2.68-.471-2.035-1.758l6.435-12.826a1.387 1.387 0 0 0-.847-1.952l-13.764-4.06c-1.381-.407-1.303-2.389.105-2.687l14.04-2.966a1.387 1.387 0 0 0 .999-1.88l-5.408-13.292c-.543-1.334 1.056-2.508 2.167-1.592l11.072 9.127c.667.55 1.669.362 2.092-.392l7.021-12.515Z" stroke="url('#paint1_linear_126_1104')" stroke-width="1.593"/><path d="M127.732 139.596h5.895v25.472h-5.895v-25.472Zm-11.572 25.472h-5.895v-25.472h5.895v25.472Zm12.009-10.443h-12.445v-4.985h12.445v4.985Zm8.137 10.443 11.353-25.472h5.822l11.39 25.472h-6.187l-9.315-22.488h2.329l-9.352 22.488h-6.04Zm5.676-5.458 1.565-4.476h13.1l1.601 4.476h-16.266Zm37.366 5.895c-1.965 0-3.797-.315-5.495-.946-1.674-.655-3.129-1.577-4.366-2.766a12.97 12.97 0 0 1-2.911-4.184c-.68-1.601-1.019-3.36-1.019-5.277 0-1.916.339-3.675 1.019-5.276a12.986 12.986 0 0 1 2.911-4.185 13.073 13.073 0 0 1 4.403-2.729c1.674-.655 3.505-.982 5.494-.982 2.208 0 4.197.388 5.968 1.164a11.471 11.471 0 0 1 4.512 3.348l-3.784 3.493c-.874-.994-1.844-1.734-2.911-2.219-1.068-.51-2.232-.765-3.494-.765-1.188 0-2.28.195-3.274.583a7.42 7.42 0 0 0-2.584 1.674 7.85 7.85 0 0 0-1.71 2.583c-.388.995-.583 2.098-.583 3.311s.195 2.317.583 3.312a7.86 7.86 0 0 0 1.71 2.583 7.42 7.42 0 0 0 2.584 1.674c.994.388 2.086.582 3.274.582 1.262 0 2.426-.242 3.494-.727 1.067-.51 2.037-1.274 2.911-2.293l3.784 3.493a11.804 11.804 0 0 1-4.512 3.385c-1.771.776-3.772 1.164-6.004 1.164Zm19.773-6.259-.327-6.804 12.19-12.846h6.55l-10.989 11.827-3.275 3.493-4.149 4.33Zm-5.276 5.822v-25.472h5.859v25.472h-5.859Zm17.43 0-9.061-11.098 3.858-4.185 12.08 15.283h-6.877ZM110.022 133.887v-23.483h11.473c2.952 0 5.166.559 6.642 1.678 1.499 1.118 2.248 2.594 2.248 4.428 0 1.23-.302 2.303-.906 3.22-.604.895-1.431 1.588-2.482 2.08-1.052.492-2.259.738-3.624.738l.638-1.375c1.476 0 2.784.246 3.925.738 1.14.47 2.024 1.174 2.65 2.113.649.94.973 2.092.973 3.456 0 2.013-.794 3.589-2.382 4.73-1.588 1.118-3.925 1.677-7.011 1.677h-12.144Zm5.401-4.092h6.34c1.409 0 2.471-.224 3.187-.671.738-.47 1.107-1.208 1.107-2.214 0-.984-.369-1.711-1.107-2.181-.716-.492-1.778-.738-3.187-.738h-6.743v-3.959h5.804c1.319 0 2.326-.223 3.019-.671.716-.469 1.074-1.174 1.074-2.113 0-.917-.358-1.599-1.074-2.046-.693-.47-1.7-.705-3.019-.705h-5.401v15.298Zm20.251 4.092v-23.483h10.164c2.103 0 3.914.347 5.435 1.04 1.521.671 2.695 1.644 3.523 2.919.827 1.275 1.241 2.795 1.241 4.562 0 1.745-.414 3.254-1.241 4.529-.828 1.253-2.002 2.214-3.523 2.885-1.521.671-3.332 1.007-5.435 1.007h-7.145l2.415-2.382v8.923h-5.434Zm14.928 0-5.871-8.521h5.804l5.938 8.521h-5.871Zm-9.494-8.319-2.415-2.55h6.843c1.678 0 2.93-.358 3.758-1.073.827-.738 1.241-1.745 1.241-3.02 0-1.297-.414-2.303-1.241-3.019-.828-.716-2.08-1.074-3.758-1.074h-6.843l2.415-2.583v13.319Zm19.235 8.319v-23.483h5.434v23.483h-5.434Zm22.246.403c-1.812 0-3.5-.291-5.066-.872-1.543-.604-2.885-1.454-4.025-2.55a11.959 11.959 0 0 1-2.684-3.858c-.626-1.476-.94-3.097-.94-4.864s.314-3.388.94-4.865a11.959 11.959 0 0 1 2.684-3.858 12.067 12.067 0 0 1 4.059-2.516c1.543-.603 3.232-.905 5.065-.905 2.036 0 3.87.357 5.502 1.073a10.566 10.566 0 0 1 4.16 3.087l-3.489 3.22c-.805-.917-1.7-1.599-2.684-2.046-.984-.47-2.057-.705-3.22-.705-1.096 0-2.102.179-3.019.537a6.846 6.846 0 0 0-2.382 1.543 7.258 7.258 0 0 0-1.577 2.382c-.358.917-.537 1.935-.537 3.053 0 1.118.179 2.136.537 3.053.38.917.906 1.711 1.577 2.382a6.86 6.86 0 0 0 2.382 1.543c.917.358 1.923.536 3.019.536 1.163 0 2.236-.223 3.22-.67.984-.47 1.879-1.175 2.684-2.114l3.489 3.221a10.88 10.88 0 0 1-4.16 3.12c-1.632.715-3.478 1.073-5.535 1.073Zm18.23-5.77-.302-6.274 11.238-11.842h6.039l-10.132 10.903-3.019 3.221-3.824 3.992Zm-4.865 5.367v-23.483h5.401v23.483h-5.401Zm16.069 0-8.353-10.232 3.556-3.857 11.138 14.089h-6.341Z" fill="#FAFAFA"/><path d="m246.034 165.2 10.417-15.24 10.585 15.261a3.694 3.694 0 0 0 3.035 1.589h11.885c3.013 0 4.758-3.412 2.996-5.855l-17.928-24.851 16.607-22.995c1.764-2.442.019-5.856-2.994-5.856h-11.032c-1.21 0-2.343.592-3.033 1.586l-9.753 14.031-9.956-14.058a3.692 3.692 0 0 0-3.014-1.559h-11.671c-3.005 0-4.752 3.397-3.005 5.841l16.741 23.427-17.716 24.426c-1.771 2.442-.027 5.863 2.99 5.863h11.797c1.22 0 2.361-.603 3.049-1.61Z" fill="url('#paint2_linear_126_1104')" stroke="#fff" stroke-width="5.277"/></g><rect x="66.499" y="6.5" width="256.663" height="328.328" rx="13.017" stroke="#fff" stroke-width="13"/><path d="m31.05 325.715-.32-19.759c-.112-6.883 9.042-9.355 12.41-3.351l9.668 17.235 15.25-12.57c5.311-4.378 12.951 1.238 10.357 7.614l-7.447 18.305 19.335 4.085c6.736 1.423 7.108 10.898.505 12.845l-18.954 5.591 8.862 17.664c3.087 6.153-4.09 12.352-9.728 8.404l-16.19-11.334-8.284 17.942c-2.886 6.249-12.207 4.504-12.636-2.366l-1.233-19.724-19.192 4.709c-6.686 1.641-11.133-6.735-6.029-11.354l14.652-13.261-15.648-12.069c-5.45-4.205-1.676-12.903 5.118-11.793l19.503 3.187Z" fill="#C2A3FD" stroke="#fff" stroke-width="7.087"/><defs><linearGradient id="paint0_linear_126_1104" x1="240.176" y1="47.774" x2="298.511" y2="47.819" gradientUnits="userSpaceOnUse"><stop offset=".052" stop-color="#7BF0A7"/><stop offset=".307" stop-color="#44D5D2"/><stop offset=".609" stop-color="#A380E6"/><stop offset=".917" stop-color="#FE9C4A"/></linearGradient><linearGradient id="paint1_linear_126_1104" x1="82.755" y1="238.719" x2="128.031" y2="275.503" gradientUnits="userSpaceOnUse"><stop offset=".052" stop-color="#7BF0A7"/><stop offset=".307" stop-color="#44D5D2"/><stop offset=".609" stop-color="#A380E6"/><stop offset=".917" stop-color="#FE9C4A"/></linearGradient><linearGradient id="paint2_linear_126_1104" x1="229.119" y1="122.381" x2="274.985" y2="143.017" gradientUnits="userSpaceOnUse"><stop offset=".052" stop-color="#7BF0BA"/><stop offset=".307" stop-color="#44D5D2"/><stop offset=".609" stop-color="#A380E6"/><stop offset=".917" stop-color="#FE9C4A"/></linearGradient><clipPath id="clip0_126_1104"><rect width="243.663" height="315.328" rx="6.517" transform="matrix(-1 0 0 1 280.663 50.733)" fill="#fff"/></clipPath><clipPath id="clip1_126_1104"><rect x="72.999" y="13" width="243.663" height="315.328" rx="6.517" fill="#fff"/></clipPath></defs></svg>