<svg width="245" height="392" fill="none" xmlns="http://www.w3.org/2000/svg"><path d="M35.238 311.469 2.839 334.368c-.526.372-.839.976-.839 1.621v52.22c0 1.096.888 1.985 1.985 1.985h152.573c.411 0 .811-.127 1.146-.364l32.765-23.159c.527-.372.839-.976.839-1.62v-51.962a1.984 1.984 0 0 0-1.984-1.984H36.384c-.411 0-.811.127-1.146.364Z" fill="#262136" stroke="url('#paint0_linear_128_1227')" stroke-width="3.023"/><path d="M35.238 271.971 2.839 294.87c-.526.372-.839.976-.839 1.621v52.22c0 1.096.888 1.985 1.985 1.985h152.573c.411 0 .811-.127 1.146-.364l32.765-23.159c.527-.372.839-.976.839-1.62v-51.962a1.984 1.984 0 0 0-1.984-1.984H36.384c-.411 0-.811.127-1.146.364Z" fill="#262136" stroke="url('#paint1_linear_128_1227')" stroke-width="3.023"/><path d="M35.238 218.272 2.839 241.171c-.526.372-.839.976-.839 1.621v52.22c0 1.096.888 1.985 1.985 1.985h152.573a1.99 1.99 0 0 0 1.146-.364l32.765-23.159c.527-.372.839-.976.839-1.621v-51.961a1.984 1.984 0 0 0-1.984-1.984H36.384c-.411 0-.811.127-1.146.364Z" fill="#262136" stroke="url('#paint2_linear_128_1227')" stroke-width="3.023"/><path d="m57.835 121.012-37.707 12.339a1.986 1.986 0 0 0-1.279 1.302L3.466 184.556a1.985 1.985 0 0 0 1.312 2.481l145.803 44.946c.392.121.812.117 1.202-.01l38.134-12.479a1.987 1.987 0 0 0 1.279-1.302l15.307-49.655a1.984 1.984 0 0 0-1.312-2.481L59.037 121.002a1.988 1.988 0 0 0-1.202.01Z" fill="#262136" stroke="url('#paint3_linear_128_1227')" stroke-width="3.023"/><path d="M127.334 22.543 87.941 17.83a1.984 1.984 0 0 0-1.71.64L51.24 57.234a1.985 1.985 0 0 0 .144 2.803l113.252 102.238c.304.275.687.449 1.094.498l39.839 4.765a1.984 1.984 0 0 0 1.709-.64l34.819-38.57a1.986 1.986 0 0 0-.143-2.803L128.428 23.04a1.984 1.984 0 0 0-1.094-.497Z" fill="#262136" stroke="url('#paint4_linear_128_1227')" stroke-width="3.023"/><defs><linearGradient id="paint0_linear_128_1227" x1="2" y1="329.302" x2="91.123" y2="424.202" gradientUnits="userSpaceOnUse"><stop offset=".052" stop-color="#7BF0A7"/><stop offset=".307" stop-color="#44D5D2"/><stop offset=".609" stop-color="#A380E6"/><stop offset=".917" stop-color="#FE9C4A"/></linearGradient><linearGradient id="paint1_linear_128_1227" x1="2" y1="289.804" x2="91.123" y2="384.704" gradientUnits="userSpaceOnUse"><stop offset=".052" stop-color="#7BF0A7"/><stop offset=".307" stop-color="#44D5D2"/><stop offset=".609" stop-color="#A380E6"/><stop offset=".917" stop-color="#FE9C4A"/></linearGradient><linearGradient id="paint2_linear_128_1227" x1="2" y1="236.105" x2="91.123" y2="331.005" gradientUnits="userSpaceOnUse"><stop offset=".052" stop-color="#7BF0A7"/><stop offset=".307" stop-color="#44D5D2"/><stop offset=".609" stop-color="#A380E6"/><stop offset=".917" stop-color="#FE9C4A"/></linearGradient><linearGradient id="paint3_linear_128_1227" x1="20.819" y1="128.263" x2="78.031" y2="245.206" gradientUnits="userSpaceOnUse"><stop offset=".052" stop-color="#7BF0A7"/><stop offset=".307" stop-color="#44D5D2"/><stop offset=".609" stop-color="#A380E6"/><stop offset=".917" stop-color="#FE9C4A"/></linearGradient><linearGradient id="paint4_linear_128_1227" x1="90.712" y1="13.508" x2="93.275" y2="143.67" gradientUnits="userSpaceOnUse"><stop offset=".052" stop-color="#7BF0A7"/><stop offset=".307" stop-color="#44D5D2"/><stop offset=".609" stop-color="#A380E6"/><stop offset=".917" stop-color="#FE9C4A"/></linearGradient></defs></svg>