<svg xmlns="http://www.w3.org/2000/svg" width="1484" height="730" style="shape-rendering:geometricprecision;text-rendering:geometricprecision;image-rendering:optimizequality;fill-rule:evenodd;clip-rule:evenodd"><path style="opacity:.995" fill="#484743" d="M999.5-.5h25c23.08 1.974 43.91 9.974 62.5 24 6.32-7.404 13.82-13.238 22.5-17.5a79.015 79.015 0 0 1 10-2c110-.667 220-.667 330 0 18.3 2.617 29.64 12.783 34 30.5v74c-1.64 5.624-4.14 10.958-7.5 16l-30 30c-.33 46-.67 92-1 138-.67 6.664-3 12.664-7 18-23.83 23.833-47.67 47.667-71.5 71.5l52 1c19.14 4.137 27.97 15.97 26.5 35.5-3.67 23.333-7.33 46.667-11 70-2.62 12.622-10.12 20.789-22.5 24.5l-30 1c25.37 22.439 36.87 50.606 34.5 84.5-6.32 61.858-38.49 103.691-96.5 125.5a241.51 241.51 0 0 1-25 5.5H23.5c-12.333-3.667-20.333-11.667-24-24v-13a2422.924 2422.924 0 0 0 11.5-69c2.833-13.5 11-21.667 24.5-24.5l30-1C27.27 560.18 18.77 516.347 40 466.5c9.65-21.972 23.483-40.805 41.5-56.5a969.264 969.264 0 0 1-60-2c-11.551-3.971-18.885-11.805-22-23.5v-72c5.067-16.537 16.4-25.037 34-25.5-19.716-17.933-31.05-40.1-34-66.5v-20c3.863-31.894 17.863-58.394 42-79.5 14.897-10.856 31.563-17.19 50-19 216.667-.667 433.333-.667 650 0 31.674 1.993 59.507 13.16 83.5 33.5A2956.437 2956.437 0 0 1 936.5 23c18.953-13.482 39.953-21.316 63-23.5Z"/><path style="opacity:1" fill="#fefefe" d="M671.5 378.5v-246h63c45.611 1.526 77.777 22.859 96.5 64 5.087-17.84 13.087-34.173 24-49L953.5 49c21.674-16.168 46.008-22.168 73-18 25.22 3.604 45.55 15.438 61 35.5a1472.946 1472.946 0 0 1 33-31.5c23.67-.667 47.33-.667 71 0 2.17.833 3.67 2.333 4.5 4.5.33 6.333.67 12.667 1 19a405.353 405.353 0 0 1 24.5-23.5c75.67-.667 151.33-.667 227 0 1.83.5 3 1.667 3.5 3.5.67 22 .67 44 0 66-12.33 12.333-24.67 24.667-37 37-.33 49.667-.67 99.333-1 149-28.5 29.833-57.67 59-87.5 87.5-24 .667-48 .667-72 0-1.5-.833-2.67-2-3.5-3.5-.33-25.667-.67-51.333-1-77l-67.5 67.5c-12.87 9.183-27.21 14.85-43 17-17.91 1.52-35.58.187-53-4-28.63-10.81-45.97-31.31-52-61.5a3250.789 3250.789 0 0 0-48 47.5c-25.5 18.231-53.5 23.231-84 15-22.988-8.318-40.488-23.152-52.5-44.5a237.65 237.65 0 0 1-14-33c-10.627 43.627-38.127 68.794-82.5 75.5a1266.669 1266.669 0 0 1-82 1.5Z"/><path style="opacity:1" fill="#8cd1bf" d="M1001.5 39.5c37.17-3 65.34 11.334 84.5 43 16.34 31.689 23 65.356 20 101-2.2 29.264-11.53 55.931-28 80-25.39 28.349-56.56 37.515-93.5 27.5-26.077-10.591-44.244-29.091-54.5-55.5-17.91-49.27-16.576-97.937 4-146 13.94-28.523 36.44-45.19 67.5-50ZM1120.5 43.5h67c-.17 58.334 0 116.668.5 175 4.67 13.891 13.5 17.391 26.5 10.5 3.25-3.481 5.09-7.648 5.5-12.5.5-57.666.67-115.332.5-173h67c.17 60.001 0 120.001-.5 180-6.7 48.031-34.37 71.697-83 71-49.49.507-77.16-23.826-83-73-.5-59.332-.67-118.666-.5-178Z"/><path style="opacity:1" fill="#c6e8df" d="M1302.5 43.5v60c12.18-.328 24.18.005 36 1h-37c-.33-20.507 0-40.84 1-61Z"/><path style="opacity:1" fill="#8cd1be" d="M1302.5 43.5h141v60h-38v187h-67v-186c-11.82-.995-23.82-1.328-36-1v-60Z"/><path style="opacity:1" fill="#fefefe" d="M1008.5 101.5c11.22.032 18.72 5.366 22.5 16 5.29 16.4 7.46 33.233 6.5 50.5.98 16.633-1.18 32.799-6.5 48.5-5.59 14.55-15.42 18.716-29.5 12.5-5.173-5.174-8.673-11.341-10.5-18.5a151.37 151.37 0 0 1-4-19 443.05 443.05 0 0 1 1-57c1.659-10.659 5.826-20.159 12.5-28.5a48.689 48.689 0 0 1 8-4.5ZM97.5 132.5h59v59a625.298 625.298 0 0 0-50 1c-4.762.463-8.262 2.796-10.5 7-1.802 9.232 1.031 16.732 8.5 22.5a257.129 257.129 0 0 1 36.5 29.5c18.161 24.673 21.495 51.34 10 80-12.264 27.558-33.43 43.058-63.5 46.5-18.997.5-37.997.667-57 .5v-60c17.337.167 34.67 0 52-.5 8.443-4.293 11.276-11.126 8.5-20.5l-3-5L53.5 264c-22.796-23.232-28.963-50.398-18.5-81.5 9.008-26.679 27.175-43.179 54.5-49.5a32.462 32.462 0 0 1 8-.5Z"/><path style="opacity:1" fill="#b9b9b7" d="M97.5 132.5a900.97 900.97 0 0 1 60-1v61h-51a625.298 625.298 0 0 1 50-1v-59h-59Z"/><path style="opacity:1" fill="#bbbab9" d="M275.5 192.5a342.787 342.787 0 0 1 37-1v-59h-140v59c12.178-.328 24.178.005 36 1h-37v-61h142v61h-38Z"/><path style="opacity:1" fill="#fefefe" d="M275.5 192.5v186h-67v-186c-11.822-.995-23.822-1.328-36-1v-59h140v59a342.787 342.787 0 0 0-37 1Z"/><path style="opacity:1" fill="#fdfdfd" d="M481.5 375.5v3h-68a837.597 837.597 0 0 1-4.5-31 261.297 261.297 0 0 0-45.5 0 397.29 397.29 0 0 0-5 31h-69a51540.935 51540.935 0 0 0 59-247h82a39682.702 39682.702 0 0 1 51 244Z"/><path style="opacity:1" fill="#c8c8c7" d="M545.5 132.5h-62v246h-2v-3c.999-81.165 1.333-162.498 1-244a992.742 992.742 0 0 1 63 1Z"/><path style="opacity:1" fill="#fefefe" d="M483.5 378.5v-246h62a12709.002 12709.002 0 0 1 53.5 147 2938.732 2938.732 0 0 0-6-72c-.5-25.331-.667-50.664-.5-76h64v247c-21.344.333-42.677 0-64-1a11573.79 11573.79 0 0 0-49.5-140 1321.953 1321.953 0 0 0 3 53c.5 29.331.667 58.665.5 88h-63Z"/><path style="opacity:1" fill="#a3a2a0" d="M734.5 132.5h-63v246a15252.504 15252.504 0 0 1-1-247c21.507-.331 42.84.003 64 1Z"/><path style="opacity:1" fill="#4b4a46" d="M387.5 190.5c.617.111 1.117.444 1.5 1a7216.14 7216.14 0 0 0 11.5 103h-28a1854.58 1854.58 0 0 0 15-104Z"/><path style="opacity:1" fill="#484743" d="M737.5 193.5c11.701-.066 20.535 4.934 26.5 15 6.781 14.719 9.947 30.219 9.5 46.5.72 16.976-2.447 33.142-9.5 48.5-6.079 9.794-14.913 15.127-26.5 16v-126Z"/><path style="opacity:1" fill="#fe7853" d="M148.5 413.5h71a6346.367 6346.367 0 0 1-10 70c-20.669-.167-41.336 0-62 .5-12.874 7.087-15.374 16.92-7.5 29.5a405.59 405.59 0 0 0 25.5 22.5c24.598 23.116 31.764 50.949 21.5 83.5-15.377 48.398-48.21 74.898-98.5 79.5-19.33.5-38.664.667-58 .5a5038.373 5038.373 0 0 0 10-70c19.336.167 38.67 0 58-.5 14.322-4.811 18.822-14.311 13.5-28.5l-4-6c-15.413-12.078-28.746-26.078-40-42-11.434-25.058-11.1-50.058 1-75 15.472-35.33 41.972-56.663 79.5-64ZM311.5 698.5c-25.689.657-51.022-.009-76-2a16953.496 16953.496 0 0 1 33-212.5 881.746 881.746 0 0 0-42-.5c3.26-23.343 6.594-46.676 10-70h164a1967.357 1967.357 0 0 1-10.5 69 501.245 501.245 0 0 1-44.5 1 24034.711 24034.711 0 0 1-34 215ZM450.5 696.5c-12.777 1.315-25.777 1.981-39 2-12.838 0-25.504-.333-38-1 14.593-94.667 29.26-189.334 44-284h77a124741.662 124741.662 0 0 1-44 283ZM619.5 413.5h51a2529.49 2529.49 0 0 0-11 70c-45.954-10.458-75.787 6.542-89.5 51-5.524 18.951-7.524 38.285-6 58 1.379 9.48 4.713 18.147 10 26 4.987 4.91 10.82 8.41 17.5 10.5l45 1a4139.164 4139.164 0 0 0-11 68.5c-102.68 12.154-148.513-33.18-137.5-136 4.477-37.798 18.477-71.465 42-101 24.141-26.653 53.974-42.653 89.5-48ZM687.5 413.5a1483 1483 0 0 1 77 1 5410.49 5410.49 0 0 0-18.5 121A6908.485 6908.485 0 0 1 807.5 414c27-.667 54-.667 81 0a28597.463 28597.463 0 0 0-83 137.5 9433.98 9433.98 0 0 1 45 148h-83a3259.886 3259.886 0 0 0-27-131 7477.683 7477.683 0 0 0-21 131h-77a53682.177 53682.177 0 0 1 45-286ZM1004.5 698.5c-48.012.662-95.678-.005-143-2a26088.554 26088.554 0 0 1 44-283h143c-2.6 22.445-5.93 44.779-10 67-22-.167-44.003 0-66 .5a512.74 512.74 0 0 0-6 39.5h59c-3.23 22.738-6.9 45.405-11 68h-60a1264.817 1264.817 0 0 1-6 43h66c-3.33 22.333-6.67 44.667-10 67ZM1223.5 697.5v2h-83a3126.214 3126.214 0 0 0-24-119 9428.792 9428.792 0 0 1-18 117c-25.59.99-51.26 1.324-77 1a53225.295 53225.295 0 0 0 44-285c30-.167 60 0 90 .5 74.66 3.001 101.83 40.501 81.5 112.5-8.75 24.919-25.25 42.586-49.5 53-.33.667-.67 1.333-1 2a7652.254 7652.254 0 0 1 37 116ZM1283.5 698.5c-19.7.654-39.03-.012-58-2 2.82-22.412 6.15-44.745 10-67 19.67.167 39.34 0 59-.5 11.65-4.459 16.15-12.959 13.5-25.5-.67-1.333-1.33-2.667-2-4a1461.69 1461.69 0 0 1-36-36c-16.41-22.999-20.07-47.999-11-75 8.73-24.717 23.56-44.883 44.5-60.5 11.62-7.431 24.29-12.097 38-14 24.33-.5 48.66-.667 73-.5a2466.372 2466.372 0 0 1-11 69c-20.33.833-40.66 1.333-61 1.5-10.31 4.11-14.14 11.61-11.5 22.5a58.787 58.787 0 0 0 5 9 743.296 743.296 0 0 1 34 31c12.9 15.71 17.9 33.71 15 54-6.84 47.83-33.01 79.663-78.5 95.5a85.17 85.17 0 0 1-23 2.5Z"/><path style="opacity:1" fill="#494743" d="M1133.5 474.5c23.51-.654 34.01 10.679 31.5 34-3.91 24.429-18.08 36.762-42.5 37 3.91-23.627 7.58-47.293 11-71Z"/><path style="opacity:1" fill="#d16d50" d="M235.5 696.5c24.978 1.991 50.311 2.657 76 2a1482.71 1482.71 0 0 1-77 1c-.237-1.291.096-2.291 1-3Z"/><path style="opacity:1" fill="#ce6c4f" d="M450.5 696.5v3c-26.009.333-52.009 0-78-1 .124-.607.457-.94 1-1 12.496.667 25.162 1 38 1 13.223-.019 26.223-.685 39-2Z"/><path style="opacity:1" fill="#d06c4f" d="M861.5 696.5c47.322 1.995 94.988 2.662 143 2-47.83.999-95.83 1.332-144 1-.237-1.291.096-2.291 1-3ZM1098.5 697.5c-12.48 1.333-25.32 1.999-38.5 2-13 0-25.84-.333-38.5-1 25.74.324 51.41-.01 77-1Z"/><path style="opacity:1" fill="#a4604b" d="M1225.5 696.5c18.97 1.988 38.3 2.654 58 2-19.83.997-39.83 1.33-60 1v-2c.67-.333 1.33-.667 2-1Z"/></svg>