<svg width="341" height="78" fill="none" xmlns="http://www.w3.org/2000/svg"><path d="M-31.552 45.58a5.231 5.231 0 1 0 7.104 7.681l-7.104-7.682ZM86.136 6.095l.222 5.227-.222-5.227ZM219.693 19.84l-.331 5.222.331-5.222ZM341 77.805l-12.025-59.2-45.256 40.013L341 77.805ZM-24.448 53.26C-10.656 40.508 31.39 13.652 86.357 11.323L85.916.87C28.06 3.321-16.263 31.442-31.552 45.58l7.104 7.682ZM86.357 11.323c17.142-.726 25.289 2.96 28.767 6.972 3.278 3.782 3.743 9.506 1.065 16.718-2.643 7.12-7.991 14.469-14.026 19.814-2.998 2.655-6.024 4.689-8.788 5.95-2.814 1.285-4.995 1.61-6.49 1.393l-1.498 10.355c4.182.605 8.463-.462 12.333-2.23 3.922-1.79 7.805-4.469 11.38-7.635 7.112-6.298 13.566-15.028 16.898-24.005 3.299-8.886 3.913-19.277-2.968-27.213C116.349 3.735 104.029.102 85.915.869l.442 10.454Zm.528 50.847c-1.872-.271-1.655-.8-1.412-.267.163.36-.27-.099.697-2.015 1.92-3.802 7.643-9.671 18.321-15.651 21.017-11.772 59.035-22.711 114.871-19.175l.662-10.443c-57.403-3.635-97.518 7.536-120.646 20.489C87.983 41.49 80.13 48.638 76.83 55.17c-1.642 3.252-2.596 7.292-.882 11.063 1.794 3.945 5.634 5.74 9.439 6.291l1.498-10.355Zm132.477-37.108c41.992 2.659 69.916 11.731 87.852 22.011l5.203-9.078c-19.669-11.273-49.252-20.644-92.393-23.376l-.662 10.443Z" fill="url('#paint0_linear_123_713')"/><defs><linearGradient id="paint0_linear_123_713" x1="-28" y1="22.521" x2="31.536" y2="158.627" gradientUnits="userSpaceOnUse"><stop offset=".052" stop-color="#7BF0A7"/><stop offset=".307" stop-color="#44D5D2"/><stop offset=".609" stop-color="#A380E6"/><stop offset=".917" stop-color="#FE9C4A"/></linearGradient></defs></svg>