<?xml version="1.0" encoding="UTF-8"?>
<!DOCTYPE svg PUBLIC "-//W3C//DTD SVG 1.1//EN" "http://www.w3.org/Graphics/SVG/1.1/DTD/svg11.dtd">
<svg xmlns="http://www.w3.org/2000/svg" version="1.1" width="1484px" height="730px" style="shape-rendering:geometricPrecision; text-rendering:geometricPrecision; image-rendering:optimizeQuality; fill-rule:evenodd; clip-rule:evenodd" xmlns:xlink="http://www.w3.org/1999/xlink">
<g><path style="opacity:0.995" fill="#484743" d="M 999.5,-0.5 C 1007.83,-0.5 1016.17,-0.5 1024.5,-0.5C 1047.58,1.47414 1068.41,9.47414 1087,23.5C 1093.32,16.0957 1100.82,10.2624 1109.5,6C 1112.79,5.11839 1116.12,4.45172 1119.5,4C 1229.5,3.33333 1339.5,3.33333 1449.5,4C 1467.8,6.61667 1479.14,16.7833 1483.5,34.5C 1483.5,59.1667 1483.5,83.8333 1483.5,108.5C 1481.86,114.124 1479.36,119.458 1476,124.5C 1466,134.5 1456,144.5 1446,154.5C 1445.67,200.5 1445.33,246.5 1445,292.5C 1444.33,299.164 1442,305.164 1438,310.5C 1414.17,334.333 1390.33,358.167 1366.5,382C 1383.83,382.333 1401.17,382.667 1418.5,383C 1437.64,387.137 1446.47,398.97 1445,418.5C 1441.33,441.833 1437.67,465.167 1434,488.5C 1431.38,501.122 1423.88,509.289 1411.5,513C 1401.5,513.333 1391.5,513.667 1381.5,514C 1406.87,536.439 1418.37,564.606 1416,598.5C 1409.68,660.358 1377.51,702.191 1319.5,724C 1311.13,726.304 1302.8,728.138 1294.5,729.5C 870.833,729.5 447.167,729.5 23.5,729.5C 11.1667,725.833 3.16667,717.833 -0.5,705.5C -0.5,701.167 -0.5,696.833 -0.5,692.5C 3.64242,669.693 7.47575,646.693 11,623.5C 13.8333,610 22,601.833 35.5,599C 45.5,598.667 55.5,598.333 65.5,598C 27.2703,560.18 18.7703,516.347 40,466.5C 49.6494,444.528 63.4828,425.695 81.5,410C 61.4488,409.952 41.4488,409.285 21.5,408C 9.94866,404.029 2.61533,396.195 -0.5,384.5C -0.5,360.5 -0.5,336.5 -0.5,312.5C 4.5666,295.963 15.8999,287.463 33.5,287C 13.7837,269.067 2.45036,246.9 -0.5,220.5C -0.5,213.833 -0.5,207.167 -0.5,200.5C 3.36287,168.606 17.3629,142.106 41.5,121C 56.3968,110.144 73.0634,103.81 91.5,102C 308.167,101.333 524.833,101.333 741.5,102C 773.174,103.993 801.007,115.16 825,135.5C 861.137,97.0292 898.304,59.5292 936.5,23C 955.453,9.5178 976.453,1.68447 999.5,-0.5 Z"/></g>
<g><path style="opacity:1" fill="#fefefe" d="M 671.5,378.5 C 671.5,296.5 671.5,214.5 671.5,132.5C 692.5,132.5 713.5,132.5 734.5,132.5C 780.111,134.026 812.277,155.359 831,196.5C 836.087,178.66 844.087,162.327 855,147.5C 887.833,114.667 920.667,81.8333 953.5,49C 975.174,32.8318 999.508,26.8318 1026.5,31C 1051.72,34.6042 1072.05,46.4375 1087.5,66.5C 1098.35,55.8176 1109.35,45.3176 1120.5,35C 1144.17,34.3333 1167.83,34.3333 1191.5,35C 1193.67,35.8333 1195.17,37.3333 1196,39.5C 1196.33,45.8333 1196.67,52.1667 1197,58.5C 1204.86,50.3023 1213.03,42.469 1221.5,35C 1297.17,34.3333 1372.83,34.3333 1448.5,35C 1450.33,35.5 1451.5,36.6667 1452,38.5C 1452.67,60.5 1452.67,82.5 1452,104.5C 1439.67,116.833 1427.33,129.167 1415,141.5C 1414.67,191.167 1414.33,240.833 1414,290.5C 1385.5,320.333 1356.33,349.5 1326.5,378C 1302.5,378.667 1278.5,378.667 1254.5,378C 1253,377.167 1251.83,376 1251,374.5C 1250.67,348.833 1250.33,323.167 1250,297.5C 1227.5,320 1205,342.5 1182.5,365C 1169.63,374.183 1155.29,379.85 1139.5,382C 1121.59,383.52 1103.92,382.187 1086.5,378C 1057.87,367.19 1040.53,346.69 1034.5,316.5C 1018.35,332.153 1002.35,347.986 986.5,364C 961,382.231 933,387.231 902.5,379C 879.512,370.682 862.012,355.848 850,334.5C 844.483,323.806 839.816,312.806 836,301.5C 825.373,345.127 797.873,370.294 753.5,377C 726.189,378.385 698.856,378.885 671.5,378.5 Z"/></g>
<g><path style="opacity:1" fill="#8cd1bf" d="M 1001.5,39.5 C 1038.67,36.5007 1066.84,50.834 1086,82.5C 1102.34,114.189 1109,147.856 1106,183.5C 1103.8,212.764 1094.47,239.431 1078,263.5C 1052.61,291.849 1021.44,301.015 984.5,291C 958.423,280.409 940.256,261.909 930,235.5C 912.09,186.23 913.424,137.563 934,89.5C 947.94,60.9771 970.44,44.3104 1001.5,39.5 Z"/></g>
<g><path style="opacity:1" fill="#8cd1bf" d="M 1120.5,43.5 C 1142.83,43.5 1165.17,43.5 1187.5,43.5C 1187.33,101.834 1187.5,160.168 1188,218.5C 1192.67,232.391 1201.5,235.891 1214.5,229C 1217.75,225.519 1219.59,221.352 1220,216.5C 1220.5,158.834 1220.67,101.168 1220.5,43.5C 1242.83,43.5 1265.17,43.5 1287.5,43.5C 1287.67,103.501 1287.5,163.501 1287,223.5C 1280.3,271.531 1252.63,295.197 1204,294.5C 1154.51,295.007 1126.84,270.674 1121,221.5C 1120.5,162.168 1120.33,102.834 1120.5,43.5 Z"/></g>
<g><path style="opacity:1" fill="#c6e8df" d="M 1302.5,43.5 C 1302.5,63.5 1302.5,83.5 1302.5,103.5C 1314.68,103.172 1326.68,103.505 1338.5,104.5C 1326.17,104.5 1313.83,104.5 1301.5,104.5C 1301.17,83.9931 1301.5,63.6598 1302.5,43.5 Z"/></g>
<g><path style="opacity:1" fill="#8cd1be" d="M 1302.5,43.5 C 1349.5,43.5 1396.5,43.5 1443.5,43.5C 1443.5,63.5 1443.5,83.5 1443.5,103.5C 1430.83,103.5 1418.17,103.5 1405.5,103.5C 1405.5,165.833 1405.5,228.167 1405.5,290.5C 1383.17,290.5 1360.83,290.5 1338.5,290.5C 1338.5,228.5 1338.5,166.5 1338.5,104.5C 1326.68,103.505 1314.68,103.172 1302.5,103.5C 1302.5,83.5 1302.5,63.5 1302.5,43.5 Z"/></g>
<g><path style="opacity:1" fill="#fefefe" d="M 1008.5,101.5 C 1019.72,101.532 1027.22,106.866 1031,117.5C 1036.29,133.9 1038.46,150.733 1037.5,168C 1038.48,184.633 1036.32,200.799 1031,216.5C 1025.41,231.05 1015.58,235.216 1001.5,229C 996.327,223.826 992.827,217.659 991,210.5C 989.261,204.255 987.927,197.922 987,191.5C 986.11,172.469 986.443,153.469 988,134.5C 989.659,123.841 993.826,114.341 1000.5,106C 1003.1,104.205 1005.77,102.705 1008.5,101.5 Z"/></g>
<g><path style="opacity:1" fill="#fefefe" d="M 97.5,132.5 C 117.167,132.5 136.833,132.5 156.5,132.5C 156.5,152.167 156.5,171.833 156.5,191.5C 139.658,191.17 122.992,191.503 106.5,192.5C 101.738,192.963 98.2381,195.296 96,199.5C 94.1978,208.732 97.0311,216.232 104.5,222C 117.535,230.696 129.702,240.529 141,251.5C 159.161,276.173 162.495,302.84 151,331.5C 138.736,359.058 117.57,374.558 87.5,378C 68.5029,378.5 49.5029,378.667 30.5,378.5C 30.5,358.5 30.5,338.5 30.5,318.5C 47.8365,318.667 65.1699,318.5 82.5,318C 90.9426,313.707 93.776,306.874 91,297.5C 90,295.833 89,294.167 88,292.5C 76.5,283 65,273.5 53.5,264C 30.7036,240.768 24.5369,213.602 35,182.5C 44.0082,155.821 62.1748,139.321 89.5,133C 92.146,132.503 94.8127,132.336 97.5,132.5 Z"/></g>
<g><path style="opacity:1" fill="#b9b9b7" d="M 97.5,132.5 C 117.326,131.503 137.326,131.17 157.5,131.5C 157.5,151.833 157.5,172.167 157.5,192.5C 140.5,192.5 123.5,192.5 106.5,192.5C 122.992,191.503 139.658,191.17 156.5,191.5C 156.5,171.833 156.5,152.167 156.5,132.5C 136.833,132.5 117.167,132.5 97.5,132.5 Z"/></g>
<g><path style="opacity:1" fill="#bbbab9" d="M 275.5,192.5 C 287.655,191.505 299.989,191.171 312.5,191.5C 312.5,171.833 312.5,152.167 312.5,132.5C 265.833,132.5 219.167,132.5 172.5,132.5C 172.5,152.167 172.5,171.833 172.5,191.5C 184.678,191.172 196.678,191.505 208.5,192.5C 196.167,192.5 183.833,192.5 171.5,192.5C 171.5,172.167 171.5,151.833 171.5,131.5C 218.833,131.5 266.167,131.5 313.5,131.5C 313.5,151.833 313.5,172.167 313.5,192.5C 300.833,192.5 288.167,192.5 275.5,192.5 Z"/></g>
<g><path style="opacity:1" fill="#fefefe" d="M 275.5,192.5 C 275.5,254.5 275.5,316.5 275.5,378.5C 253.167,378.5 230.833,378.5 208.5,378.5C 208.5,316.5 208.5,254.5 208.5,192.5C 196.678,191.505 184.678,191.172 172.5,191.5C 172.5,171.833 172.5,152.167 172.5,132.5C 219.167,132.5 265.833,132.5 312.5,132.5C 312.5,152.167 312.5,171.833 312.5,191.5C 299.989,191.171 287.655,191.505 275.5,192.5 Z"/></g>
<g><path style="opacity:1" fill="#fdfdfd" d="M 481.5,375.5 C 481.5,376.5 481.5,377.5 481.5,378.5C 458.833,378.5 436.167,378.5 413.5,378.5C 411.809,368.21 410.309,357.877 409,347.5C 393.897,346.177 378.73,346.177 363.5,347.5C 361.425,357.767 359.758,368.101 358.5,378.5C 335.5,378.5 312.5,378.5 289.5,378.5C 309.366,296.231 329.032,213.898 348.5,131.5C 375.833,131.5 403.167,131.5 430.5,131.5C 447.757,212.787 464.757,294.121 481.5,375.5 Z"/></g>
<g><path style="opacity:1" fill="#c8c8c7" d="M 545.5,132.5 C 524.833,132.5 504.167,132.5 483.5,132.5C 483.5,214.5 483.5,296.5 483.5,378.5C 482.833,378.5 482.167,378.5 481.5,378.5C 481.5,377.5 481.5,376.5 481.5,375.5C 482.499,294.335 482.833,213.002 482.5,131.5C 503.673,131.169 524.673,131.503 545.5,132.5 Z"/></g>
<g><path style="opacity:1" fill="#fefefe" d="M 483.5,378.5 C 483.5,296.5 483.5,214.5 483.5,132.5C 504.167,132.5 524.833,132.5 545.5,132.5C 563.605,181.309 581.439,230.309 599,279.5C 597.297,255.499 595.297,231.499 593,207.5C 592.5,182.169 592.333,156.836 592.5,131.5C 613.833,131.5 635.167,131.5 656.5,131.5C 656.5,213.833 656.5,296.167 656.5,378.5C 635.156,378.833 613.823,378.5 592.5,377.5C 576.285,330.687 559.785,284.02 543,237.5C 543.644,255.165 544.644,272.831 546,290.5C 546.5,319.831 546.667,349.165 546.5,378.5C 525.5,378.5 504.5,378.5 483.5,378.5 Z"/></g>
<g><path style="opacity:1" fill="#a3a2a0" d="M 734.5,132.5 C 713.5,132.5 692.5,132.5 671.5,132.5C 671.5,214.5 671.5,296.5 671.5,378.5C 670.501,296.335 670.167,214.002 670.5,131.5C 692.007,131.169 713.34,131.503 734.5,132.5 Z"/></g>
<g><path style="opacity:1" fill="#4b4a46" d="M 387.5,190.5 C 388.117,190.611 388.617,190.944 389,191.5C 392.587,225.866 396.421,260.199 400.5,294.5C 391.167,294.5 381.833,294.5 372.5,294.5C 378.482,259.977 383.482,225.31 387.5,190.5 Z"/></g>
<g><path style="opacity:1" fill="#484743" d="M 737.5,193.5 C 749.201,193.434 758.035,198.434 764,208.5C 770.781,223.219 773.947,238.719 773.5,255C 774.22,271.976 771.053,288.142 764,303.5C 757.921,313.294 749.087,318.627 737.5,319.5C 737.5,277.5 737.5,235.5 737.5,193.5 Z"/></g>
<g><path style="opacity:1" fill="#fe7853" d="M 148.5,413.5 C 172.167,413.5 195.833,413.5 219.5,413.5C 216.297,436.848 212.964,460.182 209.5,483.5C 188.831,483.333 168.164,483.5 147.5,484C 134.626,491.087 132.126,500.92 140,513.5C 148.203,521.372 156.703,528.872 165.5,536C 190.098,559.116 197.264,586.949 187,619.5C 171.623,667.898 138.79,694.398 88.5,699C 69.1695,699.5 49.8362,699.667 30.5,699.5C 33.997,676.191 37.3303,652.857 40.5,629.5C 59.8362,629.667 79.1695,629.5 98.5,629C 112.822,624.189 117.322,614.689 112,600.5C 110.667,598.5 109.333,596.5 108,594.5C 92.5873,582.422 79.254,568.422 68,552.5C 56.5663,527.442 56.8996,502.442 69,477.5C 84.4717,442.17 110.972,420.837 148.5,413.5 Z"/></g>
<g><path style="opacity:1" fill="#fe7853" d="M 311.5,698.5 C 285.811,699.157 260.478,698.491 235.5,696.5C 246.057,625.557 257.057,554.723 268.5,484C 254.504,483.5 240.504,483.333 226.5,483.5C 229.76,460.157 233.094,436.824 236.5,413.5C 291.167,413.5 345.833,413.5 400.5,413.5C 397.41,436.549 393.91,459.549 390,482.5C 375.245,483.491 360.412,483.824 345.5,483.5C 334.491,555.218 323.158,626.885 311.5,698.5 Z"/></g>
<g><path style="opacity:1" fill="#fe7853" d="M 450.5,696.5 C 437.723,697.815 424.723,698.481 411.5,698.5C 398.662,698.5 385.996,698.167 373.5,697.5C 388.093,602.833 402.76,508.166 417.5,413.5C 443.167,413.5 468.833,413.5 494.5,413.5C 479.942,507.849 465.275,602.182 450.5,696.5 Z"/></g>
<g><path style="opacity:1" fill="#fe7853" d="M 619.5,413.5 C 636.5,413.5 653.5,413.5 670.5,413.5C 666.507,436.78 662.84,460.113 659.5,483.5C 613.546,473.042 583.713,490.042 570,534.5C 564.476,553.451 562.476,572.785 564,592.5C 565.379,601.98 568.713,610.647 574,618.5C 578.987,623.41 584.82,626.91 591.5,629C 606.5,629.333 621.5,629.667 636.5,630C 632.647,652.772 628.98,675.606 625.5,698.5C 522.82,710.654 476.987,665.32 488,562.5C 492.477,524.702 506.477,491.035 530,461.5C 554.141,434.847 583.974,418.847 619.5,413.5 Z"/></g>
<g><path style="opacity:1" fill="#fe7853" d="M 687.5,413.5 C 713.175,413.167 738.842,413.5 764.5,414.5C 757.872,454.798 751.705,495.131 746,535.5C 766.117,494.766 786.617,454.266 807.5,414C 834.5,413.333 861.5,413.333 888.5,414C 860.708,459.75 833.041,505.584 805.5,551.5C 820.911,600.732 835.911,650.065 850.5,699.5C 822.833,699.5 795.167,699.5 767.5,699.5C 759.401,655.673 750.401,612.007 740.5,568.5C 733.113,612.102 726.113,655.769 719.5,699.5C 693.833,699.5 668.167,699.5 642.5,699.5C 657.246,604.107 672.246,508.773 687.5,413.5 Z"/></g>
<g><path style="opacity:1" fill="#fe7853" d="M 1004.5,698.5 C 956.488,699.162 908.822,698.495 861.5,696.5C 875.648,602.091 890.315,507.757 905.5,413.5C 953.167,413.5 1000.83,413.5 1048.5,413.5C 1045.9,435.945 1042.57,458.279 1038.5,480.5C 1016.5,480.333 994.497,480.5 972.5,481C 969.992,494.055 967.992,507.221 966.5,520.5C 986.167,520.5 1005.83,520.5 1025.5,520.5C 1022.27,543.238 1018.6,565.905 1014.5,588.5C 994.5,588.5 974.5,588.5 954.5,588.5C 952.746,602.868 950.746,617.201 948.5,631.5C 970.5,631.5 992.5,631.5 1014.5,631.5C 1011.17,653.833 1007.83,676.167 1004.5,698.5 Z"/></g>
<g><path style="opacity:1" fill="#fe7853" d="M 1223.5,697.5 C 1223.5,698.167 1223.5,698.833 1223.5,699.5C 1195.83,699.5 1168.17,699.5 1140.5,699.5C 1133.27,659.677 1125.27,620.01 1116.5,580.5C 1110.75,619.504 1104.75,658.504 1098.5,697.5C 1072.91,698.49 1047.24,698.824 1021.5,698.5C 1036.42,603.555 1051.09,508.555 1065.5,413.5C 1095.5,413.333 1125.5,413.5 1155.5,414C 1230.16,417.001 1257.33,454.501 1237,526.5C 1228.25,551.419 1211.75,569.086 1187.5,579.5C 1187.17,580.167 1186.83,580.833 1186.5,581.5C 1199.15,620.092 1211.48,658.758 1223.5,697.5 Z"/></g>
<g><path style="opacity:1" fill="#fe7853" d="M 1283.5,698.5 C 1263.8,699.154 1244.47,698.488 1225.5,696.5C 1228.32,674.088 1231.65,651.755 1235.5,629.5C 1255.17,629.667 1274.84,629.5 1294.5,629C 1306.15,624.541 1310.65,616.041 1308,603.5C 1307.33,602.167 1306.67,600.833 1306,599.5C 1293.81,587.728 1281.81,575.728 1270,563.5C 1253.59,540.501 1249.93,515.501 1259,488.5C 1267.73,463.783 1282.56,443.617 1303.5,428C 1315.12,420.569 1327.79,415.903 1341.5,414C 1365.83,413.5 1390.16,413.333 1414.5,413.5C 1411.16,436.557 1407.49,459.557 1403.5,482.5C 1383.17,483.333 1362.84,483.833 1342.5,484C 1332.19,488.11 1328.36,495.61 1331,506.5C 1332.41,509.661 1334.08,512.661 1336,515.5C 1347.63,525.464 1358.97,535.798 1370,546.5C 1382.9,562.21 1387.9,580.21 1385,600.5C 1378.16,648.33 1351.99,680.163 1306.5,696C 1298.95,697.879 1291.28,698.713 1283.5,698.5 Z"/></g>
<g><path style="opacity:1" fill="#494743" d="M 1133.5,474.5 C 1157.01,473.846 1167.51,485.179 1165,508.5C 1161.09,532.929 1146.92,545.262 1122.5,545.5C 1126.41,521.873 1130.08,498.207 1133.5,474.5 Z"/></g>
<g><path style="opacity:1" fill="#d16d50" d="M 235.5,696.5 C 260.478,698.491 285.811,699.157 311.5,698.5C 286.005,699.498 260.339,699.831 234.5,699.5C 234.263,698.209 234.596,697.209 235.5,696.5 Z"/></g>
<g><path style="opacity:1" fill="#ce6c4f" d="M 450.5,696.5 C 450.5,697.5 450.5,698.5 450.5,699.5C 424.491,699.833 398.491,699.5 372.5,698.5C 372.624,697.893 372.957,697.56 373.5,697.5C 385.996,698.167 398.662,698.5 411.5,698.5C 424.723,698.481 437.723,697.815 450.5,696.5 Z"/></g>
<g><path style="opacity:1" fill="#d06c4f" d="M 861.5,696.5 C 908.822,698.495 956.488,699.162 1004.5,698.5C 956.67,699.499 908.67,699.832 860.5,699.5C 860.263,698.209 860.596,697.209 861.5,696.5 Z"/></g>
<g><path style="opacity:1" fill="#d06c4f" d="M 1098.5,697.5 C 1086.02,698.833 1073.18,699.499 1060,699.5C 1047,699.5 1034.16,699.167 1021.5,698.5C 1047.24,698.824 1072.91,698.49 1098.5,697.5 Z"/></g>
<g><path style="opacity:1" fill="#a4604b" d="M 1225.5,696.5 C 1244.47,698.488 1263.8,699.154 1283.5,698.5C 1263.67,699.497 1243.67,699.83 1223.5,699.5C 1223.5,698.833 1223.5,698.167 1223.5,697.5C 1224.17,697.167 1224.83,696.833 1225.5,696.5 Z"/></g>
</svg>
