<svg width="162" height="57" viewBox="0 0 162 57" fill="none" xmlns="http://www.w3.org/2000/svg">
<path d="M19.3 30.3575H23.5815V53.4121H19.3V30.3575ZM7.37746 53.4121H3.0959V30.3575H7.37746V53.4121ZM19.6293 43.5316H7.01518V39.8758H19.6293V43.5316ZM26.4986 53.4121L36.8732 30.3575H41.0889L51.4963 53.4121H47.0172L38.0918 32.6301H39.8044L30.9119 53.4121H26.4986ZM31.2742 48.0766L32.4269 44.7172H44.8764L46.0291 48.0766H31.2742ZM64.7777 53.7415C63.0211 53.7415 61.3854 53.456 59.8704 52.8851C58.3773 52.2923 57.0709 51.4689 55.9511 50.415C54.8532 49.3391 53.9969 48.0766 53.3821 46.6275C52.7673 45.1783 52.46 43.5974 52.46 41.8848C52.46 40.1722 52.7673 38.5913 53.3821 37.1422C53.9969 35.693 54.8642 34.4415 55.984 33.3876C57.1038 32.3117 58.4102 31.4883 59.9033 30.9174C61.3963 30.3246 63.0321 30.0282 64.8106 30.0282C66.6989 30.0282 68.4225 30.3575 69.9814 31.0162C71.5404 31.653 72.8578 32.6081 73.9336 33.8816L71.1671 36.4835C70.3327 35.5832 69.3996 34.9136 68.3676 34.4744C67.3356 34.0133 66.2158 33.7828 65.0082 33.7828C63.8006 33.7828 62.6918 33.9804 61.6818 34.3756C60.6937 34.7708 59.8264 35.3307 59.0799 36.0553C58.3553 36.7799 57.7845 37.6362 57.3673 38.6242C56.9721 39.6123 56.7745 40.6992 56.7745 41.8848C56.7745 43.0705 56.9721 44.1573 57.3673 45.1454C57.7845 46.1335 58.3553 46.9898 59.0799 47.7143C59.8264 48.4389 60.6937 48.9988 61.6818 49.394C62.6918 49.7892 63.8006 49.9869 65.0082 49.9869C66.2158 49.9869 67.3356 49.7673 68.3676 49.3282C69.3996 48.8671 70.3327 48.1754 71.1671 47.2532L73.9336 49.8881C72.8578 51.1396 71.5404 52.0947 69.9814 52.7534C68.4225 53.4121 66.6879 53.7415 64.7777 53.7415ZM81.8566 47.9778L81.626 42.9058L93.7132 30.3575H98.5217L88.4765 41.0285L86.1052 43.6304L81.8566 47.9778ZM78.0361 53.4121V30.3575H82.3177V53.4121H78.0361ZM94.1084 53.4121L85.2818 42.9058L88.1143 39.777L99.1146 53.4121H94.1084Z" fill="white"/>
<path d="M2.8542 25V3.74533H12.8135C15.3641 3.74533 17.3074 4.2514 18.6434 5.26353C19.9794 6.25541 20.6474 7.59142 20.6474 9.27155C20.6474 10.4051 20.3842 11.3768 19.8579 12.1865C19.3316 12.9759 18.6231 13.5933 17.7325 14.0387C16.862 14.4638 15.9106 14.6763 14.8783 14.6763L15.4248 13.5832C16.6191 13.5832 17.692 13.8059 18.6434 14.2512C19.5948 14.6763 20.3438 15.3038 20.8903 16.1338C21.4571 16.9637 21.7405 17.9961 21.7405 19.2309C21.7405 21.0527 21.0421 22.4697 19.6454 23.4818C18.2486 24.4939 16.1738 25 13.4208 25H2.8542ZM6.80149 21.9029H13.1779C14.6556 21.9029 15.7892 21.66 16.5786 21.1742C17.3681 20.6883 17.7628 19.909 17.7628 18.8361C17.7628 17.7835 17.3681 17.0143 16.5786 16.5285C15.7892 16.0224 14.6556 15.7694 13.1779 15.7694H6.49785V12.7027H12.3884C13.7649 12.7027 14.8175 12.4597 15.5463 11.9739C16.2952 11.4881 16.6697 10.7594 16.6697 9.78773C16.6697 8.79585 16.2952 8.057 15.5463 7.57118C14.8175 7.08535 13.7649 6.84244 12.3884 6.84244H6.80149V21.9029ZM25.9532 25V3.74533H34.698C36.5806 3.74533 38.1898 4.04897 39.5258 4.65625C40.8821 5.26353 41.9246 6.13395 42.6533 7.26754C43.3821 8.40112 43.7464 9.74725 43.7464 11.3059C43.7464 12.8646 43.3821 14.2107 42.6533 15.3443C41.9246 16.4576 40.8821 17.318 39.5258 17.9252C38.1898 18.5123 36.5806 18.8058 34.698 18.8058H28.1394L29.9005 17.0143V25H25.9532ZM39.8598 25L34.4855 17.2876H38.706L44.1108 25H39.8598ZM29.9005 17.4394L28.1394 15.5569H34.5158C36.2567 15.5569 37.5623 15.1824 38.4327 14.4334C39.3234 13.6844 39.7688 12.6419 39.7688 11.3059C39.7688 9.94967 39.3234 8.90718 38.4327 8.17845C37.5623 7.44972 36.2567 7.08535 34.5158 7.08535H28.1394L29.9005 5.14207V17.4394ZM48.1627 25V3.74533H52.11V25H48.1627ZM67.6968 25.3036C66.0774 25.3036 64.5693 25.0405 63.1726 24.5142C61.7961 23.9676 60.5917 23.2085 59.5593 22.2369C58.5472 21.245 57.7577 20.0811 57.1909 18.7451C56.6241 17.409 56.3408 15.9516 56.3408 14.3727C56.3408 12.7937 56.6241 11.3363 57.1909 10.0003C57.7577 8.66427 58.5573 7.51045 59.5897 6.5388C60.622 5.54692 61.8265 4.78783 63.203 4.26152C64.5795 3.71497 66.0875 3.4417 67.7272 3.4417C69.468 3.4417 71.0571 3.74534 72.4943 4.35261C73.9315 4.93965 75.1461 5.8202 76.138 6.99426L73.5874 9.393C72.8182 8.56306 71.9579 7.94566 71.0065 7.54081C70.0551 7.11572 69.0227 6.90317 67.9094 6.90317C66.796 6.90317 65.7738 7.08535 64.8426 7.44972C63.9317 7.81409 63.1321 8.33027 62.4439 8.99827C61.7759 9.66628 61.2496 10.4557 60.865 11.3667C60.5006 12.2776 60.3184 13.2796 60.3184 14.3727C60.3184 15.4658 60.5006 16.4678 60.865 17.3787C61.2496 18.2896 61.7759 19.0791 62.4439 19.7471C63.1321 20.4151 63.9317 20.9312 64.8426 21.2956C65.7738 21.66 66.796 21.8422 67.9094 21.8422C69.0227 21.8422 70.0551 21.6397 71.0065 21.2349C71.9579 20.8098 72.8182 20.1722 73.5874 19.322L76.138 21.7511C75.1461 22.9049 73.9315 23.7854 72.4943 24.3927C71.0571 25 69.4579 25.3036 67.6968 25.3036ZM83.4423 19.99L83.2298 15.3139L94.3733 3.74533H98.8064L89.5455 13.5832L87.3593 15.9819L83.4423 19.99ZM79.9201 25V3.74533H83.8674V25H79.9201ZM94.7377 25L86.6002 15.3139L89.2115 12.4294L99.353 25H94.7377Z" fill="white"/>
<path d="M124.634 53.0118L135.04 37.7865L145.609 53.0239C146.011 53.6028 146.671 53.9482 147.375 53.9482H158.133C159.885 53.9482 160.901 51.963 159.876 50.5415L143.145 27.3503L158.681 5.83918C159.707 4.41783 158.692 2.43159 156.938 2.43159H146.954C146.25 2.43159 145.59 2.77624 145.189 3.35421L135.39 17.4518L125.396 3.3387C124.993 2.76975 124.339 2.43159 123.642 2.43159H113.079C111.33 2.43159 110.313 4.408 111.33 5.83046L126.982 27.733L110.443 50.5371C109.412 51.958 110.427 53.9482 112.182 53.9482H122.86C123.569 53.9482 124.233 53.5978 124.634 53.0118Z" fill="url(#paint0_linear_126_930)" stroke="white" stroke-width="2.38804"/>
<defs>
<linearGradient id="paint0_linear_126_930" x1="110.31" y1="14.9295" x2="151.823" y2="33.6079" gradientUnits="userSpaceOnUse">
<stop offset="0.0520833" stop-color="#7BF0BA"/>
<stop offset="0.307292" stop-color="#44D5D2"/>
<stop offset="0.609375" stop-color="#A380E6"/>
<stop offset="0.916667" stop-color="#FE9C4A"/>
</linearGradient>
</defs>
</svg>
