<svg width="99" height="172" viewBox="0 0 99 172" fill="none" xmlns="http://www.w3.org/2000/svg">
<g clip-path="url(#clip0_126_938)">
<path d="M5.52436 66.9351C5.52436 66.2826 6.92063 66.0001 7.85231 66.0001H91.2891C92.2208 66.0001 92.4116 66.2851 92.4116 66.9351V155.51C92.4116 156.163 92.0199 156.94 91.1937 157.24L51.2696 171.778C50.4409 172.078 49.1576 172.08 48.3264 171.785L7.31238 157.233C6.48115 156.935 5.52185 156.16 5.52185 155.51V66.9351H5.52436Z" fill="#F7F7F7"/>
<path opacity="0.42" d="M89.4296 97.6702V87.5052H8.65723L89.4296 97.6702Z" fill="#E0E0E0"/>
<path d="M94.7506 83.1277C94.7506 83.1277 54.6281 96.3327 4.00354 83.1277V57.4327C50.703 69.5352 94.7506 57.4327 94.7506 57.4327V83.1277Z" fill="white"/>
<path d="M94.7511 57.4327V83.1277C94.7511 83.1277 76.9161 88.9952 50.0305 88.9952C36.5851 88.9952 20.8797 87.5277 4.00398 83.1277V57.4327C19.5688 61.4677 34.8423 62.8127 48.2851 62.8127C75.1732 62.8127 94.7486 57.4327 94.7486 57.4327M98.6611 52.3177L93.7089 53.6777C93.498 53.7352 74.2541 58.9177 48.2851 58.9177C33.0066 58.9177 18.4387 57.1502 4.9884 53.6652L0.0914307 52.3927V86.1327L3.01203 86.8952C18.2655 90.8727 34.0839 92.8902 50.0305 92.8902C77.2325 92.8902 95.2257 87.0727 95.9791 86.8252L98.6636 85.9427V52.3177H98.6611Z" fill="#F7F7F7"/>
<path d="M19.0023 67.4775C19.2735 67.5275 19.5221 67.63 19.7456 67.78C19.9691 67.93 20.155 68.1075 20.2981 68.3125C20.4438 68.5175 20.5492 68.7475 20.6145 69.0075C20.6798 69.2675 20.6899 69.53 20.6421 69.7975C20.1801 72.3975 19.718 74.9975 19.2559 77.5975C19.2082 77.865 19.1052 78.11 18.9495 78.33C18.7913 78.55 18.603 78.7325 18.3845 78.8775C18.1635 79.0225 17.9149 79.12 17.6362 79.1725C17.3574 79.225 17.0711 79.225 16.7798 79.17C14.6352 78.765 12.4956 78.3225 10.361 77.84C10.0722 77.775 9.80854 77.6625 9.57499 77.5025C9.33893 77.3425 9.14557 77.1525 8.9974 76.93C8.84673 76.7075 8.74628 76.4675 8.69605 76.2025C8.64583 75.94 8.65336 75.6775 8.71614 75.4125C9.33642 72.845 9.95419 70.2775 10.5745 67.71C10.6373 67.445 10.7503 67.2075 10.9085 66.995C11.0667 66.7825 11.2575 66.6125 11.4785 66.4825C11.6995 66.355 11.9431 66.265 12.2093 66.2175C12.4755 66.1675 12.7442 66.175 13.0129 66.235C15.0044 66.685 17.0008 67.1 19.0048 67.4775H19.0023ZM17.4277 70.1175C16.0767 69.855 14.7281 69.575 13.3821 69.2775C12.9401 71.27 12.4981 73.2625 12.0561 75.2525C13.4499 75.56 14.8487 75.85 16.2474 76.1225C16.6417 74.12 17.0335 72.1175 17.4277 70.1175Z" fill="#122F4C"/>
<path d="M32.6963 69.5726C32.7515 69.6401 32.7766 69.7201 32.7666 69.8101C32.6887 70.5551 32.6109 71.2976 32.533 72.0426C32.523 72.1326 32.4828 72.2051 32.4125 72.2601C32.3422 72.3151 32.2593 72.3376 32.1664 72.3276C30.2201 72.1226 28.2789 71.8826 26.3402 71.6101C26.2825 71.6026 26.2498 71.6201 26.2448 71.6651C26.1569 72.2776 26.0715 72.8876 25.9836 73.5001C25.9761 73.5576 26.0012 73.5876 26.059 73.5976C27.5456 73.8076 29.0348 73.9951 30.5265 74.1676C30.6194 74.1776 30.6923 74.2176 30.745 74.2876C30.7977 74.3576 30.8178 74.4351 30.8078 74.5251C30.7274 75.2301 30.6471 75.9326 30.5692 76.6376C30.5592 76.7276 30.5215 76.8001 30.4537 76.8551C30.3859 76.9101 30.3055 76.9326 30.2101 76.9226C28.6958 76.7501 27.1815 76.5576 25.6697 76.3451C25.6095 76.3376 25.5768 76.3601 25.5693 76.4176C25.3885 77.6801 25.2102 78.9426 25.0294 80.2051C24.9992 80.4176 24.8686 80.5076 24.6376 80.4751C23.7963 80.3551 22.9576 80.2276 22.1163 80.0951C21.8853 80.0576 21.7873 79.9351 21.82 79.7201C22.4151 76.0151 23.0128 72.3126 23.608 68.6076C23.6431 68.3951 23.7662 68.3051 23.9822 68.3401C26.8048 68.7851 29.635 69.1576 32.4727 69.4576C32.5632 69.4676 32.6385 69.5076 32.6937 69.5751L32.6963 69.5726Z" fill="#122F4C"/>
<path d="M43.6001 70.355C43.6604 70.42 43.6905 70.4975 43.6855 70.5875C43.6554 71.335 43.6277 72.0825 43.5976 72.83C43.5951 72.92 43.5599 72.995 43.4921 73.055C43.4243 73.115 43.3465 73.1425 43.2535 73.14C41.3023 73.06 39.351 72.9475 37.3998 72.8025C37.342 72.7975 37.3119 72.8175 37.3069 72.8625C37.2592 73.4775 37.214 74.095 37.1662 74.71C37.1612 74.7675 37.1888 74.7975 37.2491 74.8025C38.7433 74.915 40.24 75.0075 41.7393 75.08C41.8347 75.085 41.9075 75.12 41.9653 75.185C42.0205 75.25 42.0481 75.3275 42.0431 75.4175C42.0105 76.125 41.9753 76.8325 41.9427 77.54C41.9376 77.63 41.905 77.705 41.8422 77.765C41.7794 77.825 41.6991 77.8525 41.6036 77.8475C40.0818 77.7725 38.5625 77.68 37.0432 77.565C36.9829 77.56 36.9503 77.5875 36.9478 77.6425C36.8498 78.915 36.7544 80.185 36.6565 81.4575C36.6414 81.6725 36.5158 81.77 36.2823 81.7525C35.436 81.6875 34.5922 81.615 33.7459 81.5375C33.5124 81.515 33.4069 81.3975 33.427 81.1825C33.7785 77.4475 34.1326 73.7125 34.4842 69.9775C34.5043 69.7625 34.6223 69.665 34.8408 69.685C37.6811 69.945 40.5263 70.1325 43.3716 70.2475C43.462 70.25 43.5398 70.285 43.6001 70.35V70.355Z" fill="#122F4C"/>
<path d="M48.3214 81.9576C48.3214 82.1726 48.2009 82.2801 47.9673 82.2776C47.121 82.2676 46.2722 82.2501 45.4259 82.2276C45.1924 82.2226 45.0794 82.1101 45.0844 81.8951C45.1924 78.1451 45.3004 74.3951 45.4058 70.6451C45.4109 70.4301 45.5239 70.3251 45.7423 70.3301C46.5334 70.3501 47.3244 70.3676 48.1155 70.3751C48.334 70.3776 48.442 70.4876 48.4394 70.7026C48.3993 74.4526 48.3616 78.2051 48.3214 81.9551V81.9576Z" fill="#122F4C"/>
<path d="M54.2832 73.3176C54.2204 73.3751 54.1903 73.4501 54.1928 73.5401C54.2355 75.3751 54.2782 77.2101 54.3209 79.0476C54.3209 79.1376 54.3585 79.2101 54.4263 79.2651C54.4941 79.3201 54.577 79.3476 54.6724 79.3451C56.6111 79.2951 58.5498 79.2151 60.486 79.1026C60.584 79.0976 60.6668 79.1226 60.7372 79.1826C60.8075 79.2401 60.8451 79.3151 60.8502 79.4051C60.8954 80.1526 60.9406 80.8976 60.9858 81.6451C60.9908 81.7351 60.9607 81.8151 60.8979 81.8801C60.8351 81.9476 60.7522 81.9826 60.6543 81.9876C59.3735 82.0626 58.0903 82.1226 56.807 82.1701C55.7523 82.2076 54.695 82.2376 53.6403 82.2576C53.5298 82.2576 53.4193 82.2626 53.3088 82.2626C53.015 82.2676 52.7337 82.2201 52.4701 82.1226C52.2039 82.0251 51.9728 81.8851 51.777 81.7051C51.5786 81.5251 51.4254 81.3151 51.3149 81.0701C51.2044 80.8276 51.1466 80.5701 51.1466 80.2976C51.1466 80.1951 51.1466 80.0926 51.1466 79.9926C51.1466 79.5801 51.1416 79.1651 51.1391 78.7526C51.1316 77.4326 51.124 76.1126 51.119 74.7926C51.119 74.4251 51.114 74.0551 51.114 73.6876C51.114 73.2501 51.109 72.8151 51.1064 72.3776C51.1064 72.1051 51.1567 71.8476 51.2571 71.6026C51.3601 71.3576 51.5007 71.1476 51.684 70.9701C51.8674 70.7926 52.0808 70.6501 52.3269 70.5376C52.573 70.4276 52.8317 70.3701 53.1079 70.3651C53.2109 70.3651 53.3138 70.3626 53.4168 70.3601C55.6016 70.3176 57.7839 70.2351 59.9637 70.1076C60.0566 70.1026 60.1344 70.1301 60.2022 70.1876C60.2701 70.2451 60.3052 70.3201 60.3102 70.4101C60.3554 71.1576 60.4006 71.9026 60.4458 72.6501C60.4509 72.7401 60.4232 72.8201 60.363 72.8851C60.3027 72.9501 60.2249 72.9876 60.1319 72.9926C58.2636 73.1001 56.3927 73.1801 54.5193 73.2251C54.4263 73.2251 54.3485 73.2576 54.2857 73.3151L54.2832 73.3176Z" fill="#122F4C"/>
<path d="M67.1307 81.17C67.1507 81.385 67.0453 81.5025 66.8117 81.525C65.9679 81.6025 65.1216 81.675 64.2779 81.7425C64.0443 81.76 63.9213 81.6625 63.9037 81.4475C63.6149 77.7075 63.3286 73.9675 63.0398 70.2275C63.0222 70.0125 63.1227 69.8975 63.3412 69.88C64.1297 69.8175 64.9182 69.75 65.7068 69.6775C65.9227 69.6575 66.0433 69.755 66.0634 69.9675C66.42 73.7025 66.7741 77.4375 67.1307 81.1725V81.17Z" fill="#122F4C"/>
<path d="M76.7493 68.2851C77.023 68.2426 77.2892 68.2526 77.5504 68.3201C77.8115 68.3876 78.0451 68.4901 78.251 68.6351C78.4569 68.7776 78.6352 68.9601 78.7859 69.1826C78.9366 69.4051 79.0345 69.6476 79.0822 69.9176C79.6297 73.0676 80.1746 76.2176 80.7221 79.3651C80.7372 79.4551 80.7171 79.5351 80.6618 79.6076C80.6066 79.6801 80.5287 79.7251 80.4308 79.7426C79.587 79.8851 78.7407 80.0226 77.8969 80.1551C77.799 80.1701 77.7111 80.1526 77.6357 80.1001C77.5579 80.0501 77.5127 79.9776 77.5001 79.8876C77.3444 78.8851 77.1887 77.8826 77.0356 76.8801C77.0205 76.7901 76.9803 76.7201 76.91 76.6676C76.8397 76.6151 76.7593 76.5951 76.6639 76.6101C75.4836 76.7901 74.3008 76.9551 73.118 77.1101C73.0225 77.1226 72.9447 77.1651 72.8869 77.2351C72.8292 77.3051 72.8066 77.3851 72.8166 77.4751C72.9472 78.4801 73.0778 79.4876 73.2084 80.4926C73.236 80.7051 73.133 80.8276 72.902 80.8576C72.0607 80.9651 71.217 81.0651 70.3732 81.1601C70.1396 81.1851 70.0141 81.0926 69.9889 80.8776C69.6349 77.7001 69.2808 74.5251 68.9267 71.3476C68.8965 71.0776 68.9191 70.8151 68.997 70.5626C69.0723 70.3101 69.1929 70.0851 69.3561 69.8901C69.5193 69.6951 69.7177 69.5301 69.9488 69.3926C70.1823 69.2576 70.4334 69.1726 70.7072 69.1376C72.7237 68.8901 74.7377 68.6051 76.7493 68.2851ZM76.5936 74.0401C76.4404 73.0551 76.2897 72.0676 76.1365 71.0826C74.7804 71.2901 73.4218 71.4826 72.0607 71.6576C72.1888 72.6476 72.3169 73.6351 72.4475 74.6251C73.8312 74.4476 75.2149 74.2526 76.5936 74.0401Z" fill="#122F4C"/>
<path d="M91.1458 74.6126C91.2412 74.5901 91.3241 74.6026 91.3995 74.6476C91.4723 74.6951 91.52 74.7626 91.5426 74.8501C91.7184 75.5776 91.8942 76.3051 92.07 77.0326C92.09 77.1201 92.08 77.2026 92.0348 77.2776C91.9896 77.3526 91.9193 77.4026 91.8213 77.4251C89.2222 78.0401 86.6155 78.5976 83.9988 79.0976C83.7677 79.1426 83.6321 79.0576 83.5919 78.8451C82.8913 75.1601 82.1881 71.4726 81.4875 67.7876C81.4473 67.5751 81.5352 67.4501 81.7487 67.4101C82.5297 67.2601 83.3082 67.1076 84.0866 66.9476C84.3001 66.9026 84.4307 66.9876 84.4734 67.1976C85.046 69.9326 85.6185 72.6676 86.1911 75.4026C86.2087 75.4926 86.2564 75.5576 86.3342 75.5976C86.4121 75.6401 86.4975 75.6501 86.5929 75.6301C88.1147 75.3126 89.6315 74.9726 91.1483 74.6126H91.1458Z" fill="#122F4C"/>
<path d="M98.7237 52.3104L93.7238 49.8429L93.6685 0.000366211H4.5211L4.61652 50.2404L0.0284424 52.5054L4.61652 55.6779V55.7479H4.71949L5.00075 55.9429L5.02084 55.7479H6.56778C6.56778 55.7479 49.3648 68.5404 93.0759 55.9429H93.7288V55.7579C93.7288 55.7579 93.7489 55.7529 93.7564 55.7504L98.7262 52.3129L98.7237 52.3104Z" fill="#F7F7F7"/>
<path d="M22.0829 140.358C22.3265 140.46 22.5349 140.6 22.7107 140.78C22.8865 140.96 23.0271 141.168 23.1351 141.405C23.2431 141.64 23.2958 141.895 23.2958 142.165V145.338C23.2958 145.608 23.2431 145.863 23.1351 146.105C23.0271 146.348 22.8865 146.558 22.7107 146.738C22.5349 146.918 22.3265 147.058 22.0829 147.16C21.8393 147.263 21.5832 147.313 21.3119 147.313H14.5491C14.3331 147.313 14.2277 147.205 14.2277 146.993V144.95C14.2277 144.86 14.2578 144.785 14.3206 144.723C14.3834 144.66 14.4587 144.63 14.5491 144.63H20.3125C20.4029 144.63 20.4782 144.603 20.541 144.545C20.6038 144.49 20.6339 144.415 20.6339 144.325V142.925C20.6339 142.835 20.6038 142.76 20.541 142.698C20.4782 142.635 20.4029 142.605 20.3125 142.605H16.2116C15.9403 142.605 15.6842 142.555 15.4406 142.453C15.197 142.35 14.9861 142.21 14.8053 142.03C14.6244 141.85 14.4838 141.643 14.3808 141.405C14.2779 141.168 14.2277 140.915 14.2277 140.645V137.473C14.2277 137.203 14.2779 136.948 14.3808 136.705C14.4813 136.463 14.6244 136.255 14.8053 136.08C14.9861 135.905 15.197 135.765 15.4406 135.658C15.6842 135.55 15.9403 135.498 16.2116 135.498H22.6002C22.8137 135.498 22.9217 135.605 22.9217 135.818V137.893C22.9217 137.983 22.8915 138.055 22.8287 138.113C22.766 138.17 22.6906 138.198 22.6002 138.198H17.1935C17.1031 138.198 17.0302 138.228 16.9725 138.29C16.9147 138.353 16.8871 138.428 16.8871 138.518V139.885C16.8871 139.975 16.9147 140.05 16.9725 140.113C17.0277 140.175 17.1031 140.205 17.1935 140.205H21.3119C21.5832 140.205 21.8393 140.255 22.0829 140.358Z" fill="#122F4C"/>
<path d="M34.8454 135.593C34.9082 135.655 34.9384 135.73 34.9384 135.82V137.945C34.9384 138.035 34.9082 138.108 34.8454 138.165C34.7826 138.223 34.7073 138.25 34.6169 138.25H28.9389C28.8812 138.25 28.8536 138.278 28.8536 138.335V140.175C28.8536 140.22 28.8812 140.243 28.9389 140.243H33.7857C33.8761 140.243 33.9489 140.273 34.0067 140.335C34.0619 140.398 34.0921 140.473 34.0921 140.563V142.25C34.0921 142.34 34.0644 142.418 34.0067 142.478C33.9489 142.54 33.8761 142.57 33.7857 142.57H28.9389C28.8812 142.57 28.8536 142.598 28.8536 142.655V144.478C28.8536 144.535 28.8812 144.563 28.9389 144.563H34.6169C34.7073 144.563 34.7826 144.593 34.8454 144.655C34.9082 144.718 34.9384 144.793 34.9384 144.883V146.993C34.9384 147.083 34.9082 147.158 34.8454 147.22C34.7826 147.283 34.7073 147.313 34.6169 147.313H26.1941C25.9782 147.313 25.8727 147.205 25.8727 146.993V135.823C25.8727 135.733 25.9028 135.658 25.9656 135.595C26.0284 135.533 26.1037 135.503 26.1941 135.503H34.6169C34.7073 135.503 34.7826 135.533 34.8454 135.595V135.593Z" fill="#122F4C"/>
<path d="M45.598 135.5C45.8693 135.5 46.1254 135.553 46.369 135.66C46.6126 135.768 46.821 135.908 46.9968 136.083C47.1726 136.258 47.3132 136.465 47.4212 136.708C47.5292 136.95 47.5819 137.205 47.5819 137.475V146.99C47.5819 147.08 47.5518 147.155 47.489 147.218C47.4262 147.28 47.3509 147.31 47.2605 147.31H44.9049C44.8145 147.31 44.7392 147.28 44.6764 147.218C44.6136 147.155 44.5835 147.08 44.5835 146.99V143.97C44.5835 143.88 44.5559 143.805 44.4981 143.743C44.4403 143.68 44.3675 143.65 44.2771 143.65H40.9221C40.8317 143.65 40.7563 143.68 40.6935 143.743C40.6308 143.805 40.6006 143.88 40.6006 143.97V146.99C40.6006 147.205 40.4926 147.31 40.2792 147.31H37.9412C37.7277 147.31 37.6198 147.203 37.6198 146.99V137.475C37.6198 137.205 37.67 136.95 37.7729 136.708C37.8759 136.465 38.0165 136.258 38.1973 136.083C38.3782 135.908 38.5891 135.768 38.8327 135.66C39.0763 135.553 39.3324 135.5 39.6037 135.5H45.6031H45.598ZM44.581 141.118V138.148H40.5981V141.118H44.581Z" fill="#122F4C"/>
<path d="M58.0646 140.358C58.3082 140.46 58.5166 140.6 58.6924 140.78C58.8682 140.96 59.0088 141.168 59.1168 141.405C59.2248 141.64 59.2775 141.895 59.2775 142.165V145.338C59.2775 145.608 59.2248 145.863 59.1168 146.105C59.0088 146.348 58.8682 146.558 58.6924 146.738C58.5166 146.918 58.3082 147.058 58.0646 147.16C57.821 147.263 57.5648 147.313 57.2936 147.313H50.5308C50.3148 147.313 50.2094 147.205 50.2094 146.993V144.95C50.2094 144.86 50.2395 144.785 50.3023 144.723C50.365 144.66 50.4404 144.63 50.5308 144.63H56.2941C56.3846 144.63 56.4599 144.603 56.5227 144.545C56.5855 144.49 56.6156 144.415 56.6156 144.325V142.925C56.6156 142.835 56.5855 142.76 56.5227 142.698C56.4599 142.635 56.3846 142.605 56.2941 142.605H52.1932C51.922 142.605 51.6659 142.555 51.4223 142.453C51.1787 142.35 50.9678 142.21 50.7869 142.03C50.6061 141.85 50.4655 141.643 50.3625 141.405C50.2596 141.168 50.2094 140.915 50.2094 140.645V137.473C50.2094 137.203 50.2596 136.948 50.3625 136.705C50.463 136.463 50.6061 136.255 50.7869 136.08C50.9678 135.905 51.1787 135.765 51.4223 135.658C51.6659 135.55 51.922 135.498 52.1932 135.498H58.5819C58.7979 135.498 58.9034 135.605 58.9034 135.818V137.893C58.9034 137.983 58.8732 138.055 58.8104 138.113C58.7477 138.17 58.6723 138.198 58.5819 138.198H53.1752C53.0847 138.198 53.0119 138.228 52.9542 138.29C52.8989 138.353 52.8688 138.428 52.8688 138.518V139.885C52.8688 139.975 52.8964 140.05 52.9542 140.113C53.0094 140.175 53.0847 140.205 53.1752 140.205H57.2936C57.5648 140.205 57.821 140.255 58.0646 140.358Z" fill="#122F4C"/>
<path d="M69.7995 135.5C70.0707 135.5 70.3268 135.553 70.5704 135.66C70.814 135.768 71.0225 135.908 71.1982 136.083C71.374 136.258 71.5147 136.465 71.6226 136.708C71.7306 136.95 71.7834 137.205 71.7834 137.475V145.338C71.7834 145.608 71.7306 145.863 71.6226 146.105C71.5147 146.348 71.374 146.558 71.1982 146.738C71.0225 146.918 70.814 147.058 70.5704 147.16C70.3268 147.263 70.0707 147.313 69.7995 147.313H63.8001C63.5288 147.313 63.2727 147.263 63.0291 147.16C62.7855 147.058 62.5746 146.918 62.3938 146.738C62.2129 146.558 62.0723 146.348 61.9693 146.105C61.8689 145.863 61.8162 145.608 61.8162 145.338V137.475C61.8162 137.205 61.8664 136.95 61.9693 136.708C62.0723 136.465 62.2129 136.258 62.3938 136.083C62.5746 135.908 62.7855 135.768 63.0291 135.66C63.2727 135.553 63.5288 135.5 63.8001 135.5H69.7995ZM68.7824 138.368H64.7995V144.443H68.7824V138.368Z" fill="#122F4C"/>
<path d="M84.3169 135.593C84.3796 135.655 84.4098 135.73 84.4098 135.82V146.99C84.4098 147.08 84.3796 147.155 84.3169 147.218C84.2541 147.28 84.1787 147.31 84.0883 147.31H81.6474C81.557 147.31 81.4666 147.285 81.3762 147.235C81.2857 147.185 81.2179 147.12 81.1727 147.04L77.4259 140.155V146.988C77.4259 147.203 77.318 147.308 77.1045 147.308H74.7665C74.5505 147.308 74.4451 147.2 74.4451 146.988V135.818C74.4451 135.605 74.5531 135.498 74.7665 135.498H77.1723C77.2627 135.498 77.3531 135.523 77.4435 135.573C77.5339 135.623 77.6017 135.688 77.6469 135.768L81.4088 142.668V135.818C81.4088 135.728 81.4389 135.653 81.5017 135.59C81.5645 135.528 81.6398 135.498 81.7302 135.498H84.0858C84.1762 135.498 84.2516 135.528 84.3143 135.59L84.3169 135.593Z" fill="#122F4C"/>
<path d="M20.3077 39.375C20.378 39.405 20.4383 39.4475 20.4885 39.4975C20.5387 39.5475 20.5789 39.6075 20.6116 39.6775C20.6442 39.7475 20.6568 39.82 20.6568 39.8975V42.635C20.6568 42.66 20.6467 42.6825 20.6291 42.7C20.6116 42.7175 20.589 42.7275 20.5638 42.7275H19.8858C19.8607 42.7275 19.8381 42.7175 19.823 42.7C19.808 42.6825 19.7979 42.66 19.7979 42.635V40.155H19.253V42.635C19.253 42.66 19.2454 42.6825 19.2279 42.7C19.2103 42.7175 19.1902 42.7275 19.1651 42.7275H18.5498C18.5247 42.7275 18.5021 42.7175 18.4845 42.7C18.4669 42.6825 18.4569 42.66 18.4569 42.635V40.155H17.912V42.635C17.912 42.6975 17.8818 42.7275 17.819 42.7275H17.146C17.0832 42.7275 17.0531 42.6975 17.0531 42.635V39.42C17.0531 39.3575 17.0832 39.3275 17.146 39.3275H20.0867C20.1646 39.3275 20.2399 39.3425 20.3077 39.3725V39.375Z" fill="#242425"/>
<path d="M23.7182 39.3301C23.7961 39.3301 23.8714 39.3451 23.9417 39.3751C24.012 39.4051 24.0723 39.4476 24.1225 39.4976C24.1728 39.5476 24.2129 39.6076 24.2456 39.6776C24.2782 39.7476 24.2908 39.8201 24.2908 39.8976V42.6351C24.2908 42.6601 24.2807 42.6826 24.2632 42.7001C24.2456 42.7176 24.223 42.7276 24.1979 42.7276H23.5198C23.4947 42.7276 23.4721 42.7176 23.4545 42.7001C23.437 42.6826 23.4269 42.6601 23.4269 42.6351V41.7651C23.4269 41.7401 23.4194 41.7176 23.4018 41.7001C23.3842 41.6826 23.3641 41.6726 23.339 41.6726H22.3722C22.3471 41.6726 22.3245 41.6826 22.3069 41.7001C22.2893 41.7176 22.2793 41.7401 22.2793 41.7651V42.6351C22.2793 42.6976 22.2491 42.7276 22.1863 42.7276H21.5133C21.4531 42.7276 21.4204 42.6976 21.4204 42.6351V39.8976C21.4204 39.8201 21.4355 39.7451 21.4631 39.6776C21.4932 39.6076 21.5334 39.5476 21.5862 39.4976C21.6389 39.4476 21.6992 39.4076 21.7695 39.3751C21.8398 39.3451 21.9126 39.3301 21.9905 39.3301H23.7182ZM23.4269 40.9476V40.0926H22.2818V40.9476H23.4269Z" fill="#242425"/>
<path d="M27.3594 39.3575C27.3769 39.375 27.387 39.3975 27.387 39.4225V42.16C27.387 42.2375 27.3719 42.3125 27.3418 42.38C27.3116 42.45 27.269 42.51 27.2187 42.5625C27.1685 42.615 27.1082 42.655 27.0379 42.685C26.9676 42.715 26.8948 42.7275 26.8169 42.7275H25.3478C25.27 42.7275 25.1946 42.7125 25.1268 42.685C25.0565 42.655 24.9963 42.615 24.9435 42.5625C24.8908 42.51 24.8506 42.45 24.8205 42.38C24.7903 42.31 24.7753 42.2375 24.7753 42.16V41.12C24.7753 41.0575 24.8054 41.0275 24.8682 41.0275H25.5412C25.6015 41.0275 25.6341 41.0575 25.6341 41.12V41.815C25.6341 41.84 25.6417 41.8625 25.6617 41.8775C25.6793 41.8925 25.7019 41.9025 25.727 41.9025H26.4352C26.4603 41.9025 26.4829 41.895 26.5005 41.8775C26.5181 41.86 26.5281 41.84 26.5281 41.815V39.42C26.5281 39.395 26.5357 39.3725 26.5532 39.355C26.5708 39.3375 26.5909 39.3275 26.616 39.3275H27.2941C27.3192 39.3275 27.3418 39.3375 27.3594 39.355V39.3575Z" fill="#242425"/>
<path d="M30.4462 39.3301C30.524 39.3301 30.5994 39.3451 30.6672 39.3751C30.7375 39.4051 30.7978 39.4476 30.848 39.4976C30.8982 39.5476 30.9384 39.6076 30.971 39.6776C31.0037 39.7476 31.0163 39.8201 31.0163 39.8976V42.1601C31.0163 42.2376 31.0012 42.3126 30.971 42.3801C30.9409 42.4476 30.9007 42.5101 30.848 42.5626C30.7978 42.6151 30.7375 42.6551 30.6672 42.6851C30.5969 42.7151 30.524 42.7276 30.4462 42.7276H28.7184C28.6406 42.7276 28.5653 42.7126 28.4975 42.6851C28.4271 42.6551 28.3669 42.6151 28.3141 42.5626C28.2614 42.5101 28.2212 42.4501 28.1911 42.3801C28.1609 42.3101 28.1459 42.2376 28.1459 42.1601V39.8976C28.1459 39.8201 28.1609 39.7451 28.1911 39.6776C28.2212 39.6101 28.2614 39.5476 28.3141 39.4976C28.3669 39.4476 28.4271 39.4076 28.4975 39.3751C28.5678 39.3451 28.6406 39.3301 28.7184 39.3301H30.4462ZM30.1549 40.1551H29.0097V41.9026H30.1549V40.1551Z" fill="#242425"/>
<path d="M34.7581 42.65C34.7706 42.6725 34.7731 42.6925 34.7631 42.705C34.7531 42.72 34.7355 42.7275 34.7104 42.7275H33.9344C33.9093 42.7275 33.8816 42.72 33.8565 42.705C33.8314 42.69 33.8113 42.6725 33.7988 42.65L33.2815 41.7275C33.2739 41.715 33.2639 41.7075 33.2463 41.7075H32.6662C32.6511 41.7075 32.6411 41.715 32.6411 41.7325V42.635C32.6411 42.6975 32.6109 42.7275 32.5482 42.7275H31.8751C31.8124 42.7275 31.7822 42.6975 31.7822 42.635V39.42C31.7822 39.3575 31.8124 39.3275 31.8751 39.3275H34.08C34.1579 39.3275 34.2332 39.3425 34.301 39.3725C34.3713 39.4025 34.4316 39.445 34.4818 39.495C34.5321 39.545 34.5722 39.605 34.6049 39.675C34.635 39.745 34.6501 39.8175 34.6501 39.895V41.1725C34.6501 41.295 34.6124 41.4075 34.5396 41.505C34.4668 41.605 34.3739 41.67 34.2583 41.7075L34.2433 41.7125C34.2207 41.72 34.2156 41.7275 34.2282 41.7425L34.2332 41.7525L34.7556 42.65H34.7581ZM33.7862 40.12H32.6109V40.945H33.7862V40.12Z" fill="#242425"/>
<path d="M39.3559 41.9025C39.381 41.9025 39.4036 41.9125 39.4187 41.93C39.4337 41.9475 39.4438 41.97 39.4438 41.995V42.635C39.4438 42.66 39.4362 42.6825 39.4187 42.7C39.4011 42.7175 39.381 42.7275 39.3559 42.7275H37.2489C37.1861 42.7275 37.156 42.6975 37.156 42.635V39.42C37.156 39.3575 37.1861 39.3275 37.2489 39.3275H37.9219C37.9847 39.3275 38.0149 39.3575 38.0149 39.42V41.815C38.0149 41.84 38.0224 41.8625 38.0425 41.8775C38.0626 41.8925 38.0827 41.9025 38.1078 41.9025H39.3559Z" fill="#242425"/>
<path d="M42.5049 39.3576C42.5225 39.3751 42.5325 39.3976 42.5325 39.4226V40.0351C42.5325 40.0601 42.5225 40.0826 42.5049 40.0976C42.4873 40.1126 42.4647 40.1226 42.4396 40.1226H40.8048C40.7897 40.1226 40.7797 40.1301 40.7797 40.1476V40.6776C40.7797 40.6901 40.7872 40.6976 40.8048 40.6976H42.2011C42.2262 40.6976 42.2488 40.7076 42.2638 40.7251C42.2789 40.7426 42.289 40.7651 42.289 40.7901V41.2751C42.289 41.3001 42.2814 41.3226 42.2638 41.3401C42.2463 41.3576 42.2262 41.3676 42.2011 41.3676H40.8048C40.7897 41.3676 40.7797 41.3751 40.7797 41.3926V41.9176C40.7797 41.9326 40.7872 41.9426 40.8048 41.9426H42.4396C42.4647 41.9426 42.4873 41.9526 42.5049 41.9701C42.5225 41.9876 42.5325 42.0101 42.5325 42.0351V42.6426C42.5325 42.6676 42.5225 42.6901 42.5049 42.7076C42.4873 42.7251 42.4647 42.7351 42.4396 42.7351H40.0163C39.9535 42.7351 39.9233 42.7051 39.9233 42.6426V39.4276C39.9233 39.4026 39.9334 39.3801 39.951 39.3626C39.9685 39.3451 39.9911 39.3351 40.0163 39.3351H42.4396C42.4647 39.3351 42.4873 39.3451 42.5049 39.3626V39.3576Z" fill="#242425"/>
<path d="M45.5986 39.3301C45.6764 39.3301 45.7518 39.3451 45.8221 39.3751C45.8924 39.4051 45.9527 39.4476 46.0029 39.4976C46.0531 39.5476 46.0933 39.6076 46.126 39.6776C46.1586 39.7476 46.1712 39.8201 46.1712 39.8976V42.6351C46.1712 42.6601 46.1611 42.6826 46.1435 42.7001C46.126 42.7176 46.1034 42.7276 46.0782 42.7276H45.4002C45.3751 42.7276 45.3525 42.7176 45.3349 42.7001C45.3173 42.6826 45.3073 42.6601 45.3073 42.6351V41.7651C45.3073 41.7401 45.2998 41.7176 45.2822 41.7001C45.2646 41.6826 45.2445 41.6726 45.2194 41.6726H44.2526C44.2274 41.6726 44.2048 41.6826 44.1873 41.7001C44.1697 41.7176 44.1596 41.7401 44.1596 41.7651V42.6351C44.1596 42.6976 44.1295 42.7276 44.0667 42.7276H43.3937C43.3334 42.7276 43.3008 42.6976 43.3008 42.6351V39.8976C43.3008 39.8201 43.3159 39.7451 43.3435 39.6776C43.3736 39.6076 43.4138 39.5476 43.4665 39.4976C43.5193 39.4476 43.5795 39.4076 43.6499 39.3751C43.7202 39.3451 43.793 39.3301 43.8708 39.3301H45.5986ZM45.3073 40.9476V40.0926H44.1621V40.9476H45.3073Z" fill="#242425"/>
<path d="M49.7721 40.9001C49.7897 40.9176 49.7997 40.9401 49.7997 40.9651V42.1601C49.7997 42.2376 49.7846 42.3126 49.7545 42.3801C49.7244 42.4476 49.6842 42.5101 49.6314 42.5626C49.5812 42.6151 49.5209 42.6551 49.4506 42.6851C49.3803 42.7151 49.3075 42.7276 49.2296 42.7276H47.5019C47.424 42.7276 47.3487 42.7126 47.2809 42.6851C47.2106 42.6551 47.1503 42.6151 47.0976 42.5626C47.0448 42.5101 47.0047 42.4501 46.9745 42.3801C46.9444 42.3101 46.9293 42.2376 46.9293 42.1601V39.8976C46.9293 39.8201 46.9444 39.7451 46.9745 39.6776C47.0047 39.6101 47.0448 39.5476 47.0976 39.4976C47.1503 39.4476 47.2106 39.4076 47.2809 39.3751C47.3512 39.3451 47.424 39.3301 47.5019 39.3301H49.5159C49.541 39.3301 49.5636 39.3401 49.5812 39.3576C49.5988 39.3751 49.6088 39.3976 49.6088 39.4226V40.0626C49.6088 40.0876 49.5988 40.1101 49.5812 40.1276C49.5636 40.1451 49.541 40.1551 49.5159 40.1551H47.8811C47.856 40.1551 47.8334 40.1626 47.8158 40.1801C47.7982 40.1976 47.7882 40.2176 47.7882 40.2426V41.8151C47.7882 41.8401 47.7982 41.8626 47.8158 41.8776C47.8334 41.8926 47.856 41.9026 47.8811 41.9026H48.8479C48.873 41.9026 48.8956 41.8951 48.9107 41.8776C48.9258 41.8601 48.9358 41.8401 48.9358 41.8151V40.9651C48.9358 40.9401 48.9434 40.9176 48.9634 40.9001C48.9835 40.8826 49.0036 40.8726 49.0287 40.8726H49.7068C49.7319 40.8726 49.7545 40.8826 49.7721 40.9001Z" fill="#242425"/>
<path d="M53.3712 39.3576C53.3888 39.3751 53.3988 39.3976 53.3988 39.4226V42.1601C53.3988 42.2376 53.3838 42.3126 53.3536 42.3801C53.3235 42.4476 53.2833 42.5101 53.2306 42.5626C53.1803 42.6151 53.1201 42.6551 53.0498 42.6851C52.9794 42.7151 52.9066 42.7276 52.8262 42.7276H51.0985C51.0206 42.7276 50.9453 42.7126 50.8775 42.6851C50.8072 42.6551 50.7469 42.6151 50.6942 42.5626C50.6414 42.5101 50.6013 42.4501 50.5711 42.3801C50.541 42.3101 50.5284 42.2376 50.5284 42.1601V39.4226C50.5284 39.3601 50.5586 39.3301 50.6214 39.3301H51.2944C51.3546 39.3301 51.3873 39.3601 51.3873 39.4226V41.8176C51.3873 41.8426 51.3973 41.8651 51.4149 41.8801C51.4325 41.8951 51.4551 41.9051 51.4802 41.9051H52.447C52.4722 41.9051 52.4948 41.8976 52.5098 41.8801C52.5249 41.8626 52.5349 41.8426 52.5349 41.8176V39.4226C52.5349 39.3976 52.545 39.3751 52.5626 39.3576C52.5801 39.3401 52.6027 39.3301 52.6279 39.3301H53.3059C53.331 39.3301 53.3536 39.3401 53.3712 39.3576Z" fill="#242425"/>
<path d="M56.7514 39.3576C56.769 39.3751 56.779 39.3976 56.779 39.4226V40.0351C56.779 40.0601 56.769 40.0826 56.7514 40.0976C56.7338 40.1126 56.7112 40.1226 56.6861 40.1226H55.0513C55.0362 40.1226 55.0261 40.1301 55.0261 40.1476V40.6776C55.0261 40.6901 55.0337 40.6976 55.0513 40.6976H56.4475C56.4726 40.6976 56.4952 40.7076 56.5103 40.7251C56.5254 40.7426 56.5354 40.7651 56.5354 40.7901V41.2751C56.5354 41.3001 56.5279 41.3226 56.5103 41.3401C56.4927 41.3576 56.4726 41.3676 56.4475 41.3676H55.0513C55.0362 41.3676 55.0261 41.3751 55.0261 41.3926V41.9176C55.0261 41.9326 55.0337 41.9426 55.0513 41.9426H56.6861C56.7112 41.9426 56.7338 41.9526 56.7514 41.9701C56.769 41.9876 56.779 42.0101 56.779 42.0351V42.6426C56.779 42.6676 56.769 42.6901 56.7514 42.7076C56.7338 42.7251 56.7112 42.7351 56.6861 42.7351H54.2627C54.1999 42.7351 54.1698 42.7051 54.1698 42.6426V39.4276C54.1698 39.4026 54.1798 39.3801 54.1974 39.3626C54.215 39.3451 54.2376 39.3351 54.2627 39.3351H56.6861C56.7112 39.3351 56.7338 39.3451 56.7514 39.3626V39.3576Z" fill="#242425"/>
<path d="M61.9874 39.3301C62.0125 39.3301 62.0351 39.3401 62.0527 39.3576C62.0703 39.3751 62.0803 39.3976 62.0803 39.4226V42.6376C62.0803 42.6626 62.0728 42.6851 62.0527 42.7026C62.0326 42.7201 62.0125 42.7301 61.9874 42.7301H61.3094C61.2843 42.7301 61.2617 42.7201 61.2441 42.7026C61.2265 42.6851 61.2165 42.6626 61.2165 42.6376V41.5151C61.2165 41.4901 61.2089 41.4676 61.1913 41.4526C61.1738 41.4376 61.1537 41.4276 61.1286 41.4276H60.1617C60.1366 41.4276 60.114 41.4351 60.0964 41.4526C60.0789 41.4701 60.0688 41.4901 60.0688 41.5151V42.6376C60.0688 42.7001 60.0387 42.7301 59.9759 42.7301H59.3029C59.2401 42.7301 59.21 42.7001 59.21 42.6376V39.4226C59.21 39.3601 59.2401 39.3301 59.3029 39.3301H59.9759C60.0387 39.3301 60.0688 39.3601 60.0688 39.4226V40.5101C60.0688 40.5726 60.099 40.6026 60.1617 40.6026H61.1286C61.1537 40.6026 61.1763 40.5926 61.1913 40.5751C61.2064 40.5576 61.2165 40.5351 61.2165 40.5101V39.4226C61.2165 39.3976 61.2265 39.3751 61.2441 39.3576C61.2617 39.3401 61.2843 39.3301 61.3094 39.3301H61.9874Z" fill="#242425"/>
<path d="M65.1491 39.3301C65.227 39.3301 65.3023 39.3451 65.3726 39.3751C65.4429 39.4051 65.5032 39.4476 65.5534 39.4976C65.6037 39.5476 65.6438 39.6076 65.6765 39.6776C65.7091 39.7476 65.7217 39.8201 65.7217 39.8976V42.6351C65.7217 42.6601 65.7117 42.6826 65.6941 42.7001C65.6765 42.7176 65.6539 42.7276 65.6288 42.7276H64.9507C64.9256 42.7276 64.903 42.7176 64.8854 42.7001C64.8679 42.6826 64.8578 42.6601 64.8578 42.6351V41.7651C64.8578 41.7401 64.8503 41.7176 64.8327 41.7001C64.8151 41.6826 64.795 41.6726 64.7699 41.6726H63.8031C63.778 41.6726 63.7554 41.6826 63.7378 41.7001C63.7202 41.7176 63.7102 41.7401 63.7102 41.7651V42.6351C63.7102 42.6976 63.68 42.7276 63.6173 42.7276H62.9442C62.884 42.7276 62.8513 42.6976 62.8513 42.6351V39.8976C62.8513 39.8201 62.8664 39.7451 62.894 39.6776C62.9241 39.6076 62.9643 39.5476 63.0171 39.4976C63.0698 39.4476 63.1301 39.4076 63.2004 39.3751C63.2707 39.3451 63.3435 39.3301 63.4214 39.3301H65.1491ZM64.8578 40.9476V40.0926H63.7127V40.9476H64.8578Z" fill="#242425"/>
<path d="M67.3615 40.1801C67.3439 40.1951 67.3338 40.2176 67.3338 40.2426V41.8151C67.3338 41.8401 67.3414 41.8626 67.3615 41.8776C67.3815 41.8926 67.4016 41.9026 67.4267 41.9026H68.9938C69.0189 41.9026 69.0415 41.9126 69.0591 41.9301C69.0766 41.9476 69.0867 41.9701 69.0867 41.9951V42.6351C69.0867 42.6601 69.0792 42.6826 69.0591 42.7001C69.039 42.7176 69.0189 42.7276 68.9938 42.7276H67.0475C66.9697 42.7276 66.8944 42.7126 66.8266 42.6851C66.7562 42.6551 66.696 42.6151 66.6432 42.5626C66.5905 42.5101 66.5503 42.4501 66.5202 42.3801C66.49 42.3101 66.475 42.2376 66.475 42.1601V39.8976C66.475 39.8201 66.49 39.7451 66.5202 39.6776C66.5503 39.6076 66.5905 39.5476 66.6432 39.4976C66.696 39.4476 66.7562 39.4076 66.8266 39.3751C66.8969 39.3451 66.9697 39.3301 67.0475 39.3301H68.9938C69.0189 39.3301 69.0415 39.3401 69.0591 39.3576C69.0766 39.3751 69.0867 39.3976 69.0867 39.4226V40.0626C69.0867 40.0876 69.0792 40.1101 69.0591 40.1276C69.039 40.1451 69.0189 40.1551 68.9938 40.1551H67.4267C67.4016 40.1551 67.379 40.1626 67.3615 40.1801Z" fill="#242425"/>
<path d="M71.8014 40.7626C71.8014 40.7626 71.7889 40.7826 71.7964 40.7976L72.939 42.6526C72.9516 42.6751 72.9541 42.6951 72.944 42.7076C72.934 42.7226 72.9164 42.7301 72.8913 42.7301H72.0827C72.0576 42.7301 72.0299 42.7226 72.0048 42.7076C71.9797 42.6926 71.9596 42.6751 71.9471 42.6526L71.2113 41.3276C71.2012 41.3126 71.1937 41.3101 71.1862 41.3226L70.7818 41.7651C70.7668 41.7826 70.7517 41.8051 70.7417 41.8351C70.7291 41.8651 70.7241 41.8951 70.7241 41.9201V42.6376C70.7241 42.7001 70.694 42.7301 70.6312 42.7301H69.9581C69.8954 42.7301 69.8652 42.7001 69.8652 42.6376V39.4226C69.8652 39.3601 69.8954 39.3301 69.9581 39.3301H70.6312C70.694 39.3301 70.7241 39.3601 70.7241 39.4226V40.8651L71.9822 39.3976C71.9973 39.3776 72.0199 39.3626 72.05 39.3501C72.0802 39.3376 72.1078 39.3301 72.1329 39.3301H72.9415C72.9666 39.3301 72.9817 39.3376 72.9867 39.3501C72.9918 39.3626 72.9867 39.3801 72.9692 39.3976L71.8039 40.7626H71.8014Z" fill="#242425"/>
<path d="M74.4301 42.6376C74.4301 42.7001 74.4 42.7301 74.3372 42.7301H73.6642C73.6014 42.7301 73.5713 42.7001 73.5713 42.6376V39.4226C73.5713 39.3601 73.6014 39.3301 73.6642 39.3301H74.3372C74.4 39.3301 74.4301 39.3601 74.4301 39.4226V42.6376Z" fill="#242425"/>
<path d="M77.7152 39.375C77.7855 39.405 77.8457 39.4475 77.896 39.4975C77.9462 39.5475 77.9864 39.6075 78.019 39.6775C78.0492 39.7475 78.0642 39.82 78.0642 39.8975V42.635C78.0642 42.66 78.0567 42.6825 78.0366 42.7C78.0165 42.7175 77.9964 42.7275 77.9713 42.7275H77.2933C77.2682 42.7275 77.2456 42.7175 77.2305 42.7C77.2154 42.6825 77.2054 42.66 77.2054 42.635V40.24C77.2054 40.215 77.1953 40.1925 77.1777 40.1775C77.1602 40.1625 77.1376 40.1525 77.1125 40.1525H76.1456C76.1205 40.1525 76.0979 40.16 76.0803 40.1775C76.0627 40.195 76.0527 40.215 76.0527 40.24V42.635C76.0527 42.6975 76.0226 42.7275 75.9598 42.7275H75.2868C75.224 42.7275 75.1938 42.6975 75.1938 42.635V39.42C75.1938 39.3575 75.224 39.3275 75.2868 39.3275H77.4917C77.5695 39.3275 77.6448 39.3425 77.7126 39.3725L77.7152 39.375Z" fill="#242425"/>
<path d="M81.6651 40.9001C81.6827 40.9176 81.6928 40.9401 81.6928 40.9651V42.1601C81.6928 42.2376 81.6777 42.3126 81.6476 42.3801C81.6174 42.4476 81.5772 42.5101 81.5245 42.5626C81.4743 42.6151 81.414 42.6551 81.3437 42.6851C81.2734 42.7151 81.2006 42.7276 81.1227 42.7276H79.395C79.3171 42.7276 79.2418 42.7126 79.174 42.6851C79.1036 42.6551 79.0434 42.6151 78.9906 42.5626C78.9379 42.5101 78.8977 42.4501 78.8676 42.3801C78.8375 42.3101 78.8224 42.2376 78.8224 42.1601V39.8976C78.8224 39.8201 78.8375 39.7451 78.8676 39.6776C78.8977 39.6101 78.9379 39.5476 78.9906 39.4976C79.0434 39.4476 79.1036 39.4076 79.174 39.3751C79.2443 39.3451 79.3171 39.3301 79.395 39.3301H81.409C81.4341 39.3301 81.4567 39.3401 81.4743 39.3576C81.4919 39.3751 81.5019 39.3976 81.5019 39.4226V40.0626C81.5019 40.0876 81.4919 40.1101 81.4743 40.1276C81.4567 40.1451 81.4341 40.1551 81.409 40.1551H79.7742C79.749 40.1551 79.7264 40.1626 79.7089 40.1801C79.6913 40.1976 79.6812 40.2176 79.6812 40.2426V41.8151C79.6812 41.8401 79.6913 41.8626 79.7089 41.8776C79.7264 41.8926 79.749 41.9026 79.7742 41.9026H80.741C80.7661 41.9026 80.7887 41.8951 80.8038 41.8776C80.8188 41.8601 80.8289 41.8401 80.8289 41.8151V40.9651C80.8289 40.9401 80.8364 40.9176 80.8565 40.9001C80.8766 40.8826 80.8967 40.8726 80.9218 40.8726H81.5998C81.625 40.8726 81.6476 40.8826 81.6651 40.9001Z" fill="#242425"/>
<path d="M37.628 15.9301C38.07 16.1251 38.4492 16.3801 38.7682 16.6951C39.0871 17.0126 39.3432 17.3901 39.5391 17.8276C39.735 18.2676 39.8329 18.7301 39.8329 19.2201V37.0526C39.8329 37.2151 39.7752 37.3551 39.6622 37.4651C39.5492 37.5751 39.411 37.6326 39.2453 37.6326H34.9611C34.7953 37.6326 34.6622 37.5776 34.5593 37.4651C34.4563 37.3526 34.4061 37.2151 34.4061 37.0526V20.8426H30.9531V37.0526C30.9531 37.2151 30.9004 37.3551 30.7999 37.4651C30.6969 37.5776 30.5638 37.6326 30.3981 37.6326H26.5132C26.3474 37.6326 26.2093 37.5776 26.0963 37.4651C25.9833 37.3526 25.9255 37.2151 25.9255 37.0526V20.8426H22.4726V37.0526C22.4726 37.4401 22.2767 37.6351 21.8874 37.6351H17.6333C17.2416 37.6351 17.0482 37.4401 17.0482 37.0526V16.2201C17.0482 15.8326 17.2441 15.6376 17.6333 15.6376H36.2217C36.7139 15.6376 37.181 15.7351 37.623 15.9276L37.628 15.9301Z" fill="#E73427"/>
<path d="M37.6283 15.9301C38.0703 16.1251 38.4495 16.3801 38.7684 16.6951C39.0874 17.0126 39.3435 17.3901 39.5394 17.8276C39.7353 18.2676 39.8332 18.7301 39.8332 19.2201V20.8101L34.4089 20.8426H22.4804L17.056 20.8101V16.2201C17.056 15.8326 17.2519 15.6376 17.6412 15.6376H36.2295C36.7218 15.6376 37.1888 15.7351 37.6308 15.9276L37.6283 15.9301Z" fill="#E73427"/>
<path d="M58.5145 32.2975C58.6878 32.2975 58.8309 32.355 58.9389 32.47C59.0469 32.585 59.1021 32.7275 59.1021 32.895V37.0425C59.1021 37.21 59.0469 37.3525 58.9389 37.4675C58.8309 37.5825 58.6878 37.64 58.5145 37.64H43.8387C43.4243 37.64 43.2184 37.44 43.2184 37.0425V16.2375C43.2184 15.84 43.4243 15.64 43.8387 15.64H48.3439C48.7582 15.64 48.9642 15.84 48.9642 16.2375V31.7325C48.9642 31.9 49.0244 32.0375 49.145 32.14C49.2655 32.245 49.4112 32.2975 49.587 32.2975H58.5145Z" fill="#1D539F"/>
<path d="M48.9184 37.64H43.8381C43.4263 37.64 43.2203 37.44 43.2203 37.0425V16.2375C43.2203 15.84 43.4263 15.64 43.8381 15.64H48.3333C48.7451 15.64 48.951 15.84 48.951 16.2375V31.7325C48.951 31.9 48.9184 37.64 48.9184 37.64Z" fill="#1D539F"/>
<path d="M81.0709 15.6401C81.2467 15.6401 81.3949 15.6976 81.5154 15.8126C81.636 15.9276 81.6962 16.0701 81.6962 16.2376V37.1026C81.6962 37.2701 81.636 37.4126 81.5154 37.5276C81.3949 37.6426 81.2467 37.7001 81.0709 37.7001H76.5054C76.3297 37.7001 76.1815 37.6426 76.061 37.5276C75.9404 37.4126 75.8801 37.2701 75.8801 37.1026V29.8226C75.8801 29.6551 75.8249 29.5176 75.7169 29.4126C75.6064 29.3076 75.4658 29.2551 75.29 29.2551H68.8863C68.7105 29.2551 68.5623 29.3076 68.4418 29.4126C68.3212 29.5176 68.261 29.6551 68.261 29.8226V37.1026C68.261 37.5026 68.0525 37.7026 67.6382 37.7026H63.1053C62.6885 37.7026 62.4825 37.5026 62.4825 37.1026V16.2376C62.4825 15.8376 62.691 15.6376 63.1053 15.6376H67.6382C68.0525 15.6376 68.261 15.8376 68.261 16.2376V23.2976C68.261 23.6976 68.4694 23.8976 68.8838 23.8976H75.2875C75.4633 23.8976 75.6039 23.8401 75.7144 23.7251C75.8249 23.6101 75.8776 23.4676 75.8776 23.3001V16.2401C75.8776 16.0726 75.9379 15.9301 76.0584 15.8151C76.179 15.7001 76.3272 15.6426 76.5029 15.6426H81.0684L81.0709 15.6401Z" fill="#F8B92A"/>
<path d="M68.2629 29.8226V37.1026C68.2629 37.5026 68.0545 37.7026 67.6401 37.7026H63.1073C62.6904 37.7026 62.4845 37.5026 62.4845 37.1026V16.2376C62.4845 15.8376 62.6929 15.6376 63.1073 15.6376H67.6401C68.0545 15.6376 68.2629 15.8376 68.2629 16.2376V29.8226Z" fill="#F8B92A"/>
<path d="M81.0703 15.64C81.2461 15.64 81.3943 15.6975 81.5148 15.8125C81.6353 15.9275 81.6956 16.07 81.6956 16.2375V37.1025C81.6956 37.27 81.6353 37.4125 81.5148 37.5275C81.3943 37.6425 81.2461 37.7 81.0703 37.7H76.5048C76.329 37.7 76.1809 37.6425 76.0603 37.5275C75.9398 37.4125 75.8795 37.27 75.8795 37.1025V16.2375C75.8795 16.07 75.9398 15.9275 76.0603 15.8125C76.1809 15.6975 76.329 15.64 76.5048 15.64H81.0703Z" fill="#F8B92A"/>
<path d="M19.5751 122.07V124.608C19.6328 124.893 19.8036 125.035 20.0899 125.035H29.708C29.8612 125.035 29.9843 125.088 30.0797 125.193C30.1751 125.298 30.2228 125.425 30.2228 125.578V129.025C30.2228 129.178 30.1751 129.305 30.0797 129.41C29.9843 129.515 29.8612 129.568 29.708 129.568H15.6223C15.2607 129.568 15.0774 129.388 15.0774 129.025V120.875C15.0774 120.42 15.1628 119.993 15.3361 119.593C15.5093 119.193 15.7454 118.843 16.0518 118.538C16.3581 118.233 16.7147 117.995 17.1266 117.825C17.5359 117.655 17.9704 117.568 18.4299 117.568H25.2154C25.3686 117.568 25.4966 117.515 25.6021 117.41C25.7076 117.305 25.7603 117.178 25.7603 117.025V114.718C25.7603 114.565 25.7076 114.438 25.6021 114.333C25.4966 114.228 25.3686 114.175 25.2154 114.175H16.225C16.0719 114.175 15.9488 114.128 15.8534 114.033C15.7579 113.938 15.7102 113.815 15.7102 113.663V110.158C15.7102 110.005 15.7579 109.878 15.8534 109.773C15.9488 109.668 16.0719 109.615 16.225 109.615H26.9029C27.36 109.615 27.7894 109.705 28.1912 109.885C28.593 110.065 28.9446 110.303 29.251 110.598C29.5548 110.893 29.7959 111.243 29.9667 111.653C30.1375 112.063 30.2253 112.493 30.2253 112.95V113.748C30.2429 113.768 30.253 113.795 30.253 113.833V121.1C30.253 121.253 30.2002 121.375 30.0948 121.47C29.9893 121.565 29.8612 121.613 29.708 121.613H20.0899C19.8212 121.613 19.6504 121.765 19.5751 122.068V122.07Z" fill="#122F4C"/>
<path d="M45.1973 109.618C45.6543 109.618 46.0888 109.708 46.5006 109.888C46.9099 110.068 47.264 110.305 47.5604 110.6C47.8567 110.895 48.0953 111.245 48.2761 111.655C48.4569 112.065 48.5473 112.495 48.5473 112.953V126.233C48.5473 126.688 48.4569 127.12 48.2761 127.53C48.0953 127.94 47.8567 128.295 47.5604 128.598C47.264 128.903 46.9125 129.14 46.5006 129.31C46.0888 129.48 45.6568 129.568 45.1973 129.568H36.5811C36.1241 129.568 35.6896 129.483 35.2778 129.31C34.8659 129.14 34.5093 128.903 34.2055 128.598C33.8991 128.295 33.6605 127.938 33.4897 127.53C33.319 127.123 33.2311 126.69 33.2311 126.233V112.953C33.2311 112.498 33.3165 112.065 33.4897 111.655C33.6605 111.248 33.8991 110.895 34.2055 110.6C34.5093 110.305 34.8684 110.068 35.2778 109.888C35.6871 109.708 36.1215 109.618 36.5811 109.618H45.1973ZM43.6805 114.463H38.0979V124.723H43.6805V114.463Z" fill="#122F4C"/>
<path d="M55.9609 122.07V124.608C56.0187 124.893 56.1895 125.035 56.4757 125.035H66.0939C66.2471 125.035 66.3701 125.088 66.4656 125.193C66.561 125.298 66.6087 125.425 66.6087 125.578V129.025C66.6087 129.178 66.561 129.305 66.4656 129.41C66.3701 129.515 66.2471 129.568 66.0939 129.568H52.0082C51.6466 129.568 51.4633 129.388 51.4633 129.025V120.875C51.4633 120.42 51.5486 119.993 51.7219 119.593C51.8927 119.193 52.1313 118.843 52.4376 118.538C52.744 118.233 53.1006 117.995 53.5099 117.825C53.9193 117.655 54.3537 117.568 54.8133 117.568H61.5987C61.7519 117.568 61.88 117.515 61.9855 117.41C62.0909 117.305 62.1437 117.178 62.1437 117.025V114.718C62.1437 114.565 62.0909 114.438 61.9855 114.333C61.88 114.228 61.7519 114.175 61.5987 114.175H52.6084C52.4552 114.175 52.3322 114.128 52.2367 114.033C52.1413 113.938 52.0936 113.815 52.0936 113.663V110.158C52.0936 110.005 52.1413 109.878 52.2367 109.773C52.3322 109.668 52.4552 109.615 52.6084 109.615H63.2863C63.7433 109.615 64.1728 109.705 64.5746 109.885C64.9764 110.065 65.328 110.303 65.6343 110.598C65.9407 110.893 66.1793 111.243 66.35 111.653C66.5208 112.063 66.6087 112.493 66.6087 112.95V113.748C66.6263 113.768 66.6363 113.795 66.6363 113.833V121.1C66.6363 121.253 66.5836 121.375 66.4781 121.47C66.3726 121.565 66.2446 121.613 66.0914 121.613H56.4732C56.2045 121.613 56.0338 121.765 55.9584 122.068L55.9609 122.07Z" fill="#122F4C"/>
<path d="M83.6297 109.773C83.7352 109.878 83.788 110.005 83.788 110.158V129.025C83.788 129.178 83.7352 129.305 83.6297 129.41C83.5243 129.515 83.3962 129.568 83.243 129.568H79.2627C79.1095 129.568 78.9864 129.515 78.891 129.41C78.7956 129.305 78.7478 129.178 78.7478 129.025V124.35C78.7478 124.198 78.6951 124.075 78.5896 123.98C78.4842 123.885 78.3561 123.838 78.2029 123.838H71.8193C71.3622 123.838 70.9278 123.748 70.5159 123.568C70.1066 123.388 69.7475 123.15 69.4436 122.855C69.1372 122.56 68.8987 122.21 68.7279 121.8C68.5571 121.393 68.4692 120.96 68.4692 120.503V110.158C68.4692 109.798 68.6501 109.615 69.0142 109.615H72.9644C73.326 109.615 73.5094 109.795 73.5094 110.158V118.28C73.5094 118.433 73.5621 118.56 73.6676 118.665C73.773 118.77 73.9011 118.823 74.0543 118.823H78.2054C78.3586 118.823 78.4867 118.77 78.5921 118.665C78.6976 118.56 78.7504 118.433 78.7504 118.28V110.158C78.7504 110.005 78.7981 109.878 78.8935 109.773C78.9889 109.668 79.112 109.615 79.2652 109.615H83.2455C83.3987 109.615 83.5268 109.668 83.6323 109.773H83.6297Z" fill="#122F4C"/>
</g>
<defs>
<clipPath id="clip0_126_938">
<rect width="98.64" height="172" fill="white"/>
</clipPath>
</defs>
</svg>
