<svg xmlns="http://www.w3.org/2000/svg" id="svg54" version="1.1" height="718.967" width="865.766"><defs id="defs7"><clipPath id="clip-path"><path id="path4" d="M171.69 296.243v327.892a26.052 26.052 0 0 0 7.63 18.422L294.323 757.56a26.053 26.053 0 0 0 18.422 7.63h223.683a26.053 26.053 0 0 0 26.052-26.052v-80.393a26.053 26.053 0 0 0-7.63-18.422L443.335 528.81a6.513 6.513 0 0 1 4.605-11.119h88.486a26.053 26.053 0 0 0 26.053-26.053v-80.393a26.053 26.053 0 0 0-7.63-18.422L439.846 277.821a26.052 26.052 0 0 0-18.422-7.631H197.742a26.053 26.053 0 0 0-26.052 26.053Z" style="fill:none"/></clipPath><style id="style2">.cls-3{fill:#ff9c4a}.cls-4{fill:#193787}.cls-5{fill:#44c6e6}</style></defs><g transform="translate(-171.561 -270.19)" id="H"><g id="g31"><g id="g23" clip-path="url('#clip-path')" style="clip-path:url(#clip-path)"><path id="polygon9" class="cls-3" d="M301.953 270.19v495L171.69 634.927V270.19z"/><path id="polygon11" class="cls-4" d="M432.216 517.69v-247.5l130.263 130.263V517.69z"/><path id="polygon13" class="cls-4" d="M432.216 765.19v-247.5l130.263 130.263V765.19z"/><path id="rect15" class="cls-5" d="M301.953 270.19h130.263v78.158H301.953z"/><path id="rect17" class="cls-4" d="M301.953 687.032h130.263v78.158H301.953z"/><path id="rect19" class="cls-5" d="M301.953 478.611h130.263v78.158H301.953z"/><path id="rect21" style="fill:#13358c" d="M432.216 478.611h26.053v78.158h-26.053z"/></g><path id="path25" d="M759.825 763.287 648.268 652.595a25.81 25.81 0 0 1-7.63-18.32V296.242a26.053 26.053 0 0 1 26.052-26.053h78.158a26.053 26.053 0 0 1 26.052 26.053v462.432a6.498 6.498 0 0 1-11.075 4.612z" class="cls-3"/><path id="path27" d="m912.282 272.15 111.514 111.514a26.053 26.053 0 0 1 7.63 18.422v337.051a26.053 26.053 0 0 1-26.052 26.053h-78.158a26.053 26.053 0 0 1-26.052-26.053V276.756a6.513 6.513 0 0 1 11.118-4.606z" class="cls-4"/><path id="rect29" class="cls-5" d="M770.9 478.611h130.263v78.158H770.9z"/></g><g id="g51"><path id="path33" d="M171.561 987.24V886.6h18.904v100.64zm16.184-46.375v-11.832h21.216q6.936 0 10.2-3.672 3.264-3.672 3.265-9.792 0-6.12-3.265-9.792-3.264-3.672-10.2-3.672h-21.216v-15.504h19.448q16.862 0 25.636 7.072 8.772 7.073 8.772 20.264v1.904q0 9.25-4.42 14.756a24.22 24.22 0 0 1-12.172 7.888 60.725 60.725 0 0 1-17.816 2.38zm0 46.376v-15.504h24.888q6.8 0 10.336-3.74 3.535-3.739 3.536-10.268 0-6.527-3.536-10.132-3.538-3.602-10.336-3.604h-24.888V932.16h23.528a60.971 60.971 0 0 1 17.748 2.38 24.058 24.058 0 0 1 12.24 7.956q4.418 5.578 4.42 14.96v1.904a27.756 27.756 0 0 1-3.875 15.028 24.78 24.78 0 0 1-11.56 9.52q-7.685 3.334-18.972 3.332z" class="cls-4"/><path id="path35" d="M283.76 986.561v-73.848h14.96v31.28h-.408q0-15.911 6.8-24.072 6.798-8.16 19.991-8.16h2.72v16.457h-5.168q-9.52 0-14.756 5.1-5.237 5.1-5.236 14.755v38.488z" class="cls-4"/><path id="path37" d="M353.798 926.857v-14.144h29.24v14.144zm17.272-22.984q-5.578 0-8.228-2.924a10.612 10.612 0 0 1-2.652-7.412 10.368 10.368 0 0 1 2.652-7.344q2.652-2.857 8.228-2.856 5.576.001 8.16 2.856a10.535 10.535 0 0 1 2.584 7.344 10.785 10.785 0 0 1-2.584 7.412q-2.584 2.926-8.16 2.923zm-6.936 82.688v-73.848h18.905v73.848z" class="cls-4"/><path id="path39" d="M457.702 989.145a39.144 39.144 0 0 1-16.66-3.264 34.37 34.37 0 0 1-11.696-8.704 36.57 36.57 0 0 1-7.004-12.24 42.764 42.764 0 0 1-2.312-13.872v-2.584a43.493 43.493 0 0 1 2.38-14.348 36.075 36.075 0 0 1 7.14-12.24 34.755 34.755 0 0 1 11.764-8.568 42.317 42.317 0 0 1 33.524.544 31.009 31.009 0 0 1 12.172 10.404 30.22 30.22 0 0 1 5.1 15.504h-18.36a14.913 14.913 0 0 0-4.828-9.52q-4.15-3.805-11.356-3.808a17.334 17.334 0 0 0-10.404 2.992 17.84 17.84 0 0 0-6.188 8.228 32.996 32.996 0 0 0-2.04 12.036 33.72 33.72 0 0 0 1.972 11.832 17.369 17.369 0 0 0 6.12 8.297q4.146 2.992 10.676 2.99a18.654 18.654 0 0 0 8.432-1.767 14.46 14.46 0 0 0 5.644-4.896 16.51 16.51 0 0 0 2.652-7.072h18.36a30.085 30.085 0 0 1-5.236 15.708 32.245 32.245 0 0 1-12.376 10.54 38.863 38.863 0 0 1-17.476 3.808z" class="cls-4"/><path id="path41" d="M528.013 986.561v-99.28h18.903v99.28zm51.68 0-24.753-34.544h-11.016l31.416-39.304h19.72l-28.967 36.312.407-9.52 34.544 47.056z" class="cls-4"/><path id="path43" d="M633.547 986.561v-99.28h19.312v99.28zm15.776-41.208v-17h52.904v17zm49.368 41.208v-99.28h19.312v99.28z" class="cls-4"/><path id="path45" d="M782.058 988.465a32.639 32.639 0 0 1-14.076-2.856 21.731 21.731 0 0 1-9.384-8.16 23.535 23.535 0 0 1-3.332-12.784q0-8.16 4.012-13.327a24.01 24.01 0 0 1 11.288-7.752 51.028 51.028 0 0 1 17.068-2.584h17.136v11.287h-17.408q-6.528 0-9.996 3.196a10.688 10.688 0 0 0-3.468 8.229 10.468 10.468 0 0 0 3.468 8.159q3.468 3.13 9.996 3.129a18.281 18.281 0 0 0 7.276-1.43 12.505 12.505 0 0 0 5.576-4.895q2.244-3.468 2.516-9.452l4.624 5.304a31.406 31.406 0 0 1-3.74 13.057 20.418 20.418 0 0 1-8.432 8.091 28.244 28.244 0 0 1-13.124 2.788zm23.8-1.904v-21.897h-3.128v-24.343q0-6.391-3.128-9.52-3.13-3.128-9.656-3.128-3.401 0-8.16.136-4.762.137-9.588.34-4.83.203-8.636.476v-16.048q3.127-.271 7.072-.544 3.943-.271 8.092-.34 4.147-.068 7.82-.068 11.425 0 18.972 2.992A22.66 22.66 0 0 1 816.942 924q3.877 6.394 3.877 16.728v45.832z" class="cls-4"/><path id="path47" d="M893.986 989.145a39.144 39.144 0 0 1-16.66-3.264 34.37 34.37 0 0 1-11.696-8.704 36.57 36.57 0 0 1-7.004-12.24 42.764 42.764 0 0 1-2.312-13.872v-2.584a43.493 43.493 0 0 1 2.38-14.348 36.075 36.075 0 0 1 7.14-12.24 34.755 34.755 0 0 1 11.764-8.568 42.317 42.317 0 0 1 33.524.544 31.009 31.009 0 0 1 12.172 10.404 30.222 30.222 0 0 1 5.1 15.504h-18.36a14.913 14.913 0 0 0-4.828-9.52q-4.15-3.805-11.356-3.808a17.334 17.334 0 0 0-10.404 2.992 17.84 17.84 0 0 0-6.188 8.229 32.996 32.996 0 0 0-2.04 12.035 33.72 33.72 0 0 0 1.972 11.832 17.368 17.368 0 0 0 6.12 8.297q4.146 2.993 10.676 2.991a18.654 18.654 0 0 0 8.432-1.767 14.459 14.459 0 0 0 5.644-4.897 16.509 16.509 0 0 0 2.652-7.071h18.36a30.085 30.085 0 0 1-5.236 15.708 32.245 32.245 0 0 1-12.376 10.54 38.863 38.863 0 0 1-17.476 3.807z" class="cls-4"/><path id="path49" d="M964.296 986.561v-99.28H983.2v99.28zm51.68 0-24.752-34.544h-11.017l31.416-39.304h19.72l-28.967 36.312.407-9.52 34.544 47.056z" class="cls-4"/></g></g></svg>