<svg width="244" height="149" viewBox="0 0 244 149" fill="none" xmlns="http://www.w3.org/2000/svg">
<rect x="56.0262" width="187.807" height="130.422" rx="3.54353" fill="#44C6E6"/>
<rect x="64.281" y="8.89679" width="172.435" height="114.276" rx="1.18118" fill="white"/>
<g clip-path="url(#clip0_126_1108)">
<path d="M112.016 46.6219C112.016 43.4173 114.614 40.8194 117.819 40.8194L172.943 40.8194C176.147 40.8194 178.745 43.4173 178.745 46.6219L178.745 127.857L112.016 127.857L112.016 46.6219Z" fill="#FF9C4A"/>
<path d="M128.7 68.3821L128.7 76.3606" stroke="#193787" stroke-width="8.70376" stroke-linecap="round"/>
<path d="M159.261 68.4926L159.261 76.471" stroke="#193787" stroke-width="8.70376" stroke-linecap="round"/>
<path d="M147.326 88.9061C147.326 91.4364 145.843 93.4877 144.013 93.4877C142.184 93.4877 140.7 91.4364 140.7 88.9061C140.7 86.3758 142.184 84.3246 144.013 84.3246C145.843 84.3246 147.326 86.3758 147.326 88.9061Z" fill="#193787"/>
<path d="M178.974 120.79L181.778 120.914" stroke="#193787" stroke-width="8.70376" stroke-linecap="round"/>
<path d="M110.128 120.79L112.932 120.914" stroke="#193787" stroke-width="8.70376" stroke-linecap="round"/>
<path d="M142.738 27.7796C142.738 27.1796 142.828 26.6396 143.008 26.1596C143.208 25.6796 143.448 25.2496 143.728 24.8696C144.028 24.4896 144.338 24.1496 144.658 23.8496C144.998 23.5296 145.308 23.2296 145.588 22.9496C145.888 22.6696 146.128 22.3896 146.308 22.1096C146.508 21.8296 146.608 21.5396 146.608 21.2396C146.608 20.7796 146.408 20.4296 146.008 20.1896C145.628 19.9496 145.158 19.8296 144.598 19.8296C143.958 19.8296 143.358 20.0096 142.798 20.3696C142.238 20.7296 141.798 21.2296 141.478 21.8696L136.138 19.1996C136.898 17.7596 138.048 16.5896 139.588 15.6896C141.128 14.7896 143.098 14.3396 145.498 14.3396C147.078 14.3396 148.478 14.5596 149.698 14.9996C150.938 15.4196 151.918 16.0596 152.638 16.9196C153.358 17.7596 153.718 18.8096 153.718 20.0696C153.718 20.8296 153.598 21.4996 153.358 22.0796C153.138 22.6596 152.838 23.1696 152.458 23.6096C152.098 24.0296 151.718 24.4196 151.318 24.7796C150.918 25.1396 150.528 25.4796 150.148 25.7996C149.788 26.0996 149.488 26.4096 149.248 26.7296C149.028 27.0496 148.918 27.3996 148.918 27.7796H142.738ZM145.828 36.1196C144.668 36.1196 143.718 35.7696 142.978 35.0696C142.238 34.3496 141.868 33.4996 141.868 32.5196C141.868 31.5196 142.238 30.6796 142.978 29.9996C143.718 29.3196 144.668 28.9796 145.828 28.9796C147.008 28.9796 147.958 29.3196 148.678 29.9996C149.418 30.6796 149.788 31.5196 149.788 32.5196C149.788 33.4996 149.418 34.3496 148.678 35.0696C147.958 35.7696 147.008 36.1196 145.828 36.1196Z" fill="#193787"/>
</g>
<path d="M15.6111 141.894L57.9934 123.467C58.4388 123.273 58.9194 123.174 59.4051 123.174H240.317C242.273 123.174 243.858 124.759 243.858 126.714V136.552C243.858 137.461 243.508 138.335 242.881 138.994L234.701 147.583C234.033 148.285 233.106 148.682 232.137 148.682H17.0228C13.1829 148.682 12.0897 143.425 15.6111 141.894Z" fill="#44C6E6"/>
<defs>
<clipPath id="clip0_126_1108">
<rect width="171.415" height="114.276" fill="white" transform="translate(64.281 8.89679)"/>
</clipPath>
</defs>
</svg>
