<svg width="946" height="476" viewBox="0 0 946 476" fill="none" xmlns="http://www.w3.org/2000/svg">
<mask id="mask0_429_257" style="mask-type:alpha" maskUnits="userSpaceOnUse" x="0" y="0" width="947" height="476">
<rect width="946" height="476" transform="matrix(1 0 0 -1 0.00146484 476)" fill="#C4C4C4"/>
</mask>
<g mask="url(#mask0_429_257)">
<rect x="550" y="199" width="163" height="316" rx="15.4992" fill="#1447C8"/>
<rect x="224" y="166" width="163" height="354" rx="15.4992" fill="#6AC5E3"/>
<path d="M170.021 55.1777L167.45 64.7626C166.919 66.7409 164.863 67.8942 162.898 67.3162L157.907 65.8481C155.771 65.2201 154.692 62.8422 155.625 60.8212L160.576 50.0929C161.639 47.7892 164.672 47.2483 166.466 49.0425L169.078 51.654C169.999 52.5756 170.359 53.9189 170.021 55.1777Z" fill="#FE9C4A"/>
<path d="M114.165 215.216L106.246 213.208C104.944 212.878 103.566 213.291 102.66 214.281L98.0588 219.309C96.4819 221.033 96.9091 223.774 98.9358 224.935L107.317 229.739C109.106 230.765 111.39 230.104 112.354 228.28L116.493 220.456C117.598 218.368 116.456 215.796 114.165 215.216Z" fill="#6AC5E3"/>
<path d="M3.59845 292.666L11.4683 297.459C13.2744 298.559 15.6342 297.897 16.605 296.018L18.9293 291.521C19.9241 289.595 19.0308 287.233 17.0112 286.447L6.81705 282.483C4.42639 281.553 1.84839 283.317 1.84839 285.882V289.552C1.84839 290.824 2.51164 292.005 3.59845 292.666Z" fill="#1447C8"/>
<path d="M15.7917 165.347L25.077 179.14C26.1985 180.806 25.7619 183.066 24.1005 184.194L18.5903 187.936C16.6218 189.273 13.921 188.397 13.112 186.159L6.77213 168.624C5.91261 166.246 7.67378 163.737 10.2017 163.737H12.7665C13.98 163.737 15.1141 164.34 15.7917 165.347Z" fill="#FE9C4A"/>
<path d="M82.6026 69.0229H92.8624C95.4131 69.0229 97.1758 71.5743 96.2734 73.96L93.6584 80.8734C93.122 82.2917 91.7638 83.23 90.2474 83.23H78.9417C76.1933 83.23 74.4326 80.3053 75.7188 77.8765L79.3798 70.9631C80.0119 69.7695 81.2519 69.0229 82.6026 69.0229Z" fill="#6AC5E3"/>
<path d="M245.356 33.7384L252.129 37.7224C253.305 38.4144 253.996 39.7054 253.921 41.0681L253.549 47.7671C253.421 50.0683 251.217 51.6754 248.987 51.0936L239.938 48.733C237.916 48.2055 236.75 46.09 237.383 44.0985L240.031 35.776C240.741 33.5456 243.338 32.5517 245.356 33.7384Z" fill="#1447C8"/>
<path d="M79.479 136.368L88.4754 141.425C90.2333 142.413 92.4596 141.787 93.4446 140.027L96.0364 135.398C97.1376 133.431 96.2082 130.945 94.0864 130.184L82.4982 126.024C80.1222 125.171 77.6191 126.932 77.6191 129.456V133.189C77.6191 134.507 78.3302 135.722 79.479 136.368Z" fill="#1447C8"/>
<path d="M23.0126 43.9072L20.441 53.492C19.9103 55.4704 17.8548 56.6237 15.8897 56.0457L10.8982 54.5776C8.76284 53.9496 7.68329 51.5717 8.61606 49.5507L13.5676 38.8224C14.6309 36.5186 17.6633 35.9778 19.4575 37.772L22.069 40.3835C22.9906 41.305 23.3503 42.6484 23.0126 43.9072Z" fill="#6AC5E3"/>
<path d="M152.873 133.5L136.423 134.452C134.45 134.566 132.745 133.087 132.578 131.118L132.042 124.762C131.839 122.363 133.977 120.429 136.344 120.871L154.497 124.255C156.97 124.716 158.245 127.484 156.987 129.663L155.821 131.683C155.207 132.746 154.099 133.429 152.873 133.5Z" fill="#FE9C4A"/>
<path d="M370.889 99.0654L380.476 96.5C382.455 95.9705 384.481 97.174 384.963 99.1647L386.187 104.222C386.711 106.385 385.192 108.509 382.975 108.711L371.208 109.787C368.682 110.018 366.697 107.663 367.354 105.212L368.31 101.644C368.647 100.386 369.63 99.4023 370.889 99.0654Z" fill="#FE9C4A"/>
<path d="M544.519 78.745L546.74 86.607C547.106 87.8995 548.152 88.8867 549.463 89.1765L556.118 90.647C558.399 91.1511 560.559 89.4106 560.551 87.0746L560.521 77.4145C560.515 75.352 558.801 73.7052 556.739 73.7815L547.894 74.1092C545.533 74.1966 543.877 76.4715 544.519 78.745Z" fill="#6AC5E3"/>
<path d="M666.877 135.774L667.093 126.562C667.142 124.448 665.389 122.735 663.277 122.834L658.219 123.07C656.055 123.171 654.455 125.126 654.785 127.267L656.449 138.078C656.839 140.613 659.655 141.964 661.877 140.682L665.055 138.847C666.157 138.21 666.847 137.046 666.877 135.774Z" fill="#1447C8"/>
<path d="M586.051 120.411L593.354 105.473C594.236 103.668 596.411 102.917 598.219 103.792L604.214 106.693C606.356 107.729 606.948 110.506 605.415 112.326L593.399 126.584C591.77 128.517 588.716 128.246 587.452 126.057L586.169 123.836C585.563 122.785 585.518 121.501 586.051 120.411Z" fill="#FE9C4A"/>
<path d="M428.769 147.56L423.639 138.675C422.364 136.466 423.692 133.664 426.209 133.252L433.504 132.06C435.001 131.816 436.492 132.523 437.25 133.836L442.903 143.627C444.277 146.007 442.625 148.994 439.878 149.095L432.061 149.381C430.711 149.43 429.444 148.73 428.769 147.56Z" fill="#6AC5E3"/>
<path d="M321.76 55.8699L321.824 48.0123C321.835 46.6475 322.607 45.4032 323.825 44.7874L329.813 41.7602C331.87 40.7203 334.364 41.8254 334.975 44.0476L337.455 53.0644C338.009 55.0794 336.76 57.1471 334.719 57.594L326.187 59.462C323.901 59.9626 321.741 58.2104 321.76 55.8699Z" fill="#1447C8"/>
<path d="M508.806 140.585L508.687 130.266C508.664 128.249 507.009 126.634 504.992 126.661L499.687 126.731C497.433 126.761 495.745 128.809 496.146 131.027L498.338 143.143C498.787 145.627 501.564 146.914 503.75 145.652L506.983 143.785C508.124 143.127 508.821 141.903 508.806 140.585Z" fill="#1447C8"/>
<path d="M441.738 243.34L451.325 240.774C453.304 240.245 455.33 241.448 455.812 243.439L457.037 248.496C457.56 250.659 456.041 252.783 453.824 252.986L442.057 254.062C439.531 254.293 437.546 251.937 438.203 249.486L439.159 245.919C439.496 244.66 440.479 243.677 441.738 243.34Z" fill="#6AC5E3"/>
<path d="M456.534 71.6441L465.583 85.4144C466.669 87.0663 466.241 89.2822 464.618 90.411L459.383 94.0532C457.406 95.4283 454.663 94.544 453.861 92.2732L447.715 74.8606C446.878 72.4879 448.638 70 451.154 70L453.487 70C454.714 70 455.86 70.6179 456.534 71.6441Z" fill="#FE9C4A"/>
<path d="M734.744 55.1777L737.315 64.7626C737.846 66.7409 739.901 67.8942 741.866 67.3162L746.858 65.8481C748.993 65.2201 750.073 62.8422 749.14 60.8212L744.189 50.0929C743.125 47.7892 740.093 47.2483 738.299 49.0425L735.687 51.654C734.766 52.5756 734.406 53.9189 734.744 55.1777Z" fill="#FE9C4A"/>
<path d="M790.599 215.216L798.518 213.208C799.82 212.878 801.198 213.291 802.105 214.281L806.706 219.309C808.283 221.033 807.856 223.774 805.829 224.935L797.448 229.739C795.658 230.765 793.375 230.104 792.411 228.28L788.272 220.456C787.167 218.368 788.309 215.796 790.599 215.216Z" fill="#6AC5E3"/>
<path d="M901.166 292.666L893.296 297.459C891.49 298.559 889.13 297.897 888.16 296.018L885.835 291.521C884.841 289.595 885.734 287.233 887.753 286.447L897.948 282.483C900.338 281.553 902.916 283.317 902.916 285.882V289.552C902.916 290.824 902.253 292.005 901.166 292.666Z" fill="#1447C8"/>
<path d="M888.973 165.347L879.688 179.14C878.566 180.806 879.003 183.066 880.664 184.194L886.174 187.936C888.143 189.273 890.844 188.397 891.653 186.159L897.993 168.624C898.852 166.246 897.091 163.737 894.563 163.737H891.998C890.785 163.737 889.651 164.34 888.973 165.347Z" fill="#FE9C4A"/>
<path d="M822.162 69.0229H811.902C809.352 69.0229 807.589 71.5743 808.491 73.96L811.106 80.8734C811.643 82.2917 813.001 83.23 814.517 83.23H825.823C828.571 83.23 830.332 80.3053 829.046 77.8765L825.385 70.9631C824.753 69.7695 823.513 69.0229 822.162 69.0229Z" fill="#6AC5E3"/>
<path d="M659.409 33.7384L652.636 37.7224C651.46 38.4144 650.768 39.7054 650.844 41.0681L651.216 47.7671C651.344 50.0683 653.548 51.6754 655.778 51.0936L664.827 48.733C666.849 48.2055 668.015 46.09 667.381 44.0985L664.733 35.776C664.024 33.5456 661.426 32.5517 659.409 33.7384Z" fill="#1447C8"/>
<path d="M825.286 136.368L816.289 141.425C814.531 142.413 812.305 141.787 811.32 140.027L808.728 135.398C807.627 133.431 808.556 130.945 810.678 130.184L822.266 126.024C824.642 125.171 827.146 126.932 827.146 129.456V133.189C827.146 134.507 826.434 135.722 825.286 136.368Z" fill="#1447C8"/>
<path d="M881.752 43.9072L884.324 53.492C884.854 55.4704 886.91 56.6237 888.875 56.0457L893.866 54.5776C896.002 53.9496 897.081 51.5717 896.149 49.5507L891.197 38.8224C890.134 36.5186 887.101 35.9778 885.307 37.772L882.696 40.3835C881.774 41.305 881.414 42.6484 881.752 43.9072Z" fill="#6AC5E3"/>
<path d="M751.892 133.5L768.342 134.452C770.315 134.566 772.02 133.087 772.186 131.118L772.723 124.762C772.925 122.363 770.788 120.429 768.42 120.871L750.268 124.255C747.794 124.716 746.52 127.484 747.778 129.663L748.944 131.683C749.558 132.746 750.666 133.429 751.892 133.5Z" fill="#FE9C4A"/>
<path d="M621.106 267.377C619.942 263.033 622.393 258.483 626.592 257.195L639.19 253.329C643.389 252.04 647.72 254.508 648.884 258.851C650.048 263.195 647.597 267.745 643.398 269.033L630.8 272.899C626.601 274.188 622.269 271.72 621.106 267.377Z" fill="#081646"/>
<path d="M636.384 263.216L562.781 379.638" stroke="#081646" stroke-width="6" stroke-miterlimit="10"/>
<path d="M320.884 267.377C322.048 263.033 319.597 258.483 315.398 257.195L302.8 253.329C298.601 252.04 294.269 254.508 293.105 258.851C291.941 263.195 294.393 267.745 298.592 269.033L311.189 272.899C315.389 274.188 319.72 271.72 320.884 267.377Z" fill="#081646"/>
<path d="M304.596 263.218L378.199 379.64" stroke="#081646" stroke-width="6" stroke-miterlimit="10"/>
<path d="M576.002 501H366.002V265.927C366.002 251.628 375.812 240 387.877 240H554.127C566.191 240 576.002 251.628 576.002 265.927V501Z" fill="#FE9C4A"/>
<path d="M426.389 372.706C419.364 372.706 413.664 366.755 413.664 359.421V336.174C413.664 328.839 419.364 322.889 426.389 322.889C433.415 322.889 439.115 328.839 439.115 336.174V359.421C439.115 366.755 433.415 372.706 426.389 372.706Z" fill="#081646"/>
<path d="M514.408 372.706C507.382 372.706 501.682 366.756 501.682 359.422V336.174C501.682 328.84 507.382 322.89 514.408 322.89C521.433 322.89 527.133 328.84 527.133 336.174V359.422C527.133 366.756 521.433 372.706 514.408 372.706Z" fill="#081646"/>
<path d="M471.061 402.597C461.65 402.597 454.094 394.71 454.094 384.885V380.872H488.028V384.885C488.028 394.71 480.473 402.597 471.061 402.597Z" fill="#081646"/>
<circle cx="513.63" cy="334.743" r="7.74375" fill="white"/>
<circle cx="427.745" cy="334.743" r="7.74375" fill="white"/>
<circle cx="510.113" cy="347.111" r="2.11193" fill="white"/>
<circle cx="430.113" cy="347.111" r="2.11193" fill="white"/>
<ellipse cx="520.817" cy="346.519" rx="2.81591" ry="3.51989" fill="white"/>
<ellipse cx="419.817" cy="346.519" rx="2.81591" ry="3.51989" fill="white"/>
<path d="M804.479 447.754V623.738" stroke="#1447C8" stroke-width="5.28309"/>
<rect x="773.871" y="344.277" width="61.2119" height="95.4614" rx="30.6059" fill="#1447C8"/>
<path d="M804.296 439.738C799.769 439.738 796.098 443.409 796.098 447.936H812.494C812.494 443.409 808.824 439.738 804.296 439.738Z" fill="#1447C8"/>
<path d="M747.04 438.943V614.928" stroke="#FE9C4A" stroke-width="5.28309"/>
<rect x="716.433" y="336.924" width="61.2119" height="95.4614" rx="30.6059" fill="#FE9C4A"/>
<path d="M746.856 432.386C742.328 432.386 738.658 436.056 738.658 440.584H755.054C755.054 436.056 751.384 432.386 746.856 432.386Z" fill="#FE9C4A"/>
<rect x="801.328" y="384.654" width="61.2119" height="95.4614" rx="30.6059" fill="#FE9C4A"/>
<path d="M853.321 419.038V595.022" stroke="#6AC5E3" stroke-width="5.28309"/>
<rect x="823.107" y="316.014" width="61.2119" height="95.4614" rx="30.6059" fill="#6AC5E3"/>
<rect x="747.04" y="400.321" width="61.2119" height="95.4614" rx="30.6059" fill="#6AC5E3"/>
<path d="M853.328 410.832C848.8 410.832 845.13 414.502 845.13 419.03H861.526C861.526 414.502 857.856 410.832 853.328 410.832Z" fill="#6AC5E3"/>
<path d="M127.985 447.754V623.738" stroke="#1447C8" stroke-width="5.28309"/>
<rect width="61.2119" height="95.4614" rx="30.6059" transform="matrix(-1 0 0 1 158.592 344.277)" fill="#1447C8"/>
<path d="M128.167 439.738C132.695 439.738 136.365 443.409 136.365 447.936H119.969C119.969 443.409 123.64 439.738 128.167 439.738Z" fill="#1447C8"/>
<path d="M185.423 438.943V614.928" stroke="#FE9C4A" stroke-width="5.28309"/>
<rect width="61.2119" height="95.4614" rx="30.6059" transform="matrix(-1 0 0 1 216.031 336.924)" fill="#FE9C4A"/>
<path d="M185.608 432.386C190.135 432.386 193.806 436.056 193.806 440.584H177.41C177.41 436.056 181.08 432.386 185.608 432.386Z" fill="#FE9C4A"/>
<rect width="61.2119" height="95.4614" rx="30.6059" transform="matrix(-1 0 0 1 131.135 384.654)" fill="#FE9C4A"/>
<path d="M79.1428 419.038V595.022" stroke="#6AC5E3" stroke-width="5.28309"/>
<rect width="61.2119" height="95.4614" rx="30.6059" transform="matrix(-1 0 0 1 109.356 316.014)" fill="#6AC5E3"/>
<rect width="61.2119" height="95.4614" rx="30.6059" transform="matrix(-1 0 0 1 185.423 400.321)" fill="#6AC5E3"/>
<path d="M79.1357 410.832C83.6634 410.832 87.3337 414.502 87.3337 419.03H70.9377C70.9377 414.502 74.6081 410.832 79.1357 410.832Z" fill="#6AC5E3"/>
</g>
</svg>
