<svg width="57" height="57" viewBox="0 0 57 57" fill="none" xmlns="http://www.w3.org/2000/svg">
<path d="M24.3498 1.50126C24.66 0.309182 26.2858 0.146323 26.8263 1.25318L35.3681 18.746C35.5381 19.094 35.8515 19.3503 36.2263 19.4479L55.0659 24.3502C56.258 24.6603 56.4208 26.2861 55.314 26.8266L37.8212 35.3685C37.4732 35.5384 37.2168 35.8519 37.1193 36.2267L32.217 55.0662C31.9068 56.2583 30.281 56.4212 29.7405 55.3143L21.1986 37.8215C21.0287 37.4736 20.7152 37.2172 20.3404 37.1196L1.50089 32.2174C0.308816 31.9072 0.145957 30.2814 1.25282 29.7409L18.7456 21.199C19.0936 21.0291 19.35 20.7156 19.4475 20.3408L24.3498 1.50126Z" fill="#44C6E6"/>
</svg>
