<svg width="112" height="112" viewBox="0 0 112 112" fill="none" xmlns="http://www.w3.org/2000/svg">
<path d="M53.9532 2.07382C54.8028 -0.22211 58.0501 -0.222111 58.8997 2.07381L72.3263 38.3586C72.5934 39.0804 73.1625 39.6496 73.8843 39.9167L110.169 53.3432C112.465 54.1928 112.465 57.4401 110.169 58.2897L73.8843 71.7163C73.1625 71.9834 72.5934 72.5525 72.3263 73.2743L58.8997 109.559C58.0501 111.855 54.8028 111.855 53.9532 109.559L40.5266 73.2743C40.2595 72.5525 39.6904 71.9834 38.9686 71.7163L2.6838 58.2897C0.387876 57.4401 0.387874 54.1928 2.6838 53.3432L38.9686 39.9167C39.6904 39.6496 40.2595 39.0804 40.5266 38.3586L53.9532 2.07382Z" fill="#44C6E6"/>
</svg>
