<svg width="151" height="152" viewBox="0 0 151 152" fill="none" xmlns="http://www.w3.org/2000/svg">
<path opacity="0.5" d="M72.1082 4.82854C73.2304 1.79589 77.5198 1.79588 78.6419 4.82854L96.3769 52.7566C96.7297 53.7101 97.4815 54.4618 98.4349 54.8146L146.363 72.5496C149.396 73.6718 149.396 77.9612 146.363 79.0833L98.4349 96.8183C97.4815 97.1712 96.7297 97.9229 96.3769 98.8764L78.6419 146.804C77.5198 149.837 73.2304 149.837 72.1082 146.804L54.3732 98.8764C54.0204 97.9229 53.2687 97.1712 52.3152 96.8183L4.38714 79.0833C1.35448 77.9612 1.35447 73.6718 4.38713 72.5496L52.3152 54.8146C53.2687 54.4618 54.0204 53.7101 54.3732 52.7566L72.1082 4.82854Z" stroke="url(#paint0_linear_1_31)" stroke-width="4"/>
<defs>
<linearGradient id="paint0_linear_1_31" x1="-4.44141" y1="32.7297" x2="129.429" y2="92.2828" gradientUnits="userSpaceOnUse">
<stop offset="0.0520833" stop-color="#7BF0A7"/>
<stop offset="0.307292" stop-color="#44D5D2"/>
<stop offset="0.609375" stop-color="#A380E6"/>
<stop offset="0.916667" stop-color="#FE9C4A"/>
</linearGradient>
</defs>
</svg>
