<svg width="140" height="137" viewBox="0 0 140 137" fill="none" xmlns="http://www.w3.org/2000/svg">
<path opacity="0.5" d="M66.631 5.36498C67.517 1.85837 72.4992 1.85837 73.3853 5.36498L82.2152 40.3088C82.7471 42.4135 85.0537 43.5243 87.0309 42.6278L119.856 27.7443C123.15 26.2507 126.257 30.1459 124.068 33.025L102.253 61.7156C100.939 63.4437 101.509 65.9397 103.442 66.9266L135.545 83.3108C138.767 84.955 137.658 89.8123 134.042 89.8959L98.0096 90.7287C95.8392 90.7788 94.243 92.7804 94.6771 94.9075L101.883 130.222C102.606 133.766 98.1174 135.927 95.7976 133.153L72.6806 105.5C71.2882 103.835 68.7281 103.835 67.3357 105.5L44.2187 133.153C41.8989 135.927 37.41 133.766 38.1332 130.222L45.3392 94.9075C45.7733 92.7804 44.177 90.7788 42.0067 90.7287L5.97421 89.8959C2.35834 89.8123 1.2497 84.955 4.47122 83.3108L36.574 66.9266C38.5077 65.9397 39.0774 63.4437 37.7634 61.7156L15.9486 33.025C13.7595 30.1459 16.8659 26.2507 20.1599 27.7443L52.9854 42.6278C54.9626 43.5243 57.2692 42.4135 57.801 40.3088L66.631 5.36498Z" stroke="url(#paint0_linear_1_30)" stroke-width="4"/>
<defs>
<linearGradient id="paint0_linear_1_30" x1="-9.80835" y1="28.7297" x2="124.062" y2="88.2828" gradientUnits="userSpaceOnUse">
<stop offset="0.0520833" stop-color="#7BF0A7"/>
<stop offset="0.307292" stop-color="#44D5D2"/>
<stop offset="0.609375" stop-color="#A380E6"/>
<stop offset="0.916667" stop-color="#FE9C4A"/>
</linearGradient>
</defs>
</svg>
