<svg width="112" height="112" viewBox="0 0 112 112" fill="none" xmlns="http://www.w3.org/2000/svg">
<path d="M53.8061 2.07382C54.6557 -0.22211 57.903 -0.222111 58.7526 2.07381L72.1792 38.3586C72.4463 39.0804 73.0154 39.6496 73.7372 39.9167L110.022 53.3432C112.318 54.1928 112.318 57.4401 110.022 58.2897L73.7372 71.7163C73.0154 71.9834 72.4463 72.5525 72.1792 73.2743L58.7526 109.559C57.903 111.855 54.6557 111.855 53.8061 109.559L40.3795 73.2743C40.1124 72.5525 39.5433 71.9834 38.8215 71.7163L2.53671 58.2897C0.240781 57.4401 0.24078 54.1928 2.5367 53.3432L38.8215 39.9167C39.5433 39.6496 40.1124 39.0804 40.3795 38.3586L53.8061 2.07382Z" fill="#FE9C4A"/>
</svg>
