<svg width="70" height="71" viewBox="0 0 70 71" fill="none" xmlns="http://www.w3.org/2000/svg">
<path d="M44.1864 1.06624C45.1063 -0.573647 47.6069 0.101494 47.5764 1.98153L47.2728 20.7163C47.2545 21.8447 48.2617 22.7148 49.3755 22.5328L67.8674 19.511C69.7231 19.2077 70.7543 21.5837 69.2655 22.7321L54.4288 34.1756C53.5351 34.8649 53.4828 36.1948 54.3196 36.9522L68.2117 49.5257C69.6057 50.7874 68.3911 53.0751 66.565 52.627L48.3675 48.1622C47.2714 47.8933 46.199 48.6816 46.1286 49.8079L44.9598 68.5087C44.8425 70.3853 42.2967 70.8619 41.5084 69.1549L33.6532 52.1437C33.1801 51.1191 31.8951 50.7722 30.9706 51.4194L15.6211 62.1653C14.0807 63.2437 12.1208 61.5505 12.9639 59.8698L21.3661 43.1221C21.8722 42.1134 21.3423 40.8925 20.2598 40.5732L2.28805 35.2724C0.484583 34.7404 0.586371 32.1523 2.42605 31.7637L20.7586 27.8908C21.8628 27.6575 22.487 26.482 22.0617 25.4366L15.0008 8.08072C14.2923 6.33906 16.3792 4.80499 17.83 6.00098L32.2882 17.9192C33.159 18.6371 34.4673 18.3922 35.0194 17.4079L44.1864 1.06624Z" fill="#FE9C4A"/>
</svg>
