<svg width="112" height="112" viewBox="0 0 112 112" fill="none" xmlns="http://www.w3.org/2000/svg">
<path d="M53.659 2.07382C54.5086 -0.22211 57.7559 -0.222111 58.6055 2.07381L72.0321 38.3586C72.2992 39.0804 72.8683 39.6496 73.5901 39.9167L109.875 53.3432C112.171 54.1928 112.171 57.4401 109.875 58.2897L73.5901 71.7163C72.8683 71.9834 72.2992 72.5525 72.0321 73.2743L58.6055 109.559C57.7559 111.855 54.5086 111.855 53.659 109.559L40.2324 73.2743C39.9653 72.5525 39.3962 71.9834 38.6744 71.7163L2.38961 58.2897C0.0936862 57.4401 0.0936849 54.1928 2.38961 53.3432L38.6744 39.9167C39.3962 39.6496 39.9653 39.0804 40.2324 38.3586L53.659 2.07382Z" fill="#A380E5"/>
</svg>
