<svg width="638" height="458" viewBox="0 0 638 458" fill="none" xmlns="http://www.w3.org/2000/svg">
<rect x="135.855" y="46" width="455.406" height="316.254" rx="7.80322" fill="#44C6E6"/>
<rect x="155.87" y="67.5737" width="418.131" height="277.104" rx="2.60107" fill="white"/>
<path d="M25.0455 412.461L140.448 345.467C141.637 344.777 142.988 344.413 144.362 344.413H583.524C587.83 344.413 591.321 347.904 591.321 352.21V389.818C591.321 391.441 590.814 393.024 589.872 394.345L568.911 423.731C567.448 425.782 565.084 427 562.564 427H28.9598C20.9929 427 18.1554 416.461 25.0455 412.461Z" fill="#44C6E6"/>
<path d="M171.416 2.19892C173.367 -1.27942 178.671 0.152619 178.607 4.14033L177.963 43.8783C177.924 46.2718 180.06 48.1173 182.423 47.7313L221.646 41.3218C225.582 40.6786 227.769 45.7182 224.611 48.154L193.141 72.4268C191.246 73.8888 191.135 76.7097 192.909 78.316L222.376 104.985C225.333 107.662 222.756 112.514 218.883 111.564L180.285 102.093C177.96 101.523 175.685 103.195 175.536 105.584L173.057 145.25C172.808 149.23 167.408 150.241 165.736 146.621L149.074 110.539C148.071 108.365 145.345 107.629 143.384 109.002L110.827 131.795C107.559 134.083 103.402 130.491 105.191 126.926L123.012 91.403C124.086 89.2633 122.962 86.6737 120.666 85.9965L82.5461 74.753C78.7208 73.6248 78.9367 68.1352 82.8388 67.3108L121.724 59.096C124.066 58.6013 125.39 56.1079 124.488 53.8905L109.511 17.0772C108.008 13.383 112.435 10.1291 115.512 12.6659L146.179 37.9456C148.026 39.4682 150.801 38.9487 151.972 36.8609L171.416 2.19892Z" fill="#7BF0A7"/>
<path d="M574.978 455.344C573.978 458.047 570.155 458.047 569.154 455.344L553.346 412.622C553.031 411.772 552.361 411.102 551.511 410.787L508.789 394.979C506.086 393.978 506.086 390.155 508.789 389.155L551.511 373.346C552.361 373.032 553.031 372.362 553.346 371.512L569.154 328.79C570.155 326.086 573.978 326.086 574.978 328.79L590.787 371.512C591.101 372.362 591.771 373.032 592.621 373.346L635.344 389.155C638.047 390.155 638.047 393.978 635.344 394.979L592.621 410.787C591.771 411.102 591.101 411.772 590.787 412.622L574.978 455.344Z" fill="#A380E5"/>
</svg>
