<svg width="135" height="135" viewBox="0 0 135 135" fill="none" xmlns="http://www.w3.org/2000/svg">
<circle cx="67.5" cy="67.5" r="65.5" fill="#262136" stroke="url(#paint0_linear_408_378)" stroke-width="3.02333"/>
<circle cx="67.4072" cy="67.4072" r="50.4072" fill="#262136" stroke="url(#paint1_linear_408_378)" stroke-width="3.02333"/>
<path fill-rule="evenodd" clip-rule="evenodd" d="M72.4893 73.9516C72.4533 74.0253 72.4152 74.0986 72.3752 74.1712C71.0434 76.5902 67.9832 77.5071 65.5641 76.1752L52.3802 68.9165C49.9612 67.5846 49.0994 64.5084 50.4312 62.0894C51.7631 59.6704 54.8233 58.7536 57.2423 60.0854L66.0024 64.9085L79.507 40.3802C80.8389 37.9612 83.9151 37.0994 86.3341 38.4312C88.7531 39.7631 89.6699 42.8233 88.3381 45.2423L72.8139 73.4387C72.715 73.6184 72.6065 73.7894 72.4893 73.9516Z" fill="#262136"/>
<path d="M72.4893 73.9516L71.2639 73.0665L71.1881 73.1714L71.1312 73.2877L72.4893 73.9516ZM72.3752 74.1712L71.051 73.4421L71.051 73.4421L72.3752 74.1712ZM65.5641 76.1752L64.8351 77.4995H64.8351L65.5641 76.1752ZM52.3802 68.9165L53.1093 67.5922H53.1093L52.3802 68.9165ZM50.4312 62.0894L49.107 61.3603L50.4312 62.0894ZM57.2423 60.0854L56.5132 61.4096H56.5132L57.2423 60.0854ZM66.0024 64.9085L65.2733 66.2327L66.5975 66.9618L67.3266 65.6376L66.0024 64.9085ZM79.507 40.3802L80.8313 41.1093L79.507 40.3802ZM86.3341 38.4312L85.605 39.7555V39.7555L86.3341 38.4312ZM88.3381 45.2423L89.6623 45.9714L88.3381 45.2423ZM72.8139 73.4387L74.1381 74.1678L74.1381 74.1678L72.8139 73.4387ZM71.1312 73.2877C71.1059 73.3395 71.0792 73.391 71.051 73.4421L73.6994 74.9003C73.7513 74.8061 73.8006 74.7111 73.8474 74.6154L71.1312 73.2877ZM71.051 73.4421C70.1142 75.1438 67.967 75.7726 66.2932 74.851L64.8351 77.4995C67.9993 79.2416 71.9726 78.0367 73.6995 74.9003L71.051 73.4421ZM66.2932 74.851L53.1093 67.5922L51.6511 70.2407L64.8351 77.4995L66.2932 74.851ZM53.1093 67.5922C51.4354 66.6707 50.8186 64.5201 51.7555 62.8185L49.107 61.3603C47.3802 64.4968 48.4869 68.4985 51.6511 70.2407L53.1093 67.5922ZM51.7555 62.8185C52.6923 61.1169 54.8394 60.4881 56.5132 61.4096L57.9714 58.7612C54.8072 57.0191 50.8338 58.2239 49.107 61.3603L51.7555 62.8185ZM56.5132 61.4096L65.2733 66.2327L66.7315 63.5843L57.9714 58.7612L56.5132 61.4096ZM67.3266 65.6376L80.8313 41.1093L78.1828 39.6511L64.6782 64.1794L67.3266 65.6376ZM80.8313 41.1093C81.7528 39.4354 83.9034 38.8186 85.605 39.7555L87.0632 37.107C83.9268 35.3802 79.925 36.4869 78.1828 39.6511L80.8313 41.1093ZM85.605 39.7555C87.3066 40.6923 87.9354 42.8394 87.0139 44.5132L89.6623 45.9714C91.4044 42.8072 90.1996 38.8338 87.0632 37.107L85.605 39.7555ZM87.0139 44.5132L71.4896 72.7097L74.1381 74.1678L89.6623 45.9714L87.0139 44.5132ZM71.4896 72.7097C71.4206 72.8351 71.3451 72.9541 71.2639 73.0665L73.7148 74.8367C73.8678 74.6247 74.0094 74.4016 74.1381 74.1678L71.4896 72.7097Z" fill="url(#paint2_linear_408_378)"/>
<defs>
<linearGradient id="paint0_linear_408_378" x1="2" y1="32.1416" x2="111.858" y2="81.0128" gradientUnits="userSpaceOnUse">
<stop offset="0.0520833" stop-color="#7BF0A7"/>
<stop offset="0.307292" stop-color="#44D5D2"/>
<stop offset="0.609375" stop-color="#A380E6"/>
<stop offset="0.916667" stop-color="#FE9C4A"/>
</linearGradient>
<linearGradient id="paint1_linear_408_378" x1="17" y1="40.1962" x2="101.544" y2="77.8063" gradientUnits="userSpaceOnUse">
<stop offset="0.0520833" stop-color="#7BF0A7"/>
<stop offset="0.307292" stop-color="#44D5D2"/>
<stop offset="0.609375" stop-color="#A380E6"/>
<stop offset="0.916667" stop-color="#FE9C4A"/>
</linearGradient>
<linearGradient id="paint2_linear_408_378" x1="51.7436" y1="59.7057" x2="55.6266" y2="76.1351" gradientUnits="userSpaceOnUse">
<stop offset="0.0520833" stop-color="#7BF0A7"/>
<stop offset="0.307292" stop-color="#44D5D2"/>
<stop offset="0.609375" stop-color="#A380E6"/>
<stop offset="0.916667" stop-color="#FE9C4A"/>
</linearGradient>
</defs>
</svg>
