<svg width="112" height="112" viewBox="0 0 112 112" fill="none" xmlns="http://www.w3.org/2000/svg">
<path d="M53.9532 2.6838C54.8028 0.387876 58.0501 0.387874 58.8997 2.6838L72.3263 38.9686C72.5934 39.6904 73.1625 40.2595 73.8843 40.5266L110.169 53.9532C112.465 54.8028 112.465 58.0501 110.169 58.8997L73.8843 72.3263C73.1625 72.5934 72.5934 73.1625 72.3263 73.8843L58.8997 110.169C58.0501 112.465 54.8028 112.465 53.9532 110.169L40.5266 73.8843C40.2595 73.1625 39.6904 72.5934 38.9686 72.3263L2.6838 58.8997C0.387876 58.0501 0.387874 54.8028 2.6838 53.9532L38.9686 40.5266C39.6904 40.2595 40.2595 39.6904 40.5266 38.9686L53.9532 2.6838Z" fill="#44C6E6"/>
</svg>
