<svg width="488" height="175" viewBox="0 0 488 175" fill="none" xmlns="http://www.w3.org/2000/svg">
<rect x="337.069" width="150.772" height="116.879" fill="#7BF0A7"/>
<rect x="44" y="12" width="427.169" height="119" fill="#262136"/>
<path d="M53.0792 90.099C53.9951 88.4556 56.4991 89.1361 56.4688 91.0202L56.0849 114.871C56.0666 116.003 57.0774 116.877 58.1921 116.693L81.5897 112.845C83.4422 112.54 84.4812 114.916 82.9988 116.067L64.1923 130.667C63.3051 131.356 63.2552 132.682 64.0879 133.44L81.7007 149.485C83.0908 150.751 81.88 153.034 80.0569 152.584L57.0041 146.891C55.9094 146.621 54.8397 147.407 54.7697 148.533L53.2898 172.367C53.1731 174.246 50.6261 174.715 49.8401 173.002L39.908 151.353C39.4349 150.322 38.1448 149.971 37.2204 150.622L17.8124 164.298C16.2765 165.38 14.3103 163.685 15.1493 162.002L25.7883 140.657C26.2911 139.648 25.7598 138.427 24.6787 138.106L1.91179 131.347C0.111358 130.813 0.206488 128.227 2.04093 127.837L25.2835 122.895C26.3824 122.661 27.0021 121.49 26.5799 120.446L17.6297 98.3027C16.9242 96.5572 19.0101 95.0305 20.4585 96.2322L38.7522 111.411C39.6238 112.134 40.9344 111.89 41.4846 110.903L53.0792 90.099Z" fill="#FE9C4A"/>
</svg>



