<svg width="134" height="135" viewBox="0 0 134 135" fill="none" xmlns="http://www.w3.org/2000/svg">
<path d="M83.9224 1.82792C85.6919 -1.32649 90.5018 -0.0278145 90.4432 3.58854L89.8593 39.6259C89.8242 41.7966 91.7615 43.4702 93.904 43.1201L129.474 37.3075C133.044 36.7242 135.027 41.2945 132.163 43.5034L103.624 65.5159C101.905 66.8417 101.805 69.3999 103.414 70.8567L130.136 95.0426C132.818 97.4696 130.482 101.87 126.969 101.008L91.965 92.4198C89.8566 91.9025 87.7938 93.4189 87.6584 95.5855L85.4101 131.557C85.1845 135.167 80.2874 136.084 78.7711 132.801L63.6612 100.079C62.7511 98.1077 60.2794 97.4403 58.501 98.6853L28.9753 119.356C26.0123 121.43 22.2422 118.173 23.8641 114.94L40.0262 82.7249C40.9997 80.7845 39.9804 78.4361 37.8982 77.8219L3.3284 67.6255C-0.140679 66.6023 0.0551218 61.6239 3.59385 60.8763L38.8577 53.4266C40.9817 52.9778 42.1823 50.7167 41.3642 48.7058L27.7822 15.3207C26.4192 11.9705 30.4335 9.01964 33.2244 11.3202L61.0355 34.2457C62.7106 35.6266 65.227 35.1554 66.2891 33.262L83.9224 1.82792Z" fill="#FE9C4A"/>
</svg>
