<svg width="354" height="140" viewBox="0 0 354 140" fill="none" xmlns="http://www.w3.org/2000/svg">
<rect y="41.1591" width="84.2291" height="98.6957" fill="#C2A3FD"/>
<rect x="8.10249" y="28" width="316.898" height="102" fill="#262136"/>
<path d="M321.35 1.50089C321.66 0.308816 323.286 0.145957 323.826 1.25281L332.368 18.7456C332.538 19.0936 332.852 19.35 333.226 19.4475L352.066 24.3498C353.258 24.66 353.421 26.2858 352.314 26.8263L334.821 35.3681C334.473 35.5381 334.217 35.8515 334.119 36.2263L329.217 55.0659C328.907 56.258 327.281 56.4208 326.741 55.314L318.199 37.8212C318.029 37.4732 317.715 37.2168 317.34 37.1193L298.501 32.217C297.309 31.9068 297.146 30.281 298.253 29.7405L315.746 21.1986C316.094 21.0287 316.35 20.7152 316.447 20.3404L321.35 1.50089Z" fill="#44C6E6"/>
</svg>

