<svg width="245" height="392" viewBox="0 0 245 392" fill="none" xmlns="http://www.w3.org/2000/svg">
<path d="M35.2378 311.469L2.83909 334.368C2.31287 334.74 2 335.344 2 335.989V388.209C2 389.305 2.88849 390.194 3.98451 390.194H156.558C156.969 390.194 157.369 390.067 157.704 389.83L190.469 366.671C190.996 366.299 191.308 365.695 191.308 365.051V313.089C191.308 311.993 190.42 311.105 189.324 311.105H36.3832C35.973 311.105 35.5728 311.232 35.2378 311.469Z" fill="#262136" stroke="url(#paint0_linear_128_1227)" stroke-width="3.02333"/>
<path d="M35.2378 271.971L2.83909 294.87C2.31287 295.242 2 295.846 2 296.491V348.711C2 349.807 2.88849 350.696 3.98451 350.696H156.558C156.969 350.696 157.369 350.569 157.704 350.332L190.469 327.173C190.996 326.801 191.308 326.197 191.308 325.553V273.591C191.308 272.495 190.42 271.607 189.324 271.607H36.3832C35.973 271.607 35.5728 271.734 35.2378 271.971Z" fill="#262136" stroke="url(#paint1_linear_128_1227)" stroke-width="3.02333"/>
<path d="M35.2378 218.272L2.83909 241.171C2.31287 241.543 2 242.147 2 242.792V295.012C2 296.108 2.88849 296.997 3.98451 296.997H156.558C156.969 296.997 157.369 296.869 157.704 296.633L190.469 273.474C190.996 273.102 191.308 272.498 191.308 271.853V219.892C191.308 218.796 190.42 217.908 189.324 217.908H36.3832C35.973 217.908 35.5728 218.035 35.2378 218.272Z" fill="#262136" stroke="url(#paint2_linear_128_1227)" stroke-width="3.02333"/>
<path d="M57.8353 121.012L20.1285 133.351C19.5161 133.552 19.0391 134.037 18.8493 134.653L3.46594 184.556C3.14307 185.603 3.7304 186.714 4.77778 187.037L150.581 231.983C150.973 232.104 151.393 232.1 151.783 231.973L189.917 219.494C190.529 219.293 191.006 218.808 191.196 218.192L206.503 168.537C206.826 167.489 206.239 166.379 205.191 166.056L59.0372 121.002C58.6451 120.881 58.2252 120.885 57.8353 121.012Z" fill="#262136" stroke="url(#paint3_linear_128_1227)" stroke-width="3.02333"/>
<path d="M127.334 22.5425L87.9406 17.8301C87.3007 17.7535 86.6636 17.9924 86.2318 18.4707L51.2393 57.2329C50.5048 58.0465 50.569 59.3013 51.3825 60.0358L164.635 162.274C164.939 162.549 165.322 162.723 165.729 162.772L205.568 167.537C206.208 167.614 206.845 167.375 207.277 166.897L242.096 128.327C242.83 127.514 242.766 126.259 241.953 125.524L128.428 23.0399C128.124 22.765 127.741 22.5912 127.334 22.5425Z" fill="#262136" stroke="url(#paint4_linear_128_1227)" stroke-width="3.02333"/>
<defs>
<linearGradient id="paint0_linear_128_1227" x1="2" y1="329.302" x2="91.1228" y2="424.202" gradientUnits="userSpaceOnUse">
<stop offset="0.0520833" stop-color="#7BF0A7"/>
<stop offset="0.307292" stop-color="#44D5D2"/>
<stop offset="0.609375" stop-color="#A380E6"/>
<stop offset="0.916667" stop-color="#FE9C4A"/>
</linearGradient>
<linearGradient id="paint1_linear_128_1227" x1="2" y1="289.804" x2="91.1228" y2="384.704" gradientUnits="userSpaceOnUse">
<stop offset="0.0520833" stop-color="#7BF0A7"/>
<stop offset="0.307292" stop-color="#44D5D2"/>
<stop offset="0.609375" stop-color="#A380E6"/>
<stop offset="0.916667" stop-color="#FE9C4A"/>
</linearGradient>
<linearGradient id="paint2_linear_128_1227" x1="2" y1="236.105" x2="91.1228" y2="331.005" gradientUnits="userSpaceOnUse">
<stop offset="0.0520833" stop-color="#7BF0A7"/>
<stop offset="0.307292" stop-color="#44D5D2"/>
<stop offset="0.609375" stop-color="#A380E6"/>
<stop offset="0.916667" stop-color="#FE9C4A"/>
</linearGradient>
<linearGradient id="paint3_linear_128_1227" x1="20.819" y1="128.263" x2="78.0311" y2="245.206" gradientUnits="userSpaceOnUse">
<stop offset="0.0520833" stop-color="#7BF0A7"/>
<stop offset="0.307292" stop-color="#44D5D2"/>
<stop offset="0.609375" stop-color="#A380E6"/>
<stop offset="0.916667" stop-color="#FE9C4A"/>
</linearGradient>
<linearGradient id="paint4_linear_128_1227" x1="90.7123" y1="13.5076" x2="93.2748" y2="143.67" gradientUnits="userSpaceOnUse">
<stop offset="0.0520833" stop-color="#7BF0A7"/>
<stop offset="0.307292" stop-color="#44D5D2"/>
<stop offset="0.609375" stop-color="#A380E6"/>
<stop offset="0.916667" stop-color="#FE9C4A"/>
</linearGradient>
</defs>
</svg>
