<svg width="341" height="78" viewBox="0 0 341 78" fill="none" xmlns="http://www.w3.org/2000/svg">
<path d="M-31.5517 45.5791C-33.6732 47.5407 -33.8027 50.8506 -31.8411 52.972C-29.8796 55.0934 -26.5697 55.223 -24.4483 53.2614L-31.5517 45.5791ZM86.136 6.09634L86.3575 11.3232L86.136 6.09634ZM219.693 19.8405L219.362 25.0616L219.693 19.8405ZM341 77.8049L328.975 18.6048L283.719 58.6185L341 77.8049ZM-24.4483 53.2614C-10.6558 40.508 31.3904 13.6523 86.3575 11.3232L85.9146 0.869463C28.0603 3.32091 -16.2625 31.4417 -31.5517 45.5791L-24.4483 53.2614ZM86.3575 11.3232C103.499 10.5969 111.646 14.2835 115.124 18.2954C118.402 22.0767 118.867 27.8013 116.189 35.0132C113.546 42.1332 108.198 49.4817 102.163 54.8269C99.1651 57.4822 96.1393 59.5155 93.3751 60.7775C90.5606 62.0624 88.3804 62.3861 86.8854 62.1697L85.3866 72.525C89.5686 73.1303 93.8496 72.0628 97.7204 70.2956C101.642 68.5055 105.525 65.826 109.1 62.6597C116.212 56.3616 122.666 47.6317 125.998 38.6546C129.297 29.7694 129.911 19.3783 123.03 11.4416C116.349 3.73547 104.029 0.101888 85.9146 0.869463L86.3575 11.3232ZM86.8854 62.1697C85.0135 61.8988 85.2304 61.3694 85.473 61.903C85.6364 62.2622 85.2022 61.8044 86.1701 59.8876C88.0901 56.0855 93.8131 50.217 104.491 44.2368C125.508 32.4655 163.526 21.5258 219.362 25.0616L220.024 14.6194C162.621 10.9844 122.506 22.1548 99.3779 35.1079C87.9828 41.49 80.1297 48.6373 76.8302 55.1713C75.1884 58.4226 74.2337 62.4628 75.9482 66.2336C77.7419 70.1788 81.5817 71.9743 85.3866 72.525L86.8854 62.1697ZM219.362 25.0616C261.354 27.7207 289.278 36.7934 307.214 47.073L312.417 37.9951C292.748 26.7221 263.165 17.3513 220.024 14.6194L219.362 25.0616Z" fill="url(#paint0_linear_123_713)"/>
<defs>
<linearGradient id="paint0_linear_123_713" x1="-28" y1="22.5215" x2="31.5364" y2="158.627" gradientUnits="userSpaceOnUse">
<stop offset="0.0520833" stop-color="#7BF0A7"/>
<stop offset="0.307292" stop-color="#44D5D2"/>
<stop offset="0.609375" stop-color="#A380E6"/>
<stop offset="0.916667" stop-color="#FE9C4A"/>
</linearGradient>
</defs>
</svg>
